<svg width="20" height="16" viewBox="0 0 20 16" fill="none" xmlns="http://www.w3.org/2000/svg">
<path d="M1.66797 3.83594L8.47207 8.59881C9.02304 8.98449 9.29853 9.17733 9.59819 9.25203C9.86288 9.31801 10.1397 9.31801 10.4044 9.25203C10.7041 9.17733 10.9796 8.98449 11.5305 8.59881L18.3346 3.83594M5.66797 14.6693H14.3346C15.7348 14.6693 16.4348 14.6693 16.9696 14.3968C17.44 14.1571 17.8225 13.7747 18.0622 13.3042C18.3346 12.7695 18.3346 12.0694 18.3346 10.6693V5.33594C18.3346 3.93581 18.3346 3.23574 18.0622 2.70096C17.8225 2.23056 17.44 1.8481 16.9696 1.60842C16.4348 1.33594 15.7348 1.33594 14.3346 1.33594H5.66797C4.26784 1.33594 3.56777 1.33594 3.03299 1.60842C2.56259 1.8481 2.18014 2.23056 1.94045 2.70096C1.66797 3.23574 1.66797 3.93581 1.66797 5.33594V10.6693C1.66797 12.0694 1.66797 12.7695 1.94045 13.3042C2.18014 13.7747 2.56259 14.1571 3.03299 14.3968C3.56777 14.6693 4.26784 14.6693 5.66797 14.6693Z" stroke="#667085" stroke-width="1.66667" stroke-linecap="round" stroke-linejoin="round"/>
</svg>
