<svg width="23" height="23" viewBox="0 0 23 23" fill="none" xmlns="http://www.w3.org/2000/svg">
<path d="M14.3118 22.6979H8.68685C3.54102 22.6979 1.35352 20.5 1.35352 15.3646V10.6875C1.35352 10.2604 1.70768 9.90625 2.13477 9.90625C2.56185 9.90625 2.91602 10.2604 2.91602 10.6875V15.3646C2.91602 19.625 4.42643 21.1354 8.68685 21.1354H14.3014C18.5618 21.1354 20.0723 19.625 20.0723 15.3646V10.6875C20.0723 10.2604 20.4264 9.90625 20.8535 9.90625C21.2806 9.90625 21.6348 10.2604 21.6348 10.6875V15.3646C21.6452 20.5 19.4473 22.6979 14.3118 22.6979Z" fill="#1AA998"/>
<path d="M11.4995 12.2839C10.3536 12.2839 9.31197 11.8359 8.57239 11.013C7.83281 10.1901 7.48906 9.11719 7.60364 7.97135L8.30156 1.01302C8.34322 0.617187 8.67656 0.304688 9.08281 0.304688H13.9474C14.3536 0.304688 14.687 0.606771 14.7286 1.01302L15.4266 7.97135C15.5411 9.11719 15.1974 10.1901 14.4578 11.013C13.687 11.8359 12.6453 12.2839 11.4995 12.2839ZM9.78072 1.86719L9.15572 8.12761C9.08281 8.82552 9.29114 9.48177 9.72864 9.96094C10.6141 10.9401 12.3849 10.9401 13.2703 9.96094C13.7078 9.47136 13.9161 8.81511 13.8432 8.12761L13.2182 1.86719H9.78072Z" fill="#1AA998"/>
<path d="M18.0725 12.2839C15.9579 12.2839 14.0725 10.5755 13.8538 8.47135L13.1246 1.16927C13.1038 0.950521 13.1767 0.731771 13.3225 0.565104C13.4683 0.398438 13.6767 0.304688 13.9058 0.304688H17.0829C20.1454 0.304688 21.5725 1.58594 21.9996 4.73177L22.2913 7.6276C22.4163 8.85677 22.0413 10.0234 21.2392 10.9089C20.4371 11.7943 19.3121 12.2839 18.0725 12.2839ZM14.7704 1.86719L15.4163 8.3151C15.5517 9.61719 16.76 10.7214 18.0725 10.7214C18.8642 10.7214 19.5725 10.4193 20.0829 9.86719C20.5829 9.31511 20.8121 8.57552 20.7392 7.78386L20.4475 4.91927C20.1246 2.5651 19.3642 1.86719 17.0829 1.86719H14.7704V1.86719Z" fill="#1AA998"/>
<path d="M4.87514 12.2839C3.63556 12.2839 2.51056 11.7943 1.70848 10.9089C0.906394 10.0234 0.531394 8.85677 0.656394 7.6276L0.937644 4.76302C1.37514 1.58594 2.80223 0.304688 5.86473 0.304688H9.04181C9.26056 0.304688 9.46889 0.398438 9.62514 0.565104C9.78139 0.731771 9.84389 0.950521 9.82306 1.16927L9.09389 8.47135C8.87514 10.5755 6.98973 12.2839 4.87514 12.2839ZM5.86473 1.86719C3.58348 1.86719 2.82306 2.55469 2.48973 4.9401L2.20848 7.78386C2.12514 8.57552 2.36473 9.31511 2.86473 9.86719C3.36473 10.4193 4.07306 10.7214 4.87514 10.7214C6.18764 10.7214 7.40639 9.61719 7.53139 8.3151L8.17723 1.86719H5.86473V1.86719Z" fill="#1AA998"/>
<path d="M14.1048 22.7005H8.89648C8.4694 22.7005 8.11523 22.3464 8.11523 21.9193V19.3151C8.11523 17.1276 9.31315 15.9297 11.5007 15.9297C13.6882 15.9297 14.8861 17.1276 14.8861 19.3151V21.9193C14.8861 22.3464 14.5319 22.7005 14.1048 22.7005ZM9.67773 21.138H13.3236V19.3151C13.3236 18.0026 12.8132 17.4922 11.5007 17.4922C10.1882 17.4922 9.67773 18.0026 9.67773 19.3151V21.138Z" fill="#1AA998"/>
</svg>
