<svg width="40" height="40" viewBox="0 0 40 40" fill="none" xmlns="http://www.w3.org/2000/svg">
<path d="M0 20C0 8.95431 8.95431 0 20 0C31.0457 0 40 8.95431 40 20C40 31.0457 31.0457 40 20 40C8.95431 40 0 31.0457 0 20Z" fill="#F2F4F7"/>
<path d="M11.1719 15.4375L20.0019 20.5475L28.7719 15.4675" stroke="#344054" stroke-width="1.5" stroke-linecap="round" stroke-linejoin="round"/>
<path d="M20 29.6091V20.5391" stroke="#344054" stroke-width="1.5" stroke-linecap="round" stroke-linejoin="round"/>
<path d="M17.9306 10.4813L12.5906 13.4413C11.3806 14.1113 10.3906 15.7913 10.3906 17.1713V22.8213C10.3906 24.2013 11.3806 25.8813 12.5906 26.5513L17.9306 29.5213C19.0706 30.1513 20.9406 30.1513 22.0806 29.5213L27.4206 26.5513C28.6306 25.8813 29.6206 24.2013 29.6206 22.8213V17.1713C29.6206 15.7913 28.6306 14.1113 27.4206 13.4413L22.0806 10.4713C20.9306 9.84126 19.0706 9.84126 17.9306 10.4813Z" stroke="#344054" stroke-width="1.5" stroke-linecap="round" stroke-linejoin="round"/>
</svg>
