<svg width="21" height="23" viewBox="0 0 21 23" fill="none" xmlns="http://www.w3.org/2000/svg">
<path d="M14.6673 5.2526C14.6673 2.95142 12.8018 1.08594 10.5007 1.08594C8.19946 1.08594 6.33398 2.95142 6.33398 5.2526" stroke="#DFB64B" stroke-width="1.5" stroke-linecap="round" stroke-linejoin="round"/>
<path d="M2.75219 8.89985C3.01283 6.81473 4.78534 5.25 6.88668 5.25H14.1135C16.2148 5.25 17.9873 6.81474 18.248 8.89986L19.2897 17.2332C19.6005 19.7201 17.6614 21.9167 15.1552 21.9167H5.84501C3.33877 21.9167 1.39966 19.7201 1.71052 17.2332L2.75219 8.89985Z" stroke="#DFB64B" stroke-width="1.5" stroke-linejoin="round"/>
<path d="M10.7753 11.2205L10.4991 11.4967L10.2229 11.2205C9.46012 10.4578 8.22347 10.4578 7.46073 11.2205C6.69799 11.9832 6.69799 13.2199 7.46073 13.9826L9.39422 15.9161C10.0044 16.5263 10.9937 16.5263 11.6039 15.9161L13.5374 13.9826C14.3002 13.2199 14.3002 11.9832 13.5374 11.2205C12.7747 10.4578 11.538 10.4578 10.7753 11.2205Z" stroke="#DFB64B" stroke-width="1.5" stroke-linejoin="round"/>
</svg>
