<svg width="143" height="61" viewBox="0 0 143 61" fill="none" xmlns="http://www.w3.org/2000/svg">
<path d="M59.8351 49.4339H55.7588V39.9648C55.7588 38.8659 55.5861 38.0939 55.2367 37.6404C54.8311 37.1094 54.1203 36.8479 53.0962 36.8479C52.0721 36.8479 51.317 37.1911 50.7668 37.8774C50.2166 38.5636 49.9435 39.4256 49.9435 40.4673V49.438H45.8672V28.2898H49.9435V35.8185C50.2528 35.1322 50.8311 34.5848 51.6785 34.1722C52.5259 33.7597 53.4616 33.5554 54.4817 33.5554C55.9476 33.5554 57.1725 33.9476 58.1524 34.7319C59.2689 35.6347 59.8311 36.9174 59.8311 38.5841V49.438L59.8351 49.4339Z" fill="#1AA998"/>
<path d="M75.2206 50.3162C75.2206 52.3955 74.4896 54.0622 73.0238 55.3163C71.6744 56.4356 70.0559 56.9911 68.1643 56.9911C66.2728 56.9911 64.7506 56.4356 63.4816 55.3326C62.0759 54.0867 61.3691 52.3955 61.3691 50.259H65.1442C65.1442 51.2599 65.4334 52.0442 66.0077 52.612C66.5057 53.1226 67.1402 53.3759 67.9113 53.3759C68.7587 53.3759 69.4977 53.0859 70.1322 52.5017C70.8029 51.8399 71.1402 50.9739 71.1402 49.9077V47.4976C70.8511 48.2043 70.329 48.7517 69.5699 49.1438C68.8109 49.536 67.9595 49.7321 67.0197 49.7321C65.5217 49.7321 64.2406 49.2827 63.1844 48.3799C61.9715 47.3423 61.3691 45.9085 61.3691 44.0866V33.7637H65.4454V43.4697C65.4454 45.4101 66.3089 46.3824 68.0358 46.3824C68.9555 46.3824 69.7025 46.1087 70.2808 45.5572C70.8551 45.0098 71.1442 44.3113 71.1442 43.4697V33.7637H75.2206V50.3244V50.3162Z" fill="#1AA998"/>
<path d="M91.3853 50.3162C91.3853 52.3955 90.5861 54.0622 88.9837 55.3163C87.5178 56.4356 85.7548 56.9911 83.6905 56.9911C81.6262 56.9911 79.9596 56.4356 78.574 55.3326C77.0319 54.0867 76.2608 52.3955 76.2608 50.259H80.0399C80.0399 51.2599 80.3853 52.0442 81.076 52.612C81.6905 53.1226 82.4696 53.3759 83.4134 53.3759C84.4335 53.3759 85.317 53.0859 86.068 52.5017C86.8953 51.8399 87.309 50.9739 87.309 49.9077V47.4976C87.0198 48.2043 86.4897 48.7517 85.7226 49.1438C84.9516 49.536 84.0801 49.7321 83.0961 49.7321C81.5178 49.7321 80.1363 49.2827 78.9435 48.3799C77.578 47.3423 76.7788 45.9085 76.5499 44.0866C76.3772 42.714 76.2889 41.6928 76.2889 41.0269C76.2889 39.6748 76.578 38.3716 77.1523 37.1135C77.6905 35.937 78.5017 35.0056 79.5901 34.3193C80.6744 33.633 81.807 33.2899 82.9797 33.2899C84.8632 33.2899 86.2769 34.0946 87.2206 35.7C87.2407 35.7 87.2608 35.7082 87.2769 35.7286V33.7597H91.3813V50.3203L91.3853 50.3162ZM87.3933 41.9624C87.3933 38.5922 86.2528 36.9051 83.9676 36.9051C81.6825 36.9051 80.5138 38.5146 80.5138 41.7295C80.5138 43.241 80.8793 44.4338 81.6062 45.3162C82.2407 46.1005 83.0279 46.4926 83.9676 46.4926C84.9074 46.4926 85.6745 46.1087 86.3291 45.3448C87.0399 44.5033 87.3933 43.3758 87.3933 41.9624Z" fill="#1AA998"/>
<path d="M96.9636 31.9051H92.8873V28.0529H96.9636V31.9051ZM96.9636 49.4339H92.8873V33.7556H96.9636V49.4339Z" fill="#1AA998"/>
<path d="M111.393 49.4339H98.0921V46.2353L105.988 37.1094H98.6423V33.7556H111.132V37.1461L103.325 46.0801H111.393V49.4339Z" fill="#1AA998"/>
<path d="M127.759 41.611C127.759 44.1029 127.056 46.0964 125.646 47.5956C124.241 49.0948 122.329 49.8464 119.92 49.8464C117.51 49.8464 115.538 49.0866 114.12 47.567C112.703 46.0474 111.996 44.0621 111.996 41.611C111.996 39.16 112.699 37.1461 114.108 35.6265C115.514 34.1069 117.454 33.3471 119.92 33.3471C122.385 33.3471 124.325 34.1232 125.731 35.6714C127.08 37.1829 127.755 39.16 127.755 41.611H127.759ZM123.622 41.611C123.622 38.4329 122.389 36.8479 119.92 36.8479C117.45 36.8479 116.189 38.437 116.189 41.611C116.189 44.7851 117.434 46.3742 119.92 46.3742C122.405 46.3742 123.622 44.7851 123.622 41.611Z" fill="#1AA998"/>
<path d="M143 49.4339H138.924V39.9648C138.924 38.8659 138.759 38.0938 138.434 37.6404C138.028 37.1094 137.305 36.8479 136.265 36.8479C134.165 36.8479 133.112 38.053 133.112 40.4672V49.4379H129.036V33.7596H132.94V35.2303C132.94 35.7981 132.948 36.084 132.968 36.084C132.968 36.0636 132.976 36.0554 132.996 36.0554C133.478 35.1935 134.169 34.5195 135.064 34.0415C135.96 33.5636 136.912 33.3226 137.912 33.3226C139.956 33.3226 141.438 34.1355 142.365 35.7654C142.791 36.5497 143 37.4893 143 38.5881V49.442V49.4339Z" fill="#1AA998"/>
<path d="M25.3208 21.5822C24.61 21.6721 23.9473 21.284 23.6461 20.6631C23.5698 20.5038 20.5176 4.92761 20.4051 4.02891C20.2164 2.50928 21.2766 1.12038 22.7746 0.928381C24.2726 0.736386 25.634 1.81483 25.8228 3.33854C25.9353 4.24133 26.7586 20.0953 26.7224 20.2709C26.5859 20.949 26.0357 21.4964 25.3208 21.5863V21.5822Z" fill="#DFB64B"/>
<path d="M37.7948 21.5536C37.835 21.4025 42.5378 12.4359 42.9675 11.7782C43.6904 10.6711 45.1603 10.3729 46.2447 11.1082C47.333 11.8435 47.6262 13.3387 46.9033 14.4416C46.4736 15.0952 40.1523 22.967 40.0318 23.061C39.5619 23.4246 38.8993 23.4695 38.3812 23.1182C37.8631 22.7669 37.6462 22.1296 37.7948 21.5495V21.5536Z" fill="#DFB64B"/>
<path d="M0.714336 25.7408C1.87097 24.2293 4.01154 23.9556 5.5015 25.1321C6.38102 25.8306 14.7104 34.2213 14.8308 34.4051C15.2967 35.1281 15.2887 36.1045 14.7345 36.8275C14.1843 37.5465 13.2606 37.7997 12.4573 37.5179C12.2485 37.4443 2.19627 31.3046 1.31675 30.6101C-0.169202 29.4336 -0.438279 27.2563 0.718352 25.7408H0.714336Z" fill="#DFB64B"/>
<path d="M33.843 21.2432C33.4936 21.8396 32.8029 22.1705 32.0961 22.0234C31.3932 21.8723 30.8912 21.284 30.8069 20.5977C30.7868 20.418 32.6141 6.04282 32.7948 5.15229C33.1041 3.65309 34.5539 2.69311 36.0278 3.00766C37.5017 3.3222 38.4455 4.79689 38.1362 6.29609C37.9515 7.18663 33.9274 21.0879 33.839 21.2432H33.843Z" fill="#DFB64B"/>
<path d="M18.859 23.7105C18.2125 24.0332 17.4614 23.8821 16.9795 23.396C16.855 23.2693 9.5819 10.8059 9.18833 9.99302C8.52166 8.61637 9.07989 6.95377 10.4333 6.27974C11.7867 5.60163 13.4213 6.16945 14.0879 7.5461C14.4815 8.3631 19.7426 21.8355 19.7627 22.0111C19.847 22.6974 19.5056 23.3919 18.859 23.7146V23.7105Z" fill="#DFB64B"/>
<path d="M30.5485 29.7399C30.7253 29.7399 30.902 29.7438 31.0866 29.7553C35.7529 30.0557 38.2588 34.088 38.4984 34.4885C40.1795 37.7544 39.7278 41.6866 37.3633 44.4557C35.5918 46.5277 32.972 47.6831 30.2578 47.6831C29.5273 47.6831 28.7849 47.5983 28.0543 47.425C29.0677 50.4907 30.0811 53.5563 31.0945 56.6219C30.4817 56.3985 22.0723 53.1558 20.4422 44.9987C20.3126 44.3555 19.0243 37.3115 23.7298 32.8325C24.5154 32.0853 26.9428 29.736 30.5485 29.736M30.3678 41.9523C32.0529 41.9523 33.4237 40.6121 33.4237 38.956C33.4237 37.3 32.0568 35.9597 30.3678 35.9597C28.6789 35.9597 27.312 37.3 27.312 38.956C27.312 40.6121 28.6789 41.9523 30.3678 41.9523ZM30.5485 26.2699C27.2295 26.2699 24.1147 27.6332 21.2906 30.3214L21.2671 30.3446C15.2614 36.0599 16.7775 44.6983 16.97 45.665C18.9536 55.6052 28.7417 59.4603 29.8494 59.8685C30.2539 60.0149 30.6703 60.0881 31.0866 60.0881C31.9822 60.0881 32.862 59.753 33.5297 59.1253C34.5117 58.2048 34.8691 56.8183 34.4488 55.5513L32.9052 50.8758C35.69 50.3058 38.2117 48.8423 40.0617 46.6779C43.3493 42.8343 43.9699 37.4348 41.6446 32.9211C41.6093 32.8556 41.5739 32.7901 41.5386 32.7285C40.9376 31.7233 37.6186 26.6974 31.3105 26.293C31.0552 26.2776 30.796 26.2699 30.5446 26.2699H30.5485Z" fill="#1AA998"/>
<path d="M57.44 24.16C54.32 24.16 52.72 22.608 52.72 20.368H54.976C55.024 21.792 55.968 22.416 57.488 22.416C59.024 22.416 59.792 21.808 59.792 20.768C59.792 19.456 58.48 19.264 56.8 18.928C54.544 18.48 53.008 17.664 53.008 15.616C53.008 13.392 54.768 12.192 57.424 12.192C60.304 12.192 61.872 13.488 61.92 15.664H59.664C59.616 14.544 58.864 13.888 57.424 13.888C56.16 13.888 55.376 14.448 55.376 15.36C55.376 16.544 56.48 16.72 58.16 17.024C60.368 17.424 62.16 18.144 62.16 20.592C62.16 23.008 60.272 24.16 57.44 24.16ZM67.6899 24.16C64.9059 24.16 63.5619 22.4 63.5619 19.76V19.632C63.5619 16.848 65.1779 15.312 67.5299 15.312C70.0739 15.312 71.5139 16.896 71.5139 19.248V20.272H65.6899V20.768C65.6899 21.856 66.4739 22.56 67.6259 22.56C68.6339 22.56 69.3379 22.048 69.4499 21.264H71.4339C71.3219 22.992 69.8019 24.16 67.6899 24.16ZM65.6899 18.864V18.944H69.4499V18.864C69.4499 17.472 68.6979 16.88 67.5939 16.88C66.3779 16.88 65.6899 17.616 65.6899 18.864ZM73.3886 24V12.336H75.4846V24H73.3886ZM77.9824 24V12.336H80.0784V24H77.9824ZM86.0961 24.16C83.3121 24.16 81.9681 22.4 81.9681 19.76V19.632C81.9681 16.848 83.5841 15.312 85.9361 15.312C88.4801 15.312 89.9201 16.896 89.9201 19.248V20.272H84.0961V20.768C84.0961 21.856 84.8801 22.56 86.0321 22.56C87.0401 22.56 87.7441 22.048 87.8561 21.264H89.8401C89.7281 22.992 88.2081 24.16 86.0961 24.16ZM84.0961 18.864V18.944H87.8561V18.864C87.8561 17.472 87.1041 16.88 86.0001 16.88C84.7841 16.88 84.0961 17.616 84.0961 18.864ZM91.7949 24V17.184C91.7949 16.128 92.4829 15.472 93.5069 15.472H96.9789V17.168H93.8909V24H91.7949Z" fill="#1AA998"/>
</svg>
