<svg width="226" height="180" viewBox="0 0 226 180" fill="none" xmlns="http://www.w3.org/2000/svg">
<g clip-path="url(#clip0_6253_78160)">
<path d="M193.933 74.4906C189.558 68.5296 184.33 62.7856 177.186 59.9727C171.729 57.8266 165.527 57.5584 159.495 58.1225C137.84 60.1542 118.247 72.23 97.1048 77.7926C79.8759 82.3255 61.5383 82.5503 45.1458 89.5528C26.1218 97.6796 11.4928 115.05 7.59487 134.14C4.31242 150.212 8.73111 167.073 19.0401 179.5H210.176C221.467 143.73 215.656 104.067 193.933 74.4866V74.4906Z" fill="#F7F2E6"/>
<path d="M118.505 47.3167C126.766 38.8388 125.314 24.9561 115.775 17.9418C105.249 10.1976 91.4757 6.74966 78.6339 9.38102C69.9425 11.1602 60.9592 16.5571 59.168 25.2441C57.799 31.8797 61.1328 38.8388 66.23 43.3007C71.3273 47.7625 77.9356 50.098 84.5242 51.68C94.411 54.0588 105.256 54.8597 114.39 50.382C115.913 49.6364 117.278 48.5713 118.501 47.3167H118.505Z" fill="#F7F2E6"/>
<path d="M18.6711 73.094C12.0746 69.1529 10.6741 60.2015 15.4873 54.2129C20.7976 47.601 28.8657 43.1431 37.3558 42.6539C43.1041 42.3225 49.6374 44.2083 52.2097 49.3605C54.1745 53.2937 53.2434 58.2172 50.7894 61.8624C48.3355 65.5077 44.5796 68.0759 40.7093 70.1668C34.9019 73.307 28.2344 75.6149 21.7603 74.3288C20.6832 74.1158 19.6456 73.6739 18.6711 73.0901V73.094Z" fill="#F7F2E6"/>
<path d="M8.1404 162.057L8.04571 161.473L9.18589 161.292C-0.515493 140.703 2.80641 117.052 18.114 97.954C26.6673 87.2826 38.1046 79.1045 51.1989 74.3033C65.2243 69.159 80.4766 68.2516 95.3029 71.6799L95.1688 72.2558C80.453 68.8552 65.319 69.7507 51.4001 74.8556C38.4084 79.6213 27.0579 87.7323 18.5756 98.3209C3.33113 117.352 0.0841849 140.931 9.89209 161.395L10.0617 161.754L8.1404 162.057Z" fill="#EEE8D7"/>
<path d="M45.0258 168.113C44.0079 162.713 41.4238 157.856 38.2755 153.915C36.9183 152.219 35.4191 150.641 33.6753 149.721C32.7403 149.228 31.7224 148.913 30.9491 148.065C29.5288 146.514 29.4539 143.859 29.1146 141.551C28.7201 138.865 27.7574 136.198 26.1083 134.383C25.0589 133.231 23.4452 131.87 22.021 132.312C18.131 133.519 18.9121 140.999 19.429 144.826C20.1155 149.915 20.9834 156.992 25.3153 159.067C25.7808 159.288 26.27 159.478 26.6448 159.9C27.0473 160.353 27.2603 161.016 27.3787 161.675C27.9034 164.638 26.8539 168.173 28.4952 170.429C29.3276 171.577 30.6256 171.968 31.5291 173.029C32.9573 174.709 33.0085 177.518 33.9988 179.645L45.1284 179.676C45.9805 176.402 45.6768 171.577 45.0258 168.109V168.113Z" fill="#F0D283"/>
<path d="M34.5838 168.617C31.041 168.112 27.218 169.11 23.975 167.6C21.6513 166.515 20.0534 164.321 17.9506 162.854C15.8557 161.39 13.2439 160.676 10.6953 160.877C9.76421 160.948 8.79762 161.161 8.09536 161.773C6.86839 162.838 6.82104 164.716 7.05776 166.325C7.1919 167.252 7.401 168.195 7.92177 168.968C9.40913 171.166 12.7429 171.182 14.6642 173.02C16.3725 174.653 16.5382 177.257 17.272 179.514H45.165C44.9519 177.683 44.3483 175.896 43.3699 174.334C41.4564 171.28 38.1543 169.13 34.5878 168.621L34.5838 168.617Z" fill="white"/>
<path d="M45.6022 179.902H16.9794L16.8926 179.63C16.6914 179.011 16.5297 178.364 16.3758 177.736C15.9537 176.028 15.5552 174.415 14.3874 173.298C13.5826 172.525 12.4542 172.079 11.3653 171.645C9.94503 171.081 8.48134 170.497 7.59366 169.187C7.00976 168.323 6.79672 167.282 6.66258 166.378C6.32723 164.086 6.72176 162.437 7.83432 161.471C8.48923 160.903 9.41637 160.579 10.6631 160.481C13.3222 160.271 15.9892 160.997 18.1748 162.528C19.0388 163.132 19.82 163.858 20.5775 164.56C21.7216 165.621 22.8026 166.619 24.1401 167.242C26.0851 168.15 28.2392 168.114 30.5195 168.079C31.8767 168.059 33.2812 168.035 34.6423 168.229C38.3351 168.757 41.7241 170.959 43.7046 174.123C44.6948 175.705 45.334 177.551 45.5549 179.464L45.6062 179.906L45.6022 179.902ZM17.5554 179.113H44.7067C44.4581 177.472 43.8821 175.898 43.0299 174.537C41.1717 171.57 37.9918 169.503 34.524 169.006C33.226 168.82 31.853 168.84 30.5274 168.864C28.2589 168.899 25.9154 168.939 23.8047 167.956C22.3529 167.282 21.1772 166.189 20.037 165.136C19.2992 164.453 18.5378 163.747 17.7172 163.175C15.713 161.771 13.1604 161.08 10.7222 161.27C9.63335 161.356 8.87981 161.609 8.3472 162.07C7.45163 162.848 7.14784 164.256 7.43979 166.264C7.55815 167.081 7.74752 168.012 8.24068 168.745C8.99028 169.854 10.2843 170.371 11.6494 170.915C12.8093 171.377 14.0086 171.854 14.9239 172.734C16.2574 174.008 16.6993 175.811 17.1333 177.551C17.2635 178.072 17.3937 178.604 17.5475 179.117L17.5554 179.113Z" fill="#E7B32C"/>
<path d="M31.8487 179.416C31.8487 179.416 29.7458 174.552 23.9582 173.234C18.1705 171.92 12.7812 165.344 12.7812 165.344" fill="white"/>
<path d="M31.4848 179.572C31.4651 179.525 29.382 174.87 23.8705 173.619C18.0197 172.29 12.6975 165.867 12.4727 165.595L13.0842 165.094C13.1355 165.157 18.4576 171.579 24.0441 172.85C29.958 174.195 32.12 179.051 32.2108 179.26L31.4848 179.572Z" fill="#E7B32C"/>
<path d="M190.383 179.362C190.478 179.398 190.92 175.867 190.935 175.666C191.444 169.318 189.586 163.365 185.341 159.767C184.284 158.872 179.577 155.088 178.701 157.704C177.163 162.288 183.945 176.92 190.383 179.366V179.362Z" fill="#F0D283"/>
<path d="M190.202 179.267C187.097 177.602 188.722 170.288 189.409 167.932C190.908 162.816 194.19 158.271 198.763 155.49C200.463 154.456 206.768 150.385 208.145 153.592C209.983 157.884 205.959 164.303 203.762 167.708C201.974 170.477 199.883 173.085 197.465 175.333C195.946 176.75 193.666 179.799 191.334 179.59C190.9 179.551 190.525 179.44 190.202 179.267Z" fill="white"/>
<path d="M191.571 179.998C191.481 179.998 191.394 179.998 191.303 179.986C190.83 179.943 190.4 179.82 190.021 179.615C186.293 177.615 188.746 168.822 189.038 167.823C190.62 162.427 194.002 157.929 198.566 155.156L198.838 154.99C200.598 153.909 204.725 151.376 207.092 152.13C207.751 152.339 208.232 152.781 208.512 153.44C210.485 158.04 206.169 164.715 204.097 167.922C202.184 170.885 200.042 173.477 197.738 175.623C197.438 175.903 197.099 176.258 196.74 176.629C195.296 178.136 193.516 179.994 191.571 179.994V179.998ZM190.392 178.921C190.676 179.075 191.007 179.165 191.374 179.201C193.039 179.347 194.779 177.54 196.171 176.088C196.538 175.706 196.886 175.343 197.201 175.047C199.458 172.948 201.557 170.407 203.435 167.496C205.277 164.644 209.593 157.965 207.786 153.751C207.597 153.306 207.289 153.022 206.851 152.883C204.823 152.24 200.776 154.726 199.249 155.661L198.973 155.83C194.578 158.501 191.315 162.841 189.792 168.044C188.869 171.2 187.804 177.532 190.392 178.917V178.921Z" fill="#E7B32C"/>
<path d="M190.383 179.361C190.383 179.361 193.472 163.368 203.205 157.32L190.383 179.361Z" fill="white"/>
<path d="M190.769 179.436L189.996 179.286C190.004 179.246 190.801 175.195 192.781 170.457C194.62 166.066 197.883 160.164 202.996 156.984L203.414 157.655C193.937 163.545 190.801 179.278 190.769 179.436Z" fill="#E7B32C"/>
<path d="M194.918 166.785C194.918 166.785 198.599 164.943 202.808 164.023L194.918 166.785Z" fill="white"/>
<path d="M195.097 167.14L194.746 166.434C194.782 166.414 198.522 164.56 202.727 163.641L202.897 164.41C198.786 165.309 195.137 167.12 195.097 167.14Z" fill="#E7B32C"/>
<path d="M115.747 179.514C147.648 179.514 173.509 154.129 173.509 122.816C173.509 91.5019 147.648 66.1172 115.747 66.1172C83.8455 66.1172 57.9844 91.5019 57.9844 122.816C57.9844 154.129 83.8455 179.514 115.747 179.514Z" fill="#F0D283"/>
<path d="M115.747 179.905C83.6798 179.905 57.5898 154.293 57.5898 122.812C57.5898 91.3301 83.6798 65.7188 115.747 65.7188C147.814 65.7188 173.904 91.3301 173.904 122.812C173.904 154.293 147.814 179.905 115.747 179.905ZM115.747 66.5117C84.1138 66.5117 58.3789 91.768 58.3789 122.816C58.3789 153.863 84.1138 179.12 115.747 179.12C147.38 179.12 173.115 153.863 173.115 122.816C173.115 91.768 147.38 66.5117 115.747 66.5117Z" fill="#E7B32C"/>
<path d="M105.962 179.504C137.863 179.504 163.724 153.644 163.724 121.744C163.724 89.8442 137.863 63.9844 105.962 63.9844C74.0604 63.9844 48.1992 89.8442 48.1992 121.744C48.1992 153.644 74.0604 179.504 105.962 179.504Z" fill="white"/>
<path d="M105.962 179.902C73.8947 179.902 47.8047 153.813 47.8047 121.748C47.8047 89.6824 73.8947 63.5938 105.962 63.5938C138.029 63.5938 164.119 89.6824 164.119 121.748C164.119 153.813 138.029 179.902 105.962 179.902ZM105.962 64.3828C74.3286 64.3828 48.5937 90.1164 48.5937 121.748C48.5937 153.379 74.3286 179.113 105.962 179.113C137.595 179.113 163.33 153.379 163.33 121.748C163.33 90.1164 137.595 64.3828 105.962 64.3828Z" fill="#E7B32C"/>
<path d="M103.194 147.578C100.89 150.908 96.0102 151.034 93.5404 147.823L76.1695 125.241C74.5756 123.17 74.9622 120.195 77.0374 118.602C79.1087 117.008 82.0834 117.394 83.6773 119.469L98.1327 138.26L128.109 94.9391C129.596 92.789 132.547 92.2525 134.697 93.7398C136.847 95.2271 137.384 98.178 135.897 100.328L103.202 147.582L103.194 147.578Z" fill="#F0D283"/>
<path d="M184.346 28.8121C187.329 23.7234 185.618 17.1753 180.524 14.1866C175.43 11.1979 168.882 12.9004 165.898 17.9891C162.915 23.0779 164.626 29.6259 169.72 32.6146C174.814 35.6033 181.362 33.9009 184.346 28.8121Z" fill="#FFEFC7"/>
<path d="M174.553 28.223C174.119 28.8355 173.216 28.8436 172.764 28.2435L169.6 24.0201C169.309 23.6315 169.39 23.0843 169.774 22.794C170.162 22.5028 170.71 22.5848 171 22.9695L173.633 26.4853L179.278 18.5441C179.559 18.1512 180.104 18.0599 180.5 18.3366C180.893 18.6181 180.985 19.1636 180.709 19.5596L174.549 28.2239L174.553 28.223Z" fill="white"/>
<path d="M181.84 84.9286V91.2999L192.52 83.0547L181.84 84.9286Z" fill="#E7B32C"/>
<path d="M181.845 84.9297H205.078V72.1043H181.845V84.9297Z" fill="#E7B32C"/>
<path d="M201.353 76.3281H184.98V77.1171H201.353V76.3281Z" fill="white"/>
<path d="M201.353 79.9141H184.98V80.7031H201.353V79.9141Z" fill="white"/>
<path d="M66.8996 40.783V48.1603L54.5352 38.6172L66.8996 40.783Z" fill="#E7B32C"/>
<path d="M66.8987 25.9375H40.0039V40.7828H66.8987V25.9375Z" fill="#E7B32C"/>
<path d="M63.2655 30.8906H44.3164V31.6796H63.2655V30.8906Z" fill="white"/>
<path d="M63.2655 35.0391H44.3164V35.8281H63.2655V35.0391Z" fill="white"/>
<path d="M218.358 179.109H0V179.898H218.358V179.109Z" fill="#E7B32C"/>
</g>
<defs>
<clipPath id="clip0_6253_78160">
<rect width="226" height="180" fill="white"/>
</clipPath>
</defs>
</svg>
