<svg width="80" height="49" viewBox="0 0 80 49" fill="none" xmlns="http://www.w3.org/2000/svg">
<mask id="path-1-outside-1_5994_83402" maskUnits="userSpaceOnUse" x="17" y="-0.664062" width="46" height="30" fill="black">
<rect fill="white" x="17" y="-0.664062" width="46" height="30"/>
<path d="M28.8224 27.5879C22.7024 27.5879 18.6344 23.9159 18.6344 14.4839V14.1959C18.6344 6.16794 21.5144 0.731937 28.8224 0.731937C36.1304 0.731937 39.0104 6.16794 39.0104 14.1959V14.4839C39.0104 23.9159 34.9424 27.5879 28.8224 27.5879ZM28.8224 21.2879C30.4424 21.2879 31.6304 20.3159 31.6304 17.7959V10.5239C31.6304 8.43594 30.8384 6.99594 28.8224 6.99594C26.8064 6.99594 26.0144 8.43594 26.0144 10.5239V17.7959C26.0144 20.3159 27.2024 21.2879 28.8224 21.2879ZM50.8862 27.6959C45.0182 27.6959 40.9502 24.6719 41.0582 19.3439H48.2582C48.2942 20.7839 49.4462 21.6479 51.1382 21.6479C52.6862 21.6479 53.7662 20.7479 53.7662 19.4519V18.9479C53.7662 17.4359 52.7942 16.7159 51.1022 16.7159H47.8982V11.4959H50.4542C52.2542 11.4959 53.2262 10.6319 53.2262 9.33594V8.83194C53.2262 7.53594 52.3262 6.77994 50.9222 6.77994C49.4822 6.77994 48.4742 7.49994 48.2942 8.97594H41.2022C41.3462 3.61194 45.3062 0.731937 51.4262 0.731937C56.8262 0.731937 60.5342 3.32394 60.5342 7.82394C60.5342 10.5239 58.9502 12.6119 56.6462 13.3679V13.6199C59.4542 14.0879 61.2542 16.3919 61.2542 19.5599C61.2542 24.4199 57.4742 27.6959 50.8862 27.6959Z"/>
</mask>
<path d="M28.8224 26.5879C25.9681 26.5879 23.7372 25.7396 22.1954 23.9254C20.6283 22.0812 19.6344 19.0784 19.6344 14.4839H17.6344C17.6344 19.3215 18.6746 22.8707 20.6714 25.2205C22.6937 27.6002 25.5567 28.5879 28.8224 28.5879V26.5879ZM19.6344 14.4839V14.1959H17.6344V14.4839H19.6344ZM19.6344 14.1959C19.6344 10.2728 20.3432 7.14426 21.8105 5.02216C23.234 2.96326 25.4538 1.73194 28.8224 1.73194V-0.268064C24.883 -0.268064 22.0088 1.21862 20.1654 3.88472C18.3657 6.48761 17.6344 10.0911 17.6344 14.1959H19.6344ZM28.8224 1.73194C32.191 1.73194 34.4108 2.96326 35.8344 5.02216C37.3017 7.14426 38.0104 10.2728 38.0104 14.1959H40.0104C40.0104 10.0911 39.2792 6.48761 37.4795 3.88472C35.636 1.21862 32.7618 -0.268064 28.8224 -0.268064V1.73194ZM38.0104 14.1959V14.4839H40.0104V14.1959H38.0104ZM38.0104 14.4839C38.0104 19.0784 37.0166 22.0812 35.4494 23.9254C33.9077 25.7396 31.6767 26.5879 28.8224 26.5879V28.5879C32.0881 28.5879 34.9512 27.6002 36.9734 25.2205C38.9703 22.8707 40.0104 19.3215 40.0104 14.4839H38.0104ZM28.8224 22.2879C29.8348 22.2879 30.8412 21.9781 31.579 21.1539C32.3011 20.3472 32.6304 19.1975 32.6304 17.7959H30.6304C30.6304 18.9144 30.3657 19.5106 30.0888 19.82C29.8276 20.1118 29.43 20.2879 28.8224 20.2879V22.2879ZM32.6304 17.7959V10.5239H30.6304V17.7959H32.6304ZM32.6304 10.5239C32.6304 9.38061 32.4182 8.25409 31.7922 7.39016C31.1255 6.47012 30.0989 5.99594 28.8224 5.99594V7.99594C29.562 7.99594 29.9394 8.24175 30.1727 8.56371C30.4466 8.94179 30.6304 9.57926 30.6304 10.5239H32.6304ZM28.8224 5.99594C27.546 5.99594 26.5194 6.47012 25.8527 7.39016C25.2266 8.25409 25.0144 9.38061 25.0144 10.5239H27.0144C27.0144 9.57926 27.1982 8.94179 27.4722 8.56371C27.7055 8.24175 28.0829 7.99594 28.8224 7.99594V5.99594ZM25.0144 10.5239V17.7959H27.0144V10.5239H25.0144ZM25.0144 17.7959C25.0144 19.1975 25.3437 20.3472 26.0658 21.1539C26.8036 21.9781 27.81 22.2879 28.8224 22.2879V20.2879C28.2148 20.2879 27.8172 20.1118 27.556 19.82C27.2791 19.5106 27.0144 18.9144 27.0144 17.7959H25.0144ZM41.0582 19.3439V18.3439H40.0783L40.0584 19.3237L41.0582 19.3439ZM48.2582 19.3439L49.2579 19.3189L49.2335 18.3439H48.2582V19.3439ZM47.8982 16.7159H46.8982V17.7159H47.8982V16.7159ZM47.8982 11.4959V10.4959H46.8982V11.4959H47.8982ZM48.2942 8.97593V9.97593H49.1797L49.2868 9.09699L48.2942 8.97593ZM41.2022 8.97593L40.2026 8.9491L40.175 9.97593H41.2022V8.97593ZM56.6462 13.3679L56.3344 12.4178L55.6462 12.6436V13.3679H56.6462ZM56.6462 13.6199H55.6462V14.4671L56.4818 14.6063L56.6462 13.6199ZM50.8862 26.6959C48.1114 26.6959 45.8744 25.9801 44.3647 24.7442C42.882 23.5304 42.0098 21.7438 42.058 19.3642L40.0584 19.3237C39.9986 22.2721 41.1064 24.6615 43.0977 26.2917C45.062 27.8998 47.793 28.6959 50.8862 28.6959V26.6959ZM41.0582 20.3439H48.2582V18.3439H41.0582V20.3439ZM47.2585 19.3689C47.2837 20.3756 47.7122 21.2352 48.4594 21.8223C49.184 22.3916 50.1321 22.6479 51.1382 22.6479V20.6479C50.4523 20.6479 49.9784 20.4723 49.695 20.2496C49.4342 20.0447 49.2687 19.7523 49.2579 19.3189L47.2585 19.3689ZM51.1382 22.6479C52.1008 22.6479 52.9981 22.3675 53.6736 21.8035C54.3622 21.2286 54.7662 20.3996 54.7662 19.4519H52.7662C52.7662 19.8003 52.6302 20.0693 52.3918 20.2683C52.1403 20.4783 51.7236 20.6479 51.1382 20.6479V22.6479ZM54.7662 19.4519V18.9479H52.7662V19.4519H54.7662ZM54.7662 18.9479C54.7662 17.9636 54.4387 17.0891 53.699 16.4886C52.9963 15.9181 52.0676 15.7159 51.1022 15.7159V17.7159C51.8288 17.7159 52.2321 17.8738 52.4384 18.0413C52.6077 18.1788 52.7662 18.4203 52.7662 18.9479H54.7662ZM51.1022 15.7159H47.8982V17.7159H51.1022V15.7159ZM48.8982 16.7159V11.4959H46.8982V16.7159H48.8982ZM47.8982 12.4959H50.4542V10.4959H47.8982V12.4959ZM50.4542 12.4959C51.5013 12.4959 52.4431 12.2456 53.1435 11.6799C53.8695 11.0935 54.2262 10.2554 54.2262 9.33594H52.2262C52.2262 9.71251 52.0969 9.95434 51.8869 10.124C51.6513 10.3143 51.2071 10.4959 50.4542 10.4959V12.4959ZM54.2262 9.33594V8.83194H52.2262V9.33594H54.2262ZM54.2262 8.83194C54.2262 7.93804 53.9068 7.1349 53.2598 6.56788C52.6297 6.01564 51.7955 5.77994 50.9222 5.77994V7.77994C51.4529 7.77994 51.7707 7.92223 51.9416 8.07199C52.0956 8.20697 52.2262 8.42984 52.2262 8.83194H54.2262ZM50.9222 5.77994C50.0418 5.77994 49.1881 6.00056 48.5101 6.54432C47.8188 7.09873 47.4176 7.90314 47.3016 8.85488L49.2868 9.09699C49.3508 8.57273 49.5436 8.27914 49.7613 8.10455C49.9923 7.91931 50.3626 7.77994 50.9222 7.77994V5.77994ZM48.2942 7.97594H41.2022V9.97593H48.2942V7.97594ZM42.2018 9.00277C42.2668 6.5847 43.1769 4.81619 44.6903 3.62931C46.2327 2.41971 48.509 1.73194 51.4262 1.73194V-0.268064C48.2235 -0.268064 45.4598 0.484159 43.4561 2.05556C41.4235 3.64968 40.2816 6.00317 40.2026 8.9491L42.2018 9.00277ZM51.4262 1.73194C53.9805 1.73194 56.0237 2.34653 57.4023 3.38828C58.7499 4.40655 59.5342 5.88202 59.5342 7.82394H61.5342C61.5342 5.26585 60.4645 3.19532 58.6081 1.79259C56.7827 0.413342 54.2719 -0.268064 51.4262 -0.268064V1.73194ZM59.5342 7.82394C59.5342 10.0998 58.2203 11.799 56.3344 12.4178L56.958 14.3181C59.6801 13.4249 61.5342 10.9481 61.5342 7.82394H59.5342ZM55.6462 13.3679V13.6199H57.6462V13.3679H55.6462ZM56.4818 14.6063C58.7369 14.9822 60.2542 16.8054 60.2542 19.5599H62.2542C62.2542 15.9784 60.1715 13.1937 56.8106 12.6335L56.4818 14.6063ZM60.2542 19.5599C60.2542 21.7078 59.4307 23.4478 57.9129 24.6721C56.3721 25.9149 54.0254 26.6959 50.8862 26.6959V28.6959C54.335 28.6959 57.1723 27.839 59.1685 26.2288C61.1877 24.6001 62.2542 22.2721 62.2542 19.5599H60.2542Z" fill="#BDC8DE" mask="url(#path-1-outside-1_5994_83402)"/>
<path d="M2.33984 47.3359H77.6614" stroke="#DFB64B" stroke-width="3" stroke-linecap="round"/>
</svg>
