<svg width="80" height="49" viewBox="0 0 80 49" fill="none" xmlns="http://www.w3.org/2000/svg">
<mask id="path-1-outside-1_5994_83402" maskUnits="userSpaceOnUse" x="17.5" y="-0.664062" width="45" height="30" fill="black">
<rect fill="white" x="17.5" y="-0.664062" width="45" height="30"/>
<path d="M29.1037 27.5879C22.9837 27.5879 18.9157 23.9159 18.9157 14.4839V14.1959C18.9157 6.16794 21.7957 0.731937 29.1037 0.731937C36.4117 0.731937 39.2917 6.16794 39.2917 14.1959V14.4839C39.2917 23.9159 35.2237 27.5879 29.1037 27.5879ZM29.1037 21.2879C30.7237 21.2879 31.9117 20.3159 31.9117 17.7959V10.5239C31.9117 8.43594 31.1197 6.99594 29.1037 6.99594C27.0877 6.99594 26.2957 8.43594 26.2957 10.5239V17.7959C26.2957 20.3159 27.4837 21.2879 29.1037 21.2879ZM41.8435 27.3359V21.7559L49.7635 14.2679C51.1315 12.9719 53.1115 11.0279 53.1115 9.73194V8.97594C53.1115 7.78794 52.3195 6.92394 51.0595 6.92394C49.6195 6.92394 48.6835 8.00394 48.8275 10.0919H41.6635C41.4115 4.07994 45.4075 0.731937 51.5275 0.731937C56.7475 0.731937 60.6355 3.61194 60.6355 8.68794C60.6355 12.0359 59.1595 14.5559 55.8475 17.3999L51.3835 21.3239H60.8155V27.3359H41.8435Z"/>
</mask>
<path d="M29.1037 26.5879C26.2494 26.5879 24.0184 25.7396 22.4767 23.9254C20.9095 22.0812 19.9157 19.0784 19.9157 14.4839H17.9157C17.9157 19.3215 18.9558 22.8707 20.9527 25.2205C22.9749 27.6002 25.838 28.5879 29.1037 28.5879V26.5879ZM19.9157 14.4839V14.1959H17.9157V14.4839H19.9157ZM19.9157 14.1959C19.9157 10.2728 20.6244 7.14426 22.0917 5.02216C23.5153 2.96326 25.7351 1.73194 29.1037 1.73194V-0.268064C25.1643 -0.268064 22.2901 1.21862 20.4466 3.88472C18.6469 6.48761 17.9157 10.0911 17.9157 14.1959H19.9157ZM29.1037 1.73194C32.4723 1.73194 34.6921 2.96326 36.1156 5.02216C37.5829 7.14426 38.2917 10.2728 38.2917 14.1959H40.2917C40.2917 10.0911 39.5604 6.48761 37.7607 3.88472C35.9173 1.21862 33.0431 -0.268064 29.1037 -0.268064V1.73194ZM38.2917 14.1959V14.4839H40.2917V14.1959H38.2917ZM38.2917 14.4839C38.2917 19.0784 37.2978 22.0812 35.7307 23.9254C34.1889 25.7396 31.958 26.5879 29.1037 26.5879V28.5879C32.3694 28.5879 35.2324 27.6002 37.2547 25.2205C39.2515 22.8707 40.2917 19.3215 40.2917 14.4839H38.2917ZM29.1037 22.2879C30.1161 22.2879 31.1225 21.9781 31.8603 21.1539C32.5823 20.3472 32.9117 19.1975 32.9117 17.7959H30.9117C30.9117 18.9144 30.647 19.5106 30.3701 19.82C30.1089 20.1118 29.7113 20.2879 29.1037 20.2879V22.2879ZM32.9117 17.7959V10.5239H30.9117V17.7959H32.9117ZM32.9117 10.5239C32.9117 9.38061 32.6995 8.25409 32.0734 7.39016C31.4067 6.47012 30.3801 5.99594 29.1037 5.99594V7.99594C29.8432 7.99594 30.2206 8.24175 30.4539 8.56371C30.7279 8.94179 30.9117 9.57926 30.9117 10.5239H32.9117ZM29.1037 5.99594C27.8272 5.99594 26.8006 6.47012 26.1339 7.39016C25.5079 8.25409 25.2957 9.38061 25.2957 10.5239H27.2957C27.2957 9.57926 27.4795 8.94179 27.7534 8.56371C27.9867 8.24175 28.3641 7.99594 29.1037 7.99594V5.99594ZM25.2957 10.5239V17.7959H27.2957V10.5239H25.2957ZM25.2957 17.7959C25.2957 19.1975 25.625 20.3472 26.3471 21.1539C27.0849 21.9781 28.0913 22.2879 29.1037 22.2879V20.2879C28.4961 20.2879 28.0985 20.1118 27.8373 19.82C27.5603 19.5106 27.2957 18.9144 27.2957 17.7959H25.2957ZM41.8435 27.3359H40.8435V28.3359H41.8435V27.3359ZM41.8435 21.7559L41.1564 21.0293L40.8435 21.3252V21.7559H41.8435ZM49.7635 14.2679L50.4505 14.9946L50.4512 14.9939L49.7635 14.2679ZM48.8275 10.0919V11.0919H49.8988L49.8251 10.0231L48.8275 10.0919ZM41.6635 10.0919L40.6643 10.1338L40.7045 11.0919H41.6635V10.0919ZM55.8475 17.3999L55.1959 16.6412L55.1872 16.6489L55.8475 17.3999ZM51.3835 21.3239L50.7232 20.5729L48.7312 22.3239H51.3835V21.3239ZM60.8155 21.3239H61.8155V20.3239H60.8155V21.3239ZM60.8155 27.3359V28.3359H61.8155V27.3359H60.8155ZM42.8435 27.3359V21.7559H40.8435V27.3359H42.8435ZM42.5305 22.4826L50.4505 14.9946L49.0764 13.5413L41.1564 21.0293L42.5305 22.4826ZM50.4512 14.9939C51.1344 14.3466 52.013 13.4984 52.7229 12.635C53.0782 12.2029 53.4121 11.7422 53.6613 11.279C53.9035 10.8289 54.1115 10.2933 54.1115 9.73194H52.1115C52.1115 9.81858 52.0719 10.0119 51.9001 10.3314C51.7353 10.6377 51.4887 10.987 51.178 11.3648C50.5559 12.1214 49.7605 12.8933 49.0757 13.542L50.4512 14.9939ZM54.1115 9.73194V8.97593H52.1115V9.73194H54.1115ZM54.1115 8.97593C54.1115 8.1573 53.8353 7.38193 53.2738 6.80622C52.7086 6.22664 51.9265 5.92394 51.0595 5.92394V7.92394C51.4524 7.92394 51.6963 8.05323 51.8421 8.20265C51.9916 8.35594 52.1115 8.60657 52.1115 8.97593H54.1115ZM51.0595 5.92394C50.0696 5.92394 49.1584 6.30837 48.5478 7.12711C47.9607 7.91434 47.7479 8.97328 47.8298 10.1607L49.8251 10.0231C49.763 9.12259 49.9462 8.59753 50.1511 8.32276C50.3325 8.0795 50.6093 7.92394 51.0595 7.92394V5.92394ZM48.8275 9.09194H41.6635V11.0919H48.8275V9.09194ZM42.6626 10.0501C42.5467 7.28597 43.4027 5.25063 44.8818 3.89451C46.3794 2.52135 48.6396 1.73194 51.5275 1.73194V-0.268064C48.2953 -0.268064 45.4975 0.616525 43.5301 2.42036C41.5442 4.24124 40.5282 6.8859 40.6643 10.1338L42.6626 10.0501ZM51.5275 1.73194C53.9627 1.73194 55.9946 2.40388 57.3986 3.57448C58.7816 4.72762 59.6355 6.42841 59.6355 8.68794H61.6355C61.6355 5.87147 60.5453 3.59425 58.6793 2.03839C56.8343 0.499996 54.3122 -0.268064 51.5275 -0.268064V1.73194ZM59.6355 8.68794C59.6355 11.6396 58.381 13.9063 55.196 16.6413L56.4989 18.1586C59.9379 15.2055 61.6355 12.4323 61.6355 8.68794H59.6355ZM55.1872 16.6489L50.7232 20.5729L52.0437 22.075L56.5077 18.151L55.1872 16.6489ZM51.3835 22.3239H60.8155V20.3239H51.3835V22.3239ZM59.8155 21.3239V27.3359H61.8155V21.3239H59.8155ZM60.8155 26.3359H41.8435V28.3359H60.8155V26.3359Z" fill="#BDC8DE" mask="url(#path-1-outside-1_5994_83402)"/>
<path d="M2.33984 47.3359H77.6614" stroke="#DFB64B" stroke-width="3" stroke-linecap="round"/>
</svg>
