<svg width="360" height="211" viewBox="0 0 360 211" fill="none" xmlns="http://www.w3.org/2000/svg">
<path d="M271.648 78.4197C266.478 71.3355 260.3 64.5092 251.857 61.1663C245.41 58.6159 238.081 58.2971 230.953 58.9675C205.362 61.382 182.21 75.7332 157.226 82.3439C136.867 87.7308 115.198 87.9981 95.8266 96.32C73.3461 105.978 56.059 126.621 51.4529 149.308C47.574 168.409 52.7956 188.447 64.9776 203.216H290.842C304.185 160.706 297.317 113.569 271.648 78.415V78.4197Z" fill="#FFFAE7"/>
<path d="M182.514 46.1214C192.276 36.046 190.561 19.5475 179.288 11.2116C166.849 2.00823 150.574 -2.08943 135.399 1.03773C125.128 3.1522 114.513 9.56594 112.396 19.8898C110.778 27.7757 114.718 36.046 120.741 41.3486C126.765 46.6512 134.574 49.4267 142.359 51.3068C154.042 54.1339 166.858 55.0856 177.651 49.7643C179.451 48.8782 181.064 47.6123 182.509 46.1214H182.514Z" fill="#FFFAE7"/>
<path d="M64.5424 76.7584C56.7474 72.0747 55.0923 61.4367 60.7801 54.3197C67.0553 46.462 76.5892 41.1641 86.622 40.5827C93.4147 40.1889 101.135 42.4299 104.175 48.553C106.497 53.2273 105.396 59.0784 102.496 63.4105C99.5966 67.7426 95.1583 70.7948 90.5848 73.2796C83.7222 77.0116 75.8433 79.7543 68.1928 78.2259C66.9201 77.9727 65.6939 77.4476 64.5424 76.7537V76.7584Z" fill="#FFFAE7"/>
<path d="M52.0975 182.486L51.9857 181.792L53.333 181.577C41.8689 157.108 45.7944 129.001 63.8833 106.304C73.9907 93.6223 87.5061 83.9033 102.98 78.1975C119.553 72.0838 137.577 71.0055 155.097 75.0797L154.939 75.7642C137.549 71.7228 119.665 72.7871 103.217 78.8539C87.8651 84.5175 74.4523 94.1568 64.4288 106.74C46.4145 129.357 42.5776 157.38 54.1675 181.699L54.368 182.125L52.0975 182.486Z" fill="#FFFAE7"/>
<path d="M188.533 112.531H102.951C102.14 112.531 101.363 112.853 100.79 113.426C100.217 114 99.8945 114.777 99.8945 115.588V176.718C99.8945 177.528 100.217 178.306 100.79 178.879C101.363 179.452 102.14 179.774 102.951 179.774H188.533C189.343 179.774 190.121 179.452 190.694 178.879C191.267 178.306 191.589 177.528 191.589 176.718V115.588C191.589 114.777 191.267 114 190.694 113.426C190.121 112.853 189.343 112.531 188.533 112.531ZM185.476 173.661H106.008V118.644H185.476V173.661Z" fill="#DFB64B"/>
<path d="M115.177 146.155C115.987 146.155 116.765 145.832 117.338 145.259L132.62 129.977C133.177 129.4 133.485 128.628 133.478 127.827C133.471 127.025 133.15 126.259 132.583 125.692C132.016 125.125 131.25 124.804 130.448 124.797C129.647 124.79 128.875 125.098 128.298 125.655L113.016 140.937C112.589 141.365 112.298 141.909 112.18 142.502C112.062 143.095 112.122 143.709 112.354 144.268C112.585 144.826 112.977 145.304 113.479 145.639C113.982 145.975 114.573 146.155 115.177 146.155Z" fill="#DFB64B"/>
<path d="M115.177 161.437C115.987 161.437 116.765 161.115 117.338 160.542L147.903 129.977C148.46 129.4 148.768 128.628 148.761 127.827C148.754 127.025 148.432 126.259 147.866 125.692C147.299 125.125 146.532 124.804 145.731 124.797C144.929 124.79 144.157 125.098 143.581 125.655L113.016 156.22C112.589 156.647 112.298 157.192 112.18 157.785C112.062 158.377 112.122 158.992 112.354 159.55C112.585 160.109 112.977 160.586 113.479 160.922C113.982 161.258 114.573 161.437 115.177 161.437Z" fill="#DFB64B"/>
<path d="M268.002 85.0265V72.8005C268.001 72.3908 267.918 71.9856 267.758 71.6085L251.008 32.516C250.305 30.8622 249.129 29.4525 247.629 28.4631C246.128 27.4737 244.37 26.9485 242.572 26.9532H103.93C102.133 26.9485 100.374 27.4737 98.8736 28.4631C97.3732 29.4525 96.1977 30.8622 95.4941 32.516L78.7445 71.6085C78.5844 71.9856 78.5013 72.3908 78.5 72.8005V85.0265C78.5048 88.4726 79.3408 91.8668 80.9371 94.921C82.5334 97.9752 84.8428 100.599 87.6695 102.571V185.891H84.613C83.8023 185.891 83.0249 186.213 82.4517 186.786C81.8785 187.359 81.5565 188.136 81.5565 188.947V207.286C81.5565 208.097 81.8785 208.874 82.4517 209.447C83.0249 210.021 83.8023 210.343 84.613 210.343H261.889C262.7 210.343 263.477 210.021 264.051 209.447C264.624 208.874 264.946 208.097 264.946 207.286V188.947C264.946 188.136 264.624 187.359 264.051 186.786C263.477 186.213 262.7 185.891 261.889 185.891H258.833V102.571C261.66 100.599 263.969 97.9752 265.565 94.921C267.162 91.8668 267.998 88.4726 268.002 85.0265ZM242.572 33.0661C243.172 33.0666 243.759 33.2437 244.259 33.5752C244.759 33.9068 245.15 34.3781 245.384 34.9306L260.3 69.744H230.56L220.107 33.0661H242.572ZM243.55 112.535H200.76C199.949 112.535 199.172 112.857 198.598 113.43C198.025 114.003 197.703 114.781 197.703 115.591V185.891H93.7824V105.535C95.7689 106.114 97.8264 106.413 99.8954 106.422C103.593 106.421 107.227 105.46 110.442 103.633C113.656 101.806 116.342 99.1757 118.234 95.9993C120.127 99.1759 122.812 101.806 126.027 103.633C129.241 105.46 132.876 106.421 136.573 106.421C140.271 106.421 143.905 105.46 147.12 103.633C150.335 101.806 153.02 99.1759 154.912 95.9993C156.805 99.1759 159.49 101.806 162.705 103.633C165.919 105.46 169.554 106.421 173.251 106.421C176.949 106.421 180.583 105.46 183.798 103.633C187.013 101.806 189.698 99.1759 191.59 95.9993C193.483 99.1759 196.168 101.806 199.382 103.633C202.597 105.46 206.231 106.421 209.929 106.421C213.627 106.421 217.261 105.46 220.476 103.633C223.69 101.806 226.376 99.1759 228.268 95.9993C230.161 99.1757 232.846 101.806 236.061 103.633C239.275 105.46 242.909 106.421 246.607 106.422C248.676 106.413 250.733 106.114 252.72 105.535V185.891H246.607V115.591C246.607 114.781 246.285 114.003 245.712 113.43C245.138 112.857 244.361 112.535 243.55 112.535ZM240.494 118.648V185.891H203.816V118.648H240.494ZM121.291 85.0265V75.857H151.856V85.0265C151.856 89.0796 150.246 92.9668 147.38 95.8328C144.514 98.6988 140.626 100.309 136.573 100.309C132.52 100.309 128.633 98.6988 125.767 95.8328C122.901 92.9668 121.291 89.0796 121.291 85.0265ZM194.647 85.0265V75.857H225.211V85.0265C225.211 89.0796 223.601 92.9668 220.735 95.8328C217.869 98.6988 213.982 100.309 209.929 100.309C205.876 100.309 201.989 98.6988 199.123 95.8328C196.257 92.9668 194.647 89.0796 194.647 85.0265ZM213.75 33.0661L220.871 58.0071L224.203 69.744H194.249L188.992 33.0661H213.75ZM163.684 33.0661H182.818L188.075 69.744H158.427L163.684 33.0661ZM157.969 75.857H188.534V85.0265C188.534 89.0796 186.924 92.9668 184.057 95.8328C181.191 98.6988 177.304 100.309 173.251 100.309C169.198 100.309 165.311 98.6988 162.445 95.8328C159.579 92.9668 157.969 89.0796 157.969 85.0265V75.857ZM157.51 33.0661L152.253 69.744H122.299L125.631 58.0071L132.753 33.0661H157.51ZM101.118 34.9306C101.352 34.3781 101.743 33.9068 102.243 33.5752C102.743 33.2437 103.33 33.0666 103.93 33.0661H126.395L115.942 69.744H86.2024L101.118 34.9306ZM84.613 85.0265V75.857H115.178V85.0265C115.178 89.0796 113.568 92.9668 110.702 95.8328C107.836 98.6988 103.949 100.309 99.8954 100.309C95.8423 100.309 91.9551 98.6988 89.0891 95.8328C86.2231 92.9668 84.613 89.0796 84.613 85.0265ZM258.833 204.23H87.6695V192.004H258.833V204.23ZM246.607 100.309C242.554 100.309 238.667 98.6988 235.801 95.8328C232.935 92.9668 231.324 89.0796 231.324 85.0265V75.857H261.889V85.0265C261.889 89.0796 260.279 92.9668 257.413 95.8328C254.547 98.6988 250.66 100.309 246.607 100.309Z" fill="#DFB64B"/>
<circle cx="5.5" cy="177.953" r="5" fill="#DFB64B"/>
<circle cx="354.5" cy="112.953" r="5" fill="#DFB64B"/>
<circle cx="39.5" cy="26.9531" r="5" fill="#DFB64B"/>
<circle cx="291.5" cy="66.9531" r="3" fill="#DFB64B"/>
<circle cx="54.5" cy="93.9531" r="3" fill="#DFB64B"/>
</svg>
