<svg width="80" height="49" viewBox="0 0 80 49" fill="none" xmlns="http://www.w3.org/2000/svg">
<mask id="path-1-outside-1_5994_83402" maskUnits="userSpaceOnUse" x="16.5" y="-0.664062" width="47" height="30" fill="black">
<rect fill="white" x="16.5" y="-0.664062" width="47" height="30"/>
<path d="M28.0138 27.5879C21.8938 27.5879 17.8258 23.9159 17.8258 14.4839V14.1959C17.8258 6.16794 20.7058 0.731937 28.0138 0.731937C35.3218 0.731937 38.2018 6.16794 38.2018 14.1959V14.4839C38.2018 23.9159 34.1338 27.5879 28.0138 27.5879ZM28.0138 21.2879C29.6338 21.2879 30.8218 20.3159 30.8218 17.7959V10.5239C30.8218 8.43594 30.0298 6.99594 28.0138 6.99594C25.9978 6.99594 25.2058 8.43594 25.2058 10.5239V17.7959C25.2058 20.3159 26.3938 21.2879 28.0138 21.2879ZM51.8056 27.3359V22.3679H40.4296V17.3999L48.3856 1.09194H56.1256L48.7096 16.1039V16.4279H51.8416L53.1016 11.4239H59.1496V16.4279H62.4256V22.3679H59.1496V27.3359H51.8056Z"/>
</mask>
<path d="M28.0138 26.5879C25.1595 26.5879 22.9286 25.7396 21.3868 23.9254C19.8197 22.0812 18.8258 19.0784 18.8258 14.4839H16.8258C16.8258 19.3215 17.866 22.8707 19.8628 25.2205C21.8851 27.6002 24.7481 28.5879 28.0138 28.5879V26.5879ZM18.8258 14.4839V14.1959H16.8258V14.4839H18.8258ZM18.8258 14.1959C18.8258 10.2728 19.5346 7.14426 21.0019 5.02216C22.4254 2.96326 24.6452 1.73194 28.0138 1.73194V-0.268064C24.0744 -0.268064 21.2002 1.21862 19.3568 3.88472C17.5571 6.48761 16.8258 10.0911 16.8258 14.1959H18.8258ZM28.0138 1.73194C31.3824 1.73194 33.6022 2.96326 35.0258 5.02216C36.4931 7.14426 37.2018 10.2728 37.2018 14.1959H39.2018C39.2018 10.0911 38.4706 6.48761 36.6709 3.88472C34.8274 1.21862 31.9532 -0.268064 28.0138 -0.268064V1.73194ZM37.2018 14.1959V14.4839H39.2018V14.1959H37.2018ZM37.2018 14.4839C37.2018 19.0784 36.208 22.0812 34.6408 23.9254C33.0991 25.7396 30.8681 26.5879 28.0138 26.5879V28.5879C31.2795 28.5879 34.1426 27.6002 36.1649 25.2205C38.1617 22.8707 39.2018 19.3215 39.2018 14.4839H37.2018ZM28.0138 22.2879C29.0262 22.2879 30.0326 21.9781 30.7704 21.1539C31.4925 20.3472 31.8218 19.1975 31.8218 17.7959H29.8218C29.8218 18.9144 29.5572 19.5106 29.2802 19.82C29.019 20.1118 28.6214 20.2879 28.0138 20.2879V22.2879ZM31.8218 17.7959V10.5239H29.8218V17.7959H31.8218ZM31.8218 10.5239C31.8218 9.38061 31.6096 8.25409 30.9836 7.39016C30.3169 6.47012 29.2903 5.99594 28.0138 5.99594V7.99594C28.7534 7.99594 29.1308 8.24175 29.3641 8.56371C29.638 8.94179 29.8218 9.57926 29.8218 10.5239H31.8218ZM28.0138 5.99594C26.7374 5.99594 25.7108 6.47012 25.0441 7.39016C24.418 8.25409 24.2058 9.38061 24.2058 10.5239H26.2058C26.2058 9.57926 26.3896 8.94179 26.6636 8.56371C26.8969 8.24175 27.2743 7.99594 28.0138 7.99594V5.99594ZM24.2058 10.5239V17.7959H26.2058V10.5239H24.2058ZM24.2058 17.7959C24.2058 19.1975 24.5352 20.3472 25.2572 21.1539C25.995 21.9781 27.0014 22.2879 28.0138 22.2879V20.2879C27.4062 20.2879 27.0086 20.1118 26.7474 19.82C26.4705 19.5106 26.2058 18.9144 26.2058 17.7959H24.2058ZM51.8056 27.3359H50.8056V28.3359H51.8056V27.3359ZM51.8056 22.3679H52.8056V21.3679H51.8056V22.3679ZM40.4296 22.3679H39.4296V23.3679H40.4296V22.3679ZM40.4296 17.3999L39.5309 16.9615L39.4296 17.169V17.3999H40.4296ZM48.3856 1.09194V0.0919361H47.7608L47.4869 0.653474L48.3856 1.09194ZM56.1256 1.09194L57.0222 1.53484L57.735 0.0919361H56.1256V1.09194ZM48.7096 16.1039L47.813 15.661L47.7096 15.8704V16.1039H48.7096ZM48.7096 16.4279H47.7096V17.4279H48.7096V16.4279ZM51.8416 16.4279V17.4279H52.621L52.8113 16.6721L51.8416 16.4279ZM53.1016 11.4239V10.4239H52.3222L52.1319 11.1798L53.1016 11.4239ZM59.1496 11.4239H60.1496V10.4239H59.1496V11.4239ZM59.1496 16.4279H58.1496V17.4279H59.1496V16.4279ZM62.4256 16.4279H63.4256V15.4279H62.4256V16.4279ZM62.4256 22.3679V23.3679H63.4256V22.3679H62.4256ZM59.1496 22.3679V21.3679H58.1496V22.3679H59.1496ZM59.1496 27.3359V28.3359H60.1496V27.3359H59.1496ZM52.8056 27.3359V22.3679H50.8056V27.3359H52.8056ZM51.8056 21.3679H40.4296V23.3679H51.8056V21.3679ZM41.4296 22.3679V17.3999H39.4296V22.3679H41.4296ZM41.3284 17.8384L49.2844 1.5304L47.4869 0.653474L39.5309 16.9615L41.3284 17.8384ZM48.3856 2.09194H56.1256V0.0919361H48.3856V2.09194ZM55.229 0.649028L47.813 15.661L49.6062 16.5468L57.0222 1.53484L55.229 0.649028ZM47.7096 16.1039V16.4279H49.7096V16.1039H47.7096ZM48.7096 17.4279H51.8416V15.4279H48.7096V17.4279ZM52.8113 16.6721L54.0713 11.6681L52.1319 11.1798L50.8719 16.1838L52.8113 16.6721ZM53.1016 12.4239H59.1496V10.4239H53.1016V12.4239ZM58.1496 11.4239V16.4279H60.1496V11.4239H58.1496ZM59.1496 17.4279H62.4256V15.4279H59.1496V17.4279ZM61.4256 16.4279V22.3679H63.4256V16.4279H61.4256ZM62.4256 21.3679H59.1496V23.3679H62.4256V21.3679ZM58.1496 22.3679V27.3359H60.1496V22.3679H58.1496ZM59.1496 26.3359H51.8056V28.3359H59.1496V26.3359Z" fill="#BDC8DE" mask="url(#path-1-outside-1_5994_83402)"/>
<path d="M2.33984 47.3359H77.6614" stroke="#DFB64B" stroke-width="3" stroke-linecap="round"/>
</svg>
