<svg width="80" height="49" viewBox="0 0 80 49" fill="none" xmlns="http://www.w3.org/2000/svg">
<mask id="path-1-outside-1_5994_83402" maskUnits="userSpaceOnUse" x="19.5" y="-0.664062" width="39" height="30" fill="black">
<rect fill="white" x="19.5" y="-0.664062" width="39" height="30"/>
<path d="M31.0021 27.5879C24.8821 27.5879 20.8141 23.9159 20.8141 14.4839V14.1959C20.8141 6.16794 23.6941 0.731937 31.0021 0.731937C38.3101 0.731937 41.1901 6.16794 41.1901 14.1959V14.4839C41.1901 23.9159 37.1221 27.5879 31.0021 27.5879ZM31.0021 21.2879C32.6221 21.2879 33.8101 20.3159 33.8101 17.7959V10.5239C33.8101 8.43594 33.0181 6.99594 31.0021 6.99594C28.9861 6.99594 28.1941 8.43594 28.1941 10.5239V17.7959C28.1941 20.3159 29.3821 21.2879 31.0021 21.2879ZM50.1499 27.3359V11.3519H44.1019V5.77194H50.2939L51.3379 1.09194H57.4939V27.3359H50.1499Z"/>
</mask>
<path d="M31.0021 26.5879C28.1478 26.5879 25.9169 25.7396 24.3751 23.9254C22.808 22.0812 21.8141 19.0784 21.8141 14.4839H19.8141C19.8141 19.3215 20.8543 22.8707 22.8511 25.2205C24.8734 27.6002 27.7364 28.5879 31.0021 28.5879V26.5879ZM21.8141 14.4839V14.1959H19.8141V14.4839H21.8141ZM21.8141 14.1959C21.8141 10.2728 22.5229 7.14426 23.9901 5.02216C25.4137 2.96326 27.6335 1.73194 31.0021 1.73194V-0.268063C27.0627 -0.268063 24.1885 1.21862 22.3451 3.88472C20.5454 6.48761 19.8141 10.0911 19.8141 14.1959H21.8141ZM31.0021 1.73194C34.3707 1.73194 36.5905 2.96326 38.0141 5.02216C39.4814 7.14426 40.1901 10.2728 40.1901 14.1959H42.1901C42.1901 10.0911 41.4589 6.48761 39.6591 3.88472C37.8157 1.21862 34.9415 -0.268063 31.0021 -0.268063V1.73194ZM40.1901 14.1959V14.4839H42.1901V14.1959H40.1901ZM40.1901 14.4839C40.1901 19.0784 39.1963 22.0812 37.6291 23.9254C36.0874 25.7396 33.8564 26.5879 31.0021 26.5879V28.5879C34.2678 28.5879 37.1309 27.6002 39.1531 25.2205C41.15 22.8707 42.1901 19.3215 42.1901 14.4839H40.1901ZM31.0021 22.2879C32.0145 22.2879 33.0209 21.9781 33.7587 21.1539C34.4808 20.3472 34.8101 19.1975 34.8101 17.7959H32.8101C32.8101 18.9144 32.5454 19.5106 32.2685 19.82C32.0073 20.1118 31.6097 20.2879 31.0021 20.2879V22.2879ZM34.8101 17.7959V10.5239H32.8101V17.7959H34.8101ZM34.8101 10.5239C34.8101 9.38061 34.5979 8.25409 33.9719 7.39016C33.3052 6.47012 32.2786 5.99594 31.0021 5.99594V7.99594C31.7416 7.99594 32.1191 8.24175 32.3524 8.56371C32.6263 8.94179 32.8101 9.57926 32.8101 10.5239H34.8101ZM31.0021 5.99594C29.7256 5.99594 28.6991 6.47012 28.0324 7.39016C27.4063 8.25409 27.1941 9.38061 27.1941 10.5239H29.1941C29.1941 9.57926 29.3779 8.94179 29.6519 8.56371C29.8852 8.24175 30.2626 7.99594 31.0021 7.99594V5.99594ZM27.1941 10.5239V17.7959H29.1941V10.5239H27.1941ZM27.1941 17.7959C27.1941 19.1975 27.5234 20.3472 28.2455 21.1539C28.9833 21.9781 29.9897 22.2879 31.0021 22.2879V20.2879C30.3945 20.2879 29.9969 20.1118 29.7357 19.82C29.4588 19.5106 29.1941 18.9144 29.1941 17.7959H27.1941ZM50.1499 27.3359H49.1499V28.3359H50.1499V27.3359ZM50.1499 11.3519H51.1499V10.3519H50.1499V11.3519ZM44.1019 11.3519H43.1019V12.3519H44.1019V11.3519ZM44.1019 5.77194V4.77194H43.1019V5.77194H44.1019ZM50.2939 5.77194V6.77194H51.0954L51.2699 5.98966L50.2939 5.77194ZM51.3379 1.09194V0.0919363H50.5364L50.3619 0.874211L51.3379 1.09194ZM57.4939 1.09194H58.4939V0.0919363H57.4939V1.09194ZM57.4939 27.3359V28.3359H58.4939V27.3359H57.4939ZM51.1499 27.3359V11.3519H49.1499V27.3359H51.1499ZM50.1499 10.3519H44.1019V12.3519H50.1499V10.3519ZM45.1019 11.3519V5.77194H43.1019V11.3519H45.1019ZM44.1019 6.77194H50.2939V4.77194H44.1019V6.77194ZM51.2699 5.98966L52.3139 1.30966L50.3619 0.874211L49.3179 5.55421L51.2699 5.98966ZM51.3379 2.09194H57.4939V0.0919363H51.3379V2.09194ZM56.4939 1.09194V27.3359H58.4939V1.09194H56.4939ZM57.4939 26.3359H50.1499V28.3359H57.4939V26.3359Z" fill="#BDC8DE" mask="url(#path-1-outside-1_5994_83402)"/>
<path d="M2.33984 47.3359H77.6614" stroke="#DFB64B" stroke-width="3" stroke-linecap="round"/>
</svg>
