<svg width="62" height="62" viewBox="0 0 62 62" fill="none" xmlns="http://www.w3.org/2000/svg">
<path d="M12.4431 10.2686C13.8725 4.93397 19.3558 1.76815 24.6905 3.19757L51.7364 10.4445C57.0711 11.8739 60.2369 17.3573 58.8075 22.6919L51.5606 49.7379C50.1311 55.0725 44.6478 58.2384 39.3131 56.8089L12.2672 49.562C6.93253 48.1326 3.76671 42.6492 5.19613 37.3146L12.4431 10.2686Z" fill="#0BA5EC"/>
<g filter="url(#filter0_b_6253_76363)">
<path d="M0 30C0 24.3995 0 21.5992 1.08993 19.4601C2.04867 17.5785 3.57847 16.0487 5.46009 15.0899C7.59921 14 10.3995 14 16 14H32C37.6005 14 40.4008 14 42.5399 15.0899C44.4215 16.0487 45.9513 17.5785 46.9101 19.4601C48 21.5992 48 24.3995 48 30V46C48 51.6005 48 54.4008 46.9101 56.5399C45.9513 58.4215 44.4215 59.9513 42.5399 60.9101C40.4008 62 37.6005 62 32 62H16C10.3995 62 7.59921 62 5.46009 60.9101C3.57847 59.9513 2.04867 58.4215 1.08993 56.5399C0 54.4008 0 51.6005 0 46V30Z" fill="white" fill-opacity="0.6"/>
<path d="M0.5 30C0.5 27.1915 0.500389 25.1152 0.634581 23.4727C0.768297 21.8361 1.03237 20.6744 1.53544 19.6871C2.44624 17.8996 3.89955 16.4462 5.68709 15.5354C6.67441 15.0324 7.83613 14.7683 9.47274 14.6346C11.1152 14.5004 13.1915 14.5 16 14.5H32C34.8085 14.5 36.8848 14.5004 38.5273 14.6346C40.1639 14.7683 41.3256 15.0324 42.3129 15.5354C44.1004 16.4462 45.5538 17.8996 46.4646 19.6871C46.9676 20.6744 47.2317 21.8361 47.3654 23.4727C47.4996 25.1152 47.5 27.1915 47.5 30V46C47.5 48.8085 47.4996 50.8848 47.3654 52.5273C47.2317 54.1639 46.9676 55.3256 46.4646 56.3129C45.5538 58.1004 44.1004 59.5538 42.3129 60.4646C41.3256 60.9676 40.1639 61.2317 38.5273 61.3654C36.8848 61.4996 34.8085 61.5 32 61.5H16C13.1915 61.5 11.1152 61.4996 9.47274 61.3654C7.83613 61.2317 6.67442 60.9676 5.68709 60.4646C3.89955 59.5538 2.44624 58.1004 1.53544 56.3129C1.03237 55.3256 0.768297 54.1639 0.634581 52.5273C0.500389 50.8848 0.5 48.8085 0.5 46V30Z" stroke="white" stroke-opacity="0.6"/>
<path d="M26.2617 41.4375H21.2617" stroke="white" stroke-width="1.5" stroke-miterlimit="10" stroke-linecap="round" stroke-linejoin="round"/>
<path d="M23.7617 39V44" stroke="white" stroke-width="1.5" stroke-miterlimit="10" stroke-linecap="round" stroke-linejoin="round"/>
<path d="M24.6609 28.5181L24.6309 28.5881L21.7309 35.3181H18.8809C18.2009 35.3181 17.5509 35.4581 16.9609 35.7081L18.7109 31.5281L18.7509 31.4281L18.8209 31.2681C18.8409 31.2081 18.8609 31.1481 18.8909 31.0981C20.2009 28.0681 21.6809 27.3781 24.6609 28.5181Z" stroke="white" stroke-width="1.5" stroke-linecap="round" stroke-linejoin="round"/>
<path d="M30.0505 35.5156C29.6005 35.3756 29.1205 35.3156 28.6405 35.3156H21.7305L24.6305 28.5856L24.6605 28.5156C24.8105 28.5656 24.9505 28.6356 25.1005 28.6956L27.3105 29.6256C28.5405 30.1356 29.4005 30.6656 29.9205 31.3056C30.0205 31.4256 30.1005 31.5356 30.1705 31.6656C30.2605 31.8056 30.3305 31.9456 30.3705 32.0956C30.4105 32.1856 30.4405 32.2756 30.4605 32.3556C30.7305 33.1956 30.5705 34.2256 30.0505 35.5156Z" stroke="white" stroke-width="1.5" stroke-linecap="round" stroke-linejoin="round"/>
<path d="M33.5217 40.2003V42.1503C33.5217 42.3503 33.5117 42.5503 33.5017 42.7503C33.3117 46.2403 31.3617 48.0003 27.6617 48.0003H19.8617C19.6217 48.0003 19.3817 47.9803 19.1517 47.9503C15.9717 47.7403 14.2717 46.0403 14.0617 42.8603C14.0317 42.6303 14.0117 42.3903 14.0117 42.1503V40.2003C14.0117 38.1903 15.2317 36.4603 16.9717 35.7103C17.5717 35.4603 18.2117 35.3203 18.8917 35.3203H28.6517C29.1417 35.3203 29.6217 35.3903 30.0617 35.5203C32.0517 36.1303 33.5217 37.9903 33.5217 40.2003Z" stroke="white" stroke-width="1.5" stroke-linecap="round" stroke-linejoin="round"/>
<path d="M18.71 31.5312L16.96 35.7112C15.22 36.4612 14 38.1913 14 40.2013V37.2713C14 34.4313 16.02 32.0612 18.71 31.5312Z" stroke="white" stroke-width="1.5" stroke-linecap="round" stroke-linejoin="round"/>
<path d="M33.5186 37.2638V40.1938C33.5186 37.9938 32.0586 36.1237 30.0586 35.5237C30.5786 34.2237 30.7286 33.2038 30.4786 32.3538C30.4586 32.2638 30.4286 32.1737 30.3886 32.0938C32.2486 33.0537 33.5186 35.0238 33.5186 37.2638Z" stroke="white" stroke-width="1.5" stroke-linecap="round" stroke-linejoin="round"/>
</g>
<defs>
<filter id="filter0_b_6253_76363" x="-16" y="-2" width="80" height="80" filterUnits="userSpaceOnUse" color-interpolation-filters="sRGB">
<feFlood flood-opacity="0" result="BackgroundImageFix"/>
<feGaussianBlur in="BackgroundImageFix" stdDeviation="8"/>
<feComposite in2="SourceAlpha" operator="in" result="effect1_backgroundBlur_6253_76363"/>
<feBlend mode="normal" in="SourceGraphic" in2="effect1_backgroundBlur_6253_76363" result="shape"/>
</filter>
</defs>
</svg>
