<svg width="62" height="62" viewBox="0 0 62 62" fill="none" xmlns="http://www.w3.org/2000/svg">
<path d="M12.4431 10.2686C13.8725 4.93397 19.3558 1.76815 24.6905 3.19757L51.7364 10.4445C57.0711 11.8739 60.2369 17.3573 58.8075 22.6919L51.5606 49.7379C50.1311 55.0725 44.6478 58.2384 39.3131 56.8089L12.2672 49.562C6.93253 48.1326 3.76671 42.6492 5.19613 37.3146L12.4431 10.2686Z" fill="#F79009"/>
<g filter="url(#filter0_b_6253_76375)">
<path d="M0 30C0 24.3995 0 21.5992 1.08993 19.4601C2.04867 17.5785 3.57847 16.0487 5.46009 15.0899C7.59921 14 10.3995 14 16 14H32C37.6005 14 40.4008 14 42.5399 15.0899C44.4215 16.0487 45.9513 17.5785 46.9101 19.4601C48 21.5992 48 24.3995 48 30V46C48 51.6005 48 54.4008 46.9101 56.5399C45.9513 58.4215 44.4215 59.9513 42.5399 60.9101C40.4008 62 37.6005 62 32 62H16C10.3995 62 7.59921 62 5.46009 60.9101C3.57847 59.9513 2.04867 58.4215 1.08993 56.5399C0 54.4008 0 51.6005 0 46V30Z" fill="white" fill-opacity="0.6"/>
<path d="M0.5 30C0.5 27.1915 0.500389 25.1152 0.634581 23.4727C0.768297 21.8361 1.03237 20.6744 1.53544 19.6871C2.44624 17.8996 3.89955 16.4462 5.68709 15.5354C6.67441 15.0324 7.83613 14.7683 9.47274 14.6346C11.1152 14.5004 13.1915 14.5 16 14.5H32C34.8085 14.5 36.8848 14.5004 38.5273 14.6346C40.1639 14.7683 41.3256 15.0324 42.3129 15.5354C44.1004 16.4462 45.5538 17.8996 46.4646 19.6871C46.9676 20.6744 47.2317 21.8361 47.3654 23.4727C47.4996 25.1152 47.5 27.1915 47.5 30V46C47.5 48.8085 47.4996 50.8848 47.3654 52.5273C47.2317 54.1639 46.9676 55.3256 46.4646 56.3129C45.5538 58.1004 44.1004 59.5538 42.3129 60.4646C41.3256 60.9676 40.1639 61.2317 38.5273 61.3654C36.8848 61.4996 34.8085 61.5 32 61.5H16C13.1915 61.5 11.1152 61.4996 9.47274 61.3654C7.83613 61.2317 6.67442 60.9676 5.68709 60.4646C3.89955 59.5538 2.44624 58.1004 1.53544 56.3129C1.03237 55.3256 0.768297 54.1639 0.634581 52.5273C0.500389 50.8848 0.5 48.8085 0.5 46V30Z" stroke="white" stroke-opacity="0.6"/>
<path fill-rule="evenodd" clip-rule="evenodd" d="M28.4697 29.4697C28.7626 29.1768 29.2374 29.1768 29.5303 29.4697L32.5303 32.4697C32.7448 32.6842 32.809 33.0068 32.6929 33.287C32.5768 33.5673 32.3033 33.75 32 33.75H21C18.6528 33.75 16.75 35.6528 16.75 38V39C16.75 39.4142 16.4142 39.75 16 39.75C15.5858 39.75 15.25 39.4142 15.25 39V38C15.25 34.8244 17.8244 32.25 21 32.25H30.1893L28.4697 30.5303C28.1768 30.2374 28.1768 29.7626 28.4697 29.4697Z" fill="white"/>
<path fill-rule="evenodd" clip-rule="evenodd" d="M19.5303 46.5303C19.2374 46.8232 18.7626 46.8232 18.4697 46.5303L15.4697 43.5303C15.2552 43.3158 15.191 42.9932 15.3071 42.713C15.4232 42.4327 15.6967 42.25 16 42.25H27C29.3472 42.25 31.25 40.3472 31.25 38V37C31.25 36.5858 31.5858 36.25 32 36.25C32.4142 36.25 32.75 36.5858 32.75 37V38C32.75 41.1756 30.1756 43.75 27 43.75H17.8107L19.5303 45.4697C19.8232 45.7626 19.8232 46.2374 19.5303 46.5303Z" fill="white"/>
</g>
<defs>
<filter id="filter0_b_6253_76375" x="-16" y="-2" width="80" height="80" filterUnits="userSpaceOnUse" color-interpolation-filters="sRGB">
<feFlood flood-opacity="0" result="BackgroundImageFix"/>
<feGaussianBlur in="BackgroundImageFix" stdDeviation="8"/>
<feComposite in2="SourceAlpha" operator="in" result="effect1_backgroundBlur_6253_76375"/>
<feBlend mode="normal" in="SourceGraphic" in2="effect1_backgroundBlur_6253_76375" result="shape"/>
</filter>
</defs>
</svg>
