<svg width="62" height="62" viewBox="0 0 62 62" fill="none" xmlns="http://www.w3.org/2000/svg">
<path d="M12.4431 10.2686C13.8725 4.93397 19.3558 1.76815 24.6905 3.19757L51.7364 10.4445C57.0711 11.8739 60.2369 17.3573 58.8075 22.6919L51.5606 49.7379C50.1311 55.0725 44.6478 58.2384 39.3131 56.8089L12.2672 49.562C6.93253 48.1326 3.76671 42.6492 5.19613 37.3146L12.4431 10.2686Z" fill="#189A8A"/>
<g filter="url(#filter0_b_6253_76369)">
<path d="M0 30C0 24.3995 0 21.5992 1.08993 19.4601C2.04867 17.5785 3.57847 16.0487 5.46009 15.0899C7.59921 14 10.3995 14 16 14H32C37.6005 14 40.4008 14 42.5399 15.0899C44.4215 16.0487 45.9513 17.5785 46.9101 19.4601C48 21.5992 48 24.3995 48 30V46C48 51.6005 48 54.4008 46.9101 56.5399C45.9513 58.4215 44.4215 59.9513 42.5399 60.9101C40.4008 62 37.6005 62 32 62H16C10.3995 62 7.59921 62 5.46009 60.9101C3.57847 59.9513 2.04867 58.4215 1.08993 56.5399C0 54.4008 0 51.6005 0 46V30Z" fill="white" fill-opacity="0.6"/>
<path d="M0.5 30C0.5 27.1915 0.500389 25.1152 0.634581 23.4727C0.768297 21.8361 1.03237 20.6744 1.53544 19.6871C2.44624 17.8996 3.89955 16.4462 5.68709 15.5354C6.67441 15.0324 7.83613 14.7683 9.47274 14.6346C11.1152 14.5004 13.1915 14.5 16 14.5H32C34.8085 14.5 36.8848 14.5004 38.5273 14.6346C40.1639 14.7683 41.3256 15.0324 42.3129 15.5354C44.1004 16.4462 45.5538 17.8996 46.4646 19.6871C46.9676 20.6744 47.2317 21.8361 47.3654 23.4727C47.4996 25.1152 47.5 27.1915 47.5 30V46C47.5 48.8085 47.4996 50.8848 47.3654 52.5273C47.2317 54.1639 46.9676 55.3256 46.4646 56.3129C45.5538 58.1004 44.1004 59.5538 42.3129 60.4646C41.3256 60.9676 40.1639 61.2317 38.5273 61.3654C36.8848 61.4996 34.8085 61.5 32 61.5H16C13.1915 61.5 11.1152 61.4996 9.47274 61.3654C7.83613 61.2317 6.67442 60.9676 5.68709 60.4646C3.89955 59.5538 2.44624 58.1004 1.53544 56.3129C1.03237 55.3256 0.768297 54.1639 0.634581 52.5273C0.500389 50.8848 0.5 48.8085 0.5 46V30Z" stroke="white" stroke-opacity="0.6"/>
<path d="M34 38V43C34 46 32 48 29 48H19C16 48 14 46 14 43V38C14 35.28 15.64 33.38 18.19 33.06C18.45 33.02 18.72 33 19 33H29C29.26 33 29.51 33.01 29.75 33.05C32.33 33.35 34 35.26 34 38Z" stroke="white" stroke-width="1.5" stroke-linecap="round" stroke-linejoin="round"/>
<path d="M29.7514 33.05C29.5114 33.01 29.2614 33 29.0014 33H19.0014C18.7214 33 18.4514 33.02 18.1914 33.06C18.3314 32.78 18.5314 32.52 18.7714 32.28L22.0214 29.02C23.3914 27.66 25.6114 27.66 26.9814 29.02L28.7314 30.79C29.3714 31.42 29.7114 32.22 29.7514 33.05Z" stroke="white" stroke-width="1.5" stroke-linecap="round" stroke-linejoin="round"/>
<path d="M34 38.5H31C29.9 38.5 29 39.4 29 40.5C29 41.6 29.9 42.5 31 42.5H34" stroke="white" stroke-width="1.5" stroke-linecap="round" stroke-linejoin="round"/>
</g>
<defs>
<filter id="filter0_b_6253_76369" x="-16" y="-2" width="80" height="80" filterUnits="userSpaceOnUse" color-interpolation-filters="sRGB">
<feFlood flood-opacity="0" result="BackgroundImageFix"/>
<feGaussianBlur in="BackgroundImageFix" stdDeviation="8"/>
<feComposite in2="SourceAlpha" operator="in" result="effect1_backgroundBlur_6253_76369"/>
<feBlend mode="normal" in="SourceGraphic" in2="effect1_backgroundBlur_6253_76369" result="shape"/>
</filter>
</defs>
</svg>
