<svg width="93" height="40" viewBox="0 0 93 40" fill="none" xmlns="http://www.w3.org/2000/svg">
<path d="M38.9138 32.2173H36.2627V26.1082C36.2627 25.3993 36.1504 24.9012 35.9232 24.6086C35.6594 24.266 35.1971 24.0974 34.5311 24.0974C33.865 24.0974 33.374 24.3187 33.0162 24.7615C32.6584 25.2043 32.4808 25.7604 32.4808 26.4324V32.22H29.8297V18.576H32.4808V23.4332C32.6819 22.9905 33.058 22.6373 33.6091 22.3711C34.1602 22.1049 34.7687 21.9732 35.4322 21.9732C36.3855 21.9732 37.1821 22.2262 37.8194 22.7322C38.5455 23.3146 38.9111 24.1422 38.9111 25.2174V32.22L38.9138 32.2173Z" fill="#1AA998"/>
<path d="M48.9197 32.7866C48.9197 34.128 48.4443 35.2033 47.491 36.0124C46.6134 36.7346 45.5608 37.093 44.3306 37.093C43.1005 37.093 42.1106 36.7346 41.2852 36.023C40.3711 35.2191 39.9114 34.128 39.9114 32.7497H42.3665C42.3665 33.3954 42.5546 33.9014 42.9281 34.2677C43.2519 34.5972 43.6646 34.7606 44.1661 34.7606C44.7172 34.7606 45.1978 34.5734 45.6104 34.1966C46.0466 33.7696 46.266 33.2109 46.266 32.523V30.9681C46.078 31.424 45.7384 31.7772 45.2448 32.0302C44.7511 32.2832 44.1974 32.4097 43.5863 32.4097C42.612 32.4097 41.7789 32.1198 41.0919 31.5374C40.3032 30.8679 39.9114 29.9429 39.9114 28.7675V22.1076H42.5624V28.3695C42.5624 29.6214 43.124 30.2486 44.2471 30.2486C44.8452 30.2486 45.331 30.072 45.7071 29.7162C46.0806 29.3631 46.2686 28.9124 46.2686 28.3695V22.1076H48.9197V32.7919V32.7866Z" fill="#1AA998"/>
<path d="M59.4324 32.7866C59.4324 34.128 58.9126 35.2033 57.8705 36.0124C56.9172 36.7346 55.7706 37.093 54.4281 37.093C53.0856 37.093 52.0017 36.7346 51.1006 36.023C50.0976 35.2191 49.5962 34.128 49.5962 32.7497H52.0539C52.0539 33.3954 52.2785 33.9014 52.7278 34.2677C53.1274 34.5972 53.6341 34.7606 54.2479 34.7606C54.9113 34.7606 55.4859 34.5734 55.9743 34.1966C56.5124 33.7696 56.7814 33.2109 56.7814 32.523V30.9681C56.5933 31.424 56.2486 31.7772 55.7497 32.0302C55.2482 32.2832 54.6814 32.4097 54.0415 32.4097C53.0151 32.4097 52.1166 32.1198 51.3409 31.5374C50.4529 30.8679 49.9331 29.9429 49.7842 28.7675C49.6719 27.8819 49.6144 27.2231 49.6144 26.7935C49.6144 25.9211 49.8025 25.0804 50.176 24.2687C50.526 23.5096 51.0536 22.9088 51.7614 22.466C52.4666 22.0232 53.2031 21.8018 53.9658 21.8018C55.1908 21.8018 56.1101 22.321 56.7239 23.3568C56.737 23.3568 56.75 23.3621 56.7605 23.3752V22.1049H59.4298V32.7892L59.4324 32.7866ZM56.8362 27.397C56.8362 25.2227 56.0945 24.1343 54.6083 24.1343C53.1222 24.1343 52.3621 25.1726 52.3621 27.2468C52.3621 28.2219 52.5998 28.9915 53.0725 29.5607C53.4852 30.0668 53.9971 30.3198 54.6083 30.3198C55.2195 30.3198 55.7183 30.072 56.1441 29.5792C56.6064 29.0363 56.8362 28.3089 56.8362 27.397Z" fill="#1AA998"/>
<path d="M63.0602 20.9084H60.4092V18.4231H63.0602V20.9084ZM63.0602 32.2173H60.4092V22.1023H63.0602V32.2173Z" fill="#1AA998"/>
<path d="M72.4446 32.2173H63.7942V30.1537L68.9291 24.266H64.152V22.1023H72.2749V24.2897L67.1974 30.0536H72.4446V32.2173Z" fill="#1AA998"/>
<path d="M83.088 27.1703C83.088 28.778 82.6309 30.0641 81.7141 31.0313C80.8 31.9986 79.5567 32.4835 77.9896 32.4835C76.4225 32.4835 75.1401 31.9933 74.2181 31.0129C73.2961 30.0325 72.8364 28.7516 72.8364 27.1703C72.8364 25.589 73.2935 24.2897 74.2103 23.3093C75.1244 22.3289 76.3859 21.8387 77.9896 21.8387C79.5933 21.8387 80.8548 22.3395 81.769 23.3383C82.6466 24.3135 83.0854 25.589 83.0854 27.1703H83.088ZM80.3978 27.1703C80.3978 25.1199 79.5959 24.0974 77.9896 24.0974C76.3833 24.0974 75.5632 25.1226 75.5632 27.1703C75.5632 29.2181 76.3729 30.2433 77.9896 30.2433C79.6064 30.2433 80.3978 29.2181 80.3978 27.1703Z" fill="#1AA998"/>
<path d="M93 32.2173H90.349V26.1082C90.349 25.3993 90.2419 24.9012 90.0303 24.6086C89.7665 24.266 89.2964 24.0974 88.6199 24.0974C87.2539 24.0974 86.5696 24.8748 86.5696 26.4324V32.2199H83.9186V22.1049H86.4573V23.0537C86.4573 23.42 86.4625 23.6045 86.4756 23.6045C86.4756 23.5913 86.4808 23.5861 86.4939 23.5861C86.8073 23.03 87.2565 22.5951 87.839 22.2868C88.4214 21.9784 89.0404 21.8229 89.6908 21.8229C91.0202 21.8229 91.984 22.3474 92.5873 23.3989C92.8642 23.905 93 24.5111 93 25.2201V32.2226V32.2173Z" fill="#1AA998"/>
<path d="M16.4674 14.2485C16.0051 14.3065 15.5741 14.0561 15.3782 13.6555C15.3286 13.5527 13.3436 3.50361 13.2705 2.9238C13.1477 1.94339 13.8372 1.04733 14.8115 0.923458C15.7857 0.79959 16.6711 1.49536 16.7939 2.4784C16.867 3.06084 17.4024 13.2892 17.3789 13.4025C17.2901 13.84 16.9323 14.1932 16.4674 14.2512V14.2485Z" fill="#DFB64B"/>
<path d="M24.5799 14.2301C24.606 14.1326 27.6645 8.34764 27.9439 7.92333C28.4141 7.20911 29.37 7.01672 30.0752 7.4911C30.783 7.96549 30.9737 8.93008 30.5035 9.64167C30.2241 10.0633 26.113 15.1419 26.0347 15.2026C25.7291 15.4371 25.2981 15.4661 24.9612 15.2395C24.6243 15.0128 24.4832 14.6017 24.5799 14.2274V14.2301Z" fill="#DFB64B"/>
<path d="M0.464568 16.9314C1.21678 15.9563 2.6089 15.7797 3.5779 16.5388C4.14989 16.9894 9.56688 22.4027 9.64524 22.5213C9.94821 22.9878 9.94299 23.6177 9.58255 24.0842C9.22473 24.548 8.624 24.7114 8.10163 24.5296C7.96582 24.4821 1.42834 20.521 0.856346 20.073C-0.11004 19.3139 -0.285034 17.9092 0.46718 16.9314H0.464568Z" fill="#DFB64B"/>
<path d="M22.0098 14.0298C21.7826 14.4146 21.3333 14.628 20.8737 14.5332C20.4166 14.4356 20.0901 14.0561 20.0353 13.6134C20.0222 13.4974 21.2106 4.2231 21.3281 3.64856C21.5292 2.68133 22.4721 2.06199 23.4307 2.26493C24.3892 2.46786 25.003 3.41927 24.8019 4.3865C24.6817 4.96104 22.0647 13.9296 22.0072 14.0298H22.0098Z" fill="#DFB64B"/>
<path d="M12.265 15.6216C11.8445 15.8298 11.356 15.7323 11.0426 15.4187C10.9617 15.337 6.23159 7.29608 5.97563 6.77162C5.54206 5.88345 5.90511 4.81081 6.7853 4.37595C7.6655 3.93846 8.72852 4.30479 9.16209 5.19295C9.41805 5.72005 12.8396 14.4119 12.8526 14.5252C12.9075 14.968 12.6855 15.416 12.265 15.6242V15.6216Z" fill="#DFB64B"/>
<path d="M19.8672 19.5115C19.9822 19.5115 20.0971 19.514 20.2172 19.5215C23.2519 19.7153 24.8816 22.3168 25.0374 22.5752C26.1308 24.6822 25.837 27.2191 24.2992 29.0056C23.1471 30.3424 21.4433 31.0878 19.6782 31.0878C19.2031 31.0878 18.7203 31.0331 18.2451 30.9213C18.9042 32.8991 19.5632 34.8769 20.2223 36.8548C19.8238 36.7107 14.3547 34.6185 13.2946 29.3559C13.2103 28.941 12.3724 24.3965 15.4327 21.5068C15.9436 21.0247 17.5222 19.509 19.8672 19.509M19.7497 27.3905C20.8456 27.3905 21.7371 26.5259 21.7371 25.4574C21.7371 24.389 20.8481 23.5243 19.7497 23.5243C18.6513 23.5243 17.7623 24.389 17.7623 25.4574C17.7623 26.5259 18.6513 27.3905 19.7497 27.3905ZM19.8672 17.2728C17.7087 17.2728 15.683 18.1524 13.8463 19.8867L13.831 19.9016C9.92525 23.5889 10.9113 29.1621 11.0364 29.7858C12.3264 36.1988 18.6922 38.686 19.4125 38.9494C19.6756 39.0438 19.9464 39.091 20.2172 39.091C20.7996 39.091 21.3718 38.8748 21.806 38.4698C22.4447 37.876 22.6771 36.9815 22.4038 36.164L21.3999 33.1476C23.211 32.7799 24.851 31.8357 26.0541 30.4393C28.1922 27.9595 28.5958 24.476 27.0836 21.5639C27.0606 21.5217 27.0376 21.4794 27.0146 21.4397C26.6238 20.7912 24.4652 17.5486 20.3628 17.2877C20.1967 17.2778 20.0281 17.2728 19.8647 17.2728H19.8672Z" fill="#1AA998"/>
</svg>
