<svg width="101" height="50" viewBox="0 0 101 50" fill="none" xmlns="http://www.w3.org/2000/svg">
<path d="M93.1949 3.09165C93.1858 3.0784 93.1792 3.0635 93.1776 3.04446C93.129 2.58331 93.0943 2.12133 93.0696 1.65769C93.058 1.44492 93.049 1.23131 93.0415 1.01854C92.1568 1.00529 91.2721 0.994529 90.3866 0.994529C90.2967 1.01854 90.2373 1.04089 90.1772 1.04669C89.2347 1.13445 88.2923 1.2189 87.3507 1.30583C87.0365 1.3348 86.9417 1.43001 86.9153 1.74297C86.9063 1.85225 86.9071 1.96402 86.9104 2.07414C86.9434 3.369 86.8749 4.66387 86.973 5.96122C87.0308 6.72539 86.9326 7.50197 86.8914 8.27194C86.8799 8.48885 86.8197 8.70328 86.7752 8.9558C86.5237 9.02534 86.2788 9.11393 86.0265 9.15947C85.4056 9.27124 84.7823 9.37307 84.1573 9.46C83.4614 9.55687 82.763 9.56183 82.0704 9.42357C81.7752 9.36479 81.739 9.31015 81.72 9.00796C81.7134 8.89784 81.7142 8.7869 81.7175 8.67679C81.7522 7.31321 81.6483 5.94714 81.7926 4.58356C81.8734 3.81773 81.903 3.04611 81.9517 2.27698C81.9632 2.09815 81.969 1.91766 81.9566 1.73966C81.9377 1.47389 81.8684 1.39773 81.5955 1.39193C81.1016 1.38034 80.6061 1.3762 80.1122 1.39607C79.0436 1.43829 77.9758 1.50204 76.9081 1.54758C76.5238 1.56414 76.1388 1.5451 75.7537 1.5542C75.6045 1.55751 75.4536 1.58484 75.3077 1.61961C75.1419 1.65852 75.0545 1.77691 75.0463 1.94829C75.0405 2.07248 75.0405 2.19667 75.038 2.32086C75.0117 3.43689 74.9869 4.55293 74.9581 5.66813C74.9325 6.63183 74.8806 7.59635 74.8781 8.56005C74.8682 11.9959 74.874 15.4318 74.8748 18.8676C74.8748 19.0192 74.8773 19.1715 74.8847 19.323C74.935 20.3264 74.9886 21.3299 75.0372 22.3341C75.071 23.0354 75.0958 23.7375 75.132 24.4395C75.1386 24.5761 75.1807 24.7103 75.203 24.8469C75.2343 25.0406 75.3489 25.1292 75.5402 25.1433C75.8543 25.1665 76.1676 25.2087 76.4826 25.2252C78.0822 25.3113 79.6628 25.1333 81.2335 24.8527C81.6598 24.7765 81.7019 24.7078 81.7159 24.2781C81.7192 24.1812 81.7175 24.0852 81.7175 23.9883C81.7175 22.3606 81.7093 20.7321 81.7225 19.1044C81.7274 18.4992 81.7654 17.8932 81.8173 17.2896C81.8684 16.6927 82.4349 16.1405 83.0219 16.1305C84.121 16.1132 85.2209 16.1206 86.32 16.1289C86.6284 16.1314 86.7158 16.22 86.7381 16.5205C86.776 17.0421 86.8222 17.5653 86.8255 18.0877C86.8354 20.1435 86.8288 22.2 86.8312 24.2557C86.8312 24.7599 86.8823 24.822 87.3655 24.8138C89.0954 24.7856 90.8261 24.8966 92.5543 24.7368C93.0275 24.6929 93.091 24.6473 93.0968 24.163C93.1421 20.1915 93.0523 16.2191 93.1636 12.2468C93.246 9.29607 93.1792 6.34123 93.1817 3.38887C93.1817 3.29532 93.1883 3.20011 93.1974 3.0933L93.1949 3.09165Z" fill="#A0A0A0"/>
<path d="M35.761 24.5875C35.7568 24.5014 35.7437 24.4327 35.7527 24.3681C35.8871 23.4276 35.9778 22.4772 36.1716 21.5491C36.4214 20.3494 36.7397 19.163 37.0555 17.9791C37.3251 16.9674 37.6219 15.9631 37.9262 14.9622C38.2189 14.0001 38.5355 13.0447 38.8472 12.0876C39.1795 11.066 39.5183 10.046 39.8547 9.02598C40.0402 8.46299 40.2258 7.90084 40.4088 7.33785C40.4509 7.20704 40.488 7.07375 40.516 6.93879C40.5853 6.61094 40.5317 6.51738 40.2085 6.43211C39.9966 6.37664 39.7764 6.34932 39.5629 6.29716C39.2256 6.21437 39.1498 6.11088 39.2264 5.76646C39.3757 5.09419 39.5439 4.42523 39.7063 3.75627C39.8201 3.28767 39.9446 2.82155 40.0501 2.35129C40.1095 2.08967 40.2505 1.95969 40.5168 1.90505C41.6332 1.67571 42.7604 1.53579 43.8933 1.40747C45.6759 1.20545 47.4585 1.28245 49.2411 1.26341C49.5825 1.2601 49.9247 1.30232 50.266 1.33544C51.3981 1.44638 52.5302 1.56312 53.6622 1.6782C53.9615 1.70883 54.1009 1.83136 54.1594 2.13686C54.3911 3.35473 54.6137 4.57508 54.8471 5.79295C55.0647 6.92969 55.3014 8.06311 55.5125 9.20067C55.7112 10.2712 55.8843 11.3466 56.0731 12.4188C56.4153 14.3594 56.76 16.3001 57.1054 18.2399C57.4361 20.0986 57.7717 21.9572 58.1006 23.8159C58.1864 24.3011 58.0941 24.3971 57.6092 24.4443C57.1318 24.4915 56.6569 24.566 56.1812 24.6248C55.773 24.6745 55.3657 24.7424 54.9559 24.7606C53.9417 24.8045 52.9268 24.8326 51.9118 24.8517C51.4814 24.8591 51.4022 24.7929 51.2802 24.3541C51.0856 23.6503 50.9108 22.9408 50.7261 22.2338C50.5859 21.7006 50.4383 21.1691 50.3039 20.6351C50.2487 20.4148 50.1209 20.3122 49.9007 20.2931C49.3549 20.2451 48.8099 20.1631 48.2632 20.1449C47.4808 20.1193 46.695 20.1035 45.915 20.1474C45.0814 20.1946 44.2503 20.3113 43.42 20.4082C43.166 20.438 42.997 20.6028 42.9162 20.8429C42.8156 21.1434 42.7092 21.4431 42.6392 21.7519C42.4611 22.531 42.3044 23.315 42.1345 24.0958C42.034 24.5577 41.8987 24.6554 41.4353 24.6935C40.6158 24.7598 39.7978 24.8434 38.9791 24.9187C38.8834 24.9278 38.7862 24.9452 38.6922 24.9369C37.805 24.8574 36.9178 24.7755 36.0314 24.6869C35.9424 24.6778 35.8574 24.6256 35.7618 24.59L35.761 24.5875ZM49.1084 14.578C49.0795 14.3644 49.063 14.2294 49.0424 14.0953C48.9707 13.6333 48.8981 13.1714 48.8239 12.7102C48.6739 11.773 48.5254 10.835 48.3721 9.8986C48.2764 9.31492 48.1635 8.7329 48.0761 8.14756C47.9953 7.6061 47.926 7.51751 47.4041 7.42561C46.9935 7.35275 46.8962 7.39829 46.7478 7.7899C46.5037 8.43319 46.2712 9.08145 46.0378 9.72888C45.5233 11.157 45.1597 12.6283 44.8192 14.1053C44.7796 14.2783 44.7359 14.4588 44.9132 14.6575C46.2737 14.8819 47.6646 14.8876 49.1084 14.5797V14.578Z" fill="#A0A0A0"/>
<path d="M15.3837 20.7967C16.5966 20.7967 17.6272 20.7909 18.6579 20.8008C18.9308 20.8033 19.2029 20.8538 19.4758 20.882C19.6687 20.901 19.7718 21.0053 19.7875 21.2007C19.8444 21.9003 19.9013 22.5999 19.9606 23.2995C19.9854 23.5876 20.0497 23.8774 20.0348 24.1622C19.9911 24.9727 19.9169 25.7816 19.8518 26.5905C19.8386 26.7552 19.8114 26.9183 19.7891 27.0822C19.7495 27.3778 19.6621 27.4755 19.3744 27.4962C18.8409 27.5335 18.3066 27.5575 17.7723 27.5873C16.8414 27.6386 15.9106 27.6916 14.9805 27.7421C14.8436 27.7495 14.7059 27.752 14.5682 27.752C13.3999 27.752 12.2323 27.7595 11.064 27.7487C10.6534 27.7454 10.2428 27.7048 9.83298 27.6734C9.13626 27.6196 8.43871 27.5691 7.74281 27.4987C6.97848 27.4209 6.21249 27.3472 5.45475 27.2255C4.50655 27.0731 3.56412 26.8794 2.62169 26.6915C2.35372 26.6385 2.09482 26.5391 1.82932 26.4704C1.58856 26.4083 1.45993 26.2543 1.40634 26.0167C1.33131 25.6806 1.23154 25.3494 1.16723 25.0108C0.945428 23.8476 0.712088 22.686 0.528219 21.5161C0.39712 20.6874 0.333631 19.8479 0.248705 19.0125C0.166253 18.2045 0.0936945 17.3964 0.0203118 16.5875C0.00629484 16.4369 0.00547032 16.2845 0.00547032 16.133C0.00382127 15.1254 -0.00689755 14.1187 0.00711937 13.1111C0.0244344 11.9272 0.0805021 10.7449 0.23139 9.56762C0.332807 8.77613 0.375682 7.97553 0.498536 7.18818C0.627986 6.35943 0.79619 5.53566 0.9949 4.72098C1.15733 4.05285 1.38985 3.40128 1.58938 2.74226C1.68915 2.41192 1.91507 2.22895 2.22921 2.09648C3.4594 1.57903 4.75556 1.35466 6.0649 1.17832C6.63547 1.10132 7.20687 1.02101 7.77991 0.967198C8.62588 0.88689 9.47349 0.794163 10.3219 0.770153C11.5026 0.736209 12.6858 0.785884 13.8666 0.752767C14.7117 0.728757 15.5362 0.866192 16.3657 0.963886C16.9915 1.03757 17.6124 1.15845 18.2357 1.25945C18.3305 1.27518 18.4254 1.29174 18.5177 1.31741C18.9432 1.43663 19.033 1.54177 19.0487 1.9814C19.0817 2.9037 19.127 3.826 19.1287 4.74913C19.1303 5.50585 19.0825 6.2634 19.0462 7.02011C19.0289 7.39351 18.939 7.46719 18.5111 7.46802C17.1094 7.47133 15.7077 7.48623 14.306 7.46388C13.0659 7.44484 11.8432 7.62201 10.6146 7.73792C10.3706 7.7611 10.1298 7.83727 9.894 7.91013C9.57985 8.00782 9.38691 8.22474 9.33249 8.55922C9.18408 9.47075 9.0167 10.3798 8.88725 11.2938C8.76357 12.1656 8.67865 13.0432 8.57476 13.9175C8.4148 15.2654 8.52528 16.6182 8.5055 17.9685C8.49972 18.3941 8.54095 18.8221 8.59125 19.2452C8.65638 19.7899 9.00846 20.141 9.47679 20.3546C9.87586 20.5367 10.3104 20.5897 10.7507 20.6493C12.3527 20.8654 13.9597 20.7669 15.382 20.7967H15.3837Z" fill="#A0A0A0"/>
<path d="M82.995 27.6195C83.0115 27.8224 83.0337 27.9697 83.0337 28.1171C83.0362 29.5651 83.0807 31.0157 83.0263 32.462C82.8663 36.7498 83.0024 41.0384 82.9521 45.3262C82.9513 45.4231 82.9546 45.52 82.9471 45.616C82.9199 45.9654 82.816 46.0763 82.4747 46.1277C81.2264 46.3156 79.9789 46.5085 78.7297 46.6857C78.3232 46.7428 77.9109 46.7569 77.5003 46.79C77.0361 46.8273 76.5695 46.8513 76.1069 46.9051C75.8488 46.9349 75.6781 46.8504 75.5718 46.6236C75.4085 46.2742 75.2486 45.9232 75.0919 45.5705C74.4001 44.009 73.7059 42.4484 73.0207 40.8836C72.6233 39.9754 72.244 39.0589 71.849 38.149C71.7946 38.0232 71.6957 37.9164 71.5695 37.7309C71.483 37.9073 71.4137 37.9942 71.3972 38.0911C71.337 38.4438 71.2587 38.7981 71.2504 39.1533C71.21 40.9714 71.187 42.7912 71.1622 44.6093C71.1548 45.1333 71.1663 45.6574 71.1581 46.1815C71.1515 46.6153 71.0748 46.6973 70.6461 46.7917C70.4177 46.8422 70.1893 46.8894 69.9625 46.9448C68.9418 47.1965 67.9202 47.0814 66.8986 46.9572C66.6191 46.9233 66.5721 46.8653 66.549 46.593C66.5383 46.4696 66.549 46.3446 66.5424 46.2204C66.4921 45.2724 66.4278 44.3245 66.3932 43.3757C66.3676 42.6868 66.4014 41.9955 66.3742 41.3075C66.2546 38.2889 66.2967 35.2695 66.3008 32.2509C66.3025 30.9834 66.3503 29.7167 66.3808 28.4499C66.3899 28.0765 66.4674 27.9938 66.826 27.925C67.8237 27.733 68.8181 27.521 69.8207 27.3579C70.4416 27.2569 71.0732 27.2072 71.7014 27.1807C72.4007 27.1509 73.1023 27.1708 73.8032 27.1741C74.2624 27.1758 74.3012 27.2163 74.4356 27.6543C74.9221 29.2348 75.3838 30.8244 75.9131 32.3908C76.3229 33.6037 76.8193 34.7868 77.2802 35.9815C77.3198 36.0834 77.3725 36.1844 77.4368 36.2721C77.5952 36.489 77.8145 36.4791 77.9101 36.2299C77.9984 36.0022 78.0701 35.7538 78.0775 35.5121C78.1196 34.0243 78.1369 32.5366 78.1715 31.0488C78.1913 30.1811 78.2226 29.3143 78.2581 28.4475C78.2746 28.0327 78.3397 27.9507 78.7635 27.8961C79.3201 27.824 79.8816 27.781 80.4414 27.7354C81.1241 27.68 81.8077 27.632 82.4912 27.5897C82.638 27.5806 82.7872 27.6071 82.9941 27.6212L82.995 27.6195Z" fill="#A0A0A0"/>
<path d="M58.7991 19.6765C58.9186 19.6433 59.0473 19.5912 59.18 19.5738C59.9138 19.4777 60.6543 19.4173 61.3831 19.2923C62.4517 19.1085 63.5228 18.9272 64.5526 18.567C64.8766 18.4536 65.2015 18.3427 65.5222 18.2218C65.8265 18.1075 65.9683 17.8865 65.9691 17.5537C65.9708 17.196 65.9947 16.8383 66.0285 16.4823C66.0491 16.2646 65.9543 16.1354 65.768 16.0684C65.4711 15.9607 65.1751 15.8366 64.8684 15.7745C63.9804 15.5948 63.0841 15.4582 62.1969 15.2761C61.1885 15.0691 60.1868 14.8348 59.1833 14.6063C58.795 14.5177 58.4074 14.4266 58.0257 14.314C57.686 14.2138 57.6381 14.1559 57.6431 13.8206C57.6505 13.2568 57.6835 12.693 57.7049 12.1283C57.7115 11.9495 57.709 11.7698 57.7222 11.591C57.7635 11.028 57.8344 10.4667 57.8492 9.90369C57.8838 8.58647 58.3868 7.37606 58.6779 6.11762C58.8296 5.46025 59.0316 4.81447 59.1784 4.15545C59.2682 3.75225 59.5156 3.54445 59.8776 3.42191C60.7755 3.11807 61.6602 2.76951 62.5713 2.51617C63.5475 2.24461 64.5419 2.02687 65.5396 1.84887C66.7813 1.62616 68.0338 1.4672 69.2821 1.28174C69.3365 1.27346 69.3909 1.26601 69.4462 1.26436C70.5304 1.23455 71.6138 1.19978 72.6981 1.17908C73.1491 1.1708 73.2472 1.27678 73.2992 1.72385C73.4055 2.64036 73.5383 3.55438 73.6125 4.47337C73.6611 5.0761 73.638 5.68627 73.6265 6.29314C73.6207 6.58871 73.5234 6.6806 73.2258 6.71786C72.2867 6.83708 71.3467 6.94305 70.4076 7.06393C69.959 7.12188 69.5121 7.20054 69.0652 7.27091C68.2795 7.39344 67.4929 7.51597 66.7071 7.63933C66.5579 7.66252 66.4103 7.6948 66.261 7.71799C66.092 7.74448 65.9922 7.843 65.9444 8.00362C65.7234 8.74378 65.5074 9.48642 65.4761 10.2647C65.4563 10.7457 65.5033 10.7912 65.9856 10.8765C67.5531 11.153 69.1213 11.4262 70.6887 11.7061C71.4456 11.841 72.2009 11.9818 72.9553 12.1283C73.5053 12.2351 73.7065 12.4355 73.784 13.0026C73.8862 13.7527 73.9621 14.5069 74.047 15.2595C74.0775 15.5327 74.1187 15.8068 74.127 16.0816C74.169 17.5222 73.8326 18.8957 73.3758 20.2461C73.3008 20.4679 73.2167 20.6873 73.145 20.91C73.0551 21.1882 72.8836 21.3902 72.6198 21.5153C71.5759 22.0087 70.5477 22.5386 69.4841 22.984C68.7264 23.3011 67.9299 23.5395 67.1342 23.7473C65.594 24.1497 64.0455 24.5239 62.4929 24.8741C61.6503 25.0645 60.7911 25.1838 59.9377 25.3278C59.5304 25.3965 59.4422 25.3361 59.3424 24.9163C59.1652 24.1663 58.9384 23.4203 58.8436 22.6594C58.7265 21.7198 58.6449 20.7685 58.7339 19.8155C58.7364 19.7899 58.7562 19.7659 58.7974 19.6789L58.7991 19.6765Z" fill="#A0A0A0"/>
<path d="M47.781 47.1731C47.772 46.9562 47.7332 46.7898 47.7621 46.6358C48.0564 45.0677 48.256 43.4823 48.6921 41.9398C49.0854 40.5481 49.407 39.1365 49.797 37.744C50.262 36.0856 50.7658 34.4381 51.2539 32.7864C51.3512 32.456 51.4667 32.1307 51.5541 31.7978C51.5936 31.6455 51.587 31.4816 51.6035 31.2895C51.3479 31.2108 51.1286 31.138 50.9068 31.0751C50.5762 30.9815 50.5077 30.8813 50.5803 30.5394C50.7353 29.8117 50.8961 29.0856 51.0552 28.3587C51.108 28.1161 51.1707 27.876 51.2135 27.6318C51.2655 27.3387 51.418 27.1689 51.7206 27.1218C52.452 27.0067 53.1817 26.8759 53.913 26.7575C55.619 26.4818 57.3381 26.6051 59.0523 26.6026C59.5965 26.6018 60.1407 26.726 60.6849 26.798C61.1878 26.8651 61.6891 26.9446 62.1921 27.0092C62.667 27.0696 62.7684 27.1607 62.8534 27.6359C63.3571 30.4715 63.8634 33.3071 64.3655 36.1428C64.589 37.4037 64.8174 38.6646 65.0186 39.9297C65.2882 41.6294 65.538 43.3332 65.7862 45.0363C65.8497 45.4718 65.8761 45.913 65.914 46.3518C65.9206 46.4305 65.9 46.5116 65.8876 46.6333C65.6897 46.6789 65.4951 46.7335 65.2964 46.7683C64.932 46.832 64.5659 46.8974 64.1982 46.9372C63.7488 46.986 63.297 47.01 62.8459 47.0423C62.2176 47.0887 61.5877 47.1235 60.9602 47.1814C60.5463 47.2203 60.3814 47.1226 60.2866 46.7054C60.0879 45.8327 59.8933 44.9584 59.6987 44.0842C59.5932 43.6114 59.5561 43.5783 59.0688 43.5634C58.1775 43.5361 57.2853 43.4649 56.3965 43.4939C55.6181 43.5195 54.8431 43.6553 54.0672 43.7464C53.8347 43.7737 53.7003 43.9227 53.6385 44.1388C53.4307 44.8665 53.2072 45.5901 53.0258 46.3245C52.8675 46.9653 52.9788 47.0721 52.1164 47.1127C50.8565 47.1731 49.5933 47.1789 48.3318 47.2038C48.1702 47.2071 48.0086 47.1855 47.7819 47.1715L47.781 47.1731ZM58.6821 38.5056C58.5609 37.6305 58.4776 36.8217 58.3325 36.0252C58.1395 34.9688 57.9021 33.9198 57.677 32.8692C57.5649 32.3484 57.3925 32.2333 56.7964 32.2747C56.7412 32.4055 56.6645 32.5496 56.6175 32.7036C56.4072 33.3891 56.1887 34.0721 56.0057 34.7651C55.7204 35.8439 55.4574 36.9285 55.1985 38.0139C55.1597 38.1753 55.1985 38.3558 55.2009 38.5354C56.3833 38.7764 57.5022 38.7341 58.6821 38.5065V38.5056Z" fill="#A0A0A0"/>
<path d="M91.611 34.9962C92.1008 35.0939 92.5262 35.1841 92.9541 35.2636C93.6962 35.4002 94.4391 35.5318 95.1828 35.6618C96.2102 35.8407 97.2392 36.0112 98.2649 36.1958C98.6566 36.2662 99.0416 36.3697 99.4308 36.4533C99.7318 36.5179 99.928 36.7025 99.9849 36.9973C100.092 37.5503 100.222 38.1059 100.257 38.6664C100.303 39.4222 100.298 40.1848 100.259 40.9415C100.228 41.5309 100.149 42.1237 100.025 42.7008C99.8645 43.4542 99.6427 44.1952 99.4382 44.9387C99.3137 45.3915 99.0202 45.6821 98.5898 45.8833C97.3192 46.4769 96.0461 47.0664 94.7153 47.5085C93.5824 47.8852 92.4388 48.2363 91.2828 48.5302C90.0864 48.8349 88.8695 49.0609 87.6607 49.3142C87.3927 49.3705 87.1182 49.3954 86.8469 49.4384C86.5773 49.4815 86.3077 49.5286 86.0389 49.5758C85.7593 49.6247 85.6554 49.5725 85.5821 49.301C85.5062 49.022 85.4526 48.7363 85.3875 48.4548C85.1228 47.3123 84.8895 46.1665 84.9249 44.9825C84.9315 44.7507 84.8631 44.5181 84.8557 44.2846C84.8433 43.9187 84.9175 43.8499 85.2679 43.8144C86.9648 43.6438 88.6378 43.3325 90.2934 42.931C90.7848 42.8117 91.2532 42.5981 91.7306 42.4234C92.0109 42.3208 92.1939 42.1453 92.203 41.8182C92.2129 41.4614 92.2475 41.1046 92.2681 40.7477C92.283 40.477 92.1593 40.2949 91.8979 40.2245C91.4222 40.0962 90.9489 39.948 90.4657 39.8594C89.158 39.6176 87.8388 39.4322 86.536 39.1664C85.7585 39.0075 85 38.7491 84.2406 38.5132C83.8159 38.3807 83.7698 38.2574 83.8275 37.7995C83.853 37.595 83.8465 37.3872 83.8613 37.1811C83.9025 36.6181 83.9487 36.0559 83.9924 35.4938C84.0031 35.3563 84.0245 35.2189 84.0229 35.0823C84.0072 34.0391 84.1763 33.0266 84.4624 32.0256C84.6965 31.2043 84.8845 30.3706 85.0973 29.5427C85.2069 29.1155 85.3265 28.6916 85.4361 28.2652C85.5013 28.011 85.6472 27.8761 85.9144 27.8248C86.804 27.6542 87.6854 27.4414 88.5776 27.2883C89.0616 27.2046 89.5604 27.2046 90.0527 27.1748C90.5589 27.1442 91.0652 27.1235 91.5723 27.0995C91.6679 27.0954 91.7644 27.0937 91.8608 27.097C92.6144 27.1218 93.3681 27.1459 94.1217 27.174C94.8069 27.1997 95.492 27.227 96.1764 27.2609C96.4666 27.2758 96.554 27.3495 96.5516 27.6385C96.545 28.4093 96.5153 29.1801 96.4947 29.9508C96.4905 30.0883 96.4823 30.2265 96.4773 30.364C96.4485 31.2035 96.4238 32.043 96.3908 32.8825C96.3776 33.2286 96.2712 33.3089 95.9233 33.2907C95.3898 33.2625 94.8547 33.2493 94.3212 33.2145C93.8149 33.1814 93.3112 33.1243 92.8057 33.087C92.546 33.068 92.2855 33.0622 92.0249 33.0613C91.8773 33.0613 91.7347 33.1185 91.7215 33.2824C91.677 33.828 91.6506 34.3744 91.6118 34.997L91.611 34.9962Z" fill="#A0A0A0"/>
<path d="M34.8301 18.1936C34.878 18.4445 34.9571 18.6689 34.9588 18.8941C34.9695 20.6327 34.9678 22.3705 34.9637 24.1091C34.9629 24.4974 34.901 24.5628 34.5143 24.6034C33.6552 24.6936 32.7952 24.7731 31.9361 24.8584C31.1998 24.9321 30.4635 25.014 29.7263 25.0819C29.2489 25.1258 28.7691 25.149 28.2908 25.1862C28.0311 25.2069 27.773 25.2425 27.5133 25.2657C26.5717 25.3518 25.6284 25.4313 24.6868 25.5215C23.9769 25.5894 23.2695 25.678 22.5596 25.7409C22.2776 25.7658 21.9915 25.7451 21.707 25.7451C21.5701 25.4239 21.552 25.1225 21.5289 24.8236C21.5174 24.6729 21.524 24.5206 21.5256 24.3683C21.5404 23.1827 21.4621 22.0012 21.3747 20.819C21.3302 20.2154 21.378 19.6052 21.3558 18.9984C21.3162 17.8981 21.2494 16.7986 21.2065 15.6983C21.1875 15.2297 21.1966 14.7603 21.1958 14.2917C21.1941 13.4364 21.2304 12.5787 21.1867 11.7259C21.0243 8.54093 21.157 5.35509 21.1133 2.17009C21.1034 1.43904 21.1076 1.39433 21.8472 1.31237C22.9092 1.1948 23.9604 0.970435 25.0389 1.00355C25.9442 1.03087 26.8504 1.00935 27.7557 1.00935C27.8654 1.00935 27.9759 1.00521 28.0855 1.01514C28.3675 1.04081 28.445 1.13436 28.4384 1.41006C28.4137 2.45655 28.4096 3.5047 28.365 4.55036C28.2174 8.0243 28.3073 11.5007 28.2917 14.9755C28.2875 15.9392 28.3172 16.9054 28.3815 17.8666C28.4335 18.6465 28.5085 18.7425 29.2629 18.7252C30.2639 18.702 31.2632 18.6722 32.2551 18.5074C32.9444 18.3923 33.6403 18.3211 34.3338 18.2334C34.4805 18.2152 34.629 18.2102 34.8293 18.1945L34.8301 18.1936Z" fill="#A0A0A0"/>
<path d="M32.1333 47.2082C31.6798 47.2082 31.2263 47.2206 30.7729 47.2048C30.2658 47.1866 29.7595 47.1502 29.2541 47.108C28.7899 47.0691 28.3224 47.0393 27.8648 46.9598C26.9611 46.8017 26.0557 46.6385 25.1636 46.4274C24.3902 46.2436 23.6349 45.9837 22.8681 45.7701C22.4608 45.6566 22.2052 45.4232 22.0931 45.0026C21.9727 44.5505 21.7897 44.1142 21.6734 43.6614C21.5918 43.3434 21.5613 43.0106 21.5365 42.6819C21.4689 41.7903 21.4145 40.8969 21.3584 40.0036C21.3279 39.5093 21.2545 39.0109 21.2892 38.52C21.3634 37.4627 21.3263 36.3997 21.497 35.3474C21.6231 34.5741 21.6536 33.7843 21.7905 33.0127C21.9298 32.227 22.1393 31.4537 22.3314 30.6788C22.4179 30.331 22.5375 29.9924 22.6414 29.6497C22.7379 29.3293 22.9357 29.0949 23.2268 28.9343C23.8543 28.5866 24.4957 28.272 25.1949 28.1023C26.1819 27.8622 27.1664 27.6063 28.1632 27.4168C28.9696 27.2628 29.7933 27.2015 30.608 27.0881C31.7161 26.9341 32.83 27.0301 33.9407 27.0127C34.3653 27.0061 34.4651 27.122 34.4676 27.5666C34.4741 28.6015 34.4676 29.6364 34.4717 30.6705C34.4725 30.9039 34.4882 31.1383 34.5055 31.3717C34.5286 31.6789 34.4774 31.7575 34.1748 31.8387C34.0957 31.8602 34.0132 31.8776 33.9324 31.8826C33.399 31.9157 32.8638 31.9306 32.3312 31.9802C31.7722 32.0324 31.214 32.1094 30.6582 32.1905C29.9335 32.2957 29.2475 32.5275 28.5771 32.8247C28.249 32.9696 28.0882 33.1766 28.0363 33.5285C27.9274 34.2645 27.7691 34.993 27.6702 35.7299C27.5968 36.2747 27.5622 36.8269 27.5506 37.3766C27.5316 38.2733 27.5424 39.1699 27.5465 40.0665C27.5523 41.2803 27.8285 41.4508 28.8863 41.7712C29.391 41.9236 29.9409 41.936 30.4719 41.9898C31.3039 42.0734 32.1366 42.1438 32.9702 42.21C33.2712 42.234 33.5738 42.2307 33.8755 42.2415C33.9992 42.2456 34.1237 42.2415 34.2458 42.2589C34.6201 42.3127 34.7223 42.4153 34.7141 42.8003C34.7034 43.3227 34.6588 43.8452 34.6374 44.3676C34.6044 45.1798 34.583 45.9919 34.55 46.8033C34.5368 47.1312 34.4643 47.2007 34.1114 47.2048C33.4517 47.2131 32.7921 47.2073 32.1333 47.2073V47.209V47.2082Z" fill="#A0A0A0"/>
<path d="M41.917 27.3975C41.9393 27.52 41.9723 27.6128 41.9706 27.7055C41.9533 28.4076 41.9286 29.1088 41.9063 29.8109C41.9038 29.8796 41.8964 29.9483 41.8939 30.017C41.8651 31.0081 41.8387 31.9991 41.8082 32.9909C41.7826 33.8164 41.7785 34.6443 41.7191 35.4672C41.6119 36.9517 41.5509 38.437 41.5575 39.9256C41.5592 40.2683 41.4907 40.6111 41.4858 40.9547C41.4808 41.3248 41.5336 41.3521 41.9096 41.42C42.6426 41.5524 43.3797 41.593 44.1234 41.5806C44.9471 41.5673 45.7717 41.5756 46.5962 41.5789C46.757 41.5789 46.9178 41.6013 47.1156 41.6154C47.1354 41.8041 47.1659 41.9623 47.1676 42.122C47.1816 43.1975 47.1701 44.2705 47.0192 45.3393C46.9557 45.7881 46.9499 46.2451 46.9211 46.6979C46.8963 47.0887 46.8056 47.1856 46.4263 47.2063C46.3307 47.2113 46.2342 47.2088 46.1378 47.2088C43.0334 47.2088 39.9283 47.2104 36.8239 47.2055C36.5518 47.2055 36.2789 47.1574 36.0068 47.1252C35.8131 47.102 35.7182 46.9819 35.7125 46.789C35.7083 46.6648 35.7059 46.5406 35.7059 46.4165C35.7059 42.637 35.6976 38.8576 35.7141 35.0781C35.7182 34.1848 35.8073 33.2923 35.8559 32.399C35.865 32.2342 35.8667 32.0686 35.87 31.903C35.8988 30.5254 35.9244 29.1477 35.9574 27.7709C35.9689 27.2899 36.0802 27.1773 36.5419 27.174C37.3937 27.169 38.2462 27.1516 39.0971 27.1789C39.9456 27.2063 40.7932 27.2799 41.6408 27.3371C41.7208 27.342 41.7991 27.3718 41.917 27.3992V27.3975Z" fill="#A0A0A0"/>
<path d="M3.96232 36.0734C3.96232 35.4251 3.96974 34.7761 3.95902 34.1278C3.95408 33.8364 4.02251 33.5988 4.23606 33.3835C4.57412 33.0424 4.88744 32.6756 5.20488 32.3138C5.42091 32.0671 5.69053 31.9851 6.00962 31.9686C6.5975 31.9388 7.18374 31.8593 7.77245 31.8345C8.66294 31.798 9.55837 31.7525 10.4406 31.9181C10.6311 31.9537 10.8356 32.0605 10.9741 32.1954C11.4606 32.6673 11.839 33.2287 12.1713 33.8181C12.2422 33.9448 12.2768 34.1054 12.2834 34.252C12.3205 35.0915 12.3609 35.931 12.3667 36.7705C12.37 37.2789 12.3312 37.7897 12.2744 38.2947C12.2521 38.4901 12.1581 38.6938 12.0451 38.8585C11.8126 39.1988 11.548 39.5175 11.2923 39.8421C11.12 40.0607 10.8941 40.1608 10.6129 40.1699C9.79006 40.1973 8.96884 40.2536 8.14596 40.2685C7.39317 40.2825 6.64038 40.2618 5.88759 40.2453C5.68311 40.2403 5.47285 40.2171 5.27826 40.1592C5.1315 40.1153 4.96577 40.0317 4.87754 39.9133C4.63101 39.5838 4.40839 39.2336 4.19814 38.8792C4.02004 38.5795 3.94336 38.2508 3.95573 37.8915C3.97551 37.2855 3.9615 36.6778 3.9615 36.0701H3.96232V36.0734ZM9.156 36.167C9.156 35.7538 9.156 35.3399 9.156 34.9267C9.156 34.8994 9.15683 34.8713 9.156 34.8439C9.14858 34.7206 9.15271 34.5947 9.13044 34.4739C9.08345 34.2164 9.00677 34.1344 8.74786 34.1352C8.47577 34.1352 8.19873 34.1526 7.93159 34.2056C7.14746 34.3596 7.17879 34.2793 7.11695 35.1263C7.05099 36.0312 7.09387 36.9435 7.10211 37.8534C7.10541 38.1995 7.22579 38.3096 7.58034 38.3411C7.98188 38.3775 8.37435 38.327 8.75529 38.192C9.08922 38.0737 9.14776 38.0066 9.15353 37.6556C9.16178 37.1596 9.15518 36.6637 9.156 36.1678V36.167Z" fill="#A0A0A0"/>
<path d="M14.1396 35.8522C13.7809 35.7437 13.4709 35.7818 13.1584 35.8315C12.7354 35.8985 12.6711 35.824 12.6142 35.3935C12.5557 34.9522 12.5615 34.5192 12.6167 34.0796C12.6654 33.6921 12.7 33.6532 13.1007 33.6275C13.4388 33.606 13.7752 33.5621 14.1421 33.5257C14.1891 33.2666 14.241 33.0546 14.2649 32.8394C14.3268 32.2789 14.3647 31.715 14.4356 31.1554C14.4719 30.8706 14.5379 30.5841 14.6343 30.3142C14.6846 30.1726 14.8083 30.017 14.9394 29.9541C15.2593 29.8009 15.5974 29.6809 15.9387 29.5798C16.7995 29.3257 17.6941 29.2702 18.5805 29.1907C18.9161 29.1609 19.2632 29.2255 19.6021 29.2685C19.8222 29.2967 19.9302 29.459 19.9476 29.6734C19.9797 30.0708 20.011 30.469 20.03 30.8673C20.0416 31.1032 19.9641 31.1968 19.7002 31.2663C19.4083 31.3433 19.1115 31.4004 18.8163 31.4683C18.6827 31.499 18.5475 31.5271 18.4172 31.5677C18.1155 31.6621 17.8021 31.7531 17.6199 32.0396C17.4831 32.254 17.4064 33.1043 17.4839 33.4106C17.6117 33.4264 17.756 33.457 17.9011 33.4603C18.2721 33.4686 18.6432 33.4578 19.0134 33.4661C19.372 33.4744 19.4669 33.5249 19.4974 33.8875C19.5312 34.294 19.4891 34.708 19.471 35.1178C19.4619 35.3273 19.3316 35.4407 19.1313 35.4705C18.7924 35.521 18.4527 35.5674 18.1138 35.6179C17.8731 35.6535 17.6331 35.694 17.3676 35.7363C17.3503 35.9374 17.3247 36.0981 17.3239 36.2587C17.3206 37.3341 17.3239 38.4104 17.3214 39.4859C17.3206 39.9802 17.2876 40.0067 16.7979 40.0928C16.0203 40.2302 15.242 40.1582 14.4768 40.1573C14.2814 39.87 14.279 39.5811 14.2707 39.293C14.2418 38.2606 14.2155 37.2282 14.185 36.1957C14.1817 36.0889 14.1577 35.9821 14.1404 35.8513L14.1396 35.8522Z" fill="#A0A0A0"/>
</svg>
