<svg width="128" height="54" viewBox="0 0 128 54" fill="none" xmlns="http://www.w3.org/2000/svg">
<path d="M64.5003 6.126C65.3686 6.16516 66.1979 6.50335 66.8546 7.07651C67.7498 7.93446 67.9845 9.36564 67.5608 10.5084C65.9139 13.9366 61.9971 16.2292 59.3209 16.9874C57.7197 17.3684 55.6955 17.3684 54.2355 16.7952C53.5288 17.2224 52.9325 18.6072 52.0695 18.0341C50.8204 17.048 51.9018 15.503 51.1806 14.4065C51.032 14.1787 50.6573 14.1644 50.469 13.7941C49.4798 11.6048 50.7044 9.50795 52.0695 7.84189C54.3454 5.27159 60.8749 2.4094 64.5003 6.126ZM56.9195 7.83841C55.6477 8.07693 54.2117 8.63938 53.4352 9.55429C52.6584 10.4728 52.1645 11.3663 52.635 12.3168C54.2833 11.078 55.0836 9.36564 56.9202 8.31546C56.9195 8.12678 57.2021 7.98437 56.9195 7.83841ZM64.5953 8.31546C61.3458 8.03066 58.8972 10.5083 56.5901 12.8899C56.4486 13.2708 55.6016 13.6981 56.2603 14.1289C59.3688 14.4137 62.335 13.5094 64.5953 11.4126C65.2548 10.7932 65.7242 9.98507 65.3959 9.12712C65.2548 8.79248 64.9226 8.45785 64.5953 8.31546ZM92.7511 22.5125C94.258 26.2255 95.5291 32.0853 92.7511 35.6595C91.9981 36.5139 90.6798 37.3042 89.8328 36.6563C86.7244 34.1323 85.4072 30.5118 83.4763 27.2722C83.194 27.1298 83.194 27.5143 83.0526 27.6567C82.3466 30.9425 83.6645 35.2287 81.4521 37.799C80.605 37.945 79.8122 37.5036 79.5215 36.6563C78.438 33.2779 79.5673 29.7499 79.8495 26.368C80.5093 24.6556 80.7919 22.6549 82.2516 21.3662C84.6062 22.3203 85.7359 24.9867 87.1002 26.9412C88.0901 28.4186 88.8897 30.0846 90.0196 31.4196C91.0082 30.9888 90.5217 29.6824 90.4908 28.892C90.1129 25.7984 89.2658 22.9397 88.4649 19.985C88.4191 19.2231 87.9955 17.938 88.7943 17.461C90.916 18.4151 91.8091 20.6542 92.7511 22.5125ZM78.5316 21.3662C78.5316 22.0818 77.9668 22.9753 77.4945 23.0821C72.975 23.7977 67.9367 23.3669 63.6993 24.798C63.5582 25.3213 64.1702 25.4175 64.4996 25.5599C68.1242 26.1295 71.9393 26.2718 75.471 27.1796C77.3385 27.6567 78.0147 29.8959 78.1558 31.7506C78.2423 33.2173 77.6856 34.9902 76.272 35.9906C72.7888 38.2298 67.4679 38.1337 63.9355 36.0867C62.5853 35.3213 61.2986 34.0859 61.2047 32.5623C61.2128 31.3519 61.723 30.3978 62.5704 29.9422C65.9611 28.5609 70.1512 29.3228 73.071 31.085C73.2579 32.039 72.2389 31.9856 71.751 32.3238C68.5015 34.2284 66.0536 30.1807 63.0402 31.6581C62.6169 31.9429 62.3105 32.7404 62.8051 32.9896C66.5245 34.6592 70.6682 33.4666 74.3407 32.42C74.7644 32.2776 75.2828 31.8468 75.3292 31.4196C75.1881 29.8959 73.4933 29.5613 72.4101 29.1341C69.2085 28.326 65.6771 28.3259 62.2393 27.9913C61.5805 27.8489 60.7406 27.3826 60.5448 26.8486C60.1683 25.7059 60.1683 24.1324 61.0157 23.1818C65.3941 19.273 72.0329 19.6076 77.5888 20.6542C77.9661 20.7966 78.3898 20.939 78.5316 21.3662ZM57.9558 23.1783C58.3795 27.7493 58.6146 31.9892 58.5207 36.8022C58.4263 37.4181 57.7204 37.5641 57.2496 37.799C56.4965 37.945 55.5229 37.7812 55.2247 37.3718C54.1422 35.6097 54.5188 33.2281 54.4244 31.085C54.5659 27.703 54.5188 24.0362 55.4608 20.8928C55.6409 20.4335 56.1671 20.0348 56.5908 20.3196C57.7204 20.8927 57.9087 22.0355 57.9558 23.1783ZM110.268 22.5125C110.495 22.897 110.732 23.4916 110.268 23.7479C108.15 24.7019 105.278 24.2747 102.829 24.5595C102.17 25.1291 101.651 26.0832 101.886 26.9412C102.123 27.0836 102.334 27.3007 102.594 27.2722C104.099 27.3683 106.36 26.5603 107.35 27.9878C107.592 28.4115 107.317 29.9991 106.644 30.0347C104.807 30.2768 101.786 29.8033 100.898 30.2768C99.7686 31.0386 99.8618 32.5125 99.4385 33.7051C100.239 34.2284 101.078 33.6944 102.027 33.5626C103.771 33.2779 105.702 32.751 107.443 33.1319C107.772 33.7513 108.244 34.4207 107.913 35.1825C104.945 37.5641 101.117 40.0062 97.0374 38.2761C95.5068 37.5819 94.8243 35.2288 95.343 33.2316C95.6717 31.8005 97.131 30.4192 96.2372 28.8955C96.096 28.2262 96.4733 27.6567 97.0381 27.5143C98.5918 27.5143 98.2614 25.5599 99.0623 24.6557C98.1681 23.6553 95.9085 23.7015 96.1439 21.7008C97.2271 21.1313 98.5461 21.3199 99.7686 21.1312C102.547 20.5581 105.654 20.2271 108.481 20.5582C109.044 20.6721 109.798 21.797 110.268 22.5125ZM43.0293 11.6511C47.3744 15.2431 53.0115 21.3697 52.3056 28.4185C51.4575 33.9898 45.619 38.1835 40.675 39.5149C35.8722 40.946 29.8454 40.8037 24.9479 39.6609C24.6181 40.5651 24.2887 41.6581 23.2531 42.0425C22.594 42.2775 21.7462 42.135 21.2282 41.7078C19.7692 40.3266 20.946 37.6602 18.8268 36.8022C14.683 35.04 10.2096 31.562 8.09144 27.2758C7.80886 26.4178 8.13861 25.5599 8.65626 24.8941C11.9058 22.274 16.0016 21.2274 20.0986 20.4157C20.334 20.5118 20.2397 20.1773 20.428 20.0847C20.6634 17.226 20.7577 14.3175 21.6519 11.7472C21.8558 11.3841 22.3582 11.2701 22.6883 11.5086C25.278 13.5093 24.0533 17.2723 25.1836 19.9885C30.128 20.2271 35.0719 20.462 38.9799 23.2744C40.2985 24.3709 40.6197 26.4605 40.2038 27.6567C39.7883 28.8493 38.4147 29.7036 37.1433 29.7997C36.2952 29.7997 34.6947 29.8817 34.789 29.2267C34.8829 28.5752 37.6691 27.5001 36.8135 26.6066C35.5836 25.325 29.4291 24.5595 25.6151 24.0825C25.1443 23.9864 24.7124 24.1324 24.7124 24.6557C24.6181 28.2762 24.3359 32.274 24.9479 35.7521C24.995 35.9942 25.2772 36.2789 25.5134 36.3252C32.2461 37.4217 39.3564 36.8023 44.6298 32.8934C47.0783 30.8963 47.8793 28.0839 47.4549 24.9867C45.336 16.368 36.437 11.1741 29.1388 7.83841C22.0292 4.69496 14.1654 3.07514 5.73718 3.5059C4.39518 3.60558 2.26854 4.07195 2.25294 4.55255C2.23733 5.03314 4.66181 4.8836 4.37142 5.79139C4.08139 6.69918 1.61721 6.16165 0.887174 5.93382C0.157138 5.70954 0.228046 4.64865 0.416317 3.98294C2.25293 0.697095 7.37773 0.430077 9.69264 0.312598C22.4993 -0.0184786 34.8837 4.91562 43.0293 11.6511ZM19.9575 24.4171C16.7079 24.4634 13.2708 24.798 10.2574 25.9408C9.64548 26.1793 8.89169 26.845 9.36254 27.6567C10.5865 29.3227 12.3369 30.6897 13.9771 31.6581C15.6169 32.6192 17.7911 33.8475 19.7692 34.1323C20.2397 31.0386 20.2397 27.9877 20.1925 24.798C20.0036 24.7019 20.1922 24.5132 19.9575 24.4171ZM117.283 20.0811C117.142 24.2249 113.327 26.7987 113.327 30.9425C113.468 31.0849 113.564 31.2736 113.751 31.181C116.813 27.799 119.825 22.9895 124.298 21.5584C125.477 21.4659 126.542 22.4983 126.983 23.2744C128.537 26.4179 128.162 30.8464 125.995 33.7051C123.759 36.5103 119.873 39.3263 115.449 38.8493C113.613 43.4238 112.339 48.2333 111.633 53.235C111.257 54.2354 110.363 53.3311 109.798 53.1389C105.984 50.0915 109.116 42.0211 109.374 40.9923C109.633 39.9635 110.654 37.5427 111.4 35.5135C109.61 32.2775 110.74 28.3687 112.199 25.3676C113.329 23.3669 114.884 21.3662 116.72 19.8425C116.954 19.8425 117.142 19.8924 117.283 20.0811ZM124.865 25.2253C124.3 25.1327 124.064 25.8945 123.595 26.0369C121.429 28.5147 119.262 30.9888 118.179 33.9435C119.639 34.1322 120.863 33.1817 122.135 32.6584C124.3 31.2772 125.666 28.9917 125.525 26.3716C125.43 25.9408 125.054 25.6062 124.865 25.2253Z" fill="#A0A0A0"/>
</svg>
