<svg width="153" height="70" viewBox="0 0 153 70" fill="none" xmlns="http://www.w3.org/2000/svg">
<path d="M143.245 20.7255C143.245 26.902 137.794 31.9118 131.661 31.9118C125.529 31.9118 120.759 26.902 120.759 20.7255C120.759 14.6176 125.529 9.60784 131.661 9.60784C137.794 9.60784 143.245 14.6176 143.245 20.7255ZM131.661 0C120.759 0 111.219 9.19608 111.219 20.6569L98.2724 39.2549C97.591 39.1856 97.591 39.1176 96.9096 39.1176C94.184 39.1176 91.4583 39.9412 88.7327 41.3137L30.5406 17.7059C28.9734 10.7059 22.7726 5.4902 15.4134 5.4902C6.96397 5.4902 0 12.4902 0 21.0686C0 29.5784 6.96397 36.5784 15.4134 36.5784C18.3441 36.5784 21.0009 35.8235 23.3184 34.3824L81.9193 57.9902C83.2822 65.1961 89.4148 70 96.9103 70C104.406 70 111.22 63.8235 111.901 56.2059L131.662 41.6569C143.246 41.6569 152.786 32.3235 152.786 20.7941C152.785 9.33333 143.245 0 131.661 0ZM131.661 6.86275C139.838 6.86275 145.971 13.1078 145.971 20.7941C145.971 28.549 139.838 34.7941 131.661 34.7941C124.166 34.7941 118.033 28.549 118.033 20.7941C118.033 13.1078 124.166 6.86275 131.661 6.86275ZM15.4134 9.60784C19.7744 9.60784 23.5903 12.0098 25.4989 15.6471L19.8425 13.3824C15.2771 11.7353 10.2347 14 8.39492 18.5294C6.62327 23.1275 8.66749 28.2745 13.0966 30.2647L17.8665 32.1863C17.1162 32.3922 16.2992 32.4608 15.4127 32.4608C9.14447 32.4608 4.10138 27.3824 4.10138 21.0686C4.10207 14.6863 9.14447 9.60784 15.4134 9.60784ZM96.9096 43.2353C103.042 43.2353 107.812 48.3824 107.812 54.6961C107.812 61.0784 103.042 65.8824 96.9096 65.8824C92.1397 65.8824 88.7327 63.8235 86.6885 60.049C88.7327 61.0784 90.0955 61.7647 92.1397 62.451C96.9096 64.5098 101.679 61.7647 103.724 57.3726C105.086 53.1183 103.724 47.285 98.9538 45.4321L94.184 43.5105C94.8654 43.3726 96.2282 43.2353 96.9096 43.2353Z" fill="#A0A0A0"/>
</svg>
