<svg width="87" height="70" viewBox="0 0 87 70" fill="none" xmlns="http://www.w3.org/2000/svg">
<path d="M1.76077 51.0342C-1.4996 53.2906 -0.412941 57.5811 6.54222 59.6111C13.7148 62.0982 21.5396 62.7735 29.1466 61.4188C29.5814 61.4188 30.0162 61.1923 30.2332 61.1923V53.5171L22.8437 56C20.0181 56.9018 17.1926 57.1282 14.367 56.4529C12.1933 55.7735 12.6281 54.4188 15.2363 53.2905L30.2332 47.8718V39.517L9.36776 46.9659C6.75963 47.8718 4.15149 49.2265 1.76077 51.0342ZM52.1858 17.1623V39.0641C61.0968 43.5812 68.0524 39.0642 68.0524 27.3206C68.0524 15.3547 63.9224 9.93589 51.9684 5.6453C45.665 3.38883 39.1447 1.35471 32.6244 0V65.2564L47.8388 70V15.1283C47.8388 12.6453 47.8387 10.8376 49.5776 11.517C51.9683 12.1923 52.1858 14.6794 52.1858 17.1623ZM80.4412 45.8376C74.1379 43.5811 67.4002 42.6794 60.8798 43.3547C57.402 43.5811 54.1417 44.4829 51.0991 45.6112L50.4469 45.8376V54.6453L64.5746 49.2264C67.4002 48.3205 70.2257 48.0982 73.0513 48.7735C75.2246 49.4529 74.7901 50.8077 72.182 51.9359L50.4469 60.2906V68.8718L80.4412 57.3546C82.6145 56.4529 84.5708 55.3206 86.3093 53.5171C87.8308 51.2565 87.179 48.0982 80.4412 45.8376Z" fill="#A0A0A0"/>
</svg>
