<svg width="62" height="54" viewBox="0 0 62 54" fill="none" xmlns="http://www.w3.org/2000/svg">
<path d="M16.2528 46.9311L16.2609 46.9336L13.3149 52.0478C12.2396 53.9146 9.8578 54.5543 7.99522 53.4764C6.13273 52.3987 5.49453 50.0115 6.56985 48.1447L8.7401 44.3772L8.94834 44.0157C9.32031 43.4797 10.2382 42.5551 12.0743 42.7289C12.0743 42.7289 16.3949 43.1989 16.7075 45.4496C16.7076 45.4496 16.7502 46.1903 16.2528 46.9311ZM58.0374 33.8686H48.8506C48.2251 33.8266 47.9517 33.6027 47.8446 33.4725L47.8377 33.4607L38.0036 16.3888L37.9909 16.3974L37.401 15.5498C36.4345 14.0683 34.8996 17.8574 34.8996 17.8574C33.0671 22.0795 35.1596 26.8798 35.8893 28.3307L49.5483 52.0425C50.6236 53.9093 53.0054 54.549 54.868 53.4711C56.7305 52.3934 57.3687 50.0062 56.2933 48.1394L52.8777 42.2101C52.8117 42.0665 52.6965 41.6763 53.3969 41.6748H58.0374C60.1881 41.6748 61.9316 39.9273 61.9316 37.7717C61.9316 35.6161 60.1881 33.8686 58.0374 33.8686ZM40.1938 39.1748C40.1938 39.1748 40.6841 41.6747 38.7867 41.6747H36.8894L4.82589 41.6748C2.67517 41.6748 0.931641 39.9273 0.931641 37.7717C0.931641 35.6161 2.67517 33.8686 4.82589 33.8686H13.5569C14.9665 33.7867 15.3006 32.9712 15.3006 32.9712L15.3083 32.9751L26.7051 13.1903L26.7017 13.1896C26.9096 12.8074 26.7365 12.4463 26.7064 12.3891L22.9426 5.8553C21.8672 3.98849 22.5054 1.60135 24.368 0.523586C26.2306 -0.55426 28.6122 0.0853877 29.6876 1.9522L31.4332 4.98258L33.1757 1.95758C34.251 0.0907725 36.6328 -0.548875 38.4953 0.528971C40.3579 1.60682 40.9961 3.99396 39.9207 5.86068L24.0617 33.3916C23.9924 33.5592 23.9711 33.8223 24.4871 33.8686H33.9667L33.9687 33.9612C33.9687 33.9612 39.4476 34.0466 40.1938 39.1748Z" fill="#A0A0A0"/>
</svg>
