<svg width="71" height="60" viewBox="0 0 71 60" fill="none" xmlns="http://www.w3.org/2000/svg">
<path d="M63.64 1.79528e-05V0.00849971H56.918C56.6471 0.00848774 56.379 0.061425 56.1288 0.164289C55.8786 0.267152 55.6512 0.417928 55.4598 0.608005C55.2683 0.798083 55.1164 1.02374 55.0127 1.27209C54.9091 1.52044 54.8558 1.78662 54.8558 2.05543V31.4956C54.8568 32.1469 55.118 32.7712 55.5819 33.2318C56.0459 33.6923 56.6748 33.9515 57.331 33.9525H65.7904C66.4476 33.9522 67.0777 33.693 67.5423 33.2317C68.007 32.7705 68.2682 32.1451 68.2685 31.4928V14.2155C68.2682 13.9986 68.1815 13.7906 68.0273 13.6369C67.873 13.4833 67.6638 13.3965 67.4453 13.3955H62.9678C62.8594 13.3956 62.7522 13.4169 62.6522 13.4582C62.5522 13.4995 62.4614 13.5599 62.3849 13.6361C62.3085 13.7122 62.2479 13.8026 62.2067 13.902C62.1654 14.0014 62.1443 14.1079 62.1446 14.2155V17.1106C62.1443 17.2181 62.1654 17.3246 62.2066 17.424C62.2479 17.5234 62.3085 17.6138 62.3849 17.6899C62.4614 17.7661 62.5522 17.8265 62.6522 17.8678C62.7522 17.9091 62.8594 17.9304 62.9678 17.9305H63.1643V27.905L63.5118 28.0605C63.4611 28.4934 63.3379 28.9148 63.1472 29.3073C63.1035 29.3565 62.8551 29.1638 62.8026 29.1942C62.6661 29.2879 62.5042 29.3382 62.3383 29.3384H61.0252C60.8066 29.3378 60.5971 29.2512 60.4428 29.0975C60.2885 28.9437 60.2019 28.7355 60.2021 28.5185V5.93442L60.0055 5.13714C59.9993 5.01084 60.0266 4.88512 60.0845 4.77252C60.1425 4.65992 60.2292 4.56436 60.3359 4.49535C60.4686 4.40705 60.8546 4.55755 61.0252 4.55755H62.8083C62.9166 4.55654 63.024 4.57673 63.1245 4.61697C63.2249 4.65722 63.3164 4.71673 63.3936 4.79209C63.4709 4.86746 63.5324 4.9572 63.5746 5.05619C63.6169 5.15517 63.6391 5.26146 63.64 5.36897V7.41308C63.6399 7.52077 63.6612 7.62742 63.7027 7.72693C63.7442 7.82644 63.805 7.91686 63.8817 7.99301C63.9584 8.06916 64.0495 8.12955 64.1498 8.17073C64.25 8.2119 64.3575 8.23306 64.466 8.23298H67.4482C67.5567 8.23325 67.6642 8.21223 67.7646 8.17112C67.8649 8.13001 67.9561 8.06962 68.0328 7.99344C68.1096 7.91725 68.1704 7.82675 68.2118 7.72716C68.2532 7.62756 68.2744 7.52082 68.2742 7.41308V2.04695C68.2742 1.77742 68.2206 1.51055 68.1164 1.26164C68.0122 1.01274 67.8596 0.786705 67.6672 0.596517C67.4748 0.406328 67.2464 0.255729 66.9952 0.153366C66.744 0.0510022 66.475 -0.00111085 66.2034 1.79528e-05H63.64ZM3.84831 0.00849971C3.63006 0.00870931 3.4208 0.0948612 3.26648 0.248047C3.11215 0.401233 3.02536 0.608938 3.02515 0.825576V7.93329L3.60905 8.50723L3.03084 9.42325V15.4029C2.94369 15.4029 2.85738 15.4199 2.77686 15.453C2.69633 15.4861 2.62316 15.5346 2.56153 15.5958C2.49991 15.657 2.45102 15.7296 2.41767 15.8095C2.38433 15.8895 2.36717 15.9751 2.36719 16.0616V19.7173C2.36698 19.8036 2.38391 19.8891 2.41701 19.969C2.45011 20.0488 2.49873 20.1214 2.5601 20.1826C2.62146 20.2437 2.69437 20.2923 2.77465 20.3255C2.85494 20.3587 2.94102 20.3759 3.02799 20.376V20.6757L3.42961 21.2327L3.02799 21.7331V32.7255C3.02813 33.0509 3.15841 33.3629 3.39021 33.593C3.622 33.8231 3.93635 33.9524 4.26416 33.9525H7.1324C7.46021 33.9524 7.77456 33.8231 8.00636 33.593C8.23816 33.3629 8.36844 33.0509 8.36857 32.7255V20.376H11.966V20.3647H14.1193C14.4449 20.3646 14.7673 20.3008 15.0681 20.1769C15.3688 20.0531 15.6421 19.8716 15.8722 19.643C16.1023 19.4143 16.2848 19.1429 16.4092 18.8442C16.5336 18.5455 16.5976 18.2254 16.5973 17.9022V2.46821C16.597 1.81595 16.3359 1.19048 15.8712 0.729263C15.4065 0.268043 14.7764 0.00879923 14.1193 0.00849971H3.84831ZM38.9195 0.011327C38.811 0.0110585 38.7034 0.0320827 38.6031 0.0731916C38.5027 0.114301 38.4116 0.174684 38.3348 0.250873C38.2581 0.327061 38.1972 0.417553 38.1558 0.51715C38.1144 0.616746 38.0932 0.723484 38.0935 0.831231V8.30083L38.4011 9.34126L38.0935 9.93216V12.1487L38.6119 12.8075L38.0935 13.814C38.0063 13.8138 37.9199 13.8307 37.8393 13.8637C37.7587 13.8967 37.6854 13.9453 37.6238 14.0065C37.5621 14.0677 37.5132 14.1404 37.4799 14.2204C37.4467 14.3004 37.4296 14.3862 37.4298 14.4727V17.6958C37.4296 17.7824 37.4467 17.8681 37.4799 17.9481C37.5132 18.0282 37.5621 18.1009 37.6238 18.1621C37.6854 18.2233 37.7587 18.2718 37.8393 18.3048C37.9199 18.3379 38.0063 18.3548 38.0935 18.3546V33.1354C38.0936 33.2429 38.1151 33.3494 38.1566 33.4486C38.1982 33.5479 38.2591 33.6381 38.3358 33.714C38.4126 33.7899 38.5036 33.85 38.6037 33.8909C38.7039 33.9318 38.8112 33.9528 38.9195 33.9525H48.8202C49.4773 33.9522 50.1075 33.693 50.5721 33.2317C51.0368 32.7705 51.2979 32.1451 51.2982 31.4928V18.5807L51.2897 18.0831C51.2805 17.5772 51.1332 17.0833 50.8633 16.6541C50.5934 16.2249 50.2111 15.8765 49.7573 15.646L49.9909 15.4679C50.3774 15.1798 50.6953 14.8109 50.9222 14.3873C51.1491 13.9638 51.2794 13.4958 51.3039 13.0167V11.6992L51.0903 10.9358L51.3039 10.0679L50.9137 9.27058L51.3039 8.33476V1.64831C51.3039 1.43215 51.2608 1.21813 51.177 1.01861C51.0932 0.819089 50.9705 0.63801 50.8158 0.485821C50.6612 0.333633 50.4777 0.213349 50.276 0.131909C50.0743 0.0504698 49.8583 0.00948742 49.6405 0.011327H38.9195ZM30.2436 0.045254C30.1345 0.0446087 30.0265 0.0654487 29.9256 0.106566C29.8248 0.147684 29.7331 0.208261 29.656 0.284788C29.5789 0.361314 29.5179 0.452268 29.4765 0.552378C29.4351 0.652487 29.4141 0.759762 29.4147 0.867985V21.5776L29.2011 22.3749L29.4147 23.0337V28.4846C29.4145 28.7012 29.3277 28.9089 29.1734 29.0621C29.0191 29.2153 28.8098 29.3015 28.5915 29.3017L28.1871 28.8408L26.4952 29.084L26.4183 29.3017C26.31 29.3019 26.2027 29.281 26.1025 29.2401C26.0024 29.1992 25.9113 29.139 25.8346 29.0631C25.7579 28.9872 25.697 28.8971 25.6554 28.7978C25.6138 28.6985 25.5924 28.5921 25.5923 28.4846V0.867985C25.5926 0.760238 25.5714 0.6535 25.53 0.553904C25.4885 0.454308 25.4277 0.363815 25.351 0.287627C25.2742 0.211438 25.183 0.151055 25.0827 0.109946C24.9824 0.068837 24.8748 0.0478128 24.7663 0.0480813H21.0749C20.9663 0.0478128 20.8588 0.068837 20.7584 0.109946C20.6581 0.151055 20.5669 0.211438 20.4902 0.287627C20.4134 0.363815 20.3526 0.454308 20.3112 0.553904C20.2698 0.6535 20.2486 0.760238 20.2489 0.867985V31.5296C20.2499 32.1808 20.511 32.8051 20.975 33.2657C21.4389 33.7262 22.0679 33.9854 22.724 33.9864H32.2858C32.9429 33.9861 33.573 33.7269 34.0377 33.2657C34.5023 32.8045 34.7635 32.179 34.7638 31.5267V4.81766L34.3565 3.96948L34.7638 3.06759V2.45973L34.4875 2.17135L34.7638 1.67658V0.867985C34.7643 0.759816 34.7432 0.652628 34.7017 0.552605C34.6602 0.452583 34.5991 0.361706 34.5221 0.285219C34.445 0.208731 34.3535 0.148146 34.2527 0.10696C34.1519 0.0657741 34.0439 0.044802 33.935 0.045254H30.2436ZM44.2629 4.54907H45.126C45.2345 4.54899 45.3419 4.57015 45.4422 4.61132C45.5424 4.6525 45.6335 4.71289 45.7102 4.78904C45.7869 4.86519 45.8478 4.95561 45.8893 5.05512C45.9307 5.15463 45.9521 5.26128 45.952 5.36897V13.814H44.4082L44.0977 13.4323L43.4398 13.3277L43.4369 5.36897C43.4368 5.26128 43.4582 5.15463 43.4996 5.05512C43.5411 4.95561 43.602 4.86519 43.6787 4.78904C43.7554 4.71289 43.8465 4.6525 43.9467 4.61132C44.047 4.57015 44.1544 4.54899 44.2629 4.54907ZM8.78157 4.63106H10.6785C10.7328 4.63083 10.7867 4.64128 10.8369 4.6618C10.8871 4.68232 10.9327 4.7125 10.9711 4.75062C11.0095 4.78873 11.0399 4.83402 11.0606 4.88386C11.0813 4.9337 11.0918 4.98711 11.0915 5.04101V14.0034H11.5103L11.4704 14.8855H11.0915C11.0916 14.9531 11.0783 15.0201 11.0523 15.0825C11.0263 15.145 10.9881 15.2018 10.9399 15.2496C10.8918 15.2974 10.8346 15.3353 10.7716 15.3611C10.7087 15.3869 10.6413 15.4002 10.5732 15.4001H8.88696C8.81886 15.4002 8.75141 15.3869 8.68847 15.3611C8.62554 15.3353 8.56836 15.2974 8.5202 15.2496C8.47205 15.2018 8.43387 15.145 8.40785 15.0825C8.38183 15.0201 8.36848 14.9531 8.36857 14.8855L7.8986 14.5208L8.36857 14.0741V5.04384C8.36815 4.98976 8.37853 4.93612 8.39911 4.88604C8.41968 4.83596 8.45004 4.79042 8.48844 4.75204C8.52683 4.71367 8.5725 4.68322 8.62282 4.66245C8.67313 4.64169 8.72709 4.63102 8.78157 4.63106ZM44.206 18.3546C44.2249 18.3539 44.2439 18.3539 44.2629 18.3546H45.126C45.3445 18.3548 45.554 18.4408 45.7088 18.5939C45.8636 18.747 45.951 18.9547 45.952 19.1716V25.188L46.365 25.9118L45.952 26.432V28.6033C45.952 28.6801 46.1738 28.7041 46.1884 28.8097C46.1692 29.0078 46.084 29.1938 45.9463 29.3384C45.8064 29.4475 45.6343 29.5081 45.4564 29.5109C45.3413 29.5027 45.229 29.4719 45.126 29.4204H44.2629C44.0443 29.4206 43.8345 29.3346 43.6797 29.1814C43.5248 29.0283 43.4375 28.8204 43.4369 28.6033V19.1716C43.4373 18.9642 43.5169 18.7646 43.6596 18.613C43.8023 18.4614 43.9975 18.3691 44.206 18.3546ZM3.76001 36.7798C3.45069 36.7802 3.15421 36.9026 2.93575 37.1199C2.7173 37.3373 2.59475 37.6319 2.59505 37.9389V41.0772H1.34465C1.23558 41.0771 1.13091 41.1199 1.05352 41.1962C0.976135 41.2725 0.932315 41.3761 0.931641 41.4843V42.799C0.931602 42.8528 0.942258 42.9062 0.963 42.9559C0.983741 43.0057 1.01416 43.0509 1.05252 43.089C1.09088 43.127 1.13642 43.1572 1.18655 43.1778C1.23667 43.1984 1.2904 43.209 1.34465 43.2089H2.59505V53.4521H1.34465C1.23558 53.452 1.13091 53.4948 1.05352 53.5711C0.976135 53.6474 0.932315 53.7509 0.931641 53.8592V55.1739C0.931602 55.2277 0.942258 55.2811 0.962999 55.3308C0.983741 55.3806 1.01416 55.4258 1.05252 55.4638C1.09088 55.5019 1.13642 55.5321 1.18655 55.5527C1.23667 55.5733 1.2904 55.5839 1.34465 55.5838H2.59505V58.8408C2.5949 58.9931 2.62501 59.1439 2.68364 59.2846C2.74228 59.4253 2.82829 59.5531 2.93676 59.6608C3.04523 59.7685 3.17403 59.8539 3.31578 59.9121C3.45753 59.9703 3.60946 60.0001 3.76286 60H67.8412C67.9946 60.0001 68.1465 59.9703 68.2883 59.9121C68.43 59.8539 68.5588 59.7685 68.6673 59.6608C68.7758 59.5531 68.8618 59.4253 68.9204 59.2846C68.9791 59.1439 69.0092 58.9931 69.009 58.8408V55.5867H70.5215C70.5757 55.5863 70.6294 55.5754 70.6794 55.5545C70.7293 55.5335 70.7747 55.503 70.8128 55.4647C70.8509 55.4263 70.881 55.3809 70.9014 55.331C70.9218 55.2811 70.932 55.2277 70.9316 55.1739V53.8592C70.9309 53.7509 70.8871 53.6474 70.8097 53.5711C70.7324 53.4948 70.6277 53.452 70.5186 53.4521H69.0062V43.2089H70.5186C70.5729 43.209 70.6266 43.1984 70.6767 43.1778C70.7268 43.1572 70.7724 43.127 70.8107 43.089C70.8491 43.0509 70.8795 43.0057 70.9003 42.9559C70.921 42.9062 70.9317 42.8528 70.9316 42.799V41.4843C70.9309 41.3761 70.8871 41.2725 70.8097 41.1962C70.7324 41.1199 70.6277 41.0771 70.5186 41.0772H69.0062V37.9389C69.0063 37.7867 68.9762 37.6359 68.9176 37.4952C68.8589 37.3545 68.7729 37.2266 68.6645 37.1189C68.556 37.0113 68.4272 36.9259 68.2854 36.8677C68.1437 36.8095 67.9918 36.7796 67.8384 36.7798H3.76001ZM4.92497 39.0953H66.6763V57.6845H4.92497V39.0953ZM11.234 42.1176V55.1824H17.1527V52.635H13.8003V42.1176H11.234ZM26.6689 42.1176V55.0975H29.2353V42.1176H26.6689ZM40.9874 42.1176V42.1261H39.1274V44.5604H40.9874V55.0975H43.5537V44.5604H45.6301V42.1261H43.5537V42.1176H40.9874ZM54.9555 42.1176V47.1416H54.6763V49.3243H54.9555V55.0975H59.94V52.7198H57.5218V49.3243H59.8603V47.1416H57.5218V44.5604H60.0881V42.1261H57.5218V42.1176H54.9555Z" fill="#A0A0A0"/>
</svg>
