<svg width="118" height="45" viewBox="0 0 118 45" fill="none" xmlns="http://www.w3.org/2000/svg">
<path d="M59.4858 0.0487086C60.0436 0.178895 60.6049 0.299913 61.159 0.442935C63.5722 1.06636 65.5516 2.32789 66.9405 4.44754C67.0571 4.6254 67.1665 4.80876 67.2649 4.99762C67.305 5.0728 67.305 5.16998 67.3414 5.34784C66.1257 5.92359 64.8991 6.50302 63.6524 7.0916C63.5175 6.93208 63.4082 6.82756 63.3298 6.70471C61.8371 4.35402 58.9828 3.63158 56.5076 4.37603C54.1072 5.09847 52.3137 7.48033 52.1479 10.0272C51.9146 13.5973 54.2348 16.2248 56.9341 16.8116C59.0739 17.2755 61.046 16.8757 62.6226 15.22C63.1694 14.6442 63.5777 13.9731 63.6761 13.0325H56.5933C57.2094 11.7655 57.7525 10.6506 58.3139 9.49363H68.0905C68.1343 9.61282 68.2199 9.74667 68.2327 9.88603C68.7139 15.8856 65.0394 20.1267 59.8194 20.8528C53.7883 21.6926 48.7286 17.4882 47.9212 12.0314C47.0518 6.15463 51.078 1.28273 56.3381 0.263241C56.6006 0.2119 56.8576 0.120219 57.1164 0.046875C57.9056 0.046875 58.6948 0.046875 59.4858 0.046875V0.0487086Z" fill="#A0A0A0"/>
<path d="M37.6214 44.7888C37.4246 44.7191 37.2332 44.6219 37.0309 44.5834C32.1754 43.6611 28.5757 39.387 28.5902 34.3959C28.6085 28.4697 33.1961 24.6979 37.441 24.0763C39.8979 23.7169 42.2127 24.0928 44.4108 25.226C45.7905 25.9374 46.8987 26.9624 47.7389 28.2735C47.8975 28.5228 48.0251 28.7924 48.2128 29.1408C46.9187 29.7569 45.6957 30.3381 44.4454 30.9322C44.3105 30.7672 44.2103 30.659 44.1264 30.5398C42.5517 28.2698 40.3645 27.54 37.7527 28.1029C35.2174 28.6512 33.6681 30.3326 33.0685 32.8172C32.1754 36.5247 34.3425 39.9261 37.9896 40.7053C40.4575 41.2316 42.9982 40.1149 44.0462 38.0264C44.2048 37.7111 44.2941 37.3608 44.4691 36.8804H37.3499C37.986 35.5712 38.5346 34.4362 39.0795 33.3122H48.9382C49.6308 38.1566 47.0099 43.0249 41.9265 44.3982C41.4617 44.5247 40.9988 44.6568 40.534 44.7851H37.6196L37.6214 44.7888Z" fill="#A0A0A0"/>
<path d="M86.0891 0.0487086C86.0764 4.32285 86.1037 8.59883 86.0235 12.8711C86.0016 14.0098 85.7993 15.1998 85.4093 16.267C84.5344 18.6617 82.7902 20.1799 80.2804 20.7355C78.8095 21.06 77.3332 21.0875 75.8586 20.7667C72.7693 20.0919 70.6769 17.9209 70.1082 14.7726C69.9843 14.0868 69.9168 13.3791 69.915 12.6823C69.9132 8.89588 69.9369 5.11131 69.9606 1.3249C69.9624 0.899504 70.0225 0.474106 70.0554 0.0487086C71.4515 0.0487086 72.8495 0.0487086 74.2456 0.0487086C74.2347 4.35402 74.2183 8.65751 74.2237 12.9628C74.2237 13.3827 74.3149 13.8136 74.426 14.2225C74.8617 15.8343 76.2378 16.8776 77.9219 16.9051C79.5276 16.9308 80.9876 15.9333 81.4505 14.3875C81.6492 13.7274 81.733 13.0105 81.7403 12.3174C81.7749 8.53099 81.7695 4.74458 81.7749 0.958179C81.7749 0.655634 81.7385 0.351254 81.7184 0.0487086C83.1766 0.0487086 84.6328 0.0487086 86.091 0.0487086H86.0891Z" fill="#A0A0A0"/>
<path d="M41.0844 0.0487086C43.7728 6.77989 46.4612 13.5111 49.1861 20.3339H44.7753C44.2741 19.0981 43.7637 17.8366 43.2333 16.531H35.0533C34.5539 17.7944 34.0545 19.0632 33.5496 20.3413H29.2591C29.3958 19.9635 29.4961 19.6647 29.6146 19.3731C31.7142 14.1675 33.803 8.95822 35.9318 3.76544C36.2235 3.05216 36.2763 2.46541 35.8644 1.79064C35.5345 1.25156 35.3322 0.63363 35.0734 0.0487086C37.0783 0.0487086 39.0814 0.0487086 41.0863 0.0487086H41.0844ZM39.2746 5.83191C38.4289 7.33731 36.721 12.0038 36.752 12.6548H41.7825C40.9824 10.3573 40.1658 8.18077 39.2746 5.83191Z" fill="#A0A0A0"/>
<path d="M107.954 44.7888C107.525 44.6494 107.097 44.5137 106.67 44.3707C104.846 43.7546 103.382 42.7076 102.473 40.7695C103.712 40.1644 104.921 39.5722 106.156 38.9671C106.271 39.1394 106.364 39.255 106.432 39.3851C107.321 41.1014 109.545 41.569 111.107 41.0244C112.076 40.6852 112.669 39.9334 112.696 39.0001C112.723 38.0301 112.226 37.3572 111.371 37.0033C110.562 36.6696 109.712 36.4312 108.876 36.1672C108.125 35.9306 107.356 35.7454 106.612 35.4851C104.52 34.7498 103.156 33.3562 102.916 31.0642C102.668 28.708 103.357 26.7039 105.336 25.2957C106.971 24.1332 108.836 23.805 110.793 23.9865C112.333 24.1295 113.753 24.6246 114.953 25.6551C115.734 26.3262 116.243 27.0559 116.571 28.0388C115.395 28.6072 114.209 29.1811 112.984 29.7752C112.842 29.5277 112.731 29.3516 112.636 29.1683C111.73 27.4282 109.814 27.2246 108.477 27.7784C107.706 28.0974 107.292 28.7264 107.237 29.5533C107.184 30.3619 107.545 31.0275 108.263 31.3448C109.173 31.7482 110.139 32.025 111.087 32.3367C111.836 32.5824 112.605 32.764 113.345 33.0335C116.371 34.1355 117.428 36.4239 116.939 39.5795C116.556 42.053 115.004 43.5768 112.691 44.3652C112.266 44.5101 111.839 44.6476 111.413 44.7888H107.952H107.954Z" fill="#A0A0A0"/>
<path d="M6.10065 0.0487086V16.4393C6.5308 16.4797 6.87892 16.5402 7.22522 16.542C9.16634 16.5512 11.1075 16.5439 13.0486 16.5494C13.3712 16.5494 13.692 16.5842 14.1239 16.6099C13.7539 17.9117 13.4167 19.1017 13.0686 20.3266H0.989965C1.14854 19.9507 1.24514 19.6372 1.40553 19.3621C1.81927 18.6507 1.92134 17.8952 1.91769 17.0811C1.89582 12.5631 1.894 8.04508 1.91951 3.5289C1.92498 2.64877 1.78281 1.84381 1.36178 1.07186C1.19046 0.758316 1.11573 0.391594 0.999078 0.0487086H6.10065Z" fill="#A0A0A0"/>
<path d="M114.174 7.74987V9.77234H116.897C116.717 10.4746 116.573 11.0357 116.418 11.6445C115.641 11.683 114.927 11.7196 114.087 11.7618V14.6809H111.956C111.945 11.7031 111.94 8.79319 111.967 5.79708C113.866 5.77507 115.647 5.75307 117.429 5.7329V7.74987H114.174Z" fill="#A0A0A0"/>
<path d="M68.929 31.2146V44.1507H64.8499C64.8353 43.7968 64.808 43.4448 64.808 43.0909C64.8043 37.8669 64.7916 32.643 64.8189 27.419C64.8244 26.4784 64.7278 25.6019 64.2375 24.7896C64.1318 24.6154 64.088 24.4045 63.9896 24.1368H69.2552C72.31 28.5228 75.3702 32.9162 78.5343 37.4599C78.7767 36.4202 78.6418 35.5529 78.6673 34.6984C78.691 33.844 78.6728 32.9877 78.6728 32.1332V26.9093C78.6728 26.0273 78.6728 25.1435 78.6728 24.2872C79.3928 24.036 81.6893 23.9975 82.7337 24.2139V44.0847C82.0684 44.3451 81.3685 44.1874 80.685 44.213C79.9888 44.2405 79.2907 44.2185 78.5051 44.2185C75.3902 39.8655 72.2662 35.4979 69.1422 31.1321C69.0711 31.1596 69.0019 31.1871 68.9308 31.2146H68.929Z" fill="#A0A0A0"/>
<path d="M84.8971 44.1489V24.1387C85.207 24.1093 85.4968 24.0562 85.7866 24.0562C87.6985 24.0488 89.6105 24.0305 91.5206 24.0598C94.3275 24.102 96.8373 24.9931 98.8804 26.9606C101.662 29.6413 102.59 32.9583 101.647 36.6714C100.689 40.4486 98.1295 42.7792 94.4277 43.8188C93.6185 44.0462 92.7582 44.1617 91.9161 44.1819C89.7636 44.2332 87.6092 44.202 85.4549 44.202C85.3054 44.202 85.1559 44.1764 84.899 44.1507L84.8971 44.1489ZM89.2296 28.0809V40.2488C90.1154 40.2488 90.9283 40.2616 91.7393 40.2469C94.7522 40.1938 97.2656 37.8871 97.5791 34.8965C97.9072 31.7647 96.0335 28.9886 93.0954 28.2496C91.8396 27.9342 90.5747 28.1029 89.2296 28.0828V28.0809Z" fill="#A0A0A0"/>
<path d="M98.3209 11.9837H92.5067C92.3955 13.5074 92.4465 14.9248 92.472 16.4595C93.7461 16.6154 94.98 16.5384 96.2085 16.553C97.4497 16.5677 98.6909 16.5567 100.007 16.5567V20.3138H88.2253V0.309081H100.023V4.02398H92.4957C92.4046 5.47253 92.4502 6.79456 92.4702 8.23394H99.1265C99.276 8.93255 99.0408 9.99604 98.3209 11.9837Z" fill="#A0A0A0"/>
<path d="M25.9766 11.9892H20.1514C20.0019 13.5257 20.0493 14.9633 20.1186 16.5274H27.5641C27.6844 17.8421 27.657 19.0376 27.5823 20.3083H15.8463V0.310915H27.5604V4.02398C25.109 4.10832 22.6667 4.01664 20.1004 4.07898C20.0384 5.47803 20.0548 6.80006 20.0913 8.24311H26.8879C26.7202 9.57798 26.2718 10.6946 25.9766 11.9892Z" fill="#A0A0A0"/>
<path d="M26.9827 32.0837C26.6163 33.4259 26.3046 34.5627 25.9656 35.8059H20.1478V40.3698H27.5459C27.7063 41.668 27.6461 42.8653 27.5933 44.1397H15.9302C15.7351 43.4319 15.7005 25.1728 15.9028 24.1478H27.5623V27.8627H20.1186C20.022 29.3186 20.0676 30.6407 20.0913 32.0837H26.9827Z" fill="#A0A0A0"/>
<path d="M62.6755 40.4248V44.202C58.7951 44.2369 54.9292 44.2112 51.0981 44.2185C50.8283 43.4283 50.7846 25.1802 51.0343 24.1533H62.67V27.8609H55.137C55.0605 29.3095 55.086 30.6315 55.1188 32.0855C57.4172 32.1974 59.6499 32.0782 62.012 32.1589C61.6803 33.3984 61.3759 34.5316 61.0369 35.7931H55.1771C55.035 37.3718 55.0751 38.8131 55.148 40.4248H62.6755Z" fill="#A0A0A0"/>
<path d="M0.933463 24.0213H6.10977V40.3753H14.144C13.7576 41.7377 13.4204 42.9277 13.0723 44.158H0.971739C1.17587 43.7033 1.38183 43.3439 1.50213 42.957C1.66981 42.4143 1.88488 41.8513 1.88671 41.2958C1.91769 36.5045 1.91587 31.7115 1.88853 26.9184C1.88488 26.3903 1.70262 25.8531 1.5404 25.3397C1.41464 24.94 1.19228 24.5714 0.931641 24.0195L0.933463 24.0213Z" fill="#A0A0A0"/>
<path d="M106.288 5.68706C108.918 5.76407 110.914 7.88189 110.833 10.5113C110.757 13.0545 108.606 15.0971 106.06 15.0458C103.473 14.9926 101.465 12.8381 101.54 10.1922C101.613 7.58851 103.698 5.61005 106.288 5.68706ZM108.739 10.3609C108.735 8.93988 107.604 7.78288 106.209 7.77187C104.799 7.76271 103.581 9.00406 103.614 10.4159C103.647 11.8223 104.804 12.939 106.22 12.928C107.651 12.9188 108.743 11.804 108.739 10.3591V10.3609Z" fill="#A0A0A0"/>
</svg>
