<svg width="185" height="50" viewBox="0 0 185 50" fill="none" xmlns="http://www.w3.org/2000/svg">
<path fill-rule="evenodd" clip-rule="evenodd" d="M176.402 9.66496C174.717 7.99797 172.714 6.67665 170.508 5.77732C168.302 4.87799 165.937 4.41846 163.55 4.42529H21.3091C11.288 4.42529 3.13495 12.45 3.13495 22.3157V28.3384C3.13495 33.116 5.02501 37.6092 8.45766 40.9872C10.1424 42.6543 12.1455 43.9756 14.3511 44.875C16.5568 45.7743 18.9213 46.2338 21.3081 46.2269H163.549C165.936 46.2337 168.301 45.7742 170.507 44.8749C172.713 43.9755 174.716 42.6542 176.401 40.9872C178.093 39.3312 179.435 37.3604 180.349 35.1891C181.262 33.0178 181.73 30.6892 181.723 28.3384V22.3157C181.73 19.9646 181.263 17.6358 180.349 15.4641C179.436 13.2925 178.094 11.3213 176.402 9.66496ZM179.629 28.3422C179.629 36.9363 172.513 43.9294 163.767 43.9294H21.0924C16.856 43.9294 12.8735 42.3077 9.87712 39.3637C6.88071 36.4196 5.2312 32.5061 5.2312 28.3422V22.311C5.2312 18.148 6.88166 14.2326 9.87712 11.2895C11.3487 9.83662 13.0972 8.68522 15.0221 7.90161C16.9469 7.11801 19.01 6.71768 21.0924 6.7237H163.766C168.002 6.7237 171.986 8.34539 174.982 11.2895C176.459 12.7312 177.63 14.4481 178.428 16.3402C179.225 18.2323 179.633 20.2619 179.628 22.311V28.3422H179.629Z" fill="#A0A0A0"/>
<path fill-rule="evenodd" clip-rule="evenodd" d="M50.6594 17.812V13.9399H45.1553V17.812H50.6594ZM50.6623 33.8698V20.3156H45.1534V33.8698H50.6623ZM34.9929 26.3732V13.9173H40.517V33.8868H35.5351L26.312 20.2177C25.5722 19.1993 24.7828 19.685 24.7341 20.6055V33.8858H19.21V13.9173H25.2276L33.9582 26.9558C34.3018 27.4395 34.9433 27.3435 34.9929 26.3732ZM55.3578 20.3231V33.8614H60.8514V25.6418C60.8514 20.8069 67.7186 20.9038 67.7186 25.8348V33.8614H73.2122V23.9985C73.2122 21.6775 70.4649 19.4525 67.5229 19.4525C65.2663 19.4525 61.7353 20.709 60.8523 21.6766V20.3231H55.3578ZM108.653 20.3071V33.8802H114.179V25.639C114.179 20.7918 121.086 20.8888 121.086 25.8329V33.8802H126.612V23.991C126.612 21.6643 123.849 19.4346 120.888 19.4346C118.619 19.4346 115.067 20.6949 114.179 21.6653V20.3081L108.653 20.3071ZM78.2886 33.8868V20.309H74.2412V18.757H78.2886V16.9141H83.8194V18.757H87.8678V20.309H83.8194V33.8868H78.2886ZM168.425 14.8557C167.14 14.8557 166.109 15.8552 166.109 17.0844C166.109 18.3334 167.14 19.332 168.425 19.332C169.702 19.332 170.733 18.3334 170.733 17.0844C170.733 15.8543 169.702 14.8557 168.425 14.8557ZM168.425 18.9866C168.172 18.9875 167.922 18.9388 167.688 18.8433C167.455 18.7478 167.243 18.6075 167.065 18.4305C166.887 18.2535 166.746 18.0433 166.651 17.8122C166.557 17.5811 166.509 17.3337 166.512 17.0844C166.512 16.0491 167.349 15.2011 168.425 15.2011C169.501 15.2011 170.331 16.0491 170.331 17.0844C170.331 18.1386 169.501 18.9866 168.425 18.9866Z" fill="#A0A0A0"/>
<path fill-rule="evenodd" clip-rule="evenodd" d="M169.367 18.1132C169.142 17.7772 168.916 17.4459 168.71 17.0967C169.075 17.0214 169.308 16.7908 169.308 16.436C169.308 16.0623 169.042 15.844 168.577 15.844H167.589V18.3447C167.675 18.3381 167.761 18.3259 167.848 18.3259C167.934 18.3259 168.02 18.3381 168.105 18.3447V17.172H168.227L168.917 18.3447C169.016 18.3381 169.115 18.3259 169.215 18.3259C169.314 18.3259 169.414 18.3381 169.513 18.3447L169.367 18.1132ZM168.106 17.0572V16.0774H168.312C168.525 16.0774 168.736 16.0962 168.736 16.5329C168.736 16.9141 168.539 17.0882 168.106 17.0572ZM158.919 19.4986C153.837 19.4986 149.716 22.8117 149.716 26.8993C149.716 30.987 153.836 34.3 158.919 34.3C164.002 34.3 168.122 30.986 168.122 26.8993C168.122 22.8126 164.001 19.4986 158.919 19.4986ZM161.671 30.1888C161.671 31.6863 160.438 32.8985 158.919 32.8985C157.399 32.8985 156.169 31.6863 156.169 30.1888V23.8028C156.169 22.3062 157.399 21.093 158.919 21.093C160.438 21.093 161.671 22.3062 161.671 23.8028V30.1888ZM105.711 27.0424C105.713 26.9944 105.713 26.9464 105.713 26.8993C105.713 22.8192 101.609 19.5118 96.5487 19.5118C91.4875 19.5118 87.3838 22.8192 87.3838 26.8993C87.3838 30.9794 91.4866 34.2878 96.5487 34.2878C100.665 34.2878 104.15 32.0976 105.306 29.0838L99.2969 29.0763V30.1888C99.2969 30.9077 99.0073 31.5972 98.4917 32.1055C97.9761 32.6139 97.2769 32.8995 96.5477 32.8995C95.8186 32.8995 95.1193 32.6139 94.6038 32.1055C94.0882 31.5972 93.7986 30.9077 93.7986 30.1888V27.0433H105.711V27.0424ZM93.8024 23.8046C93.8024 23.0865 94.0917 22.3977 94.6067 21.8899C95.1218 21.3821 95.8203 21.0968 96.5487 21.0968C97.277 21.0968 97.9756 21.3821 98.4906 21.8899C99.0057 22.3977 99.295 23.0865 99.295 23.8046V25.0141H93.8024V23.8046ZM141.288 13.9126V21.2832C139.709 20.1678 137.635 19.7321 136.746 19.829C135.37 19.9796 129.639 19.6351 129.639 26.9078C129.639 33.5988 133.193 34.3753 136.746 34.3753C138.426 34.3753 139.906 33.7936 141.288 32.9211V33.8896H146.816V13.9126H141.288ZM141.288 30.874C137.634 34.0741 135.758 31.0679 135.758 28.7403V25.2494C135.758 21.5636 139.805 21.2728 141.288 23.5035V30.874Z" fill="#A0A0A0"/>
</svg>
