<svg width="70" height="69" viewBox="0 0 70 69" fill="none" xmlns="http://www.w3.org/2000/svg">
<path d="M56.9164 7.59824L50.3037 15.1578C41.3541 8.34853 28.6998 8.16968 19.6971 15.1578L13.0844 7.59824C25.7963 -2.5262 44.1824 -2.53929 56.9164 7.59824Z" fill="#A0A0A0"/>
<path d="M10.8311 9.54454C10.9728 9.41804 11.1011 9.27409 11.256 9.15631C13.4558 11.6732 15.6556 14.1858 17.851 16.7028C17.789 16.7987 17.6961 16.8685 17.6164 16.9514C11.7031 22.6832 9.04298 30.7531 10.5169 38.8884C11.0038 41.558 11.9288 44.1535 13.3009 46.5047L26.9334 33.4925L33.6965 19.1455C33.7983 26.3997 33.6788 33.667 33.701 40.9255L20.0109 54.0642C28.456 60.5419 41.7432 60.7644 50.0732 53.9988L36.4673 40.9255C36.1575 33.9767 36.4717 26.2165 36.4806 19.1761L43.2348 33.4925L56.7434 46.3913C56.8629 46.2299 56.9381 46.0466 57.0399 45.8722C57.7083 44.6159 58.266 43.3029 58.7042 41.955C61.5103 33.2744 59.1999 23.656 52.6315 17.1913C52.4722 17.0256 52.2863 16.8816 52.1446 16.7028C54.309 14.164 56.5442 11.6602 58.744 9.15195C60.209 10.4737 61.5502 11.935 62.7585 13.4879C71.053 24.1358 72.3145 38.5525 66.0648 50.4175C65.1619 52.1361 64.0996 53.7719 62.9134 55.3161C60.6738 58.2562 57.934 60.8211 54.8578 62.9062C41.9645 71.6522 24.5167 70.9804 12.4777 60.9127C10.4948 59.2726 8.69332 57.4187 7.1309 55.3815C-3.53607 41.5188 -2.18168 21.6756 10.8311 9.54454Z" fill="#A0A0A0"/>
</svg>
