<svg width="182" height="70" viewBox="0 0 182 70" fill="none" xmlns="http://www.w3.org/2000/svg">
<path d="M181.45 37.9164C179.495 36.7841 177.515 35.7817 174.988 36.6647C174.941 37.262 174.837 37.9268 174.837 38.5917C174.821 43.2663 174.931 47.9409 174.795 52.6104C174.691 56.2981 175.331 59.6535 178.05 62.4011C176.204 62.9725 168.224 63.0815 164.969 62.5829C167.855 59.5392 167.844 55.8359 167.797 52.0858C167.73 46.9904 167.782 41.8951 167.782 36.701C165.505 36.0102 163.596 36.3478 161.844 38.0411C160.571 36.94 159.349 35.8856 158.049 34.7637C157.259 35.2675 156.546 35.7194 155.772 36.2076V42.5132C157.867 42.6067 159.817 42.7002 161.844 42.7885C162.427 45.1933 162.219 47.3904 162.037 49.8108C159.962 49.0836 157.992 48.585 155.725 49.2498C155.725 52.3403 155.522 55.4463 155.813 58.5056C155.948 59.9288 157.03 61.2636 157.727 62.7232H136.92C137.341 60.578 138.063 58.5783 138.032 56.589C138.001 54.662 137.185 52.7454 136.634 50.4912C134.788 51.8001 133.098 52.8181 131.622 54.0855C128.97 56.376 128.757 58.8692 131.253 61.1701C131.627 61.5129 131.918 61.944 132.24 62.3492C132.282 62.4011 132.246 62.5154 132.246 62.8738C131.232 62.8738 130.218 62.8738 129.209 62.8738C125.918 62.8738 122.622 62.7647 119.336 62.9153C117.36 63.0036 116.133 62.1778 115.515 60.4897C114.99 59.051 114.698 57.5187 114.433 56.0021C114.288 55.1762 114.407 54.2984 114.407 53.4206C113.284 52.6987 112.302 52.0702 110.95 51.2028C110.971 55.4048 109.993 59.2587 113.638 62.7959C109.12 62.9569 105.278 62.8063 101.352 62.9049C98.7266 65.2267 96.0803 67.5692 93.3351 70C92.706 69.4027 92.1237 68.9041 91.6038 68.3483C89.4202 66.0058 87.2833 63.6217 85.0685 61.3104C84.1066 60.3079 83.6855 59.2224 83.6959 57.8252C83.7375 49.4316 83.7271 41.0381 83.7063 32.6445C83.7063 31.5641 83.8987 30.6604 84.6889 29.8189C87.4029 26.9207 90.0493 23.9549 92.5293 21.228C95.8931 24.5106 99.2102 27.7465 102.699 31.1486C101.212 32.0576 99.5689 33.06 97.8584 34.0988C96.6158 33.0185 95.5292 32.0784 94.349 31.0551C93.6211 31.7148 92.992 32.2861 92.2953 32.9146V57.6434C92.9348 58.2407 93.6263 58.8796 94.4373 59.6431C96.205 58.2667 97.952 56.911 99.9432 55.3632C100.754 57.2486 101.456 58.864 102.241 60.6871C103.343 59.2328 103.827 57.7784 103.832 56.2098C103.863 50.4133 103.843 44.6168 103.832 38.815C103.832 38.5657 103.733 38.3164 103.666 37.9736C102.283 37.1997 100.863 36.3998 99.075 35.3973C103.614 32.3433 108.132 29.9124 112.832 27.3674C116.799 31.6472 120.719 35.87 124.764 40.2226C122.268 42.6119 119.913 44.8661 117.329 47.3332C119.076 48.2474 120.568 49.0265 122.045 49.8004C122.632 53.0311 121.806 56.2514 122.679 59.9236C123.168 58.9731 123.527 58.5212 123.641 58.0174C125.04 51.6079 126.386 45.1829 127.79 38.7683C128.206 36.8673 127.551 35.4181 125.819 34.104C130.317 31.5901 134.559 29.2164 139.218 26.6142C138.193 32.9821 140.393 38.2904 141.786 43.9363C143.398 43.8013 144.822 43.6766 146.569 43.5312C146.626 44.5752 146.673 45.4686 146.725 46.4502C145.483 46.9177 144.38 47.328 143.309 47.728C143.585 50.6574 145.561 56.9474 147.266 60.1833C147.567 59.3003 147.978 58.6406 147.983 57.9862C148.03 51.5092 148.015 45.0323 148.015 38.5086C146.346 37.797 144.796 37.1321 142.758 36.2647C147.822 32.7016 152.465 29.4398 157.337 26.0117C158.652 27.3154 159.915 28.5672 160.955 29.5956C162.167 29.393 163.118 29.1022 164.07 29.097C169.872 29.0554 175.674 29.0814 181.481 29.0814V37.9113L181.45 37.9164ZM135.287 45.8062C134.663 43.6351 134.076 41.5886 133.337 39.0332C132.76 42.2431 131.908 44.8245 131.741 47.8371C132.999 47.1151 133.961 46.5645 135.282 45.8062H135.287ZM111.033 36.592V43.1676C112.296 42.0042 113.269 41.1108 114.371 40.1031C113.274 38.9501 112.348 37.9736 111.033 36.5972V36.592Z" fill="#A0A0A0"/>
<path d="M0 22.3343H12.6755C11.7761 30.7902 14.8436 38.441 16.6477 46.3879C18.4466 38.9604 20.2455 31.5382 22.0444 24.1107C22.216 24.1003 22.3823 24.0847 22.5539 24.0743C24.5192 31.2421 26.1101 38.5138 28.3977 45.7127C28.9489 42.5911 29.5052 39.4747 30.0459 36.353C30.5294 33.5431 31.0025 30.7331 31.46 27.9179C31.7564 26.1104 32.006 24.3029 30.7686 22.6875C32.5519 22.0954 39.3991 21.9552 43.5169 22.4278C43.1737 22.9628 42.9086 23.4459 42.581 23.877C40.3454 26.8168 39.7059 30.302 39.1184 33.808C37.9798 40.6225 36.8256 47.4371 35.713 54.2569C35.4894 55.6177 35.3126 57.0045 35.323 58.3809C35.3334 59.4561 35.6766 60.5261 35.9157 61.8506C37.959 60.9676 38.5413 59.4405 38.9312 57.8875C39.6591 54.9529 40.2674 51.9923 40.8861 49.0369C41.4892 46.1594 41.9259 43.2455 42.6694 40.4096C43.2049 38.3631 43.0645 36.6647 41.0005 35.1273C45.2326 32.7016 49.2255 30.4111 53.3121 28.0686C53.4628 28.562 53.6448 28.8321 53.5928 29.0398C52.709 32.6601 53.806 36.0622 54.7522 39.4747C55.3033 41.464 55.9532 43.4273 56.5823 45.4842H60.7884C60.8404 46.3256 60.8924 47.1359 60.9548 48.0604C59.9254 48.4967 58.9895 48.8862 57.7729 49.4005C58.5372 52.974 59.3847 56.5215 61.1888 60.5365C61.6619 58.8536 62.2182 57.7577 62.2338 56.6565C62.3222 50.7769 62.2754 44.8972 62.2754 38.9189C60.7417 38.0359 59.2703 37.1945 57.4142 36.1297C61.9739 33.221 66.18 30.5409 70.6252 27.705C74.8937 32.1407 79.0686 36.4725 83.3787 40.9394C80.8832 43.3182 78.5279 45.5673 76.0427 47.9357C77.8417 48.8707 79.4326 49.6965 81.1899 50.6055C81.1899 52.4494 81.2783 54.2621 81.1691 56.0592C81.0391 58.168 81.4863 60.0015 83.0668 61.487C83.3008 61.7103 83.4307 62.0427 83.7531 62.5569C81.3147 63.1179 78.9127 63.2893 76.8174 62.6452C74.5402 61.9492 73.594 59.6535 73.2872 57.3162C73.1676 56.3864 73.2664 55.4307 73.2664 54.4231C72.1642 53.7323 71.1711 53.109 70.1053 52.439C69.1955 56.376 69.5594 58.677 71.5819 62.4323C69.809 62.9777 56.1768 63.1595 51.3832 62.6868C51.7419 60.8689 52.2306 59.077 52.4178 57.2538C52.605 55.4411 51.9967 53.7323 51.1544 51.8053C49.3711 53.0259 47.7334 53.992 46.2776 55.1814C44.2292 56.8539 44.1408 58.7705 45.8097 60.8273C46.236 61.3519 46.6832 61.8558 47.1615 62.4115C45.1702 62.9881 26.6716 63.0556 24.2904 62.5518C24.1396 60.2404 24.0825 57.9395 23.8069 55.6697C23.5313 53.3843 23.0426 51.1249 22.5955 48.5382C21.5817 53.3427 19.6944 57.7109 20.9318 62.6764H8.37063C8.34463 62.5518 8.23545 62.318 8.29264 62.2661C10.2943 60.5105 10.5127 58.4173 9.89398 55.9086C7.48158 46.1802 5.20435 36.4258 2.87513 26.6766C2.47479 24.9937 1.50255 23.7263 0.0259957 22.833V22.3136L0 22.3343ZM48.2741 40.6018C48.1597 40.581 48.0453 40.555 47.9258 40.5342C47.3798 43.3494 46.8339 46.1594 46.2152 49.3485C47.7178 48.5642 48.7732 48.0136 50.0314 47.354C49.4283 45.0479 48.8512 42.8248 48.2689 40.6018H48.2741ZM69.7726 43.8169C71.2075 42.5963 72.2214 41.7393 73.3288 40.7939C72.1434 39.5889 71.2907 38.3735 69.7726 37.6204V43.8169Z" fill="#A0A0A0"/>
<path d="M78.5071 0C79.2922 0.327224 80.0877 0.64406 80.8676 0.986866C86.6282 3.52675 87.928 10.653 83.5867 15.1977C79.3754 19.6127 70.3497 19.301 66.3619 15.0315C62.8473 11.2762 63.3984 5.45893 67.7085 2.31654C69.0655 1.32448 70.7396 0.758329 72.2682 0C74.3478 0 76.4275 0 78.5071 0ZM83.2956 9.87386C82.9264 8.38317 82.7081 6.83015 82.1465 5.41218C80.8364 2.10878 77.2542 0.238926 73.7343 0.836239C69.5438 1.54782 67.4122 3.8332 67.1938 7.93648C67.0794 10.1439 67.6149 12.2112 68.8523 14.0706C70.7916 16.9741 74.4986 18.2311 77.9924 17.1767C81.2731 16.1846 83.0252 13.6811 83.2904 9.87386H83.2956Z" fill="#A0A0A0"/>
<path d="M62.083 1.3037C59.5043 1.80752 58.4176 3.72412 57.3934 5.78615C55.6257 9.34407 53.78 12.8656 51.9343 16.3872C51.56 17.0988 51.04 17.7324 50.3434 18.766C48.5964 16.3716 47.8946 13.9512 46.5116 11.697C44.7491 13.6967 44.4683 16.5586 42.2535 18.6622C41.666 17.6857 41.1981 17.0105 40.8341 16.2781C39.2536 13.1097 37.7614 9.89464 36.1185 6.75744C34.9591 4.54997 34.4704 1.70364 30.9245 1.50627L31.2781 0.960896C31.7356 0.83624 32.1931 0.597314 32.6455 0.602508C37.2623 0.706389 41.8895 0.425911 46.7871 0.779105C46.3348 1.60496 46.0697 2.0932 45.7057 2.75803C46.1217 3.6566 46.574 4.63827 47.2655 6.13415C47.9466 4.68502 48.3989 3.72412 48.8564 2.74764C48.3729 2.16072 47.9985 1.70884 47.6294 1.25696C47.9985 0.348 59.3847 0.192179 62.0778 1.29331L62.083 1.3037ZM48.2221 8.10789C49.2047 10.0453 50.1614 11.9307 51.17 13.9252C53.6136 10.4868 56.3224 4.47206 56.416 2.38406C53.1249 1.10114 51.6275 1.60496 50.0366 4.56556C49.4231 5.70305 48.8616 6.86132 48.2273 8.10789H48.2221ZM37.5015 2.51391C39.3368 6.31595 41.0837 10.1595 43.3557 14.1537C44.25 12.341 44.9258 10.9646 45.5809 9.62974C44.4891 7.47422 43.5533 5.42777 42.4407 3.4852C41.2916 1.49069 39.9399 1.25176 37.5015 2.51391Z" fill="#A0A0A0"/>
<path d="M130.452 17.4727C131.544 17.078 132.459 16.7456 133.457 16.3872V2.11397C132.563 1.76078 131.814 1.46472 130.457 0.929732C131.528 0.664836 131.965 0.462269 132.407 0.457075C135.875 0.441493 139.342 0.348 142.8 0.524597C144.588 0.612896 146.429 0.986866 148.108 1.59976C153.947 3.73451 155.2 10.762 150.406 14.7303C148.992 15.8989 147.152 16.7248 145.368 17.2546C140.731 18.6362 135.932 18.148 131.18 18.0648C130.998 18.0648 130.821 17.7792 130.447 17.4675L130.452 17.4727ZM136.883 8.82466C136.883 10.6322 136.831 12.4449 136.899 14.2472C136.956 15.7899 137.434 16.4235 138.781 16.569C140.933 16.7975 143.091 16.7975 145.145 15.9405C148.025 14.7407 149.756 11.9619 149.642 8.75195C149.533 5.67708 147.911 3.28263 144.843 2.42042C142.893 1.87505 140.783 1.78155 138.734 1.71403C137.356 1.67248 136.956 2.20746 136.904 3.6566C136.836 5.37582 136.888 7.10024 136.888 8.82466H136.883Z" fill="#A0A0A0"/>
<path d="M98.5603 16.8598C96.2518 17.8934 92.2849 17.8311 90.3092 17.0157C91.2035 16.6157 91.9313 16.2885 92.94 15.8314C93.0076 11.2866 93.1064 6.67433 92.862 2.09839C91.9469 1.68287 91.2191 1.35564 89.9973 0.805075C90.9331 0.581732 91.3126 0.415523 91.6922 0.410329C94.4581 0.394747 97.2293 0.337612 99.99 0.462269C101.071 0.514209 102.226 0.836239 103.188 1.34006C105.927 2.76842 106.193 5.96795 103.811 7.96765C103.354 8.35201 102.824 8.65845 102.397 8.94932C103.957 14.5329 107.347 18.657 112.312 21.8046C111.88 21.8773 111.433 22.0591 111.012 22.0123C108.08 21.6643 105.896 19.9503 104.092 17.8155C102.652 16.1119 101.425 14.2161 100.234 12.3202C99.2361 10.7257 98.0196 9.98293 96.0335 10.5854C95.7319 12.4397 95.576 14.2784 96.3662 16.0963C97.1565 16.3716 97.8532 16.6157 98.5499 16.8598H98.5603ZM95.9659 9.23499C97.4892 9.00126 98.7838 8.95451 99.964 8.58054C101.669 8.03517 102.517 6.14454 102.054 4.40454C101.383 1.86466 99.1374 1.00245 95.9607 2.16072V9.24019L95.9659 9.23499Z" fill="#A0A0A0"/>
<path d="M114.121 1.93737C113.029 1.55302 112.244 1.27773 111.459 0.997254C111.48 0.825851 111.501 0.649254 111.517 0.477851C114.09 0.384359 116.669 0.399941 119.778 0.519403C118.707 1.19463 118.047 1.61015 117.23 2.12436V16.2521C117.937 16.4755 118.707 16.7975 119.508 16.9377C120.178 17.0572 120.891 16.9222 121.577 16.9897C124.213 17.2546 126.407 16.7456 127.343 13.8733C127.379 13.7642 127.618 13.7174 127.961 13.5408C128.435 15.0523 127.951 16.3145 127.296 17.6805H111.501C112.671 17.0468 113.352 16.6832 114.121 16.2625V1.93737Z" fill="#A0A0A0"/>
<path d="M73.0168 12.4709C71.2543 12.4917 69.653 11.297 69.6166 9.94138C69.5802 8.55977 71.0984 7.32878 72.8921 7.27684C74.6494 7.2249 76.2559 8.41953 76.2871 9.79595C76.3183 11.1983 74.7846 12.4553 73.022 12.4709H73.0168ZM73.0896 11.9203C74.3114 11.4477 74.4622 10.5751 74.3738 9.58299C74.2854 8.59613 73.7239 8.06633 72.7829 7.91571C70.7292 9.51028 70.7708 10.3465 73.0896 11.9255V11.9203Z" fill="#A0A0A0"/>
<path d="M80.6752 8.72598C80.1657 8.50263 79.6614 8.2741 79.131 8.04036C79.0132 8.73637 79.5244 9.3458 80.6648 9.86866C79.9369 10.2011 79.391 10.4556 78.7567 10.7465C78.8867 11.2035 79.0219 11.6762 79.1934 12.2735H77.0566V7.46383C78.2732 7.46383 79.8173 6.66914 80.9247 8.1806C80.8416 8.36239 80.7584 8.54419 80.6752 8.72598Z" fill="#A0A0A0"/>
</svg>
