<svg width="70" height="70" viewBox="0 0 70 70" fill="none" xmlns="http://www.w3.org/2000/svg">
<path d="M35 0C15.6695 0 0 15.6712 0 35C0 54.3288 15.6695 70 35 70C54.3305 70 70 54.3288 70 35C70 15.6712 54.3305 0.004375 35 0ZM51.0514 50.4787C50.4232 51.5112 49.0787 51.8306 48.0519 51.205C39.8339 46.1825 29.4879 45.0494 17.3053 47.8319C16.1302 48.0987 14.9599 47.3638 14.6926 46.1869C14.4226 45.0144 15.1559 43.8419 16.3332 43.575C29.6647 40.53 41.1018 41.8425 50.3278 47.4775C51.3546 48.1119 51.6819 49.4506 51.0514 50.4787ZM55.3337 40.95C54.5431 42.2363 52.8618 42.6387 51.5795 41.8512C42.1741 36.0675 27.8303 34.3919 16.7033 37.7694C15.2609 38.2069 13.7375 37.3931 13.2978 35.9538C12.8634 34.51 13.6776 32.9875 15.1178 32.55C27.8281 28.6913 43.631 30.5594 54.4333 37.2007C55.7183 37.9882 56.1242 39.6681 55.3337 40.95ZM55.7016 31.0275C44.4194 24.325 25.8099 23.7125 15.0391 26.9763C13.3096 27.5013 11.4804 26.5256 10.9572 24.7975C10.4344 23.0694 11.4087 21.2406 13.1403 20.7112C25.5041 16.9618 46.0552 17.6838 59.0428 25.3925C60.5972 26.32 61.1087 28.3281 60.1864 29.8813C59.2672 31.4388 57.2539 31.9506 55.7016 31.0275Z" fill="#A0A0A0"/>
</svg>
