<svg width="16" height="14" viewBox="0 0 16 14" fill="none" xmlns="http://www.w3.org/2000/svg">
<path d="M10.3866 6.99604C10.3866 8.31604 9.31995 9.38271 7.99995 9.38271C6.67995 9.38271 5.61328 8.31604 5.61328 6.99604C5.61328 5.67604 6.67995 4.60938 7.99995 4.60938C9.31995 4.60938 10.3866 5.67604 10.3866 6.99604Z" stroke="#51526C" stroke-width="1.2" stroke-linecap="round" stroke-linejoin="round"/>
<path d="M7.9999 12.5099C10.3532 12.5099 12.5466 11.1232 14.0732 8.72323C14.6732 7.78323 14.6732 6.20323 14.0732 5.26323C12.5466 2.86323 10.3532 1.47656 7.9999 1.47656C5.64656 1.47656 3.45323 2.86323 1.92656 5.26323C1.32656 6.20323 1.32656 7.78323 1.92656 8.72323C3.45323 11.1232 5.64656 12.5099 7.9999 12.5099Z" stroke="#51526C" stroke-width="1.2" stroke-linecap="round" stroke-linejoin="round"/>
</svg>
