<svg width="83" height="22" viewBox="0 0 83 22" fill="none" xmlns="http://www.w3.org/2000/svg">
<path d="M0.5 11C0.5 5.20101 5.20101 0.5 11 0.5H72C77.799 0.5 82.5 5.20101 82.5 11C82.5 16.799 77.799 21.5 72 21.5H11C5.20101 21.5 0.5 16.799 0.5 11Z" fill="#FEF3F2"/>
<path d="M0.5 11C0.5 5.20101 5.20101 0.5 11 0.5H72C77.799 0.5 82.5 5.20101 82.5 11C82.5 16.799 77.799 21.5 72 21.5H11C5.20101 21.5 0.5 16.799 0.5 11Z" stroke="#FECDCA"/>
<path d="M9.30855 15V6.252H12.6805C13.9925 6.252 15.0045 6.62 15.7165 7.356C16.4365 8.084 16.7965 9.156 16.7965 10.572V10.668C16.7965 11.668 16.6245 12.488 16.2805 13.128C15.9365 13.768 15.4565 14.24 14.8405 14.544C14.2245 14.848 13.5045 15 12.6805 15H9.30855ZM10.6645 13.824H12.6685C13.5165 13.824 14.1725 13.604 14.6365 13.164C15.1085 12.716 15.3445 12.08 15.3445 11.256V9.996C15.3445 9.22 15.1245 8.6 14.6845 8.136C14.2445 7.664 13.5725 7.428 12.6685 7.428H10.6645V13.824ZM18.421 15V8.664H19.705V15H18.421ZM18.421 7.68V6.252H19.705V7.68H18.421ZM23.884 15.12C23.02 15.12 22.364 14.928 21.916 14.544C21.476 14.152 21.256 13.64 21.256 13.008L22.492 13.02C22.5 13.428 22.636 13.724 22.9 13.908C23.164 14.092 23.508 14.184 23.932 14.184C24.356 14.184 24.668 14.1 24.868 13.932C25.076 13.764 25.18 13.552 25.18 13.296C25.18 13.04 25.12 12.844 25 12.708C24.888 12.572 24.72 12.472 24.496 12.408C24.272 12.344 23.992 12.284 23.656 12.228C23.4 12.188 23.14 12.136 22.876 12.072C22.612 12 22.372 11.9 22.156 11.772C21.94 11.644 21.768 11.476 21.64 11.268C21.512 11.052 21.448 10.78 21.448 10.452C21.448 9.836 21.676 9.364 22.132 9.036C22.588 8.708 23.172 8.544 23.884 8.544C24.62 8.544 25.212 8.716 25.66 9.06C26.108 9.404 26.34 9.88 26.356 10.488H25.132C25.124 10.144 25.004 9.888 24.772 9.72C24.548 9.544 24.248 9.456 23.872 9.456C23.488 9.456 23.196 9.536 22.996 9.696C22.804 9.848 22.708 10.048 22.708 10.296C22.708 10.52 22.776 10.692 22.912 10.812C23.048 10.932 23.228 11.02 23.452 11.076C23.676 11.124 23.92 11.172 24.184 11.22C24.448 11.26 24.716 11.312 24.988 11.376C25.26 11.44 25.508 11.54 25.732 11.676C25.964 11.804 26.148 11.988 26.284 12.228C26.42 12.468 26.488 12.78 26.488 13.164C26.488 13.788 26.252 14.272 25.78 14.616C25.316 14.952 24.684 15.12 23.884 15.12ZM30.5952 15.12C29.5952 15.12 28.8512 14.828 28.3632 14.244C27.8832 13.66 27.6432 12.868 27.6432 11.868V11.82C27.6432 10.708 27.9112 9.884 28.4472 9.348C28.9912 8.812 29.7072 8.544 30.5952 8.544C31.4192 8.544 32.0792 8.756 32.5752 9.18C33.0792 9.604 33.3512 10.18 33.3912 10.908H32.1312C32.0832 10.476 31.9192 10.152 31.6392 9.936C31.3672 9.712 31.0192 9.6 30.5952 9.6C30.0912 9.6 29.6912 9.752 29.3952 10.056C29.1072 10.352 28.9632 10.744 28.9632 11.232V12.432C28.9632 12.944 29.1072 13.344 29.3952 13.632C29.6832 13.92 30.0832 14.064 30.5952 14.064C31.0672 14.064 31.4352 13.944 31.6992 13.704C31.9632 13.456 32.1072 13.14 32.1312 12.756H33.4032C33.3872 13.228 33.2592 13.644 33.0192 14.004C32.7792 14.356 32.4472 14.632 32.0232 14.832C31.6072 15.024 31.1312 15.12 30.5952 15.12ZM37.3807 15.12C36.3807 15.12 35.6367 14.832 35.1487 14.256C34.6687 13.672 34.4247 12.876 34.4167 11.868V11.82C34.4167 10.708 34.6887 9.884 35.2327 9.348C35.7767 8.812 36.4927 8.544 37.3807 8.544C38.2607 8.544 38.9727 8.812 39.5167 9.348C40.0607 9.884 40.3327 10.708 40.3327 11.82V11.868C40.3327 12.876 40.0887 13.672 39.6007 14.256C39.1127 14.832 38.3727 15.12 37.3807 15.12ZM37.3807 14.064C37.8927 14.064 38.2927 13.92 38.5807 13.632C38.8687 13.344 39.0127 12.944 39.0127 12.432V11.232C39.0127 10.736 38.8647 10.34 38.5687 10.044C38.2727 9.748 37.8767 9.6 37.3807 9.6C36.8767 9.6 36.4767 9.748 36.1807 10.044C35.8847 10.34 35.7367 10.736 35.7367 11.232V12.432C35.7367 12.944 35.8807 13.344 36.1687 13.632C36.4567 13.92 36.8607 14.064 37.3807 14.064ZM41.917 15V8.664H43.105L43.213 9.852H43.297C43.441 9.452 43.689 9.136 44.041 8.904C44.401 8.664 44.821 8.544 45.301 8.544C45.997 8.544 46.537 8.756 46.921 9.18C47.313 9.604 47.509 10.24 47.509 11.088V15H46.213V11.244C46.213 10.628 46.081 10.2 45.817 9.96C45.561 9.72 45.221 9.6 44.797 9.6C44.293 9.6 43.901 9.772 43.621 10.116C43.341 10.452 43.201 10.9 43.201 11.46V15H41.917ZM49.5108 15V8.664H50.6988L50.8068 9.852H50.8908C51.0348 9.452 51.2828 9.136 51.6348 8.904C51.9948 8.664 52.4148 8.544 52.8948 8.544C53.5908 8.544 54.1308 8.756 54.5148 9.18C54.9068 9.604 55.1028 10.24 55.1028 11.088V15H53.8068V11.244C53.8068 10.628 53.6748 10.2 53.4108 9.96C53.1548 9.72 52.8148 9.6 52.3908 9.6C51.8868 9.6 51.4948 9.772 51.2148 10.116C50.9348 10.452 50.7948 10.9 50.7948 11.46V15H49.5108ZM59.5885 15.12C58.9165 15.12 58.3565 14.984 57.9085 14.712C57.4685 14.432 57.1365 14.048 56.9125 13.56C56.6965 13.064 56.5885 12.488 56.5885 11.832V11.748C56.5885 11.06 56.7125 10.48 56.9605 10.008C57.2085 9.528 57.5525 9.164 57.9925 8.916C58.4325 8.668 58.9405 8.544 59.5165 8.544C60.4365 8.544 61.1445 8.812 61.6405 9.348C62.1365 9.884 62.3845 10.588 62.3845 11.46V12.156H57.9085V12.564C57.9085 13.036 58.0605 13.416 58.3645 13.704C58.6685 13.984 59.0645 14.124 59.5525 14.124C59.9845 14.124 60.3405 14.02 60.6205 13.812C60.9085 13.604 61.0725 13.324 61.1125 12.972H62.3365C62.3125 13.404 62.1765 13.78 61.9285 14.1C61.6885 14.42 61.3645 14.672 60.9565 14.856C60.5565 15.032 60.1005 15.12 59.5885 15.12ZM57.9085 11.256V11.316H61.1245V11.256C61.1245 10.64 60.9765 10.196 60.6805 9.924C60.3925 9.652 60.0125 9.516 59.5405 9.516C59.0125 9.516 58.6085 9.672 58.3285 9.984C58.0485 10.296 57.9085 10.72 57.9085 11.256ZM66.4077 15.12C65.4077 15.12 64.6637 14.828 64.1757 14.244C63.6957 13.66 63.4557 12.868 63.4557 11.868V11.82C63.4557 10.708 63.7237 9.884 64.2597 9.348C64.8037 8.812 65.5197 8.544 66.4077 8.544C67.2317 8.544 67.8917 8.756 68.3877 9.18C68.8917 9.604 69.1637 10.18 69.2037 10.908H67.9437C67.8957 10.476 67.7317 10.152 67.4517 9.936C67.1797 9.712 66.8317 9.6 66.4077 9.6C65.9037 9.6 65.5037 9.752 65.2077 10.056C64.9197 10.352 64.7757 10.744 64.7757 11.232V12.432C64.7757 12.944 64.9197 13.344 65.2077 13.632C65.4957 13.92 65.8957 14.064 66.4077 14.064C66.8797 14.064 67.2477 13.944 67.5117 13.704C67.7757 13.456 67.9197 13.14 67.9437 12.756H69.2157C69.1997 13.228 69.0717 13.644 68.8317 14.004C68.5917 14.356 68.2597 14.632 67.8357 14.832C67.4197 15.024 66.9437 15.12 66.4077 15.12ZM72.6172 15C72.2012 15 71.9052 14.896 71.7292 14.688C71.5612 14.48 71.4772 14.212 71.4772 13.884V9.72H70.0132V8.664H71.4772V6.612H72.7612V8.664H74.4772V9.72H72.7612V13.968H74.4052V15H72.6172Z" fill="#B42318"/>
</svg>
