<svg width="111" height="22" viewBox="0 0 111 22" fill="none" xmlns="http://www.w3.org/2000/svg">
<path d="M11.5 0.5H99.5C105.299 0.5 110 5.20101 110 11C110 16.799 105.299 21.5 99.5 21.5H11.5C5.70101 21.5 1 16.799 1 11C1 5.20101 5.70101 0.5 11.5 0.5Z" fill="#FFFAEB"/>
<path d="M11.5 0.5H99.5C105.299 0.5 110 5.20101 110 11C110 16.799 105.299 21.5 99.5 21.5H11.5C5.70101 21.5 1 16.799 1 11C1 5.20101 5.70101 0.5 11.5 0.5Z" stroke="#FEDF89"/>
<path d="M11.131 15L9.24703 6.252H10.663L11.959 12.804L12.115 13.692H12.199L13.987 6.252H15.547L17.323 13.704H17.395L17.539 12.888L18.763 6.252H20.179L18.379 15H16.483L14.947 8.7L14.791 8.016H14.731L14.575 8.7L13.027 15H11.131ZM23.2969 15.12C22.4649 15.12 21.8449 14.84 21.4369 14.28C21.0289 13.712 20.8249 12.932 20.8249 11.94V11.76C20.8249 10.672 21.0449 9.864 21.4849 9.336C21.9249 8.808 22.5289 8.544 23.2969 8.544C23.7449 8.544 24.1449 8.652 24.4969 8.868C24.8489 9.076 25.1009 9.364 25.2529 9.732H25.3369L25.3969 8.664H26.6209V15H25.3369V13.944H25.2529C25.0929 14.304 24.8369 14.592 24.4849 14.808C24.1329 15.016 23.7369 15.12 23.2969 15.12ZM23.7769 14.064C24.2489 14.064 24.6249 13.912 24.9049 13.608C25.1849 13.296 25.3249 12.884 25.3249 12.372V11.304C25.3249 10.784 25.1849 10.372 24.9049 10.068C24.6249 9.756 24.2489 9.6 23.7769 9.6C23.2889 9.6 22.9049 9.744 22.6249 10.032C22.3449 10.32 22.2049 10.724 22.2049 11.244V12.432C22.2049 12.952 22.3449 13.356 22.6249 13.644C22.9049 13.924 23.2889 14.064 23.7769 14.064ZM28.7003 15V8.664H29.9843V15H28.7003ZM28.7003 7.68V6.252H29.9843V7.68H28.7003ZM37.1153 7.68V6.252H38.3993V7.68H37.1153ZM37.1153 9.72H34.0913V13.968H35.7353V15H33.9353C33.5273 15 33.2353 14.896 33.0593 14.688C32.8833 14.48 32.7952 14.212 32.7952 13.884V9.72H31.3433V8.664H32.7952V6.612H34.0913V8.664H38.3993V15H37.1153V9.72ZM40.4776 15V8.664H41.6656L41.7736 9.852H41.8576C42.0016 9.452 42.2496 9.136 42.6016 8.904C42.9616 8.664 43.3816 8.544 43.8616 8.544C44.5576 8.544 45.0976 8.756 45.4816 9.18C45.8736 9.604 46.0696 10.24 46.0696 11.088V15H44.7736V11.244C44.7736 10.628 44.6416 10.2 44.3776 9.96C44.1216 9.72 43.7816 9.6 43.3576 9.6C42.8536 9.6 42.4616 9.772 42.1816 10.116C41.9016 10.452 41.7616 10.9 41.7616 11.46V15H40.4776ZM50.3393 17.124C49.5793 17.124 48.9713 16.952 48.5153 16.608C48.0593 16.272 47.8153 15.828 47.7833 15.276H49.0313C49.0633 15.564 49.2033 15.788 49.4513 15.948C49.7073 16.116 50.0353 16.2 50.4353 16.2C51.0193 16.2 51.4353 16.064 51.6833 15.792C51.9393 15.528 52.0673 15.144 52.0673 14.64V13.428H51.9833C51.8233 13.804 51.5633 14.1 51.2033 14.316C50.8513 14.524 50.4513 14.628 50.0033 14.628C49.1793 14.628 48.5633 14.352 48.1553 13.8C47.7553 13.248 47.5553 12.516 47.5553 11.604V11.568C47.5633 10.56 47.7873 9.804 48.2273 9.3C48.6673 8.796 49.2633 8.544 50.0153 8.544C50.5113 8.544 50.9233 8.652 51.2513 8.868C51.5873 9.076 51.8313 9.356 51.9833 9.708H52.0673L52.1273 8.664H53.3513V14.496C53.3513 16.248 52.3473 17.124 50.3393 17.124ZM50.5073 13.584C50.9953 13.584 51.3753 13.432 51.6473 13.128C51.9193 12.824 52.0553 12.42 52.0553 11.916V11.244C52.0553 10.74 51.9153 10.34 51.6353 10.044C51.3633 9.74 50.9873 9.588 50.5073 9.588C50.0193 9.588 49.6353 9.732 49.3553 10.02C49.0833 10.3 48.9473 10.696 48.9473 11.208V12.048C48.9473 12.528 49.0873 12.904 49.3673 13.176C49.6553 13.448 50.0353 13.584 50.5073 13.584ZM61.971 9.72H60.291V15H58.995V9.72H57.687V8.664H58.995V7.26C58.995 6.932 59.095 6.684 59.295 6.516C59.503 6.34 59.775 6.252 60.111 6.252H61.995V7.128H60.291V8.664H61.971V9.72ZM65.7068 15.12C64.7068 15.12 63.9628 14.832 63.4748 14.256C62.9948 13.672 62.7508 12.876 62.7428 11.868V11.82C62.7428 10.708 63.0148 9.884 63.5588 9.348C64.1028 8.812 64.8188 8.544 65.7068 8.544C66.5868 8.544 67.2988 8.812 67.8428 9.348C68.3868 9.884 68.6588 10.708 68.6588 11.82V11.868C68.6588 12.876 68.4148 13.672 67.9268 14.256C67.4388 14.832 66.6988 15.12 65.7068 15.12ZM65.7068 14.064C66.2188 14.064 66.6188 13.92 66.9068 13.632C67.1948 13.344 67.3388 12.944 67.3388 12.432V11.232C67.3388 10.736 67.1908 10.34 66.8948 10.044C66.5988 9.748 66.2028 9.6 65.7068 9.6C65.2028 9.6 64.8028 9.748 64.5068 10.044C64.2108 10.34 64.0628 10.736 64.0628 11.232V12.432C64.0628 12.944 64.2068 13.344 64.4948 13.632C64.7828 13.92 65.1868 14.064 65.7068 14.064ZM70.2432 15V9.78C70.2432 9.428 70.3432 9.156 70.5432 8.964C70.7512 8.764 71.0272 8.664 71.3712 8.664H73.9632V9.72H71.5272V15H70.2432ZM78.6855 15V6.252H80.4255L84.3615 12.648L84.5535 13.02H84.6135V6.252H85.9215V15H84.2655L80.2215 8.544L80.0535 8.232H79.9935V15H78.6855ZM88.4003 15V6.252H94.4963V7.428H89.7563V10.224H94.0163V11.34H89.7563V15H88.4003ZM102.164 7.44H99.4163V15H98.0483V7.44H95.2883V6.252H102.164V7.44Z" fill="#B54708"/>
</svg>
