<svg width="63" height="22" viewBox="0 0 63 22" fill="none" xmlns="http://www.w3.org/2000/svg">
<path d="M11.5 0.5H51.5C57.299 0.5 62 5.20101 62 11C62 16.799 57.299 21.5 51.5 21.5H11.5C5.70101 21.5 1 16.799 1 11C1 5.20101 5.70101 0.5 11.5 0.5Z" fill="#FEF3F2"/>
<path d="M11.5 0.5H51.5C57.299 0.5 62 5.20101 62 11C62 16.799 57.299 21.5 51.5 21.5H11.5C5.70101 21.5 1 16.799 1 11C1 5.20101 5.70101 0.5 11.5 0.5Z" stroke="#FECDCA"/>
<path d="M10.1308 15V6.252H16.3828V7.428H11.4868V9.984H15.7828V11.088H11.4868V13.824H16.3828V15H10.1308ZM17.3379 15L19.7499 11.664L17.5179 8.664H19.0299L20.5659 10.908H20.6619L22.1859 8.664H23.6739L21.4899 11.652L23.8659 15H22.3419L20.6259 12.552H20.5299L18.8139 15H17.3379ZM25.1612 17.004V8.664H26.3732L26.4452 9.732H26.5292C26.6732 9.364 26.9212 9.076 27.2732 8.868C27.6252 8.652 28.0252 8.544 28.4732 8.544C29.3132 8.544 29.9332 8.832 30.3332 9.408C30.7412 9.976 30.9452 10.76 30.9452 11.76V11.94C30.9452 13.02 30.7252 13.82 30.2852 14.34C29.8532 14.86 29.2532 15.12 28.4852 15.12C28.0372 15.12 27.6372 15.016 27.2852 14.808C26.9332 14.592 26.6812 14.304 26.5292 13.944H26.4452V17.004H25.1612ZM28.0052 14.064C28.4932 14.064 28.8732 13.924 29.1452 13.644C29.4252 13.356 29.5652 12.952 29.5652 12.432V11.244C29.5652 10.724 29.4252 10.32 29.1452 10.032C28.8732 9.744 28.4932 9.6 28.0052 9.6C27.5252 9.6 27.1452 9.756 26.8652 10.068C26.5852 10.372 26.4452 10.784 26.4452 11.304V12.372C26.4452 12.884 26.5852 13.296 26.8652 13.608C27.1452 13.912 27.5252 14.064 28.0052 14.064ZM32.5323 15V8.664H33.8163V15H32.5323ZM32.5323 7.68V6.252H33.8163V7.68H32.5323ZM35.9073 15V9.78C35.9073 9.428 36.0073 9.156 36.2073 8.964C36.4153 8.764 36.6913 8.664 37.0353 8.664H39.6273V9.72H37.1913V15H35.9073ZM43.4069 15.12C42.7349 15.12 42.1749 14.984 41.7269 14.712C41.2869 14.432 40.9549 14.048 40.7309 13.56C40.5149 13.064 40.4069 12.488 40.4069 11.832V11.748C40.4069 11.06 40.5309 10.48 40.7789 10.008C41.0269 9.528 41.3709 9.164 41.8109 8.916C42.2509 8.668 42.7589 8.544 43.3349 8.544C44.2549 8.544 44.9629 8.812 45.4589 9.348C45.9549 9.884 46.2029 10.588 46.2029 11.46V12.156H41.7269V12.564C41.7269 13.036 41.8789 13.416 42.1829 13.704C42.4869 13.984 42.8829 14.124 43.3709 14.124C43.8029 14.124 44.1589 14.02 44.4389 13.812C44.7269 13.604 44.8909 13.324 44.9309 12.972H46.1549C46.1309 13.404 45.9949 13.78 45.7469 14.1C45.5069 14.42 45.1829 14.672 44.7749 14.856C44.3749 15.032 43.9189 15.12 43.4069 15.12ZM41.7269 11.256V11.316H44.9429V11.256C44.9429 10.64 44.7949 10.196 44.4989 9.924C44.2109 9.652 43.8309 9.516 43.3589 9.516C42.8309 9.516 42.4269 9.672 42.1469 9.984C41.8669 10.296 41.7269 10.72 41.7269 11.256ZM49.7461 15.108C48.9141 15.108 48.2941 14.824 47.8861 14.256C47.4781 13.688 47.2741 12.9 47.2741 11.892V11.724C47.2741 10.644 47.4941 9.844 47.9341 9.324C48.3741 8.804 48.9781 8.544 49.7461 8.544C50.1861 8.544 50.5821 8.652 50.9341 8.868C51.2861 9.076 51.5421 9.364 51.7021 9.732H51.7861V6.252H53.0701V15H51.8461L51.7861 13.92H51.7021C51.5501 14.288 51.2981 14.58 50.9461 14.796C50.5941 15.004 50.1941 15.108 49.7461 15.108ZM50.2261 14.064C50.6981 14.064 51.0741 13.912 51.3541 13.608C51.6341 13.296 51.7741 12.88 51.7741 12.36V11.292C51.7741 10.78 51.6341 10.372 51.3541 10.068C51.0741 9.756 50.6981 9.6 50.2261 9.6C49.7381 9.6 49.3541 9.744 49.0741 10.032C48.7941 10.312 48.6541 10.712 48.6541 11.232V12.42C48.6541 12.94 48.7941 13.344 49.0741 13.632C49.3541 13.92 49.7381 14.064 50.2261 14.064Z" fill="#B42318"/>
</svg>
