<svg width="277" height="260" viewBox="0 0 277 260" fill="none" xmlns="http://www.w3.org/2000/svg">
<path d="M208.411 80.8958L208.264 80.7495H208.057H154.502C151.706 80.7495 149.053 80.177 146.539 79.2825L145.871 79.045V79.7536V147.746V148.455L146.539 148.217C149.053 147.321 151.707 146.749 154.502 146.749H252.081C265.258 146.749 275.976 157.459 275.976 170.624V203.124C275.976 216.288 265.258 226.999 252.081 226.999H251.581V227.499V251.874C251.581 254.956 249.718 257.742 246.872 258.918L246.869 258.919C244.098 260.083 240.773 259.482 238.554 257.265L208.41 227.145L208.263 226.999H208.056H154.501C141.325 226.999 130.606 216.288 130.606 203.124V193.502V192.793L129.939 193.031C127.424 193.927 124.77 194.499 121.975 194.499H68.4199H68.2129L68.0665 194.645L37.9222 224.765L38.2756 225.118L37.9222 224.765C35.7016 226.984 32.378 227.583 29.6074 226.419L29.6046 226.418C26.7587 225.242 24.895 222.456 24.895 219.374V194.999V194.499H24.395C11.2186 194.499 0.5 183.789 0.5 170.624V56.8747C0.5 43.71 11.2186 32.9998 24.395 32.9998H121.976C124.771 32.9998 127.425 33.5723 129.94 34.4677L130.607 34.7054V33.9966V24.3749C130.607 11.2102 141.326 0.5 154.502 0.5H252.082C265.259 0.5 275.977 11.2102 275.977 24.3749V56.8747C275.977 70.0393 265.259 80.7495 252.082 80.7495H251.582V81.2495V105.624C251.582 108.707 249.719 111.492 246.873 112.668L246.87 112.67C244.099 113.834 240.774 113.233 238.555 111.015L208.411 80.8958ZM76.9868 95.9857L76.9856 95.9864C69.3189 100.423 64.5546 108.674 64.5546 117.525V121.873C64.5546 126.641 68.4151 130.498 73.1859 130.498C77.9558 130.498 81.8173 126.641 81.8173 121.873V117.525C81.8173 114.816 83.2786 112.275 85.6334 110.912C93.316 106.483 98.0799 98.2244 98.0827 89.3737V89.3736C98.0827 75.6558 86.9157 64.4987 73.1877 64.4987C59.4598 64.4987 48.2927 75.6558 48.2927 89.3736C48.2927 94.1415 52.1533 97.9985 56.9241 97.9985C61.694 97.9985 65.5555 94.1405 65.5555 89.3736C65.5555 85.1673 68.9837 81.7486 73.1868 81.7486C77.3899 81.7486 80.8182 85.1673 80.8182 89.3736C80.8182 92.0901 79.3567 94.6229 76.9868 95.9857ZM244.45 40.6248C244.45 35.8605 240.585 31.9998 235.819 31.9998C231.052 31.9998 227.187 35.8595 227.187 40.6248C227.187 45.3881 231.052 49.2497 235.819 49.2497C240.585 49.2497 244.45 45.3881 244.45 40.6248ZM211.924 40.6248C211.924 35.8605 208.058 31.9998 203.292 31.9998C198.526 31.9998 194.66 35.8595 194.661 40.6248C194.661 45.3881 198.526 49.2497 203.292 49.2497C208.059 49.2497 211.924 45.3881 211.924 40.6248ZM179.396 40.6248C179.396 35.8605 175.531 31.9998 170.765 31.9998C165.999 31.9998 162.134 35.8595 162.134 40.6248C162.134 45.3881 165.999 49.2497 170.765 49.2497C175.531 49.2497 179.396 45.3881 179.396 40.6248ZM64.5536 154.373C64.5536 159.136 68.4187 162.998 73.185 162.998C77.9511 162.998 81.8173 159.137 81.8164 154.373C81.8164 149.609 77.9512 145.748 73.185 145.748C68.4188 145.748 64.5536 149.609 64.5536 154.373ZM244.45 186.873C244.45 182.109 240.585 178.248 235.819 178.248C231.052 178.248 227.187 182.109 227.187 186.873C227.187 191.636 231.052 195.498 235.819 195.498C240.585 195.498 244.45 191.636 244.45 186.873ZM211.924 186.873C211.924 182.109 208.058 178.248 203.292 178.248C198.526 178.248 194.66 182.109 194.661 186.873C194.661 191.636 198.526 195.498 203.292 195.498C208.059 195.498 211.924 191.636 211.924 186.873ZM179.396 186.873C179.396 182.109 175.531 178.248 170.765 178.248C165.999 178.248 162.134 182.109 162.134 186.873C162.134 191.636 165.999 195.498 170.765 195.498C175.531 195.498 179.396 191.636 179.396 186.873Z" fill="url(#paint0_linear_837_35037)" stroke="#D0D5DD"/>
<defs>
<linearGradient id="paint0_linear_837_35037" x1="138.239" y1="259.999" x2="138.239" y2="0" gradientUnits="userSpaceOnUse">
<stop stop-color="#FFA68D"/>
<stop offset="1" stop-color="#FD3A84"/>
</linearGradient>
</defs>
</svg>
