<svg width="45" height="15" viewBox="0 0 45 15" fill="none" xmlns="http://www.w3.org/2000/svg">
<path d="M5.63859 0.301652C4.11334 -0.281809 2.59314 -0.0143894 1.35576 1.06501C0.517381 1.89644 0.103239 2.75705 0.0577849 3.78783C0.0527344 3.92397 0.0527344 4.06497 0.0527344 4.20111V5.2951C0.0527344 5.334 0.0527344 5.36804 0.0527344 5.40693H1.86587C1.86587 5.26593 1.86587 5.12006 1.86587 4.97906C1.86587 4.75054 1.86587 4.04066 1.87597 3.817C1.93152 2.82026 2.67395 1.99369 3.68405 1.80893C4.36587 1.68251 5.05273 1.85269 5.57799 2.27083C6.10324 2.68898 6.40122 3.31134 6.40122 3.97745V5.45555H8.21435C8.22445 5.07144 8.23455 4.19625 8.20425 3.79269C8.09314 2.11524 7.1992 0.909424 5.62849 0.301652H5.63859Z" fill="white"/>
<path d="M8.1588 9.48143H6.40627V10.9449C6.40627 11.6111 6.10829 12.2334 5.58304 12.6516C5.05779 13.0697 4.37092 13.2399 3.6891 13.1135C2.679 12.9287 1.93657 12.1021 1.88102 11.1054C1.87092 10.8817 1.87092 10.6581 1.87092 10.4296C1.87092 10.2642 1.87092 9.61271 1.87092 9.4474V9.43767H0.0577849C0.0577849 9.50088 0.0527344 9.56409 0.0577849 9.6273V10.7213C0.0577849 10.8623 0.0577849 10.9984 0.0628354 11.1346C0.10829 12.1605 0.527482 13.0308 1.37597 13.872C2.16385 14.5575 3.09314 14.9222 4.06284 14.9222C4.58304 14.9222 5.11334 14.8201 5.63354 14.6208C7.20425 14.013 8.09819 12.8072 8.2093 11.1297C8.23455 10.7456 8.2295 9.88013 8.2194 9.48143H8.15374H8.1588Z" fill="white"/>
<path d="M3.32041 10.6629H5.07294C5.07294 10.6629 5.07294 10.6532 5.07294 10.6484C5.07799 9.58354 5.07799 8.15406 5.07799 7.08924V5.22703C5.07799 5.10062 5.07799 4.46853 5.07799 4.06497H3.19415V9.93848C3.19415 10.06 3.19415 10.5463 3.19415 10.6678H3.31536L3.32041 10.6629Z" fill="white"/>
<path d="M23.4751 12.8752L15.9499 0.218995H13.3589V14.9951H15.2175V2.55284L22.6317 14.9951H25.3337V0.218995H23.4751V12.8752Z" fill="white"/>
<path d="M37.1519 6.92393H32.1519V8.63055H37.1519V6.92393Z" fill="white"/>
<path d="M27.9044 0.218995V14.9951H29.763V1.96938H39.6923V15H41.5509V1.96938H45.0004V0.218995H27.9044Z" fill="white"/>
</svg>
