<svg width="22" height="22" viewBox="0 0 22 22" fill="none" xmlns="http://www.w3.org/2000/svg">
<path d="M11.15 15.5V17.6" stroke="#344054" stroke-width="1.5" stroke-linecap="round" stroke-linejoin="round"/>
<path d="M6.14999 21H16.15V20C16.15 18.9 15.25 18 14.15 18H8.14999C7.04999 18 6.14999 18.9 6.14999 20V21V21Z" stroke="#344054" stroke-width="1.5" stroke-miterlimit="10"/>
<path d="M11 15C7.13 15 4 11.87 4 8V5C4 2.79 5.79 1 8 1H14C16.21 1 18 2.79 18 5V8C18 11.87 14.87 15 11 15Z" stroke="#344054" stroke-width="1.5" stroke-linecap="round" stroke-linejoin="round"/>
<path d="M4.46999 10.6516C3.71999 10.4116 3.05999 9.97156 2.53999 9.45156C1.63999 8.45156 1.03999 7.25156 1.03999 5.85156C1.03999 4.45156 2.13999 3.35156 3.53999 3.35156H4.18999C3.98999 3.81156 3.88999 4.32156 3.88999 4.85156V7.85156C3.88999 8.85156 4.09999 9.79156 4.46999 10.6516Z" stroke="#344054" stroke-width="1.5" stroke-linecap="round" stroke-linejoin="round"/>
<path d="M17.53 10.6516C18.28 10.4116 18.94 9.97156 19.46 9.45156C20.36 8.45156 20.96 7.25156 20.96 5.85156C20.96 4.45156 19.86 3.35156 18.46 3.35156H17.81C18.01 3.81156 18.11 4.32156 18.11 4.85156V7.85156C18.11 8.85156 17.9 9.79156 17.53 10.6516Z" stroke="#344054" stroke-width="1.5" stroke-linecap="round" stroke-linejoin="round"/>
</svg>
