<svg width="41" height="38" viewBox="0 0 41 38" fill="none" xmlns="http://www.w3.org/2000/svg">
<path d="M11.0249 35.6409C10.5733 35.7311 7.42615 36.3326 4.70157 34.1072C2.32667 32.1675 1.94785 29.4309 1.875 28.8746V10.3498C1.99156 9.31228 2.44323 6.60574 4.55587 4.42547C7.55727 1.34302 12.7879 0.440843 16.4886 2.99702C19.2715 4.90663 20.0728 8.01916 20.2768 9.01155V15.6877" stroke="#475467" stroke-width="3" stroke-miterlimit="10" stroke-linecap="round" stroke-linejoin="round"/>
<path d="M38.7083 32.2722C38.7083 23.9571 38.6937 18.6493 38.6792 10.3342C38.5626 9.29666 38.1109 6.59012 35.9983 4.40985C32.9969 1.3274 27.7663 0.425218 24.0655 2.9814C21.2827 4.89101 20.4813 8.00353 20.2773 8.99593V15.6721" stroke="#475467" stroke-width="3" stroke-miterlimit="10" stroke-linecap="round" stroke-linejoin="round"/>
<path d="M20.4079 22.5469V29.3734C20.4079 29.8846 20.2913 30.9071 19.6939 32.0047C19.0091 33.2377 18.0621 33.8692 17.625 34.1249" stroke="#475467" stroke-width="3" stroke-miterlimit="10" stroke-linecap="round" stroke-linejoin="round"/>
</svg>
