<svg width="51" height="51" viewBox="0 0 51 51" fill="none" xmlns="http://www.w3.org/2000/svg">
<path d="M9.98731 8.23522C11.1308 3.96749 15.5175 1.43483 19.7853 2.57836L42.9675 8.79002C47.2352 9.93356 49.7679 14.3203 48.6243 18.588L42.4127 41.7702C41.2692 46.0379 36.8825 48.5706 32.6147 47.4271L9.43251 41.2154C5.16478 40.0719 2.63212 35.6852 3.77565 31.4174L9.98731 8.23522Z" fill="#FF692E"/>
<g filter="url(#filter0_b_5402_10985)">
<path d="M0.200012 23.8C0.200012 19.3196 0.200012 17.0794 1.07196 15.3681C1.83895 13.8628 3.06279 12.6389 4.56809 11.8719C6.27938 11 8.51959 11 13 11H27.4C31.8804 11 34.1206 11 35.8319 11.8719C37.3372 12.6389 38.5611 13.8628 39.3281 15.3681C40.2 17.0794 40.2 19.3196 40.2 23.8V38.2C40.2 42.6804 40.2 44.9206 39.3281 46.6319C38.5611 48.1372 37.3372 49.3611 35.8319 50.1281C34.1206 51 31.8804 51 27.4 51H13C8.51959 51 6.27938 51 4.56809 50.1281C3.06279 49.3611 1.83895 48.1372 1.07196 46.6319C0.200012 44.9206 0.200012 42.6804 0.200012 38.2V23.8Z" fill="white" fill-opacity="0.6"/>
<path d="M0.700012 23.8C0.700012 21.5515 0.700401 19.8953 0.807345 18.5863C0.913812 17.2832 1.12339 16.3685 1.51746 15.5951C2.23651 14.1839 3.38387 13.0365 4.79508 12.3175C5.5685 11.9234 6.48325 11.7138 7.78634 11.6073C9.09528 11.5004 10.7516 11.5 13 11.5H27.4C29.6485 11.5 31.3047 11.5004 32.6137 11.6073C33.9168 11.7138 34.8315 11.9234 35.6049 12.3175C37.0162 13.0365 38.1635 14.1839 38.8826 15.5951C39.2766 16.3685 39.4862 17.2832 39.5927 18.5863C39.6996 19.8953 39.7 21.5515 39.7 23.8V38.2C39.7 40.4485 39.6996 42.1047 39.5927 43.4137C39.4862 44.7168 39.2766 45.6315 38.8826 46.4049C38.1635 47.8161 37.0162 48.9635 35.6049 49.6825C34.8315 50.0766 33.9168 50.2862 32.6137 50.3927C31.3047 50.4996 29.6485 50.5 27.4 50.5H13C10.7516 50.5 9.09528 50.4996 7.78634 50.3927C6.48325 50.2862 5.5685 50.0766 4.79508 49.6825C3.38387 48.9635 2.23651 47.8161 1.51746 46.4049C1.12339 45.6315 0.913812 44.7168 0.807345 43.4137C0.700401 42.1047 0.700012 40.4485 0.700012 38.2V23.8Z" stroke="white" stroke-opacity="0.6"/>
<path d="M12.8417 27.1953L20.2001 31.4536L27.5084 27.2203" stroke="white" stroke-width="1.5" stroke-linecap="round" stroke-linejoin="round"/>
<path d="M20.2001 39.0037V31.4453" stroke="white" stroke-width="1.5" stroke-linecap="round" stroke-linejoin="round"/>
<path d="M18.475 23.0641L14.025 25.5391C13.0167 26.0974 12.1917 27.4974 12.1917 28.6474V33.3558C12.1917 34.5058 13.0167 35.9057 14.025 36.4641L18.475 38.9391C19.425 39.4641 20.9834 39.4641 21.9334 38.9391L26.3834 36.4641C27.3917 35.9057 28.2167 34.5058 28.2167 33.3558V28.6474C28.2167 27.4974 27.3917 26.0974 26.3834 25.5391L21.9334 23.0641C20.975 22.5307 19.425 22.5307 18.475 23.0641Z" stroke="white" stroke-width="1.5" stroke-linecap="round" stroke-linejoin="round"/>
<path d="M24.3667 32.0307V28.9808L16.4584 24.4141" stroke="white" stroke-width="1.5" stroke-linecap="round" stroke-linejoin="round"/>
</g>
<defs>
<filter id="filter0_b_5402_10985" x="-15.8" y="-5" width="71.9999" height="72" filterUnits="userSpaceOnUse" color-interpolation-filters="sRGB">
<feFlood flood-opacity="0" result="BackgroundImageFix"/>
<feGaussianBlur in="BackgroundImageFix" stdDeviation="8"/>
<feComposite in2="SourceAlpha" operator="in" result="effect1_backgroundBlur_5402_10985"/>
<feBlend mode="normal" in="SourceGraphic" in2="effect1_backgroundBlur_5402_10985" result="shape"/>
</filter>
</defs>
</svg>
