<svg width="41" height="40" viewBox="0 0 41 40" fill="none" xmlns="http://www.w3.org/2000/svg">
<path d="M37.878 22.0087C37.5429 21.9791 37.2052 22.0133 36.8827 22.1093C37.2306 19.4605 36.6651 16.7722 35.2795 14.488C34.5842 13.3785 33.7331 12.3747 32.7523 11.5074C32.5636 11.3347 32.3769 11.174 32.1943 11.01C30.7837 9.76603 29.8517 8.94337 30.0084 6.51537C30.0677 5.58204 30.7417 4.89938 31.681 3.99672C32.7531 3.94531 33.5935 3.0567 33.585 1.98334C33.5766 0.909972 32.7224 0.0346508 31.6496 6.26678e-05H16.9836C15.8791 -0.00858976 14.9767 0.879823 14.968 1.98439C14.9594 3.08895 15.8477 3.9914 16.9523 4.00005C17.8936 4.90271 18.5655 5.58471 18.6249 6.51937C18.7815 8.94803 17.8496 9.76936 16.4389 11.0134C16.2563 11.174 16.0696 11.338 15.879 11.5127C14.8989 12.3795 14.0485 13.3826 13.3537 14.4913C12.2406 16.3297 11.6516 18.4375 11.6505 20.5867C11.6458 22.2963 12.0204 23.9858 12.7471 25.5333C11.4147 26.2125 10.208 27.1144 9.17926 28.2C4.59012 32.7846 0.597622 36.1213 0.556957 36.1546C0.2742 36.3906 0.236295 36.8112 0.472294 37.0939C0.708294 37.3767 1.12883 37.4146 1.41159 37.1786C1.45092 37.1453 5.48741 33.7726 10.1219 29.14C12.7478 26.5153 14.6264 26 16.9836 26C18.114 25.9977 19.2225 26.312 20.1835 26.9073C20.5322 27.1875 20.9674 27.3381 21.4147 27.3333H28.2064C28.9451 27.312 29.5749 27.8647 29.6497 28.6C29.668 28.965 29.5356 29.3215 29.2836 29.5862C29.0315 29.8508 28.6819 30.0004 28.3164 30H20.9834C20.6152 30 20.3168 30.2984 20.3168 30.6666C20.3168 31.0348 20.6152 31.3333 20.9834 31.3333H28.3164C29.0474 31.3342 29.7466 31.035 30.2507 30.5057C30.7548 29.9764 31.0195 29.2633 30.983 28.5333C30.983 28.5226 30.979 28.5126 30.9783 28.502L36.7781 23.6467C37.0514 23.4178 37.4045 23.3069 37.7597 23.3385C38.1148 23.3702 38.4428 23.5417 38.6713 23.8153C39.1107 24.347 39.0821 25.1235 38.6047 25.6213L30.2817 34.0919C29.9384 34.4427 29.4736 34.6484 28.9831 34.6666H16.9836C15.9433 34.6679 14.9629 35.1536 14.3317 35.9806L11.9591 38.9139C11.7276 39.2002 11.7719 39.62 12.0581 39.8516C12.3444 40.0832 12.7642 40.0389 12.9958 39.7526L15.3837 36.7999C15.76 36.2947 16.3536 35.9979 16.9836 35.9999H29.0031C29.8437 35.9748 30.6421 35.6264 31.2323 35.0273L39.552 26.554C40.2763 25.8143 40.5099 24.7235 40.1521 23.752C39.7944 22.7805 38.9091 22.1018 37.878 22.0087ZM17.8742 18.4987C18.1267 18.7229 18.507 18.7229 18.7595 18.4987L24.3166 13.5587L29.8737 18.4987C30.1262 18.7229 30.5065 18.7229 30.759 18.4987L34.2569 15.3887C34.6343 16.0464 34.9391 16.7431 35.1661 17.4667L30.3164 21.7747L24.7593 16.8347C24.5068 16.6104 24.1265 16.6104 23.874 16.8347L18.3169 21.7747L13.4671 17.4667C13.6941 16.7431 13.999 16.0464 14.3764 15.3887L17.8742 18.4987ZM16.317 2.00006C16.317 1.63187 16.6154 1.33339 16.9836 1.33339H31.6496C32.0178 1.33339 32.3163 1.63187 32.3163 2.00006C32.3163 2.36824 32.0178 2.66672 31.6496 2.66672H16.9836C16.6154 2.66672 16.317 2.36824 16.317 2.00006ZM16.7789 12.4927C16.9629 12.3254 17.1436 12.166 17.3202 12.01C18.7775 10.7254 20.1541 9.51203 19.9555 6.43071C19.8739 5.51362 19.4744 4.65386 18.8262 4.00005H29.807C29.1588 4.65386 28.7594 5.51362 28.6778 6.43071C28.4778 9.51203 29.8557 10.7254 31.313 12.01C31.4896 12.166 31.6703 12.3254 31.8523 12.4907C32.4535 13.0361 33.0068 13.6321 33.5062 14.272L30.3164 17.108L24.7593 12.168C24.5068 11.9438 24.1265 11.9438 23.874 12.168L18.3169 17.108L15.127 14.272C15.6257 13.6327 16.1784 13.0374 16.7789 12.4927ZM28.2064 26H21.4147C21.2767 26.0049 21.1412 25.9623 21.0308 25.8793C19.8321 25.0819 18.4232 24.6597 16.9836 24.6666C15.9752 24.6478 14.9694 24.7767 13.9984 25.0493C13.328 23.6573 12.9812 22.1317 12.9838 20.5867C12.9846 20.0356 13.0292 19.4854 13.1171 18.9413L17.8716 23.1653C18.1241 23.3896 18.5043 23.3896 18.7568 23.1653L24.3166 18.2253L29.8737 23.1653C30.1262 23.3896 30.5065 23.3896 30.759 23.1653L35.5161 18.9413C35.604 19.4854 35.6486 20.0356 35.6495 20.5867C35.6502 21.4414 35.5418 22.2927 35.3268 23.12L30.4957 27.1626C29.9653 26.4279 29.1126 25.9948 28.2064 26Z" fill="#667085"/>
</svg>
