<svg width="32" height="32" viewBox="0 0 32 32" fill="none" xmlns="http://www.w3.org/2000/svg">
<path d="M15.7247 8.03234L13.8775 10.3565L11.0962 11.3951L12.7358 13.8701L12.8641 16.8361L15.7247 16.0417L18.5853 16.8361L18.7135 13.8701L20.3531 11.3951L17.5719 10.3565L15.7247 8.03234ZM16.861 13.2681L16.8122 14.3957L15.7247 14.0937L14.6372 14.3957L14.5884 13.2681L13.9651 12.3272L15.0224 11.9323L15.7247 11.0487L16.427 11.9323L17.4844 12.3272L16.861 13.2681Z" fill="#667085"/>
<path d="M25.7925 18.1114C25.7465 15.1198 27.5716 12.0752 30.3811 11.1154L31.4493 10.7447L27.789 4.34086L26.9538 4.89247C24.6481 6.4426 21.4513 4.81501 21.4758 2.03317C21.4512 1.47075 21.7512 0.54741 21.8765 0H9.57297C9.69997 0.55329 9.99714 1.46743 9.97355 2.03324C9.99808 4.81527 6.80052 6.4426 4.49552 4.89247L3.66032 4.34086L0 10.7447L1.06823 11.1154C2.35824 11.5629 3.52056 12.4807 4.34111 13.6997C6.81672 17.2236 5.65427 22.8717 1.86188 24.7658L0.887366 25.2697L5.45658 31.5001L6.21382 30.9416C7.60693 29.9222 9.12948 28.3793 10.774 28.314C12.9359 28.2219 14.2865 30.1339 14.9158 32H16.5334C17.1628 30.1339 18.5128 28.2218 20.6753 28.314C22.3198 28.3793 23.8422 29.9222 25.2354 30.9416L25.9926 31.5001L30.5618 25.2696L29.5872 24.7657C27.2821 23.574 25.7925 20.962 25.7925 18.1114ZM25.6046 28.8557C24.2324 27.769 22.7166 26.5231 20.7529 26.4387C18.6458 26.327 16.807 27.5874 15.7247 29.3279C14.6377 27.5846 12.8073 26.3278 10.6965 26.4387C8.73265 26.5231 7.21717 27.7689 5.84477 28.8556L3.65513 25.8699C9.16833 22.0364 8.71945 12.8848 2.71077 9.78418L4.34237 6.92977C7.89784 8.47265 12.0055 5.75518 11.8482 1.87683H19.6012C19.4436 5.75543 23.5526 8.47265 27.107 6.92983L28.7386 9.78424C22.7285 12.8861 22.2823 22.0376 27.7943 25.87L25.6046 28.8557Z" fill="#667085"/>
</svg>
