<svg width="24" height="24" viewBox="0 0 24 24" fill="none" xmlns="http://www.w3.org/2000/svg">
<path d="M13.4303 14.9975L4.40034 14.9975C2.58034 14.9975 1.42034 13.0475 2.30034 11.4475L4.63034 7.2075L6.81034 3.2375C7.72034 1.5875 10.1003 1.5875 11.0103 3.2375L13.2003 7.2075L14.2503 9.11751L15.5303 11.4475C16.4103 13.0475 15.2503 14.9975 13.4303 14.9975Z" stroke="#344054" stroke-width="2" stroke-linecap="round" stroke-linejoin="round"/>
<path d="M22 15.5C22 19.09 19.09 22 15.5 22C11.91 22 9 19.09 9 15.5C9 15.33 9.01 15.17 9.02 15H13.43C15.25 15 16.41 13.05 15.53 11.45L14.25 9.12C14.65 9.04 15.07 9 15.5 9C19.09 9 22 11.91 22 15.5Z" stroke="#344054" stroke-width="2" stroke-linecap="round" stroke-linejoin="round"/>
</svg>
