<svg width="22" height="32" viewBox="0 0 22 32" fill="none" xmlns="http://www.w3.org/2000/svg">
<path d="M10.6667 1.73938C11.0131 1.73938 11.2939 1.4595 11.2939 1.11438V0.625C11.2939 0.279875 11.0131 0 10.6667 0C10.3203 0 10.0395 0.279875 10.0395 0.625V1.11438C10.0395 1.45956 10.3203 1.73938 10.6667 1.73938Z" fill="#DFB64B"/>
<path d="M14.9156 11.6205L17.9366 8.43369C18.1406 8.2185 18.1652 7.89019 17.9954 7.64731L14.9041 3.22431C14.7868 3.0565 14.5946 2.9565 14.3894 2.9565H6.94399C6.73884 2.9565 6.54661 3.05656 6.42933 3.22431L3.338 7.64731C3.16816 7.89019 3.19275 8.2185 3.39677 8.43369L6.41779 11.6205C2.64441 13.2598 0 17.0131 0 21.3703C6.27172e-05 27.2316 4.78507 32 10.6667 32C16.5483 32 21.3333 27.2316 21.3333 21.3703C21.3333 17.0131 18.689 13.2599 14.9156 11.6205ZM4.65882 7.94469L7.2715 4.2065H14.062L16.6746 7.94469L13.629 11.1576C12.6881 10.8861 11.6942 10.7406 10.6668 10.7406C9.63933 10.7406 8.64538 10.8862 7.70456 11.1576L4.65882 7.94469ZM10.6667 30.75C5.47672 30.75 1.25441 26.5423 1.25441 21.3703C1.25441 16.1983 5.47672 11.9906 10.6667 11.9906C15.8567 11.9906 20.079 16.1983 20.079 21.3703C20.079 26.5423 15.8567 30.75 10.6667 30.75Z" fill="#DFB64B"/>
<path d="M10.6667 13.3283C6.21691 13.3283 2.59674 16.9359 2.59674 21.3703C2.59674 25.8047 6.21691 29.4123 10.6667 29.4123C15.1165 29.4123 18.7367 25.8047 18.7367 21.3703C18.7367 16.9359 15.1165 13.3283 10.6667 13.3283ZM10.6667 28.1623C6.90856 28.1623 3.85109 25.1154 3.85109 21.3703C3.85109 17.6252 6.90856 14.5783 10.6667 14.5783C14.4248 14.5783 17.4823 17.6252 17.4823 21.3703C17.4823 25.1154 14.4248 28.1623 10.6667 28.1623Z" fill="#DFB64B"/>
<path d="M18.0932 4.84925C18.2537 4.84925 18.4142 4.78819 18.5366 4.66619L18.8839 4.32019C19.1288 4.07613 19.1289 3.68044 18.8839 3.43631C18.639 3.19225 18.2419 3.19225 17.997 3.43625L17.6497 3.78225C17.4048 4.02631 17.4047 4.422 17.6497 4.66613C17.7721 4.78819 17.9326 4.84925 18.0932 4.84925Z" fill="#DFB64B"/>
<path d="M2.79681 4.66619C2.9193 4.78819 3.07979 4.84925 3.24029 4.84925C3.40078 4.84925 3.56134 4.78819 3.68376 4.66613C3.92867 4.42206 3.92867 4.02638 3.68376 3.78225L3.33649 3.43625C3.09158 3.19225 2.69446 3.19219 2.44955 3.43631C2.20464 3.68038 2.20464 4.07606 2.44955 4.32019L2.79681 4.66619Z" fill="#DFB64B"/>
</svg>
