<svg width="18" height="20" viewBox="0 0 18 20" fill="none" xmlns="http://www.w3.org/2000/svg">
<path d="M16.5 4.98698C13.725 4.71198 10.9333 4.57031 8.15 4.57031C6.5 4.57031 4.85 4.65365 3.2 4.82031L1.5 4.98698" stroke="#344054" stroke-width="1.5" stroke-linecap="round" stroke-linejoin="round"/>
<path d="M6.08301 4.13906L6.26634 3.0474C6.39967 2.25573 6.49967 1.66406 7.90801 1.66406H10.0913C11.4997 1.66406 11.608 2.28906 11.733 3.05573L11.9163 4.13906" stroke="#344054" stroke-width="1.5" stroke-linecap="round" stroke-linejoin="round"/>
<path d="M14.7087 7.61719L14.167 16.0089C14.0753 17.3172 14.0003 18.3339 11.6753 18.3339H6.32533C4.00033 18.3339 3.92533 17.3172 3.83366 16.0089L3.29199 7.61719" stroke="#344054" stroke-width="1.5" stroke-linecap="round" stroke-linejoin="round"/>
<path d="M7.6084 13.75H10.3834" stroke="#344054" stroke-width="1.5" stroke-linecap="round" stroke-linejoin="round"/>
<path d="M6.91699 10.4141H11.0837" stroke="#344054" stroke-width="1.5" stroke-linecap="round" stroke-linejoin="round"/>
</svg>
