<svg width="51" height="51" viewBox="0 0 51 51" fill="none" xmlns="http://www.w3.org/2000/svg">
<path d="M10.1874 8.23522C11.3309 3.96749 15.7176 1.43483 19.9853 2.57836L43.1676 8.79002C47.4353 9.93356 49.9679 14.3203 48.8244 18.588L42.6128 41.7702C41.4692 46.0379 37.0825 48.5706 32.8148 47.4271L9.63258 41.2154C5.36485 40.0719 2.83219 35.6852 3.97573 31.4174L10.1874 8.23522Z" fill="#CBA644"/>
<g filter="url(#filter0_b_5402_5153)">
<path d="M0.400024 23.8C0.400024 19.3196 0.400024 17.0794 1.27197 15.3681C2.03896 13.8628 3.2628 12.6389 4.7681 11.8719C6.47939 11 8.7196 11 13.2 11H27.6C32.0804 11 34.3207 11 36.0319 11.8719C37.5372 12.6389 38.7611 13.8628 39.5281 15.3681C40.4 17.0794 40.4 19.3196 40.4 23.8V38.2C40.4 42.6804 40.4 44.9206 39.5281 46.6319C38.7611 48.1372 37.5372 49.3611 36.0319 50.1281C34.3207 51 32.0804 51 27.6 51H13.2C8.7196 51 6.47939 51 4.7681 50.1281C3.2628 49.3611 2.03896 48.1372 1.27197 46.6319C0.400024 44.9206 0.400024 42.6804 0.400024 38.2V23.8Z" fill="white" fill-opacity="0.6"/>
<path d="M0.900024 23.8C0.900024 21.5515 0.900413 19.8953 1.00736 18.5863C1.11382 17.2832 1.3234 16.3685 1.71748 15.5951C2.43653 14.1839 3.58388 13.0365 4.9951 12.3175C5.76851 11.9234 6.68326 11.7138 7.98636 11.6073C9.29529 11.5004 10.9516 11.5 13.2 11.5H27.6C29.8485 11.5 31.5048 11.5004 32.8137 11.6073C34.1168 11.7138 35.0315 11.9234 35.805 12.3175C37.2162 13.0365 38.3635 14.1839 39.0826 15.5951C39.4766 16.3685 39.6862 17.2832 39.7927 18.5863C39.8996 19.8953 39.9 21.5515 39.9 23.8V38.2C39.9 40.4485 39.8996 42.1047 39.7927 43.4137C39.6862 44.7168 39.4766 45.6315 39.0826 46.4049C38.3635 47.8161 37.2162 48.9635 35.805 49.6825C35.0315 50.0766 34.1168 50.2862 32.8137 50.3927C31.5048 50.4996 29.8485 50.5 27.6 50.5H13.2C10.9516 50.5 9.29529 50.4996 7.98636 50.3927C6.68326 50.2862 5.76851 50.0766 4.9951 49.6825C3.58388 48.9635 2.43653 47.8161 1.71748 46.4049C1.3234 45.6315 1.11382 44.7168 1.00736 43.4137C0.900413 42.1047 0.900024 40.4485 0.900024 38.2V23.8Z" stroke="white" stroke-opacity="0.6"/>
<path d="M13.0417 27.1953L20.4001 31.4536L27.7084 27.2203" stroke="white" stroke-width="1.5" stroke-linecap="round" stroke-linejoin="round"/>
<path d="M20.4 39.0037V31.4453" stroke="white" stroke-width="1.5" stroke-linecap="round" stroke-linejoin="round"/>
<path d="M18.675 23.0641L14.225 25.5391C13.2167 26.0974 12.3917 27.4974 12.3917 28.6474V33.3558C12.3917 34.5058 13.2167 35.9057 14.225 36.4641L18.675 38.9391C19.625 39.4641 21.1834 39.4641 22.1334 38.9391L26.5834 36.4641C27.5917 35.9057 28.4167 34.5058 28.4167 33.3558V28.6474C28.4167 27.4974 27.5917 26.0974 26.5834 25.5391L22.1334 23.0641C21.175 22.5307 19.625 22.5307 18.675 23.0641Z" stroke="white" stroke-width="1.5" stroke-linecap="round" stroke-linejoin="round"/>
<path d="M24.5667 32.0307V28.9808L16.6583 24.4141" stroke="white" stroke-width="1.5" stroke-linecap="round" stroke-linejoin="round"/>
</g>
<defs>
<filter id="filter0_b_5402_5153" x="-15.6" y="-5" width="72" height="72" filterUnits="userSpaceOnUse" color-interpolation-filters="sRGB">
<feFlood flood-opacity="0" result="BackgroundImageFix"/>
<feGaussianBlur in="BackgroundImageFix" stdDeviation="8"/>
<feComposite in2="SourceAlpha" operator="in" result="effect1_backgroundBlur_5402_5153"/>
<feBlend mode="normal" in="SourceGraphic" in2="effect1_backgroundBlur_5402_5153" result="shape"/>
</filter>
</defs>
</svg>
