<svg width="22" height="22" viewBox="0 0 22 22" fill="none" xmlns="http://www.w3.org/2000/svg">
<path d="M7.81043 1L4.19043 4.63" stroke="white" stroke-width="1.5" stroke-miterlimit="10" stroke-linecap="round" stroke-linejoin="round"/>
<path d="M14.1904 1L17.8104 4.63" stroke="white" stroke-width="1.5" stroke-miterlimit="10" stroke-linecap="round" stroke-linejoin="round"/>
<path d="M1 6.85156C1 5.00156 1.99 4.85156 3.22 4.85156H18.78C20.01 4.85156 21 5.00156 21 6.85156C21 9.00156 20.01 8.85156 18.78 8.85156H3.22C1.99 8.85156 1 9.00156 1 6.85156Z" stroke="white" stroke-width="1.5"/>
<path d="M8.75977 13V16.55" stroke="white" stroke-width="1.5" stroke-linecap="round"/>
<path d="M13.3604 13V16.55" stroke="white" stroke-width="1.5" stroke-linecap="round"/>
<path d="M2.5 9L3.91 17.64C4.23 19.58 5 21 7.86 21H13.89C17 21 17.46 19.64 17.82 17.76L19.5 9" stroke="white" stroke-width="1.5" stroke-linecap="round"/>
</svg>
