<svg width="24" height="24" viewBox="0 0 24 24" fill="none" xmlns="http://www.w3.org/2000/svg">
<path d="M4.32188 18L0 6H2.07783L5.31924 15.5309L5.53533 16.2551H5.65169L5.88441 15.5309L9.14244 6H11.2203L6.89839 18H4.32188Z" fill="#344054"/>
<path d="M13.3423 18L13.3423 6L18.728 6C21.4541 6 22.867 7.39918 22.867 9.72016C22.867 11.6132 21.8032 12.93 19.8417 13.2428L23 18H20.7892L17.8304 13.4897H15.2206V18H13.3423ZM18.3789 7.62963H15.2206L15.2206 12.0247H18.3789C19.9248 12.0247 20.8557 11.3827 20.8557 10.1811V9.47325C20.8557 8.27161 19.9248 7.62963 18.3789 7.62963Z" fill="#344054"/>
</svg>
