<svg width="56" height="56" viewBox="0 0 56 56" fill="none" xmlns="http://www.w3.org/2000/svg">
<path d="M0 28C0 12.536 12.536 0 28 0C43.464 0 56 12.536 56 28C56 43.464 43.464 56 28 56C12.536 56 0 43.464 0 28Z" fill="#E0BB7F"/>
<path d="M24.4997 34.4167H18.083M21.583 28H16.333M24.4997 21.5833H18.6663M33.833 17.5L26.1372 28.2742C25.7965 28.7511 25.6262 28.9895 25.6336 29.1883C25.64 29.3614 25.723 29.5226 25.8601 29.6285C26.0176 29.75 26.3106 29.75 26.8967 29.75H32.6663L31.4997 38.5L39.1955 27.7258C39.5361 27.2489 39.7065 27.0105 39.6991 26.8117C39.6927 26.6386 39.6097 26.4774 39.4726 26.3715C39.3151 26.25 39.0221 26.25 38.436 26.25H32.6663L33.833 17.5Z" stroke="#A85C46" stroke-width="2" stroke-linecap="round" stroke-linejoin="round"/>
</svg>
