<svg width="22" height="22" viewBox="0 0 22 22" fill="none" xmlns="http://www.w3.org/2000/svg">
<path d="M6.48047 17.3505L9.58047 19.7505C9.98047 20.1505 10.8805 20.3505 11.4805 20.3505H15.2805C16.4805 20.3505 17.7805 19.4505 18.0805 18.2505L20.4805 10.9505C20.9805 9.55046 20.0805 8.35046 18.5805 8.35046H14.5805C13.9805 8.35046 13.4805 7.85046 13.5805 7.15046L14.0805 3.95046C14.2805 3.05046 13.6805 2.05046 12.7805 1.75046C11.9805 1.45046 10.9805 1.85046 10.5805 2.45046L6.48047 8.55046" stroke="#344054" stroke-width="1.5" stroke-miterlimit="10"/>
<path d="M1.38086 17.3484V7.54844C1.38086 6.14844 1.98086 5.64844 3.38086 5.64844H4.38086C5.78086 5.64844 6.38086 6.14844 6.38086 7.54844V17.3484C6.38086 18.7484 5.78086 19.2484 4.38086 19.2484H3.38086C1.98086 19.2484 1.38086 18.7484 1.38086 17.3484Z" stroke="#344054" stroke-width="1.5" stroke-linecap="round" stroke-linejoin="round"/>
</svg>
