<svg width="56" height="52" viewBox="0 0 56 52" fill="none" xmlns="http://www.w3.org/2000/svg">
<rect x="4" width="48" height="48" rx="24" fill="#DCFAE6"/>
<rect x="4" width="48" height="48" rx="24" stroke="#ECFCF6" stroke-width="8"/>
<path fill-rule="evenodd" clip-rule="evenodd" d="M27.9932 17.1358C25.9938 14.7984 22.6597 14.1696 20.1547 16.31C17.6496 18.4504 17.297 22.029 19.2642 24.5604C20.8998 26.6651 25.8498 31.1041 27.4721 32.5408C27.6536 32.7016 27.7444 32.7819 27.8502 32.8135C27.9426 32.8411 28.0437 32.8411 28.1361 32.8135C28.2419 32.7819 28.3327 32.7016 28.5142 32.5408C30.1365 31.1041 35.0865 26.6651 36.7221 24.5604C38.6893 22.029 38.3797 18.4279 35.8316 16.31C33.2835 14.1922 29.9925 14.7984 27.9932 17.1358Z" stroke="#3BCE99" stroke-width="2" stroke-linecap="round" stroke-linejoin="round"/>
</svg>
