<svg width="26" height="26" viewBox="0 0 26 26" fill="none" xmlns="http://www.w3.org/2000/svg">
<path fill-rule="evenodd" clip-rule="evenodd" d="M0.632812 13.1092C0.632812 6.34179 6.12304 0.851562 12.8905 0.851562C19.658 0.851562 25.1482 6.34179 25.1482 13.1092C25.1482 19.8767 19.658 25.3669 12.8905 25.3669C6.12304 25.3669 0.632812 19.8767 0.632812 13.1092ZM12.8905 2.73736C7.16454 2.73736 2.51861 7.38329 2.51861 13.1092C2.51861 18.8352 7.16454 23.4811 12.8905 23.4811C18.6165 23.4811 23.2624 18.8352 23.2624 13.1092C23.2624 7.38329 18.6165 2.73736 12.8905 2.73736Z" fill="#667085"/>
<path fill-rule="evenodd" clip-rule="evenodd" d="M12.8902 7.45312C13.4109 7.45312 13.8331 7.87528 13.8331 8.39602V17.825C13.8331 18.3458 13.4109 18.7679 12.8902 18.7679C12.3694 18.7679 11.9473 18.3458 11.9473 17.825V8.39602C11.9473 7.87528 12.3694 7.45312 12.8902 7.45312Z" fill="#667085"/>
<path fill-rule="evenodd" clip-rule="evenodd" d="M7.23242 13.1148C7.23242 12.594 7.65457 12.1719 8.17532 12.1719H17.6043C18.1251 12.1719 18.5472 12.594 18.5472 13.1148C18.5472 13.6355 18.1251 14.0577 17.6043 14.0577H8.17532C7.65457 14.0577 7.23242 13.6355 7.23242 13.1148Z" fill="#667085"/>
</svg>
