<svg width="21" height="32" viewBox="0 0 21 32" fill="none" xmlns="http://www.w3.org/2000/svg">
<path d="M0.534445 13.3333H9.62405V15.4667H9.08937C8.94756 15.4667 8.81156 15.5229 8.71129 15.6229C8.61101 15.7229 8.55468 15.8586 8.55468 16C8.5553 16.5479 8.40632 17.0856 8.12372 17.5554C7.84112 18.0252 7.43558 18.4094 6.95064 18.6667L2.96083 20.7893C2.17011 21.21 1.52037 21.8526 1.09201 22.6377C0.663648 23.4229 0.475464 24.3161 0.550741 25.2068C0.626019 26.0975 0.961454 26.9467 1.51554 27.6492C2.06963 28.3517 2.81806 28.8768 3.66822 29.1595L5.79465 29.8667C6.13143 29.9784 6.42437 30.1931 6.63187 30.4803C6.83938 30.7675 6.95091 31.1126 6.95064 31.4667C6.95064 31.6081 7.00697 31.7438 7.10724 31.8438C7.20751 31.9438 7.34351 32 7.48532 32H12.8321C12.9739 32 13.1099 31.9438 13.2102 31.8438C13.3105 31.7438 13.3668 31.6081 13.3668 31.4667C13.3665 31.1126 13.4781 30.7674 13.6857 30.4801C13.8933 30.1929 14.1864 29.9782 14.5233 29.8667L16.6492 29.1595C17.4994 28.8768 18.2478 28.3517 18.8019 27.6492C19.356 26.9467 19.6914 26.0975 19.7667 25.2068C19.842 24.3161 19.6538 23.4229 19.2255 22.6377C18.7971 21.8526 18.1474 21.21 17.3566 20.7893L13.3668 18.6667C12.8819 18.4094 12.4763 18.0252 12.1937 17.5554C11.9111 17.0856 11.7622 16.5479 11.7628 16C11.7628 15.8586 11.7064 15.7229 11.6062 15.6229C11.5059 15.5229 11.3699 15.4667 11.2281 15.4667H10.6934V13.3333H19.783C19.8658 13.3333 19.9474 13.3141 20.0214 13.2773C20.0955 13.2404 20.16 13.1869 20.2098 13.121C20.2596 13.0551 20.2934 12.9786 20.3085 12.8974C20.3236 12.8162 20.3196 12.7327 20.2968 12.6533L17.3106 2.2272C17.2138 1.89345 17.0112 1.59999 16.7331 1.39077C16.455 1.18155 16.1164 1.06784 15.7681 1.06667H10.6934V0H9.62405V1.06667H4.54938C4.20106 1.06784 3.86249 1.18155 3.5844 1.39077C3.30631 1.59999 3.10366 1.89345 3.00682 2.2272L0.020615 12.6533C-0.00214171 12.7327 -0.00612067 12.8162 0.00899105 12.8974C0.0241028 12.9786 0.0578931 13.0551 0.107702 13.121C0.15751 13.1869 0.221977 13.2404 0.296028 13.2773C0.370079 13.3141 0.451693 13.3333 0.534445 13.3333ZM16.3108 28.1477L14.1849 28.8533C13.722 29.0071 13.3083 29.2807 12.9861 29.6461C12.6639 30.0116 12.4447 30.4558 12.3509 30.9333H7.96653C7.87261 30.4556 7.65318 30.0112 7.33067 29.6458C7.00817 29.2803 6.59416 29.0069 6.13097 28.8533L4.00453 28.1461C3.37562 27.9368 2.8192 27.5536 2.39999 27.0412C1.98078 26.5289 1.716 25.9083 1.63643 25.2517L3.20786 23.6875L4.96857 25.4437C5.06883 25.5437 5.20481 25.5999 5.34659 25.5999C5.48837 25.5999 5.62434 25.5437 5.72461 25.4437L7.48532 23.6875L9.24603 25.4437C9.34629 25.5437 9.48227 25.5999 9.62405 25.5999C9.76583 25.5999 9.9018 25.5437 10.0021 25.4437L11.7628 23.6875L13.5235 25.4437C13.6238 25.5437 13.7597 25.5999 13.9015 25.5999C14.0433 25.5999 14.1793 25.5437 14.2795 25.4437L16.0402 23.6875L17.8009 25.4437C17.9012 25.5437 18.0372 25.5999 18.179 25.5999C18.3207 25.5999 18.4567 25.5437 18.557 25.4437L18.6735 25.3275C18.581 25.97 18.311 26.5742 17.8937 27.0723C17.4764 27.5704 16.9283 27.9428 16.3108 28.1477ZM12.8637 19.608L16.8535 21.7307C17.2763 21.9552 17.6485 22.2638 17.9471 22.6374C18.2457 23.011 18.4644 23.4417 18.5896 23.9029L18.179 24.3125L16.4183 22.5563C16.318 22.4563 16.182 22.4001 16.0402 22.4001C15.8985 22.4001 15.7625 22.4563 15.6622 22.5563L13.9015 24.3125L12.1408 22.5563C12.0405 22.4563 11.9046 22.4001 11.7628 22.4001C11.621 22.4001 11.485 22.4563 11.3848 22.5563L9.62405 24.3125L7.86334 22.5563C7.76307 22.4563 7.6271 22.4001 7.48532 22.4001C7.34354 22.4001 7.20756 22.4563 7.1073 22.5563L5.34659 24.3125L3.58588 22.5563C3.48561 22.4563 3.34964 22.4001 3.20786 22.4001C3.06608 22.4001 2.9301 22.4563 2.82984 22.5563L1.85778 23.5259C2.16255 22.7569 2.73095 22.1208 3.46183 21.7307L7.45163 19.608C8.02794 19.3027 8.52267 18.8643 8.89454 18.3294C9.2664 17.7946 9.50462 17.1787 9.58929 16.5333H10.7282C10.8126 17.1785 11.0505 17.7942 11.422 18.3291C11.7935 18.8639 12.2878 19.3024 12.8637 19.608ZM4.03501 2.52053C4.06687 2.40898 4.13433 2.31083 4.22715 2.24096C4.31997 2.17109 4.43309 2.1333 4.54938 2.13333H15.7681C15.8844 2.1333 15.9975 2.17109 16.0903 2.24096C16.1831 2.31083 16.2506 2.40898 16.2824 2.52053L19.074 12.2667H1.24343L4.03501 2.52053ZM6.95064 25.6H8.02V26.6667H6.95064V25.6ZM2.67318 25.6H3.74254V26.6667H2.67318V25.6ZM11.2281 25.6H12.2975V26.6667H11.2281V25.6ZM15.5056 25.6H16.5749V26.6667H15.5056V25.6ZM14.4362 22.4H13.3668V21.3333H14.4362V22.4ZM9.08937 21.3333H10.1587V22.4H9.08937V21.3333ZM4.81191 21.3333H5.88127V22.4H4.81191V21.3333Z" fill="#667085"/>
</svg>
