<svg width="26" height="27" viewBox="0 0 26 27" fill="none" xmlns="http://www.w3.org/2000/svg">
<path d="M7 13.5H7.01333M13 13.5H13.0133M19 13.5H19.0133M13 25.5C19.6274 25.5 25 20.1274 25 13.5C25 6.87258 19.6274 1.5 13 1.5C6.37258 1.5 1 6.87258 1 13.5C1 15.0962 1.31165 16.6196 1.87742 18.0127C1.9857 18.2793 2.03984 18.4126 2.06399 18.5204C2.08762 18.6258 2.09626 18.7038 2.09628 18.8118C2.09629 18.9223 2.07624 19.0426 2.03614 19.2831L1.2455 24.027C1.16271 24.5238 1.12131 24.7721 1.19835 24.9518C1.26577 25.109 1.39104 25.2342 1.54825 25.3017C1.72786 25.3787 1.97624 25.3373 2.47302 25.2545L7.21687 24.4639C7.45745 24.4238 7.57774 24.4037 7.68818 24.4037C7.7962 24.4037 7.87421 24.4124 7.97963 24.436C8.08739 24.4602 8.2207 24.5143 8.48732 24.6226C9.88041 25.1884 11.4038 25.5 13 25.5ZM7.66667 13.5C7.66667 13.8682 7.36819 14.1667 7 14.1667C6.63181 14.1667 6.33333 13.8682 6.33333 13.5C6.33333 13.1318 6.63181 12.8333 7 12.8333C7.36819 12.8333 7.66667 13.1318 7.66667 13.5ZM13.6667 13.5C13.6667 13.8682 13.3682 14.1667 13 14.1667C12.6318 14.1667 12.3333 13.8682 12.3333 13.5C12.3333 13.1318 12.6318 12.8333 13 12.8333C13.3682 12.8333 13.6667 13.1318 13.6667 13.5ZM19.6667 13.5C19.6667 13.8682 19.3682 14.1667 19 14.1667C18.6318 14.1667 18.3333 13.8682 18.3333 13.5C18.3333 13.1318 18.6318 12.8333 19 12.8333C19.3682 12.8333 19.6667 13.1318 19.6667 13.5Z" stroke="#344054" stroke-width="2" stroke-linecap="round" stroke-linejoin="round"/>
</svg>
