<svg width="22" height="22" viewBox="0 0 22 22" fill="none" xmlns="http://www.w3.org/2000/svg">
<path d="M15.5197 4.64844L12.4197 2.24844C12.0197 1.84844 11.1197 1.64844 10.5197 1.64844H6.71973C5.51973 1.64844 4.21973 2.54844 3.91973 3.74844L1.51973 11.0484C1.01973 12.4484 1.91973 13.6484 3.41973 13.6484H7.41973C8.01973 13.6484 8.51973 14.1484 8.41973 14.8484L7.91973 18.0484C7.71973 18.9484 8.31973 19.9484 9.21973 20.2484C10.0197 20.5484 11.0197 20.1484 11.4197 19.5484L15.5197 13.4484" stroke="#344054" stroke-width="1.5" stroke-miterlimit="10"/>
<path d="M20.6191 4.65V14.45C20.6191 15.85 20.0191 16.35 18.6191 16.35H17.6191C16.2191 16.35 15.6191 15.85 15.6191 14.45V4.65C15.6191 3.25 16.2191 2.75 17.6191 2.75H18.6191C20.0191 2.75 20.6191 3.25 20.6191 4.65Z" stroke="#344054" stroke-width="1.5" stroke-linecap="round" stroke-linejoin="round"/>
</svg>
