<svg width="30" height="20" viewBox="0 0 30 20" fill="none" xmlns="http://www.w3.org/2000/svg">
<path fill-rule="evenodd" clip-rule="evenodd" d="M14.8326 0.501006C14.6968 0.498439 14.501 0.500773 14.2566 0.508412C14.0122 0.516045 13.7218 0.526629 13.3835 0.556556C13.0451 0.586511 12.664 0.632853 12.2462 0.697283C11.8285 0.761709 11.3696 0.84528 10.887 0.956517C10.4045 1.06776 9.89534 1.2045 9.36276 1.37499C8.83018 1.54549 8.27209 1.74932 7.70458 1.9916C7.13706 2.23388 6.55817 2.51866 5.97119 2.84522C5.36329 3.18342 4.78529 3.57537 4.23963 4.02103C3.69397 4.4667 3.18559 4.96566 2.72086 5.49867C2.25612 6.03168 1.83499 6.60373 1.47172 7.20591C1.10844 7.80809 0.796748 8.44043 0.558248 9.09461C0.319748 9.7488 0.151242 10.4232 0.064828 11.1111C-0.0215856 11.7989 -0.0240462 12.4993 0.0721651 13.1961C0.168376 13.8929 0.363187 14.5827 0.668304 15.2533C0.973421 15.9239 1.3884 16.5719 1.91561 17.179C2.4408 17.7838 2.99758 18.2612 3.5793 18.6196C4.16101 18.978 4.7683 19.2195 5.37505 19.3547C5.9818 19.4899 6.58518 19.5206 7.17814 19.488C7.7711 19.4555 8.35626 19.3615 8.92437 19.2288C9.49248 19.0961 10.0461 18.9283 10.5899 18.7529C11.1337 18.5775 11.667 18.3895 12.1839 18.2215C12.7007 18.0535 13.1997 17.9016 13.6806 17.7864C14.1423 17.6758 14.5809 17.6053 14.9976 17.5771C15.4162 17.605 15.8508 17.6752 16.3147 17.7864C16.7956 17.9016 17.3037 18.0535 17.8206 18.2215C18.3375 18.3895 18.8708 18.5775 19.4146 18.7529C19.9584 18.9283 20.5102 19.0961 21.0783 19.2288C21.6464 19.3615 22.226 19.4555 22.819 19.488C23.4119 19.5206 24.0208 19.4899 24.6276 19.3547C25.2343 19.2195 25.8416 18.978 26.4233 18.6196C27.0051 18.2612 27.5618 17.7838 28.087 17.179C28.6142 16.5719 29.0237 15.9239 29.3288 15.2533C29.6339 14.5827 29.8288 13.8929 29.925 13.1961C30.0212 12.4993 30.0242 11.7989 29.9378 11.1111C29.8514 10.4232 29.6774 9.74881 29.4389 9.09461C29.2004 8.44042 28.8942 7.80808 28.5309 7.20591C28.1676 6.60373 27.7483 6.03168 27.2836 5.49867C26.8189 4.96566 26.3105 4.4667 25.7648 4.02103C25.2192 3.57537 24.6393 3.18342 24.0314 2.84522C23.4445 2.51866 22.8582 2.23388 22.2907 1.9916C21.7232 1.74932 21.1743 1.54549 20.6417 1.37499C20.1091 1.20451 19.5927 1.06775 19.1101 0.956517C18.6275 0.845283 18.176 0.761708 17.7582 0.697283C17.3405 0.632859 16.9594 0.586489 16.621 0.556556C16.2826 0.526608 15.9849 0.51606 15.7405 0.508412C15.4962 0.50078 15.3078 0.498426 15.1719 0.501006C15.1059 0.502253 15.0996 0.506764 15.06 0.508412C15.06 0.508412 14.9684 0.503586 14.8326 0.501006ZM14.319 2.39712C14.5302 2.39052 14.6909 2.3951 14.7977 2.39712C14.9044 2.39914 14.9426 2.39712 14.9426 2.39712C14.9817 2.39959 15.0209 2.39959 15.06 2.39712C15.06 2.39712 15.1001 2.39913 15.2068 2.39712C15.3134 2.39509 15.4742 2.39052 15.6855 2.39712C15.8968 2.40375 16.1532 2.42048 16.4541 2.44711C16.7549 2.47374 17.0984 2.51512 17.4739 2.57303C17.8065 2.62432 18.1741 2.69329 18.5543 2.77671L18.5415 2.81745L18.4296 3.16741L18.3122 3.52479L18.1948 3.88031L18.1251 4.08399C18.1065 4.07915 18.0886 4.07579 18.0701 4.07103C17.7488 3.98883 17.4213 3.91162 17.0924 3.85253C16.7635 3.79344 16.4359 3.74725 16.1 3.71366C15.7642 3.68005 15.4235 3.66385 15.082 3.65811C14.7404 3.65241 14.3955 3.66144 14.0493 3.68588C13.7031 3.71035 13.3588 3.74748 13.0093 3.80439C12.6598 3.86129 12.3059 3.93702 11.9546 4.02844C11.9085 4.04044 11.8631 4.05842 11.817 4.07103L11.7547 3.88031L11.6354 3.52479L11.518 3.16741L11.4006 2.81745L11.3915 2.78782C11.7937 2.69755 12.1727 2.62708 12.5232 2.57303C12.8987 2.51512 13.2422 2.47374 13.5431 2.44711C13.844 2.42049 14.1077 2.40372 14.319 2.39712ZM20.3629 3.29148C20.7555 3.42594 21.1529 3.56576 21.5643 3.74143C22.0752 3.95951 22.5961 4.21093 23.1235 4.50432C23.6299 4.78607 24.1171 5.12071 24.5799 5.49867C25.0427 5.87662 25.4803 6.29778 25.8749 6.7504C26.2695 7.20301 26.6257 7.68904 26.9296 8.19285C27.2335 8.69666 27.4846 9.21591 27.678 9.7464C27.8714 10.2769 28.0071 10.8142 28.0742 11.3481C28.1413 11.882 28.1387 12.4165 28.0668 12.9368C27.995 13.4572 27.8506 13.9624 27.623 14.4626C27.3953 14.9629 27.0861 15.4569 26.6728 15.9328C26.2575 16.4111 25.8505 16.7537 25.4457 17.0031C25.0409 17.2525 24.6336 17.4069 24.2185 17.4994C23.8035 17.5918 23.3751 17.6224 22.9217 17.5975C22.4684 17.5726 21.994 17.4958 21.502 17.3808C21.01 17.2659 20.5026 17.1151 19.9832 16.9476C19.4638 16.78 18.9334 16.5968 18.3947 16.4217C17.8561 16.2466 17.3092 16.079 16.753 15.9458C16.1969 15.8126 15.6304 15.7146 15.0545 15.681C15.0197 15.6791 14.9848 15.6791 14.95 15.681C14.374 15.7146 13.8075 15.8126 13.2514 15.9458C12.6953 16.079 12.1465 16.2466 11.6079 16.4217C11.0693 16.5968 10.5406 16.78 10.0213 16.9476C9.50191 17.1151 8.98714 17.2659 8.49515 17.3808C8.00316 17.4958 7.53427 17.5726 7.08092 17.5975C6.62757 17.6224 6.19362 17.5918 5.77859 17.4994C5.36356 17.4069 4.96176 17.2525 4.55696 17.0031C4.15217 16.7537 3.74516 16.4111 3.32983 15.9328C2.91653 15.4569 2.60178 14.9629 2.37418 14.4626C2.14657 13.9624 2.00213 13.4572 1.93028 12.9368C1.85844 12.4165 1.86321 11.882 1.93028 11.3481C1.99736 10.8142 2.13125 10.2769 2.32465 9.7464C2.51806 9.2159 2.77094 8.69666 3.07487 8.19285C3.3788 7.68904 3.7331 7.20302 4.12774 6.7504C4.52238 6.29778 4.95448 5.87662 5.41724 5.49867C5.88 5.12071 6.37454 4.78608 6.88099 4.50432C7.40835 4.21093 7.9293 3.95951 8.44012 3.74143C8.83465 3.573 9.21469 3.44063 9.59204 3.30999L9.62506 3.41183L9.73695 3.76921L9.97174 4.48395L10.2084 5.18944L10.3258 5.54681C10.3651 5.66669 10.4278 5.77741 10.5102 5.87248C10.5925 5.96755 10.6929 6.04505 10.8053 6.10042C10.9178 6.15579 11.04 6.18792 11.1649 6.19493C11.2898 6.20193 11.4149 6.18366 11.5327 6.1412C11.8294 6.03336 12.1238 5.93833 12.4187 5.8616C12.7136 5.78486 13.0134 5.72043 13.3064 5.67272C13.5995 5.62501 13.8886 5.59516 14.1796 5.57459C14.4706 5.55402 14.7584 5.54938 15.0472 5.55422C15.336 5.55909 15.6269 5.57372 15.913 5.60236C16.199 5.63099 16.483 5.67006 16.7659 5.72087C17.0488 5.77168 17.3325 5.83279 17.6115 5.90418C17.8905 5.97559 18.1627 6.05825 18.4369 6.1486C18.6731 6.22714 18.9305 6.20789 19.1527 6.09507C19.3748 5.98225 19.5435 5.78508 19.6219 5.54681L19.7411 5.18944L19.8585 4.83392L19.9759 4.48395L20.0933 4.12658L20.2052 3.76921L20.3225 3.41183L20.3629 3.29148ZM8.38509 8.0799C8.13695 8.08423 7.9006 8.18756 7.72771 8.36729C7.55482 8.54703 7.45945 8.78855 7.46245 9.03906V9.99082H6.5068C6.47677 9.98937 6.44694 9.98937 6.41692 9.99082C5.2506 10.1239 5.33321 11.8602 6.5068 11.8795H7.46245V12.8331C7.45968 12.9594 7.48192 13.085 7.52787 13.2024C7.57381 13.3199 7.64255 13.4269 7.73003 13.5172C7.81751 13.6075 7.92198 13.6793 8.03731 13.7283C8.15263 13.7772 8.27649 13.8025 8.4016 13.8025C8.52672 13.8025 8.65057 13.7772 8.7659 13.7283C8.88122 13.6793 8.98569 13.6075 9.07317 13.5172C9.16065 13.4269 9.22939 13.3199 9.27534 13.2024C9.32129 13.085 9.34353 12.9594 9.34075 12.8331V11.8795H10.2029C11.5553 11.9895 11.5553 9.88081 10.2029 9.99082H9.34075V9.03906C9.34227 8.91221 9.31855 8.78634 9.27099 8.66891C9.22343 8.55148 9.15301 8.44488 9.06389 8.35543C8.97477 8.26599 8.86877 8.19551 8.75217 8.14818C8.63557 8.10085 8.51075 8.07763 8.38509 8.0799ZM18.7304 8.09101C18.4813 8.09101 18.2424 8.19089 18.0663 8.36869C17.8902 8.54648 17.7912 8.78762 17.7912 9.03906C17.7912 9.2905 17.8902 9.53165 18.0663 9.70944C18.2424 9.88724 18.4813 9.98712 18.7304 9.98712C18.9795 9.98712 19.2183 9.88724 19.3945 9.70944C19.5706 9.53165 19.6695 9.2905 19.6695 9.03906C19.6695 8.78762 19.5706 8.54648 19.3945 8.36869C19.2183 8.19089 18.9795 8.09101 18.7304 8.09101ZM21.5478 8.09101C21.2988 8.09101 21.0599 8.19089 20.8838 8.36869C20.7076 8.54648 20.6087 8.78762 20.6087 9.03906C20.6087 9.2905 20.7076 9.53165 20.8838 9.70944C21.0599 9.88724 21.2988 9.98712 21.5478 9.98712C21.7969 9.98712 22.0358 9.88724 22.2119 9.70944C22.388 9.53165 22.487 9.2905 22.487 9.03906C22.487 8.78762 22.388 8.54648 22.2119 8.36869C22.0358 8.19089 21.7969 8.09101 21.5478 8.09101ZM24.3653 8.09101C24.1162 8.09101 23.8773 8.19089 23.7012 8.36869C23.5251 8.54648 23.4261 8.78762 23.4261 9.03906C23.4261 9.2905 23.5251 9.53165 23.7012 9.70944C23.8773 9.88724 24.1162 9.98712 24.3653 9.98712C24.6144 9.98712 24.8532 9.88724 25.0294 9.70944C25.2055 9.53165 25.3044 9.2905 25.3044 9.03906C25.3044 8.78762 25.2055 8.54648 25.0294 8.36869C24.8532 8.19089 24.6144 8.09101 24.3653 8.09101ZM18.7304 11.8832C18.4813 11.8832 18.2424 11.9831 18.0663 12.1609C17.8902 12.3387 17.7912 12.5798 17.7912 12.8313C17.7912 13.0827 17.8902 13.3239 18.0663 13.5017C18.2424 13.6795 18.4813 13.7793 18.7304 13.7793C18.9795 13.7793 19.2183 13.6795 19.3945 13.5017C19.5706 13.3239 19.6695 13.0827 19.6695 12.8313C19.6695 12.5798 19.5706 12.3387 19.3945 12.1609C19.2183 11.9831 18.9795 11.8832 18.7304 11.8832ZM21.5478 11.8832C21.2988 11.8832 21.0599 11.9831 20.8838 12.1609C20.7076 12.3387 20.6087 12.5798 20.6087 12.8313C20.6087 13.0827 20.7076 13.3239 20.8838 13.5017C21.0599 13.6795 21.2988 13.7793 21.5478 13.7793C21.7969 13.7793 22.0358 13.6795 22.2119 13.5017C22.388 13.3239 22.487 13.0827 22.487 12.8313C22.487 12.5798 22.388 12.3387 22.2119 12.1609C22.0358 11.9831 21.7969 11.8832 21.5478 11.8832ZM24.3653 11.8832C24.1162 11.8832 23.8773 11.9831 23.7012 12.1609C23.5251 12.3387 23.4261 12.5798 23.4261 12.8313C23.4261 13.0827 23.5251 13.3239 23.7012 13.5017C23.8773 13.6795 24.1162 13.7793 24.3653 13.7793C24.6144 13.7793 24.8532 13.6795 25.0294 13.5017C25.2055 13.3239 25.3044 13.0827 25.3044 12.8313C25.3044 12.5798 25.2055 12.3387 25.0294 12.1609C24.8532 11.9831 24.6144 11.8832 24.3653 11.8832Z" fill="#667085"/>
</svg>
