<svg width="51" height="51" viewBox="0 0 51 51" fill="none" xmlns="http://www.w3.org/2000/svg">
<path d="M9.7873 8.23522C10.9308 3.96749 15.3175 1.43483 19.5853 2.57836L42.7675 8.79002C47.0352 9.93356 49.5679 14.3203 48.4243 18.588L42.2127 41.7702C41.0691 46.0379 36.6824 48.5706 32.4147 47.4271L9.23249 41.2154C4.96476 40.0719 2.43211 35.6852 3.57564 31.4174L9.7873 8.23522Z" fill="#717BBC"/>
<g filter="url(#filter0_b_5402_10112)">
<path d="M0 23.8C0 19.3196 0 17.0794 0.871948 15.3681C1.63893 13.8628 2.86278 12.6389 4.36808 11.8719C6.07937 11 8.31958 11 12.8 11H27.2C31.6804 11 33.9206 11 35.6319 11.8719C37.1372 12.6389 38.3611 13.8628 39.1281 15.3681C40 17.0794 40 19.3196 40 23.8V38.2C40 42.6804 40 44.9206 39.1281 46.6319C38.3611 48.1372 37.1372 49.3611 35.6319 50.1281C33.9206 51 31.6804 51 27.2 51H12.8C8.31958 51 6.07937 51 4.36808 50.1281C2.86278 49.3611 1.63893 48.1372 0.871948 46.6319C0 44.9206 0 42.6804 0 38.2V23.8Z" fill="white" fill-opacity="0.6"/>
<path d="M0.5 23.8C0.5 21.5515 0.500389 19.8953 0.607333 18.5863C0.7138 17.2832 0.923378 16.3685 1.31745 15.5951C2.0365 14.1839 3.18386 13.0365 4.59507 12.3175C5.36848 11.9234 6.28324 11.7138 7.58633 11.6073C8.89526 11.5004 10.5515 11.5 12.8 11.5H27.2C29.4485 11.5 31.1047 11.5004 32.4137 11.6073C33.7168 11.7138 34.6315 11.9234 35.4049 12.3175C36.8161 13.0365 37.9635 14.1839 38.6825 15.5951C39.0766 16.3685 39.2862 17.2832 39.3927 18.5863C39.4996 19.8953 39.5 21.5515 39.5 23.8V38.2C39.5 40.4485 39.4996 42.1047 39.3927 43.4137C39.2862 44.7168 39.0766 45.6315 38.6825 46.4049C37.9635 47.8161 36.8161 48.9635 35.4049 49.6825C34.6315 50.0766 33.7168 50.2862 32.4137 50.3927C31.1047 50.4996 29.4485 50.5 27.2 50.5H12.8C10.5515 50.5 8.89526 50.4996 7.58633 50.3927C6.28324 50.2862 5.36848 50.0766 4.59507 49.6825C3.18386 48.9635 2.0365 47.8161 1.31745 46.4049C0.923378 45.6315 0.7138 44.7168 0.607333 43.4137C0.500389 42.1047 0.5 40.4485 0.5 38.2V23.8Z" stroke="white" stroke-opacity="0.6"/>
<path d="M12.6417 27.1953L20 31.4536L27.3084 27.2203" stroke="white" stroke-width="1.5" stroke-linecap="round" stroke-linejoin="round"/>
<path d="M20.0001 39.0037V31.4453" stroke="white" stroke-width="1.5" stroke-linecap="round" stroke-linejoin="round"/>
<path d="M18.275 23.0641L13.825 25.5391C12.8167 26.0974 11.9917 27.4974 11.9917 28.6474V33.3558C11.9917 34.5058 12.8167 35.9057 13.825 36.4641L18.275 38.9391C19.225 39.4641 20.7833 39.4641 21.7333 38.9391L26.1834 36.4641C27.1917 35.9057 28.0167 34.5058 28.0167 33.3558V28.6474C28.0167 27.4974 27.1917 26.0974 26.1834 25.5391L21.7333 23.0641C20.775 22.5307 19.225 22.5307 18.275 23.0641Z" stroke="white" stroke-width="1.5" stroke-linecap="round" stroke-linejoin="round"/>
<path d="M24.1667 32.0307V28.9808L16.2584 24.4141" stroke="white" stroke-width="1.5" stroke-linecap="round" stroke-linejoin="round"/>
</g>
<defs>
<filter id="filter0_b_5402_10112" x="-16" y="-5" width="72" height="72" filterUnits="userSpaceOnUse" color-interpolation-filters="sRGB">
<feFlood flood-opacity="0" result="BackgroundImageFix"/>
<feGaussianBlur in="BackgroundImageFix" stdDeviation="8"/>
<feComposite in2="SourceAlpha" operator="in" result="effect1_backgroundBlur_5402_10112"/>
<feBlend mode="normal" in="SourceGraphic" in2="effect1_backgroundBlur_5402_10112" result="shape"/>
</filter>
</defs>
</svg>
