<svg width="24" height="24" viewBox="0 0 24 24" fill="none" xmlns="http://www.w3.org/2000/svg">
<path d="M9 22L15 22C20 22 22 20 22 15L22 9C22 4 20 2 15 2L9 2C4 2 2 4 2 9L2 15C2 20 4 22 9 22Z" stroke="#344054" stroke-width="2" stroke-linecap="round" stroke-linejoin="round"/>
<path d="M15.5 18.5C16.6 18.5 17.5 17.6 17.5 16.5V7.5C17.5 6.4 16.6 5.5 15.5 5.5C14.4 5.5 13.5 6.4 13.5 7.5L13.5 16.5C13.5 17.6 14.39 18.5 15.5 18.5Z" stroke="#344054" stroke-width="2" stroke-linecap="round" stroke-linejoin="round"/>
<path d="M8.5 18.5C9.6 18.5 10.5 17.6 10.5 16.5V13C10.5 11.9 9.6 11 8.5 11C7.4 11 6.5 11.9 6.5 13L6.5 16.5C6.5 17.6 7.39 18.5 8.5 18.5Z" stroke="#344054" stroke-width="2" stroke-linecap="round" stroke-linejoin="round"/>
</svg>
