<svg width="22" height="22" viewBox="0 0 22 22" fill="none" xmlns="http://www.w3.org/2000/svg">
<path d="M16 17.4297H12L7.54999 20.3897C6.88999 20.8297 6 20.3598 6 19.5598V17.4297C3 17.4297 1 15.4297 1 12.4297V6.42969C1 3.42969 3 1.42969 6 1.42969H16C19 1.42969 21 3.42969 21 6.42969V12.4297C21 15.4297 19 17.4297 16 17.4297Z" stroke="#344054" stroke-width="1.5" stroke-miterlimit="10" stroke-linecap="round" stroke-linejoin="round"/>
<path d="M11 10.3594V10.1494C11 9.46941 11.42 9.1094 11.84 8.8194C12.25 8.5394 12.66 8.17941 12.66 7.51941C12.66 6.59941 11.92 5.85938 11 5.85938C10.08 5.85938 9.34003 6.59941 9.34003 7.51941" stroke="#344054" stroke-width="1.5" stroke-linecap="round" stroke-linejoin="round"/>
<path d="M10.9955 12.75H11.0045" stroke="#344054" stroke-width="1.5" stroke-linecap="round" stroke-linejoin="round"/>
</svg>
