<svg width="30" height="29" viewBox="0 0 30 29" fill="none" xmlns="http://www.w3.org/2000/svg">
<path d="M17.3065 3.18344L19.6532 7.87677C19.9732 8.53011 20.8265 9.15677 21.5465 9.27677L25.7999 9.98344C28.5199 10.4368 29.1599 12.4101 27.1999 14.3568L23.8932 17.6634C23.3332 18.2234 23.0265 19.3034 23.1999 20.0768L24.1465 24.1701C24.8932 27.4101 23.1732 28.6634 20.3065 26.9701L16.3199 24.6101C15.5999 24.1834 14.4132 24.1834 13.6799 24.6101L9.69321 26.9701C6.83988 28.6634 5.10655 27.3968 5.85321 24.1701L6.79988 20.0768C6.97321 19.3034 6.66655 18.2234 6.10655 17.6634L2.79988 14.3568C0.853212 12.4101 1.47988 10.4368 4.19988 9.98344L8.45321 9.27677C9.15988 9.15677 10.0132 8.53011 10.3332 7.87677L12.6799 3.18344C13.9599 0.636771 16.0399 0.636771 17.3065 3.18344Z" stroke="#DFB64B" stroke-width="2" stroke-linecap="round" stroke-linejoin="round"/>
</svg>
