<svg width="22" height="21" viewBox="0 0 22 21" fill="none" xmlns="http://www.w3.org/2000/svg">
<path d="M9.75159 14.8594V16.8894C9.75159 18.6094 8.15158 19.9994 6.18158 19.9994C4.21158 19.9994 2.60156 18.6094 2.60156 16.8894V14.8594C2.60156 16.5794 4.20158 17.7994 6.18158 17.7994C8.15158 17.7994 9.75159 16.5694 9.75159 14.8594Z" stroke="#344054" stroke-width="1.5" stroke-linecap="round" stroke-linejoin="round"/>
<path d="M9.75 12.1078C9.75 12.6078 9.61 13.0678 9.37 13.4678C8.78 14.4378 7.56998 15.0478 6.16998 15.0478C4.76998 15.0478 3.55997 14.4278 2.96997 13.4678C2.72997 13.0678 2.59003 12.6078 2.59003 12.1078C2.59003 11.2478 2.99 10.4778 3.63 9.91779C4.28 9.34779 5.16997 9.00781 6.15997 9.00781C7.14997 9.00781 8.04 9.35779 8.69 9.91779C9.35 10.4678 9.75 11.2478 9.75 12.1078Z" stroke="#344054" stroke-width="1.5" stroke-linecap="round" stroke-linejoin="round"/>
<path d="M9.75159 12.11V14.86C9.75159 16.58 8.15158 17.8 6.18158 17.8C4.21158 17.8 2.60156 16.57 2.60156 14.86V12.11C2.60156 10.39 4.20158 9 6.18158 9C7.17158 9 8.06161 9.34997 8.71161 9.90997C9.35161 10.47 9.75159 11.25 9.75159 12.11Z" stroke="#344054" stroke-width="1.5" stroke-linecap="round" stroke-linejoin="round"/>
<path d="M21 8.97308V11.0331C21 11.5831 20.56 12.0331 20 12.0531H18.04C16.96 12.0531 15.97 11.2631 15.88 10.1831C15.82 9.55311 16.06 8.9631 16.48 8.5531C16.85 8.1731 17.36 7.95312 17.92 7.95312H20C20.56 7.97312 21 8.42308 21 8.97308Z" stroke="#344054" stroke-width="1.5" stroke-linecap="round" stroke-linejoin="round"/>
<path d="M1 8.5V6.5C1 3.78 2.64 1.88 5.19 1.56C5.45 1.52 5.72 1.5 6 1.5H15C15.26 1.5 15.51 1.50999 15.75 1.54999C18.33 1.84999 20 3.76 20 6.5V7.95001H17.92C17.36 7.95001 16.85 8.16999 16.48 8.54999C16.06 8.95999 15.82 9.54999 15.88 10.18C15.97 11.26 16.96 12.05 18.04 12.05H20V13.5C20 16.5 18 18.5 15 18.5H12.5" stroke="#344054" stroke-width="1.5" stroke-linecap="round" stroke-linejoin="round"/>
</svg>
