<svg width="29" height="32" viewBox="0 0 29 32" fill="none" xmlns="http://www.w3.org/2000/svg">
<path d="M8.70931 18.7495L10.1685 20.21V22.5238C10.1685 22.7827 10.3782 22.9925 10.6368 22.9925C10.8955 22.9925 11.1051 22.7827 11.1051 22.5238V20.0158C11.1051 19.8915 11.0558 19.7722 10.968 19.6843L6.6854 15.3979C6.5025 15.2149 6.20596 15.2149 6.02312 15.3979C5.84022 15.581 5.84022 15.8777 6.02312 16.0608L8.04698 18.0865L7.22154 18.9127C7.20805 18.9092 7.19468 18.9054 7.18101 18.9026C5.32613 18.5102 3.42004 19.0756 2.08206 20.4147C0.74415 21.7539 0.17935 23.6618 0.571245 25.5183C0.643866 25.8623 0.912873 26.1316 1.25656 26.2043C1.64434 26.2863 2.03417 26.3264 2.42076 26.3264C3.88343 26.3264 5.29728 25.7513 6.35557 24.6921C7.69255 23.3539 8.25741 21.4478 7.86714 19.5924L8.70931 18.7495ZM5.69323 24.0293C4.58755 25.1358 3.01497 25.6069 1.48117 25.2936C1.16777 23.7582 1.63872 22.1844 2.74434 21.0777C3.71671 20.1046 5.05006 19.6231 6.40078 19.7342L3.88762 22.2497C3.70472 22.4328 3.70472 22.7296 3.88762 22.9126C3.97903 23.0041 4.09893 23.0499 4.21875 23.0499C4.33858 23.0499 4.45847 23.0041 4.54989 22.9126L7.03926 20.421C7.1343 21.7553 6.65324 23.0684 5.69323 24.0293Z" fill="#667085"/>
<path d="M14.8179 9.03613C14.5593 9.03613 14.3496 9.24594 14.3496 9.50488V18.6456C14.3496 19.4035 14.9656 20.0201 15.7229 20.0201H16.0194C16.7767 20.0201 17.3928 19.4035 17.3928 18.6456V16.1821C17.3928 15.9232 17.1831 15.7134 16.9244 15.7134C16.6658 15.7134 16.4561 15.9232 16.4561 16.1821V18.6456C16.4561 18.8865 16.2602 19.0826 16.0194 19.0826H15.7229C15.4821 19.0826 15.2862 18.8865 15.2862 18.6456V9.50488C15.2862 9.246 15.0765 9.03613 14.8179 9.03613Z" fill="#667085"/>
<path d="M20.0871 19.0826C19.8284 19.0826 19.6187 19.2924 19.6187 19.5513V21.8714C19.6187 22.6294 20.2348 23.246 20.9921 23.246C21.7493 23.246 22.3653 22.6294 22.3653 21.8714V13.8209C22.3653 13.063 21.7493 12.4464 20.9921 12.4464C20.7513 12.4464 20.5554 12.2504 20.5554 12.0094V9.50494C20.5554 9.246 20.3457 9.03619 20.0871 9.03619C19.8284 9.03619 19.6187 9.246 19.6187 9.50494V12.0094C19.6187 12.7673 20.2348 13.3839 20.9921 13.3839C21.2328 13.3839 21.4287 13.58 21.4287 13.8209V21.8715C21.4287 22.1125 21.2328 22.3086 20.9921 22.3086C20.7513 22.3086 20.5554 22.1125 20.5554 21.8715V19.5514C20.5554 19.2924 20.3457 19.0826 20.0871 19.0826Z" fill="#667085"/>
<path d="M24.7797 27.642V15.1531C24.7797 14.8941 24.57 14.6843 24.3114 14.6843C24.0527 14.6843 23.843 14.8941 23.843 15.1531V27.642C23.843 27.9009 24.0527 28.1108 24.3114 28.1108C24.57 28.1108 24.7797 27.9009 24.7797 27.642Z" fill="#667085"/>
<path d="M15.4028 23.5453V27.6421C15.4028 27.901 15.6125 28.1108 15.8711 28.1108C16.1298 28.1108 16.3395 27.901 16.3395 27.6421V23.5453C16.3395 23.2864 16.1298 23.0766 15.8711 23.0766C15.6124 23.0766 15.4028 23.2864 15.4028 23.5453Z" fill="#667085"/>
<path d="M25.3408 0.95375C23.6812 0.338688 21.4844 0 19.155 0C16.8256 0 14.6288 0.338688 12.9691 0.95375C11.1632 1.623 10.1685 2.57181 10.1685 3.62538V9.34431L6.19478 5.36688C5.9229 5.09481 5.38158 4.87037 4.34633 5.34662C3.68043 5.65294 2.94216 6.19356 2.26746 6.86888C1.59269 7.54425 1.05262 8.28319 0.746586 8.94963C0.271329 9.98463 0.494502 10.5264 0.766006 10.7989L0.76688 10.7999L4.57993 14.6163C4.67134 14.7078 4.79124 14.7536 4.91107 14.7536C5.03089 14.7536 5.15078 14.7078 5.2422 14.6163C5.4251 14.4332 5.4251 14.1364 5.2422 13.9534L2.25572 10.9643C2.36868 10.9256 2.48782 10.8787 2.61527 10.8201C3.28117 10.5139 4.01943 9.97325 4.69414 9.29794C5.3689 8.6225 5.90904 7.88356 6.21501 7.21712C6.27339 7.09 6.3211 6.97044 6.35956 6.85781L10.3057 10.8075C10.3953 10.8972 10.5151 10.9447 10.6369 10.9447C10.6973 10.9447 10.7581 10.9331 10.8161 10.9091C10.9911 10.8366 11.1052 10.6656 11.1052 10.476V5.29294C11.5671 5.67 12.193 6.00938 12.9692 6.297C14.6288 6.912 16.8256 7.25069 19.155 7.25069C21.4844 7.25069 23.6813 6.912 25.3409 6.297C26.1171 6.00938 26.7429 5.66994 27.2049 5.29294V10.0708C27.2049 10.3297 27.4146 10.5395 27.6732 10.5395C27.9318 10.5395 28.1415 10.3297 28.1415 10.0708V3.62538C28.1414 2.57175 27.1468 1.623 25.3408 0.95375ZM5.36397 6.82556C5.10695 7.38531 4.62139 8.04488 4.03186 8.63488C3.44233 9.22494 2.78343 9.711 2.22412 9.96825C1.68567 10.2159 1.45014 10.1578 1.42916 10.1368C1.40824 10.1159 1.35016 9.88 1.59763 9.34106C1.85465 8.78131 2.34021 8.12181 2.92973 7.53181C3.51926 6.94175 4.17817 6.45569 4.73747 6.19844C5.07229 6.04437 5.29003 6.00863 5.4118 6.00863C5.48592 6.00863 5.52451 6.02187 5.53244 6.02981C5.55342 6.05075 5.61143 6.28669 5.36397 6.82556ZM25.0156 5.41781C23.4575 5.99519 21.3762 6.31319 19.155 6.31319C16.9338 6.31319 14.8524 5.99519 13.2943 5.41781C11.9235 4.90987 11.1051 4.23975 11.1051 3.62538C11.1051 3.011 11.9235 2.34087 13.2943 1.83288C14.8525 1.2555 16.9338 0.9375 19.155 0.9375C21.3762 0.9375 23.4575 1.2555 25.0156 1.83288C26.3864 2.34087 27.2048 3.011 27.2048 3.62538C27.2048 4.23975 26.3864 4.90987 25.0156 5.41781Z" fill="#667085"/>
<path d="M19.155 1.54938C16.767 1.54938 14.3496 2.26244 14.3496 3.62538C14.3496 4.98825 16.767 5.70131 19.155 5.70131C21.5429 5.70131 23.9604 4.98825 23.9604 3.62538C23.9604 2.26244 21.5429 1.54938 19.155 1.54938ZM19.155 4.76381C16.755 4.76381 15.2862 4.02675 15.2862 3.62538C15.2862 3.224 16.755 2.48688 19.155 2.48688C21.5549 2.48688 23.0237 3.224 23.0237 3.62538C23.0237 4.02675 21.5549 4.76381 19.155 4.76381Z" fill="#667085"/>
<path d="M20.0871 3.15663H18.2229C17.9642 3.15663 17.7546 3.36644 17.7546 3.62538C17.7546 3.88425 17.9642 4.09412 18.2229 4.09412H20.0871C20.3457 4.09412 20.5554 3.88431 20.5554 3.62538C20.5554 3.36644 20.3457 3.15663 20.0871 3.15663Z" fill="#667085"/>
<path d="M27.6731 11.6448C27.4144 11.6448 27.2048 11.8546 27.2048 12.1136V28.3746C27.2048 28.989 26.3864 29.6591 25.0155 30.1671C23.4575 30.7445 21.3762 31.0625 19.155 31.0625C16.9338 31.0625 14.8525 30.7445 13.2943 30.1671C11.9235 29.6591 11.1051 28.989 11.1051 28.3746V24.5667C11.1051 24.3078 10.8955 24.0979 10.6368 24.0979C10.3782 24.0979 10.1685 24.3078 10.1685 24.5667V28.3746C10.1685 29.4282 11.1631 30.377 12.9691 31.0462C14.6288 31.6613 16.8256 32 19.155 32C21.4844 32 23.6812 31.6613 25.3408 31.0462C27.1468 30.377 28.1415 29.4282 28.1415 28.3746V12.1136C28.1414 11.8547 27.9317 11.6448 27.6731 11.6448Z" fill="#667085"/>
</svg>
