<svg width="40" height="40" viewBox="0 0 40 40" fill="none" xmlns="http://www.w3.org/2000/svg">
<path d="M34.9155 16.9908L34.1639 21.6368L32.3952 20.9024C31.2899 20.4528 30.0518 20.4528 28.9317 20.9024L24.0238 22.9406C23.3606 23.2254 22.8006 24.0496 22.8006 24.814V28.7405C22.8006 30.9886 23.6112 33.1617 25.0113 34.9151H8.85803C6.44094 34.9151 4.17122 32.9668 3.75855 30.539L1.53305 16.9908C1.25302 15.3273 2.07837 13.0792 3.39009 12.0152L14.9892 2.58843C16.7726 1.1347 19.6613 1.1347 21.4446 2.60342L33.0585 12.0302C34.3407 13.0942 35.1955 15.3273 34.9155 17.0058V16.9908Z" stroke="#1AA998" stroke-width="2" stroke-linecap="round" stroke-linejoin="round"/>
<path d="M38.5266 24.8191V28.7457C38.5266 33.1218 35.3874 37.2432 31.1132 38.4572C30.8185 38.5321 30.4942 38.5321 30.2142 38.4572C28.1361 37.8877 26.2938 36.5838 25.0115 34.9203C23.6114 33.1668 22.8008 30.9937 22.8008 28.7457V24.8191C22.8008 24.0697 23.3461 23.2455 24.0241 22.9457L28.932 20.9075C30.0373 20.4579 31.2754 20.4579 32.3955 20.9075L34.1641 21.6419L37.3181 22.9457C37.9813 23.2305 38.5414 24.0548 38.5414 24.8191H38.5266Z" stroke="#DFB64B" stroke-width="2" stroke-linecap="round" stroke-linejoin="round"/>
</svg>
