<svg width="24" height="24" viewBox="0 0 24 24" fill="none" xmlns="http://www.w3.org/2000/svg">
<path d="M6.70117 9.26562L12.0012 12.3356L17.2612 9.28562" stroke="#344054" stroke-width="2" stroke-linecap="round" stroke-linejoin="round"/>
<path d="M12 17.7781V12.3281" stroke="#344054" stroke-width="2" stroke-linecap="round" stroke-linejoin="round"/>
<path d="M10.7603 6.29376L7.56024 8.07376C6.84024 8.47376 6.24023 9.48376 6.24023 10.3138V13.7038C6.24023 14.5338 6.83024 15.5438 7.56024 15.9438L10.7603 17.7238C11.4403 18.1038 12.5602 18.1038 13.2502 17.7238L16.4503 15.9438C17.1703 15.5438 17.7702 14.5338 17.7702 13.7038V10.3038C17.7702 9.47377 17.1803 8.46376 16.4503 8.06376L13.2502 6.28376C12.5602 5.90376 11.4403 5.90376 10.7603 6.29376Z" stroke="#344054" stroke-width="2" stroke-linecap="round" stroke-linejoin="round"/>
<path d="M22 15C22 18.87 18.87 22 15 22L16.05 20.25" stroke="#344054" stroke-width="2" stroke-linecap="round" stroke-linejoin="round"/>
<path d="M2 9C2 5.13 5.13 2 9 2L7.95001 3.75" stroke="#344054" stroke-width="2" stroke-linecap="round" stroke-linejoin="round"/>
</svg>
