<svg width="26" height="26" viewBox="0 0 26 26" fill="none" xmlns="http://www.w3.org/2000/svg">
<path fill-rule="evenodd" clip-rule="evenodd" d="M0.857422 13.1092C0.857422 6.34179 6.34765 0.851562 13.1151 0.851562C19.8826 0.851562 25.3728 6.34179 25.3728 13.1092C25.3728 19.8767 19.8826 25.3669 13.1151 25.3669C6.34765 25.3669 0.857422 19.8767 0.857422 13.1092ZM13.1151 2.73736C7.38915 2.73736 2.74322 7.38329 2.74322 13.1092C2.74322 18.8352 7.38915 23.4811 13.1151 23.4811C18.8411 23.4811 23.487 18.8352 23.487 13.1092C23.487 7.38329 18.8411 2.73736 13.1151 2.73736Z" fill="#667085"/>
<path fill-rule="evenodd" clip-rule="evenodd" d="M7.45898 13.1148C7.45898 12.594 7.88113 12.1719 8.40188 12.1719H17.8309C18.3516 12.1719 18.7738 12.594 18.7738 13.1148C18.7738 13.6355 18.3516 14.0577 17.8309 14.0577H8.40188C7.88113 14.0577 7.45898 13.6355 7.45898 13.1148Z" fill="#667085"/>
</svg>
