<svg width="80" height="80" viewBox="0 0 80 80" fill="none" xmlns="http://www.w3.org/2000/svg">
<path d="M40 80C62.0914 80 80 62.0914 80 40C80 17.9086 62.0914 0 40 0C17.9086 0 0 17.9086 0 40C0 62.0914 17.9086 80 40 80Z" fill="url(#paint0_linear_837_34994)"/>
<path d="M62.2061 39.3078H58.0375C57.2705 39.3078 56.6498 39.9283 56.6498 40.695C56.6498 41.4617 57.2705 42.0822 58.0375 42.0822H62.2061C62.9731 42.0822 63.5938 41.4617 63.5938 40.695C63.5938 39.9283 62.9731 39.3078 62.2061 39.3078ZM23.3502 40.695C23.3502 39.9283 22.7295 39.3078 21.9625 39.3078H17.7939C17.0269 39.3078 16.4062 39.9283 16.4062 40.695C16.4062 41.4617 17.0269 42.0822 17.7939 42.0822H21.9625C22.7295 42.0822 23.3502 41.4617 23.3502 40.695ZM40 24.0509C40.767 24.0509 41.3877 23.4305 41.3877 22.6638V18.4966C41.3877 17.7298 40.767 17.1094 40 17.1094C39.233 17.1094 38.6123 17.7298 38.6123 18.4966V22.6638C38.6123 23.4305 39.233 24.0509 40 24.0509ZM29.7819 25.7728C30.16 26.4344 31.0094 26.6636 31.6764 26.2808C32.3405 25.8973 32.5681 25.0494 32.1833 24.3855L30.0991 20.7766C29.7169 20.1088 28.8658 19.8866 28.2045 20.2686C27.5405 20.652 27.3128 21.5 27.6977 22.1639L29.7819 25.7728ZM25.0741 30.4777L21.4639 28.3941C20.7998 28.0147 19.9488 28.2395 19.5694 28.902C19.1845 29.5658 19.4122 30.4139 20.0763 30.7973L23.6864 32.8809C24.3563 33.2653 25.2034 33.0314 25.5809 32.373C25.9658 31.7091 25.7381 30.8611 25.0741 30.4777ZM59.9239 50.5925L56.3137 48.5091C55.6525 48.1311 54.8014 48.3545 54.4192 49.017C54.0344 49.6808 54.262 50.5289 54.9261 50.9123L58.5362 52.9958C59.2061 53.3802 60.0533 53.1462 60.4308 52.4878C60.8156 51.8239 60.588 50.9759 59.9239 50.5925ZM23.6862 48.5091L20.0761 50.5925C19.412 50.9759 19.1844 51.8239 19.5692 52.4878C19.9473 53.1494 20.7967 53.3786 21.4637 52.9958L25.0739 50.9123C25.738 50.5289 25.9656 49.6809 25.5808 49.017C25.1986 48.3505 24.3477 48.1269 23.6862 48.5091ZM56.3137 32.8809L59.9239 30.7973C60.588 30.4139 60.8156 29.5659 60.4308 28.902C60.0486 28.2342 59.2003 28.0106 58.5362 28.3941L54.9261 30.4777C54.262 30.8611 54.0344 31.7091 54.4192 32.373C54.7973 33.0345 55.6467 33.2638 56.3137 32.8809ZM48.3262 26.2808C48.9961 26.6652 49.8433 26.4312 50.2208 25.7728L52.305 22.1639C52.6898 21.5002 52.4622 20.652 51.7981 20.2686C51.1367 19.8906 50.2858 20.1142 49.9036 20.7766L47.8194 24.3855C47.4345 25.0494 47.6622 25.8973 48.3262 26.2808ZM48.7436 29.9209C45.4803 27.2711 41.2033 26.2605 37.0131 27.137C31.6358 28.2628 27.3561 32.6683 26.3614 38.0994C25.2908 43.968 27.9659 49.708 33.0641 52.6531V54.5673H46.9411V52.6531C51.2425 50.1686 53.8795 45.6614 53.8795 40.695C53.8798 36.4967 52.0069 32.5694 48.7436 29.9209ZM40.0027 49.0183C39.2362 49.0183 38.615 48.3972 38.615 47.6311C38.615 46.8648 39.2364 46.2439 40.0027 46.2439C40.7689 46.2439 41.3903 46.8648 41.3903 47.6311C41.3905 48.3972 40.7691 49.0183 40.0027 49.0183ZM42.0842 40.1369C41.6559 40.3848 41.3903 40.8467 41.3903 41.3398V42.0822C41.3903 42.8489 40.7697 43.4694 40.0027 43.4694C39.2356 43.4694 38.615 42.8489 38.615 42.0822V41.3398C38.615 39.8591 39.4119 38.4787 40.6939 37.7362C41.1248 37.4883 41.3905 37.0277 41.3905 36.5333C41.3905 35.7678 40.767 35.1461 40.0028 35.1461C39.2386 35.1461 38.6152 35.7678 38.6152 36.5333C38.6152 37.3 37.9945 37.9205 37.2275 37.9205C36.4605 37.9205 35.8398 37.3 35.8398 36.5333C35.8398 34.2384 37.7073 32.3716 40.003 32.3716C42.2986 32.3716 44.1661 34.2384 44.1661 36.5333C44.1658 38.0141 43.3691 39.3958 42.0842 40.1369ZM33.0642 58.7289C33.0642 61.0238 34.9317 62.8906 37.2273 62.8906H42.7781C45.0737 62.8906 46.9413 61.0238 46.9413 58.7289V57.3417H33.0642V58.7289Z" fill="url(#paint1_linear_837_34994)"/>
<defs>
<linearGradient id="paint0_linear_837_34994" x1="40" y1="80" x2="40" y2="0" gradientUnits="userSpaceOnUse">
<stop stop-color="#FFE59A"/>
<stop offset="1" stop-color="#FFFFD5"/>
</linearGradient>
<linearGradient id="paint1_linear_837_34994" x1="40" y1="62.8906" x2="40" y2="17.1094" gradientUnits="userSpaceOnUse">
<stop stop-color="#FFDE00"/>
<stop offset="1" stop-color="#FD5900"/>
</linearGradient>
</defs>
</svg>
