<svg width="47" height="16" viewBox="0 0 47 16" fill="none" xmlns="http://www.w3.org/2000/svg">
<path d="M6.24753 0.986239C4.69227 0.417739 3.14215 0.678301 1.88043 1.73003C1.02555 2.54014 0.603257 3.37868 0.556908 4.38303C0.551758 4.51568 0.551758 4.65307 0.551758 4.78572V5.85165C0.551758 5.88955 0.551758 5.92272 0.551758 5.96062H2.40057C2.40057 5.82323 2.40057 5.6811 2.40057 5.54372C2.40057 5.32105 2.40057 4.62938 2.41087 4.41145C2.46752 3.44026 3.22455 2.63489 4.25453 2.45486C4.94976 2.33169 5.65015 2.4975 6.18574 2.90493C6.72132 3.31235 7.02517 3.91875 7.02517 4.56779V6.00799H8.87398C8.88428 5.63373 8.89458 4.78098 8.86368 4.38777C8.75038 2.75333 7.83885 1.57843 6.23724 0.986239H6.24753Z" fill="white"/>
<path d="M8.81733 9.93064H7.03032V11.3566C7.03032 12.0057 6.72647 12.6121 6.19089 13.0195C5.6553 13.4269 4.95491 13.5927 4.25968 13.4696C3.2297 13.2895 2.47267 12.4842 2.41602 11.513C2.40572 11.295 2.40572 11.0771 2.40572 10.8545C2.40572 10.6934 2.40572 10.0586 2.40572 9.89748V9.888H0.556908C0.556908 9.94959 0.551758 10.0112 0.556908 10.0728V11.1387C0.556908 11.2761 0.556908 11.4087 0.562058 11.5414C0.608407 12.541 1.03585 13.389 1.90103 14.2086C2.70441 14.8766 3.65199 15.2319 4.64077 15.2319C5.17121 15.2319 5.71195 15.1324 6.24238 14.9382C7.844 14.346 8.75553 13.1711 8.86883 11.5367C8.89458 11.1624 8.88943 10.3191 8.87913 9.93064H8.81218H8.81733Z" fill="white"/>
<path d="M3.88374 11.0819H5.67075C5.67075 11.0819 5.67075 11.0724 5.67075 11.0676C5.6759 10.0301 5.6759 8.6373 5.6759 7.59979V5.78533C5.6759 5.66215 5.6759 5.04628 5.6759 4.65306H3.75499V10.376C3.75499 10.4944 3.75499 10.9682 3.75499 11.0866H3.87859L3.88374 11.0819Z" fill="white"/>
<path d="M24.435 13.2374L16.7617 0.905702H14.1198V15.303H16.015V3.1797L23.575 15.303H26.3302V0.905702H24.435V13.2374Z" fill="white"/>
<path d="M38.3809 7.43872H33.2825V9.10158H38.3809V7.43872Z" fill="white"/>
<path d="M28.9515 0.905702V15.303H30.8466V2.6112H40.9713V15.3077H42.8665V2.6112H46.3839V0.905702H28.9515Z" fill="white"/>
</svg>
