<svg width="22" height="22" viewBox="0 0 22 22" fill="none" xmlns="http://www.w3.org/2000/svg">
<path d="M11 14C12.6569 14 14 12.6569 14 11C14 9.34315 12.6569 8 11 8C9.34315 8 8 9.34315 8 11C8 12.6569 9.34315 14 11 14Z" stroke="#344054" stroke-width="1.5" stroke-miterlimit="10" stroke-linecap="round" stroke-linejoin="round"/>
<path d="M1 11.8814V10.1214C1 9.0814 1.85 8.2214 2.9 8.2214C4.71 8.2214 5.45 6.9414 4.54 5.3714C4.02 4.4714 4.33 3.3014 5.24 2.7814L6.97 1.7914C7.76 1.3214 8.78 1.6014 9.25 2.3914L9.36 2.5814C10.26 4.1514 11.74 4.1514 12.65 2.5814L12.76 2.3914C13.23 1.6014 14.25 1.3214 15.04 1.7914L16.77 2.7814C17.68 3.3014 17.99 4.4714 17.47 5.3714C16.56 6.9414 17.3 8.2214 19.11 8.2214C20.15 8.2214 21.01 9.0714 21.01 10.1214V11.8814C21.01 12.9214 20.16 13.7814 19.11 13.7814C17.3 13.7814 16.56 15.0614 17.47 16.6314C17.99 17.5414 17.68 18.7014 16.77 19.2214L15.04 20.2114C14.25 20.6814 13.23 20.4014 12.76 19.6114L12.65 19.4214C11.75 17.8514 10.27 17.8514 9.36 19.4214L9.25 19.6114C8.78 20.4014 7.76 20.6814 6.97 20.2114L5.24 19.2214C4.33 18.7014 4.02 17.5314 4.54 16.6314C5.45 15.0614 4.71 13.7814 2.9 13.7814C1.85 13.7814 1 12.9214 1 11.8814Z" stroke="#344054" stroke-width="1.5" stroke-miterlimit="10" stroke-linecap="round" stroke-linejoin="round"/>
</svg>
