<svg width="32" height="46" viewBox="0 0 32 46" fill="none" xmlns="http://www.w3.org/2000/svg">
<path d="M29.1034 25.3359H26.8046C26.6778 25.3359 26.5747 25.2352 26.5747 25.1113V22.8652C26.5747 21.9983 25.8528 21.293 24.9655 21.293H22.6667C22.5399 21.293 22.4368 21.1923 22.4368 21.0684V18.8223C22.4368 17.9554 21.7149 17.25 20.8276 17.25H18.069V16.2201C21.9754 15.7251 25.5279 13.8484 28.1265 10.8912C28.3746 10.6088 28.3415 10.1834 28.0525 9.94103C27.7634 9.69845 27.328 9.73116 27.08 10.0134C24.7443 12.6715 21.567 14.3748 18.069 14.8609V13.6722C21.1018 13.2102 23.887 11.736 25.9653 9.48013C28.1965 7.0583 29.4253 3.93075 29.4253 0.673828C29.4253 0.301605 29.1166 0 28.7356 0C28.3547 0 28.046 0.301605 28.046 0.673828C28.046 6.4807 23.7775 11.3701 18.008 12.3163C17.7846 11.4359 16.9692 10.7812 16 10.7812C15.0314 10.7812 14.2164 11.4352 13.9924 12.3149C11.8592 11.9632 9.86998 11.057 8.20423 9.66773C7.91457 9.42605 7.47917 9.45965 7.232 9.74275C6.98474 10.0258 7.01913 10.4511 7.30878 10.6927C9.2092 12.2777 11.488 13.2996 13.9311 13.6709V14.8602C6.83504 13.8645 1.37931 7.7705 1.37931 0.673828C1.37931 0.301605 1.07062 0 0.689655 0C0.30869 0 0 0.301605 0 0.673828C0 4.60602 1.49793 8.36939 4.21793 11.2707C6.78106 14.0048 10.2108 15.7471 13.931 16.22V17.25H11.1724C10.2851 17.25 9.56322 17.9554 9.56322 18.8223V21.0684C9.56322 21.1923 9.46014 21.293 9.33333 21.293H7.03448C6.14722 21.293 5.42529 21.9983 5.42529 22.8652V25.1113C5.42529 25.2352 5.32221 25.3359 5.1954 25.3359H2.89655C2.00929 25.3359 1.28736 26.0413 1.28736 26.9082V36.3418C1.28736 37.2087 2.00929 37.9141 2.89655 37.9141H5.1954C5.32221 37.9141 5.42529 38.0148 5.42529 38.1387V40.3848C5.42529 41.2517 6.14722 41.957 7.03448 41.957H9.33333C9.46014 41.957 9.56322 42.0577 9.56322 42.1816V44.4277C9.56322 45.2946 10.2851 46 11.1724 46H20.8276C21.7149 46 22.4368 45.2946 22.4368 44.4277V42.1816C22.4368 42.0577 22.5399 41.957 22.6667 41.957H24.9655C25.8528 41.957 26.5747 41.2517 26.5747 40.3848V38.1387C26.5747 38.0148 26.6778 37.9141 26.8046 37.9141H29.1034C29.9907 37.9141 30.7126 37.2087 30.7126 36.3418V26.9082C30.7126 26.0413 29.9907 25.3359 29.1034 25.3359ZM20.8276 18.5977C20.9544 18.5977 21.0575 18.6984 21.0575 18.8223V21.0684C21.0575 21.9353 21.7794 22.6406 22.6667 22.6406H24.9655C25.0923 22.6406 25.1954 22.7413 25.1954 22.8652V25.1113C25.1954 25.9782 25.9173 26.6836 26.8046 26.6836H29.1034C29.2303 26.6836 29.3333 26.7843 29.3333 26.9082V29.6035H26.2824C25.9014 29.6035 25.5927 29.9051 25.5927 30.2773C25.5927 30.6496 25.9014 30.9512 26.2824 30.9512H29.3333V32.2988H19.6124C19.655 32.0804 19.6782 31.8554 19.6782 31.625C19.6782 31.3946 19.655 31.1696 19.6124 30.9512H23.0641C23.4451 30.9512 23.7537 30.6496 23.7537 30.2773C23.7537 29.9051 23.4451 29.6035 23.0641 29.6035H19.0393C18.7792 29.2316 18.4497 28.9096 18.069 28.6555V24.9243C18.6351 24.3927 18.9885 23.6462 18.9885 22.8202C18.9885 22.0207 18.6494 21.2597 18.0665 20.7128C18.0729 20.6407 18.0669 18.721 18.069 18.5976H20.8276V18.5977ZM17.4217 22.0857C17.5428 22.3094 17.6092 22.5611 17.6092 22.8203C17.6092 23.6872 16.8873 24.3926 16 24.3926C15.1127 24.3926 14.3908 23.6872 14.3908 22.8203C14.3908 22.5612 14.4573 22.3096 14.5784 22.0858C14.9494 22.4292 15.4497 22.6406 16 22.6406C16.5503 22.6406 17.0507 22.4292 17.4217 22.0857ZM16 25.7402C16.2374 25.7402 16.4681 25.7122 16.6897 25.6609V28.0956C16.4661 28.054 16.2358 28.0313 16 28.0313C15.7642 28.0313 15.5339 28.054 15.3103 28.0956V25.6609C15.5319 25.7122 15.7626 25.7402 16 25.7402ZM16 33.8711C14.7324 33.8711 13.7011 32.8635 13.7011 31.625C13.7011 30.3865 14.7324 29.3789 16 29.3789C17.2676 29.3789 18.2989 30.3865 18.2989 31.625C18.2989 32.8635 17.2676 33.8711 16 33.8711ZM16 35.2188C16.2358 35.2188 16.4661 35.1961 16.6897 35.1545V44.6523H15.3103V35.1545C15.5339 35.1961 15.7642 35.2188 16 35.2188ZM15.3103 12.8027C15.3103 12.4311 15.6197 12.1289 16 12.1289C16.3803 12.1289 16.6897 12.4311 16.6897 12.8027V20.6191C16.6897 20.9907 16.3803 21.293 16 21.293C15.6197 21.293 15.3103 20.9907 15.3103 20.6191V12.8027ZM2.89655 26.6836H5.1954C6.08267 26.6836 6.8046 25.9782 6.8046 25.1113V22.8652C6.8046 22.7413 6.90768 22.6406 7.03448 22.6406H9.33333C10.2206 22.6406 10.9425 21.9353 10.9425 21.0684V18.8223C10.9425 18.6984 11.0456 18.5977 11.1724 18.5977H13.931C13.933 18.7422 13.9271 20.6158 13.9335 20.713C13.3506 21.2599 13.0115 22.0211 13.0115 22.8203C13.0115 23.6463 13.3649 24.3927 13.931 24.9244V28.6556C13.5503 28.9097 13.2208 29.2316 12.9607 29.6036H2.66667V26.9083C2.66667 26.7843 2.76975 26.6836 2.89655 26.6836ZM10.9425 44.4277V42.1816C10.9425 41.3147 10.2206 40.6094 9.33333 40.6094H7.03448C6.90768 40.6094 6.8046 40.5087 6.8046 40.3848V38.1387C6.8046 37.2718 6.08267 36.5664 5.1954 36.5664H2.89655C2.76975 36.5664 2.66667 36.4657 2.66667 36.3418V33.6465H6.25094C6.63191 33.6465 6.9406 33.3449 6.9406 32.9727C6.9406 32.6004 6.63191 32.2988 6.25094 32.2988H2.66667V30.9512H12.3876C12.345 31.1696 12.3218 31.3946 12.3218 31.625C12.3218 31.8554 12.345 32.0804 12.3876 32.2988H9.46924C9.08828 32.2988 8.77959 32.6004 8.77959 32.9727C8.77959 33.3449 9.08828 33.6465 9.46924 33.6465H12.9607C13.2208 34.0184 13.5503 34.3404 13.931 34.5945V44.6523H11.1724C11.0456 44.6523 10.9425 44.5516 10.9425 44.4277ZM29.1034 36.5664H26.8046C25.9173 36.5664 25.1954 37.2718 25.1954 38.1387V40.3848C25.1954 40.5087 25.0923 40.6094 24.9655 40.6094H22.6667C21.7794 40.6094 21.0575 41.3147 21.0575 42.1816V44.4277C21.0575 44.5516 20.9544 44.6523 20.8276 44.6523H18.069V34.5945C18.4497 34.3404 18.7792 34.0185 19.0393 33.6465H29.3333V36.3418C29.3333 36.4657 29.2303 36.5664 29.1034 36.5664Z" fill="#667085"/>
<path d="M29.1007 8.46104C29.2058 8.51728 29.3193 8.54387 29.4312 8.54387C29.675 8.54387 29.9114 8.41719 30.0368 8.19348C31.3211 5.90031 32 3.29996 32 0.673828C32 0.301605 31.6913 0 31.3103 0C30.9294 0 30.6207 0.301605 30.6207 0.673828C30.6207 3.07463 30.0004 5.45109 28.8268 7.54643C28.644 7.87292 28.7665 8.28243 29.1007 8.46104Z" fill="#667085"/>
<path d="M5.58097 8.51692C5.71779 8.51692 5.85609 8.47721 5.97664 8.39446C6.28837 8.18063 6.36368 7.76034 6.14474 7.45586C4.71154 5.46133 3.95402 3.11623 3.95402 0.673828C3.95402 0.301605 3.64533 0 3.26437 0C2.8834 0 2.57471 0.301605 2.57471 0.673828C2.57471 3.39475 3.41894 6.00767 5.016 8.23014C5.15016 8.41701 5.36386 8.51692 5.58097 8.51692Z" fill="#667085"/>
</svg>
