<svg width="52" height="51" viewBox="0 0 52 51" fill="none" xmlns="http://www.w3.org/2000/svg">
<path d="M10.3873 8.23522C11.5308 3.96749 15.9175 1.43483 20.1852 2.57836L43.3675 8.79002C47.6352 9.93356 50.1678 14.3203 49.0243 18.588L42.8126 41.7702C41.6691 46.0379 37.2824 48.5706 33.0147 47.4271L9.83247 41.2154C5.56474 40.0719 3.03208 35.6852 4.17562 31.4174L10.3873 8.23522Z" fill="#22CCEE"/>
<g filter="url(#filter0_b_5402_8442)">
<path d="M0.599976 23.8C0.599976 19.3196 0.599976 17.0794 1.47192 15.3681C2.23891 13.8628 3.46275 12.6389 4.96805 11.8719C6.67935 11 8.91956 11 13.4 11H27.8C32.2804 11 34.5206 11 36.2319 11.8719C37.7372 12.6389 38.961 13.8628 39.728 15.3681C40.6 17.0794 40.6 19.3196 40.6 23.8V38.2C40.6 42.6804 40.6 44.9206 39.728 46.6319C38.961 48.1372 37.7372 49.3611 36.2319 50.1281C34.5206 51 32.2804 51 27.8 51H13.4C8.91956 51 6.67935 51 4.96805 50.1281C3.46275 49.3611 2.23891 48.1372 1.47192 46.6319C0.599976 44.9206 0.599976 42.6804 0.599976 38.2V23.8Z" fill="white" fill-opacity="0.6"/>
<path d="M1.09998 23.8C1.09998 21.5515 1.10036 19.8953 1.20731 18.5863C1.31378 17.2832 1.52335 16.3685 1.91743 15.5951C2.63648 14.1839 3.78383 13.0365 5.19505 12.3175C5.96846 11.9234 6.88321 11.7138 8.18631 11.6073C9.49524 11.5004 11.1515 11.5 13.4 11.5H27.8C30.0484 11.5 31.7047 11.5004 33.0136 11.6073C34.3167 11.7138 35.2315 11.9234 36.0049 12.3175C37.4161 13.0365 38.5635 14.1839 39.2825 15.5951C39.6766 16.3685 39.8862 17.2832 39.9926 18.5863C40.0996 19.8953 40.1 21.5515 40.1 23.8V38.2C40.1 40.4485 40.0996 42.1047 39.9926 43.4137C39.8862 44.7168 39.6766 45.6315 39.2825 46.4049C38.5635 47.8161 37.4161 48.9635 36.0049 49.6825C35.2315 50.0766 34.3167 50.2862 33.0136 50.3927C31.7047 50.4996 30.0484 50.5 27.8 50.5H13.4C11.1515 50.5 9.49524 50.4996 8.18631 50.3927C6.88321 50.2862 5.96846 50.0766 5.19505 49.6825C3.78383 48.9635 2.63648 47.8161 1.91743 46.4049C1.52335 45.6315 1.31378 44.7168 1.20731 43.4137C1.10036 42.1047 1.09998 40.4485 1.09998 38.2V23.8Z" stroke="white" stroke-opacity="0.6"/>
<path d="M13.2417 27.1953L20.6 31.4536L27.9083 27.2203" stroke="white" stroke-width="1.5" stroke-linecap="round" stroke-linejoin="round"/>
<path d="M20.6 39.0037V31.4453" stroke="white" stroke-width="1.5" stroke-linecap="round" stroke-linejoin="round"/>
<path d="M18.875 23.0641L14.425 25.5391C13.4167 26.0974 12.5917 27.4974 12.5917 28.6474V33.3558C12.5917 34.5058 13.4167 35.9057 14.425 36.4641L18.875 38.9391C19.825 39.4641 21.3833 39.4641 22.3333 38.9391L26.7833 36.4641C27.7917 35.9057 28.6167 34.5058 28.6167 33.3558V28.6474C28.6167 27.4974 27.7917 26.0974 26.7833 25.5391L22.3333 23.0641C21.375 22.5307 19.825 22.5307 18.875 23.0641Z" stroke="white" stroke-width="1.5" stroke-linecap="round" stroke-linejoin="round"/>
<path d="M24.7667 32.0307V28.9808L16.8583 24.4141" stroke="white" stroke-width="1.5" stroke-linecap="round" stroke-linejoin="round"/>
</g>
<defs>
<filter id="filter0_b_5402_8442" x="-15.4" y="-5" width="72" height="72" filterUnits="userSpaceOnUse" color-interpolation-filters="sRGB">
<feFlood flood-opacity="0" result="BackgroundImageFix"/>
<feGaussianBlur in="BackgroundImageFix" stdDeviation="8"/>
<feComposite in2="SourceAlpha" operator="in" result="effect1_backgroundBlur_5402_8442"/>
<feBlend mode="normal" in="SourceGraphic" in2="effect1_backgroundBlur_5402_8442" result="shape"/>
</filter>
</defs>
</svg>
