<svg width="31" height="32" viewBox="0 0 31 32" fill="none" xmlns="http://www.w3.org/2000/svg">
<path d="M7.5341 32H23.5347C23.7469 32 23.9504 31.9157 24.1004 31.7657C24.2505 31.6156 24.3348 31.4121 24.3348 31.2V17.1274L25.3668 18.1675C25.5063 18.3058 25.6919 18.388 25.8881 18.3984C26.0844 18.4087 26.2776 18.3464 26.4308 18.2235L30.431 15.0233C30.5164 14.9567 30.5874 14.8734 30.6397 14.7785C30.6919 14.6836 30.7244 14.5791 30.735 14.4713C30.7442 14.363 30.7312 14.2539 30.6968 14.1507C30.6624 14.0475 30.6074 13.9525 30.535 13.8713L24.9348 7.47104C24.846 7.36998 24.7332 7.29294 24.6068 7.24703L20.2066 5.64696C20.1112 5.61488 20.0112 5.59867 19.9106 5.59896H16.3344V4.66293C16.7492 4.51627 17.1158 4.25842 17.3939 3.91756C17.6721 3.57669 17.8512 3.16593 17.9117 2.73014C17.9722 2.29436 17.9118 1.85034 17.737 1.44659C17.5622 1.04283 17.2798 0.694895 16.9206 0.44079C16.5615 0.186684 16.1394 0.0361893 15.7005 0.00575151C15.2616 -0.0246863 14.8227 0.0661041 14.4319 0.268201C14.0411 0.470298 13.7134 0.775924 13.4846 1.15168C13.2557 1.52744 13.1346 1.95888 13.1343 2.39884C13.1343 2.61102 13.2186 2.81451 13.3686 2.96454C13.5187 3.11458 13.7222 3.19887 13.9344 3.19887C14.1465 3.19887 14.35 3.11458 14.5001 2.96454C14.6501 2.81451 14.7344 2.61102 14.7344 2.39884C14.7344 2.24061 14.7813 2.08593 14.8692 1.95436C14.9571 1.8228 15.0821 1.72026 15.2283 1.6597C15.3744 1.59915 15.5353 1.58331 15.6905 1.61418C15.8457 1.64505 15.9882 1.72124 16.1001 1.83313C16.212 1.94502 16.2882 2.08757 16.3191 2.24276C16.3499 2.39795 16.3341 2.55881 16.2735 2.705C16.213 2.85118 16.1105 2.97613 15.9789 3.06404C15.8473 3.15195 15.6926 3.19887 15.5344 3.19887C15.3222 3.19887 15.1187 3.28316 14.9687 3.43319C14.8187 3.58323 14.7344 3.78672 14.7344 3.9989V5.59896H11.1502C11.0523 5.59925 10.955 5.61546 10.8622 5.64696L6.46206 7.24703C6.33563 7.29294 6.22281 7.36998 6.13405 7.47104L0.533826 13.8713C0.46225 13.9522 0.407801 14.0468 0.373763 14.1493C0.339724 14.2518 0.3268 14.3602 0.335771 14.4678C0.344742 14.5755 0.375422 14.6802 0.42596 14.7757C0.476499 14.8711 0.545849 14.9554 0.62983 15.0233L4.62999 18.2235C4.78382 18.3487 4.9787 18.4123 5.1768 18.402C5.37489 18.3916 5.56208 18.308 5.70203 18.1675L6.73407 17.1274V31.2C6.73407 31.4121 6.81836 31.6156 6.96839 31.7657C7.11843 31.9157 7.32192 32 7.5341 32ZM19.0946 7.19903C18.993 8.07201 18.5743 8.87726 17.9179 9.46171C17.2615 10.0462 16.4133 10.3691 15.5344 10.3691C14.6555 10.3691 13.8073 10.0462 13.1509 9.46171C12.4946 8.87726 12.0758 8.07201 11.9743 7.19903H19.0946ZM5.078 16.5274L2.28589 14.2953L7.19809 8.69508L10.3982 7.53504C10.5685 8.77847 11.1834 9.91816 12.1291 10.7432C13.0748 11.5683 14.2874 12.0229 15.5424 12.0229C16.7975 12.0229 18.01 11.5683 18.9557 10.7432C19.9015 9.91816 20.5164 8.77847 20.6866 7.53504L23.8867 8.69508L28.7989 14.2953L26.0068 16.5274L24.1188 14.6313C24.0063 14.5203 23.8634 14.4451 23.7082 14.4152C23.553 14.3853 23.3924 14.402 23.2467 14.4633C23.0976 14.5208 22.9692 14.6217 22.8779 14.7529C22.7867 14.884 22.7368 15.0395 22.7347 15.1993V30.3999H8.33413V15.1993C8.33334 15.0414 8.28582 14.8872 8.19755 14.7562C8.10928 14.6253 7.98421 14.5233 7.83811 14.4633C7.69242 14.402 7.53184 14.3853 7.37664 14.4152C7.22145 14.4451 7.07858 14.5203 6.96608 14.6313L5.078 16.5274Z" fill="#667085"/>
</svg>
