<svg width="38" height="34" viewBox="0 0 38 34" fill="none" xmlns="http://www.w3.org/2000/svg">
<path d="M35.4383 26.8542V9.15433C36.58 8.5467 37.3172 7.35232 37.3172 6.04021C37.3172 4.09286 35.7214 2.50858 33.7598 2.50858C32.438 2.50858 31.2348 3.24046 30.6227 4.37386H24.4912L19.2384 0.634403C18.9867 0.455199 18.6479 0.455199 18.3962 0.634403L13.1433 4.37386H7.01181C6.39973 3.24046 5.19651 2.50858 3.87478 2.50858C1.91322 2.50858 0.317383 4.09286 0.317383 6.04021C0.317383 7.35225 1.05463 8.5467 2.19628 9.15433V26.8543C1.05456 27.4619 0.317383 28.6563 0.317383 29.9684C0.317383 31.9158 1.91322 33.5 3.87485 33.5C5.19659 33.5 6.3998 32.7681 7.01189 31.6347H30.6229C31.235 32.7681 32.4383 33.5 33.7599 33.5C35.7215 33.5 37.3174 31.9158 37.3174 29.9684C37.3172 28.6563 36.58 27.4618 35.4383 26.8542ZM18.8173 2.10024L22.0111 4.37386H15.6235L18.8173 2.10024ZM33.7598 32.0652C32.87 32.0652 32.0706 31.5067 31.7707 30.6754C31.6678 30.3901 31.3955 30.1999 31.0904 30.1999H6.54426C6.23908 30.1999 5.96679 30.3901 5.86388 30.6754C5.56405 31.5067 4.76466 32.0652 3.87485 32.0652C2.71016 32.0652 1.76269 31.1246 1.76269 29.9684C1.76269 29.085 2.32527 28.2915 3.16261 27.9938C3.44993 27.8916 3.64158 27.6214 3.64158 27.3184V8.69011C3.64158 8.38715 3.44986 8.11691 3.16261 8.01469C2.32527 7.71704 1.76269 6.92354 1.76269 6.04021C1.76269 4.88407 2.71016 3.94336 3.87485 3.94336C4.76466 3.94336 5.56405 4.50185 5.86388 5.33309C5.96679 5.61839 6.23901 5.80864 6.54426 5.80864H31.0904C31.3956 5.80864 31.6679 5.61839 31.7708 5.33316C32.0707 4.50185 32.87 3.94336 33.7599 3.94336C34.9245 3.94336 35.8721 4.884 35.8721 6.04021C35.8721 6.92354 35.3095 7.71704 34.4721 8.01469C34.1848 8.11684 33.9931 8.38715 33.9931 8.69011V27.3184C33.9931 27.6214 34.1848 27.8916 34.4721 27.9938C35.3094 28.2915 35.8721 29.085 35.8721 29.9684C35.8719 31.1246 34.9245 32.0652 33.7598 32.0652Z" fill="#667085"/>
<path d="M31.4637 7.60211H6.17087C5.77174 7.60211 5.44821 7.92336 5.44821 8.3195V27.689C5.44821 28.0852 5.77174 28.4064 6.17087 28.4064H31.4637C31.8629 28.4064 32.1864 28.0852 32.1864 27.689V8.3195C32.1864 7.92336 31.8629 7.60211 31.4637 7.60211ZM30.7411 26.9717H6.89352V9.03689H30.7411V26.9717Z" fill="#667085"/>
<path d="M18.8173 23.7434C22.6747 23.7434 26.2724 21.682 28.2062 18.3635C28.3357 18.1412 28.3357 17.8673 28.2062 17.645C26.2724 14.3266 22.6748 12.2651 18.8173 12.2651C14.9598 12.2651 11.3622 14.3266 9.42844 17.645C9.29894 17.8673 9.29894 18.1412 9.42844 18.3635C11.3623 21.682 14.9598 23.7434 18.8173 23.7434ZM18.8173 13.6999C22.0192 13.6999 25.0146 15.3389 26.7347 18.0043C25.0146 20.6697 22.0192 22.3086 18.8173 22.3086C15.6154 22.3086 12.62 20.6697 10.8999 18.0043C12.6201 15.3389 15.6154 13.6999 18.8173 13.6999Z" fill="#667085"/>
<path d="M18.8173 20.8738C20.4112 20.8738 21.7079 19.5865 21.7079 18.0043C21.7079 16.422 20.4112 15.1347 18.8173 15.1347C17.2234 15.1347 15.9267 16.422 15.9267 18.0043C15.9267 19.5865 17.2234 20.8738 18.8173 20.8738ZM18.8173 16.5695C19.6142 16.5695 20.2626 17.2131 20.2626 18.0043C20.2626 18.7954 19.6142 19.439 18.8173 19.439C18.0203 19.439 17.372 18.7954 17.372 18.0043C17.372 17.2131 18.0204 16.5695 18.8173 16.5695Z" fill="#667085"/>
</svg>
