<svg width="154" height="44" viewBox="0 0 154 44" fill="none" xmlns="http://www.w3.org/2000/svg">
<path d="M68.4241 22.6974C73.7889 21.5176 80.3631 17.4966 80.3631 12.4199C80.3631 8.22821 75.448 2.81001 68.3621 2.81001C63.1214 2.81001 57.0279 5.43373 55.9735 6.78439C55.0277 8.07296 56.2526 12.0318 56.8108 12.7615C57.1984 10.6346 60.8887 8.35241 65.5712 7.38987C64.1757 9.45468 61.881 14.9971 59.9273 20.3532C59.2606 20.524 58.7489 20.6947 58.4699 20.9121C58.3613 21.1915 58.5319 22.092 59.028 22.9303C57.5706 27.1221 56.5162 30.817 56.5162 31.8106C56.5162 33.5494 59.5862 34.9466 60.4235 34.9466C60.0824 34.0462 61.3693 29.575 63.1059 24.6691C63.447 24.5604 63.8346 24.3897 64.2843 24.1723C64.3463 24.1723 64.3928 24.1102 64.5014 24.0636C66.9512 29.0316 70.6414 35.0242 72.378 35.0242C73.2773 35.0242 76.1767 32.5092 76.5643 31.6709C75.3394 32.2919 72.0368 28.8764 68.4086 22.7285L68.4241 22.6974ZM64.796 20.0737C67.0287 14.4227 69.432 9.39258 70.4863 9.39258C70.3778 8.83369 68.8738 7.71589 67.7574 7.09489C68.5327 6.98622 69.3234 6.92412 70.1607 6.92412C74.006 6.92412 76.2387 7.93324 76.6884 9.71861C77.4636 12.5752 72.8896 17.8847 66.1449 20.3377C65.7573 20.229 65.3076 20.1203 64.8115 20.0582L64.796 20.0737Z" fill="#39BF87"/>
<path d="M105.931 12.3578C105.823 12.4199 105.202 14.0345 104.365 16.5496C100.954 23.986 97.2792 30.4133 96.8296 30.4133C96.5505 28.8453 100.349 16.7824 102.52 13.367C102.303 12.9167 100.07 11.5195 98.6747 11.5816C97.9924 11.6126 95.7132 17.3258 94.3177 22.7751C93.0773 24.8865 91.3407 27.4326 89.8677 29.1403C91.0927 21.3778 94.1162 14.9505 95.1085 13.3825C94.6588 12.7149 92.3796 11.5971 91.0306 11.5971C90.7515 11.5971 90.2554 12.3734 89.7437 13.6154C88.7359 12.777 87.573 12.0008 86.3326 11.6592C81.4795 10.3241 76.7814 26.6408 77.8513 31.2206C78.3474 33.5183 80.6422 34.4032 81.3709 34.4032C82.7044 34.4032 84.6115 30.2736 86.007 26.5166C85.8364 27.6344 85.7899 28.6901 85.7899 29.5284C85.7899 30.7083 88.1312 33.4407 89.4181 33.4407C90.2709 33.4407 91.8369 31.2206 93.2479 28.5814C93.1703 29.6216 93.1703 30.522 93.3254 31.2051C93.8216 33.5028 96.1163 34.3877 96.8451 34.3877C98.132 34.3877 99.8065 30.817 101.202 27.2307C99.9151 31.8106 98.5816 36.7941 97.7909 41.3739C97.5118 42.8799 100.582 44.0598 101.202 43.9977C101.202 38.626 106.613 21.7039 110.024 13.9259C109.683 13.3049 107.125 11.6903 105.947 12.3578H105.931ZM87.8521 18.7852C84.7821 25.2125 81.7741 30.4133 81.3709 30.4133C81.0918 28.8453 84.2239 18.2884 86.8442 15.556C87.4644 14.935 88.0692 14.8263 88.9064 15.6647C88.5653 16.6117 88.1777 17.6829 87.8521 18.8007V18.7852Z" fill="#39BF87"/>
<path d="M153.656 19.903C152.881 21.9678 149.749 27.06 147.454 29.575C148.4 24.0947 151.299 17.5587 152.477 15.4318C151.857 14.1432 149.469 12.8546 148.849 12.8546C147.795 12.8546 143.097 19.4993 140.414 25.4919C141.918 19.5148 144.105 14.5934 144.942 13.3049C144.492 12.6839 142.492 11.5661 141.097 11.5661C140.694 11.5661 139.717 13.724 138.693 16.6738C137.453 16.9998 136.43 17.2171 135.282 17.3258L135.112 16.0373C134.057 14.3606 132.538 11.7834 130.863 11.7834C125.948 11.7834 121.762 22.8527 121.762 28.7211C121.762 29.0006 121.793 29.28 121.824 29.5439C119.715 29.575 117.141 29.7302 114.614 29.5595C118.738 25.5385 122.878 20.0582 122.878 16.9377C122.708 15.882 121.142 13.367 119.808 12.2492C119.529 11.9076 119.188 11.6903 118.8 11.6282H118.692C115.002 11.6282 109.373 19.1733 109.311 20.6792C109.311 21.9678 111.327 23.5824 111.932 23.5824C111.59 22.8061 116.785 15.5405 119.017 14.2985C119.234 16.8135 114.335 24.8554 110.986 28.9385C110.428 28.7677 109.931 28.5969 109.42 28.3796C107.637 30.3357 106.908 33.5183 108.474 34.3101C109.203 34.0307 110.086 33.4718 111.048 32.6955C113.482 32.7887 119.188 31.3759 122.025 30.3202C122.894 33.0371 125.855 34.3722 127.127 34.3722C130.693 34.3722 134.554 26.1595 135.158 19.8409C136.151 19.5614 137.112 19.1578 138.011 18.7075C136.755 22.7285 135.608 27.5257 135.608 30.4599C135.608 31.6398 137.779 34.3722 139.019 34.3722C139.577 31.8572 143.593 23.4737 146.275 19.6235C144.88 23.365 143.422 27.6189 143.422 30.0718C143.422 31.0809 146.275 33.3165 147.671 33.3165C149.733 33.3165 155.485 20.1824 153.64 19.903H153.656ZM126.646 30.9101C126.258 30.9101 126.088 30.4133 126.088 29.575C126.088 26.3924 128.538 18.2884 130.615 15.7733C130.398 16.8911 130.166 17.9468 130.166 18.7852C130.166 19.7322 130.383 20.3532 131.003 20.4619C131.173 20.4619 131.499 20.4619 131.902 20.3998C130.848 25.4298 128.165 30.9101 126.661 30.9101H126.646Z" fill="#39BF87"/>
<path d="M0.821772 5.6045L0 40.7219C12.6987 39.8991 25.3974 39.0763 38.0961 38.2534C29.1496 34.6982 20.2032 31.1585 11.2567 27.6033C7.78358 20.26 4.31043 12.9323 0.821772 5.6045Z" fill="#39BF87"/>
<path d="M20.5753 26.8116C24.3896 17.8692 28.1883 8.94236 32.0026 0C23.3352 0.993596 14.6834 2.00272 6.01599 2.99631C10.5125 4.99903 15.009 6.98622 19.5055 8.98893C19.8621 14.935 20.2032 20.8655 20.5598 26.8116H20.5753Z" fill="#39BF87"/>
</svg>
