<svg width="20" height="22" viewBox="0 0 20 22" fill="none" xmlns="http://www.w3.org/2000/svg">
<path d="M18.5 6.27442L9.99997 10.9966M9.99997 10.9966L1.49997 6.27442M9.99997 10.9966L10 20.4967M19 15.0552V6.93811C19 6.59547 19 6.42415 18.9495 6.27135C18.9049 6.13617 18.8318 6.01209 18.7354 5.9074C18.6263 5.78906 18.4766 5.70586 18.177 5.53946L10.777 1.42835C10.4934 1.27079 10.3516 1.19201 10.2015 1.16113C10.0685 1.13379 9.93146 1.13379 9.79855 1.16113C9.64838 1.19201 9.50658 1.27079 9.22297 1.42835L1.82297 5.53946C1.52345 5.70586 1.37369 5.78907 1.26463 5.9074C1.16816 6.01209 1.09515 6.13617 1.05048 6.27135C1 6.42415 1 6.59547 1 6.93811V15.0552C1 15.3979 1 15.5692 1.05048 15.722C1.09515 15.8572 1.16816 15.9812 1.26463 16.0859C1.37369 16.2043 1.52345 16.2875 1.82297 16.4539L9.22297 20.565C9.50658 20.7225 9.64838 20.8013 9.79855 20.8322C9.93146 20.8595 10.0685 20.8595 10.2015 20.8322C10.3516 20.8013 10.4934 20.7225 10.777 20.565L18.177 16.4539C18.4766 16.2875 18.6263 16.2043 18.7354 16.0859C18.8318 15.9812 18.9049 15.8572 18.9495 15.722C19 15.5692 19 15.3979 19 15.0552Z" stroke="#667085" stroke-width="2" stroke-linecap="round" stroke-linejoin="round"/>
</svg>
