<svg width="16" height="22" viewBox="0 0 16 22" fill="none" xmlns="http://www.w3.org/2000/svg">
<path d="M7.83006 9.87C5.45006 9.79 3.56006 7.84 3.56006 5.44C3.56006 2.99 5.54006 1 8.00006 1C10.4501 1 12.4401 2.99 12.4401 5.44C12.4301 7.84 10.5401 9.79 8.16006 9.87C8.06006 9.86 7.94006 9.86 7.83006 9.87Z" stroke="#667085" stroke-width="1.5" stroke-linecap="round" stroke-linejoin="round"/>
<path d="M3.15973 19.43C5.90973 21.27 10.4197 21.27 13.1697 19.43C15.5897 17.81 15.5897 15.17 13.1697 13.56C10.4297 11.73 5.91973 11.73 3.15973 13.56C0.739727 15.18 0.739727 17.82 3.15973 19.43Z" stroke="#667085" stroke-width="1.5" stroke-linecap="round" stroke-linejoin="round"/>
</svg>
