<svg width="143" height="60" viewBox="0 0 143 60" fill="none" xmlns="http://www.w3.org/2000/svg">
<path d="M59.8351 48.9368H55.7588V39.4677C55.7588 38.3689 55.5861 37.5968 55.2367 37.1434C54.8311 36.6123 54.1203 36.3509 53.0962 36.3509C52.0721 36.3509 51.317 36.694 50.7668 37.3803C50.2166 38.0666 49.9435 38.9285 49.9435 39.9702V48.9409H45.8672V27.7927H49.9435V35.3214C50.2528 34.6352 50.8311 34.0878 51.6785 33.6752C52.5259 33.2626 53.4616 33.0583 54.4817 33.0583C55.9476 33.0583 57.1725 33.4505 58.1524 34.2348C59.2689 35.1376 59.8311 36.4203 59.8311 38.087V48.9409L59.8351 48.9368Z" fill="#1AA998"/>
<path d="M75.2206 49.8192C75.2206 51.8984 74.4896 53.5651 73.0238 54.8192C71.6744 55.9385 70.0559 56.4941 68.1643 56.4941C66.2728 56.4941 64.7506 55.9385 63.4816 54.8356C62.0759 53.5896 61.3691 51.8984 61.3691 49.762H65.1442C65.1442 50.7628 65.4334 51.5471 66.0077 52.1149C66.5057 52.6256 67.1402 52.8788 67.9113 52.8788C68.7587 52.8788 69.4977 52.5888 70.1322 52.0046C70.8029 51.3429 71.1402 50.4768 71.1402 49.4107V47.0005C70.8511 47.7072 70.329 48.2546 69.5699 48.6468C68.8109 49.0389 67.9595 49.235 67.0197 49.235C65.5217 49.235 64.2406 48.7856 63.1844 47.8829C61.9715 46.8453 61.3691 45.4114 61.3691 43.5895V33.2667H65.4454V42.9727C65.4454 44.9131 66.3089 45.8853 68.0358 45.8853C68.9555 45.8853 69.7025 45.6116 70.2808 45.0601C70.8551 44.5127 71.1442 43.8142 71.1442 42.9727V33.2667H75.2206V49.8273V49.8192Z" fill="#1AA998"/>
<path d="M91.3853 49.8192C91.3853 51.8984 90.5861 53.5651 88.9837 54.8192C87.5178 55.9385 85.7548 56.4941 83.6905 56.4941C81.6262 56.4941 79.9596 55.9385 78.574 54.8356C77.0319 53.5896 76.2608 51.8984 76.2608 49.762H80.0399C80.0399 50.7628 80.3853 51.5471 81.076 52.1149C81.6905 52.6256 82.4696 52.8788 83.4134 52.8788C84.4335 52.8788 85.317 52.5888 86.068 52.0046C86.8953 51.3429 87.309 50.4768 87.309 49.4107V47.0005C87.0198 47.7072 86.4897 48.2546 85.7226 48.6468C84.9516 49.0389 84.0801 49.235 83.0961 49.235C81.5178 49.235 80.1363 48.7856 78.9435 47.8829C77.578 46.8453 76.7788 45.4114 76.5499 43.5895C76.3772 42.2169 76.2889 41.1957 76.2889 40.5298C76.2889 39.1777 76.578 37.8746 77.1523 36.6164C77.6905 35.4399 78.5017 34.5085 79.5901 33.8222C80.6744 33.136 81.807 32.7928 82.9797 32.7928C84.8632 32.7928 86.2769 33.5976 87.2206 35.203C87.2407 35.203 87.2608 35.2111 87.2769 35.2316V33.2626H91.3813V49.8232L91.3853 49.8192ZM87.3933 41.4653C87.3933 38.0952 86.2528 36.408 83.9676 36.408C81.6825 36.408 80.5138 38.0175 80.5138 41.2325C80.5138 42.7439 80.8793 43.9367 81.6062 44.8191C82.2407 45.6034 83.0279 45.9956 83.9676 45.9956C84.9074 45.9956 85.6745 45.6116 86.3291 44.8477C87.0399 44.0062 87.3933 42.8787 87.3933 41.4653Z" fill="#1AA998"/>
<path d="M96.9636 31.408H92.8873V27.5558H96.9636V31.408ZM96.9636 48.9368H92.8873V33.2585H96.9636V48.9368Z" fill="#1AA998"/>
<path d="M111.393 48.9368H98.0921V45.7382L105.988 36.6123H98.6423V33.2585H111.132V36.6491L103.325 45.583H111.393V48.9368Z" fill="#1AA998"/>
<path d="M127.759 41.114C127.759 43.6058 127.056 45.5993 125.646 47.0985C124.241 48.5977 122.329 49.3494 119.92 49.3494C117.51 49.3494 115.538 48.5896 114.12 47.0699C112.703 45.5503 111.996 43.565 111.996 41.114C111.996 38.663 112.699 36.6491 114.108 35.1294C115.514 33.6098 117.454 32.85 119.92 32.85C122.385 32.85 124.325 33.6261 125.731 35.1744C127.08 36.6858 127.755 38.663 127.755 41.114H127.759ZM123.622 41.114C123.622 37.9358 122.389 36.3508 119.92 36.3508C117.45 36.3508 116.189 37.9399 116.189 41.114C116.189 44.288 117.434 45.8771 119.92 45.8771C122.405 45.8771 123.622 44.288 123.622 41.114Z" fill="#1AA998"/>
<path d="M143 48.9368H138.924V39.4677C138.924 38.3689 138.759 37.5968 138.434 37.1433C138.028 36.6123 137.305 36.3508 136.265 36.3508C134.165 36.3508 133.112 37.5559 133.112 39.9702V48.9409H129.036V33.2626H132.94V34.7332C132.94 35.301 132.948 35.587 132.968 35.587C132.968 35.5665 132.976 35.5584 132.996 35.5584C133.478 34.6964 134.169 34.0224 135.064 33.5444C135.96 33.0665 136.912 32.8255 137.912 32.8255C139.956 32.8255 141.438 33.6384 142.365 35.2683C142.791 36.0526 143 36.9922 143 38.0911V48.945V48.9368Z" fill="#1AA998"/>
<path d="M25.3208 21.0852C24.61 21.175 23.9473 20.7869 23.6461 20.166C23.5698 20.0067 20.5176 4.43054 20.4051 3.53184C20.2164 2.01221 21.2766 0.623307 22.7746 0.431311C24.2726 0.239315 25.634 1.31776 25.8228 2.84147C25.9353 3.74426 26.7586 19.5982 26.7224 19.7739C26.5859 20.452 26.0357 20.9994 25.3208 21.0892V21.0852Z" fill="#DFB64B"/>
<path d="M37.7948 21.0566C37.835 20.9054 42.5378 11.9388 42.9675 11.2811C43.6904 10.1741 45.1603 9.87586 46.2447 10.6112C47.333 11.3465 47.6262 12.8416 46.9033 13.9445C46.4736 14.5981 40.1523 22.47 40.0318 22.5639C39.5619 22.9275 38.8993 22.9724 38.3812 22.6211C37.8631 22.2698 37.6462 21.6325 37.7948 21.0525V21.0566Z" fill="#DFB64B"/>
<path d="M0.714336 25.2437C1.87097 23.7322 4.01154 23.4585 5.5015 24.635C6.38102 25.3336 14.7104 33.7242 14.8308 33.908C15.2967 34.6311 15.2887 35.6074 14.7345 36.3304C14.1843 37.0494 13.2606 37.3027 12.4573 37.0208C12.2485 36.9473 2.19627 30.8075 1.31675 30.113C-0.169202 28.9365 -0.438279 26.7592 0.718352 25.2437H0.714336Z" fill="#DFB64B"/>
<path d="M33.843 20.7461C33.4936 21.3425 32.8029 21.6734 32.0961 21.5263C31.3932 21.3752 30.8912 20.7869 30.8069 20.1007C30.7868 19.9209 32.6141 5.54575 32.7948 4.65522C33.1041 3.15602 34.5539 2.19604 36.0278 2.51059C37.5017 2.82513 38.4455 4.29982 38.1362 5.79902C37.9515 6.68956 33.9274 20.5909 33.839 20.7461H33.843Z" fill="#DFB64B"/>
<path d="M18.859 23.2134C18.2125 23.5362 17.4614 23.385 16.9795 22.8989C16.855 22.7723 9.5819 10.3089 9.18833 9.49595C8.52166 8.1193 9.07989 6.4567 10.4333 5.78267C11.7867 5.10456 13.4213 5.67238 14.0879 7.04903C14.4815 7.86603 19.7426 21.3384 19.7627 21.5141C19.847 22.2004 19.5056 22.8948 18.859 23.2175V23.2134Z" fill="#DFB64B"/>
<path d="M30.5485 29.2428C30.7253 29.2428 30.902 29.2467 31.0866 29.2582C35.7529 29.5586 38.2588 33.5909 38.4984 33.9915C40.1795 37.2574 39.7278 41.1895 37.3633 43.9586C35.5918 46.0306 32.972 47.186 30.2578 47.186C29.5273 47.186 28.7849 47.1013 28.0543 46.928C29.0677 49.9936 30.0811 53.0592 31.0945 56.1248C30.4817 55.9015 22.0723 52.6587 20.4422 44.5016C20.3126 43.8585 19.0243 36.8145 23.7298 32.3354C24.5154 31.5883 26.9428 29.239 30.5485 29.239M30.3678 41.4553C32.0529 41.4553 33.4237 40.115 33.4237 38.459C33.4237 36.8029 32.0568 35.4627 30.3678 35.4627C28.6789 35.4627 27.312 36.8029 27.312 38.459C27.312 40.115 28.6789 41.4553 30.3678 41.4553ZM30.5485 25.7728C27.2295 25.7728 24.1147 27.1362 21.2906 29.8244L21.2671 29.8475C15.2614 35.5628 16.7775 44.2012 16.97 45.1679C18.9536 55.1081 28.7417 58.9632 29.8494 59.3715C30.2539 59.5178 30.6703 59.591 31.0866 59.591C31.9822 59.591 32.862 59.2559 33.5297 58.6282C34.5117 57.7077 34.8691 56.3213 34.4488 55.0542L32.9052 50.3787C35.69 49.8087 38.2117 48.3452 40.0617 46.1808C43.3493 42.3372 43.9699 36.9377 41.6446 32.424C41.6093 32.3585 41.5739 32.2931 41.5386 32.2314C40.9376 31.2262 37.6186 26.2003 31.3105 25.7959C31.0552 25.7805 30.796 25.7728 30.5446 25.7728H30.5485Z" fill="#1AA998"/>
</svg>
