<svg width="4" height="16" viewBox="0 0 4 16" fill="none" xmlns="http://www.w3.org/2000/svg">
<path d="M2.07552 8.83594C2.53576 8.83594 2.90885 8.46284 2.90885 8.0026C2.90885 7.54237 2.53576 7.16927 2.07552 7.16927C1.61528 7.16927 1.24219 7.54237 1.24219 8.0026C1.24219 8.46284 1.61528 8.83594 2.07552 8.83594Z" stroke="#98A2B3" stroke-width="1.66667" stroke-linecap="round" stroke-linejoin="round"/>
<path d="M2.07552 3.0026C2.53576 3.0026 2.90885 2.62951 2.90885 2.16927C2.90885 1.70903 2.53576 1.33594 2.07552 1.33594C1.61528 1.33594 1.24219 1.70903 1.24219 2.16927C1.24219 2.62951 1.61528 3.0026 2.07552 3.0026Z" stroke="#98A2B3" stroke-width="1.66667" stroke-linecap="round" stroke-linejoin="round"/>
<path d="M2.07552 14.6693C2.53576 14.6693 2.90885 14.2962 2.90885 13.8359C2.90885 13.3757 2.53576 13.0026 2.07552 13.0026C1.61528 13.0026 1.24219 13.3757 1.24219 13.8359C1.24219 14.2962 1.61528 14.6693 2.07552 14.6693Z" stroke="#98A2B3" stroke-width="1.66667" stroke-linecap="round" stroke-linejoin="round"/>
</svg>
