<svg width="18" height="20" viewBox="0 0 18 20" fill="none" xmlns="http://www.w3.org/2000/svg">
<path d="M16.5 8.33073H1.5M12.3333 1.66406V4.9974M5.66667 1.66406V4.9974M5.5 18.3307H12.5C13.9001 18.3307 14.6002 18.3307 15.135 18.0582C15.6054 17.8186 15.9878 17.4361 16.2275 16.9657C16.5 16.4309 16.5 15.7309 16.5 14.3307V7.33073C16.5 5.9306 16.5 5.23053 16.2275 4.69575C15.9878 4.22535 15.6054 3.8429 15.135 3.60321C14.6002 3.33073 13.9001 3.33073 12.5 3.33073H5.5C4.09987 3.33073 3.3998 3.33073 2.86502 3.60321C2.39462 3.8429 2.01217 4.22535 1.77248 4.69575C1.5 5.23053 1.5 5.9306 1.5 7.33073V14.3307C1.5 15.7309 1.5 16.4309 1.77248 16.9657C2.01217 17.4361 2.39462 17.8186 2.86502 18.0582C3.3998 18.3307 4.09987 18.3307 5.5 18.3307Z" stroke="#667085" stroke-width="1.66667" stroke-linecap="round" stroke-linejoin="round"/>
</svg>
