<svg width="20" height="20" viewBox="0 0 20 20" fill="none" xmlns="http://www.w3.org/2000/svg">
<path d="M7.34089 1.66406L4.32422 4.68906" stroke="#101828" stroke-width="1.5" stroke-miterlimit="10" stroke-linecap="round" stroke-linejoin="round"/>
<path d="M12.6602 1.66406L15.6768 4.68906" stroke="#101828" stroke-width="1.5" stroke-miterlimit="10" stroke-linecap="round" stroke-linejoin="round"/>
<path d="M1.66797 6.54167C1.66797 5 2.49297 4.875 3.51797 4.875H16.4846C17.5096 4.875 18.3346 5 18.3346 6.54167C18.3346 8.33333 17.5096 8.20833 16.4846 8.20833H3.51797C2.49297 8.20833 1.66797 8.33333 1.66797 6.54167Z" stroke="#101828" stroke-width="1.5"/>
<path d="M8.13281 11.6641V14.6224" stroke="#101828" stroke-width="1.5" stroke-linecap="round"/>
<path d="M11.9648 11.6641V14.6224" stroke="#101828" stroke-width="1.5" stroke-linecap="round"/>
<path d="M2.91797 8.33594L4.09297 15.5359C4.35964 17.1526 5.0013 18.3359 7.38464 18.3359H12.4096C15.0013 18.3359 15.3846 17.2026 15.6846 15.6359L17.0846 8.33594" stroke="#101828" stroke-width="1.5" stroke-linecap="round"/>
</svg>
