<svg width="17" height="20" viewBox="0 0 17 20" fill="none" xmlns="http://www.w3.org/2000/svg">
<path d="M11.8333 4.9974V4.33073C11.8333 3.39731 11.8333 2.9306 11.6517 2.57408C11.4919 2.26047 11.2369 2.00551 10.9233 1.84572C10.5668 1.66406 10.1001 1.66406 9.16667 1.66406H7.83333C6.89991 1.66406 6.4332 1.66406 6.07668 1.84572C5.76308 2.00551 5.50811 2.26047 5.34832 2.57408C5.16667 2.9306 5.16667 3.39731 5.16667 4.33073V4.9974M6.83333 9.58073V13.7474M10.1667 9.58073V13.7474M1 4.9974H16M14.3333 4.9974V14.3307C14.3333 15.7309 14.3333 16.4309 14.0608 16.9657C13.8212 17.4361 13.4387 17.8186 12.9683 18.0582C12.4335 18.3307 11.7335 18.3307 10.3333 18.3307H6.66667C5.26654 18.3307 4.56647 18.3307 4.03169 18.0582C3.56129 17.8186 3.17883 17.4361 2.93915 16.9657C2.66667 16.4309 2.66667 15.7309 2.66667 14.3307V4.9974" stroke="#475467" stroke-width="1.66667" stroke-linecap="round" stroke-linejoin="round"/>
</svg>
