<svg width="30" height="30" viewBox="0 0 30 30" fill="none" xmlns="http://www.w3.org/2000/svg">
<path d="M28.3346 10.9994V18.9994C28.3346 22.3327 27.668 24.666 26.1746 26.1727L17.668 17.666L27.9747 7.35938C28.2147 8.41271 28.3346 9.6127 28.3346 10.9994Z" stroke="#344054" stroke-width="1.5" stroke-linecap="round" stroke-linejoin="round"/>
<path d="M27.9747 7.3574L7.36129 27.9707C3.34795 27.0507 1.66797 24.2774 1.66797 18.9974V10.9974C1.66797 4.33073 4.33464 1.66406 11.0013 1.66406H19.0013C24.2813 1.66406 27.0547 3.34407 27.9747 7.3574Z" stroke="#344054" stroke-width="1.5" stroke-linecap="round" stroke-linejoin="round"/>
<path d="M26.1727 26.1707C24.6661 27.6641 22.3327 28.3307 18.9994 28.3307H10.9994C9.61272 28.3307 8.41271 28.2107 7.35938 27.9707L17.6661 17.6641L26.1727 26.1707Z" stroke="#344054" stroke-width="1.5" stroke-linecap="round" stroke-linejoin="round"/>
<path d="M7.32035 9.64094C8.22702 5.73427 14.0937 5.73427 15.0004 9.64094C15.5204 11.9343 14.0803 13.8809 12.8137 15.0809C11.8937 15.9609 10.4404 15.9609 9.50704 15.0809C8.24037 13.8809 6.78702 11.9343 7.32035 9.64094Z" stroke="#344054" stroke-width="1.5"/>
<path d="M11.1281 10.5964H11.1401" stroke="#344054" stroke-width="2" stroke-linecap="round" stroke-linejoin="round"/>
</svg>
