<svg width="16" height="20" viewBox="0 0 16 20" fill="none" xmlns="http://www.w3.org/2000/svg">
<path d="M8.01747 2.42188C5.25914 2.42188 3.01747 4.66354 3.01747 7.42187V9.83021C3.01747 10.3385 2.80081 11.1135 2.54247 11.5469L1.58414 13.1385C0.992472 14.1219 1.40081 15.2135 2.48414 15.5802C6.07581 16.7802 9.95081 16.7802 13.5425 15.5802C14.5508 15.2469 14.9925 14.0552 14.4425 13.1385L13.4841 11.5469C13.2341 11.1135 13.0175 10.3385 13.0175 9.83021V7.42187C13.0175 4.67187 10.7675 2.42188 8.01747 2.42188Z" stroke="#101828" stroke-width="1.5" stroke-miterlimit="10" stroke-linecap="round"/>
<path d="M9.5599 2.66719C9.30156 2.59219 9.0349 2.53385 8.7599 2.50052C7.9599 2.40052 7.19323 2.45885 6.47656 2.66719C6.71823 2.05052 7.31823 1.61719 8.01823 1.61719C8.71823 1.61719 9.31823 2.05052 9.5599 2.66719Z" stroke="#101828" stroke-width="1.5" stroke-miterlimit="10" stroke-linecap="round" stroke-linejoin="round"/>
<path d="M10.5156 15.8828C10.5156 17.2578 9.39063 18.3828 8.01563 18.3828C7.33229 18.3828 6.69896 18.0995 6.24896 17.6495C5.79896 17.1995 5.51562 16.5661 5.51562 15.8828" stroke="#101828" stroke-width="1.5" stroke-miterlimit="10"/>
</svg>
