<svg width="25" height="24" viewBox="0 0 25 24" fill="none" xmlns="http://www.w3.org/2000/svg">
<g clip-path="url(#clip0_6529_66076)">
<path d="M0.667969 12C0.667969 5.37258 6.04055 0 12.668 0C19.2954 0 24.668 5.37258 24.668 12C24.668 18.6274 19.2954 24 12.668 24C6.04055 24 0.667969 18.6274 0.667969 12Z" fill="#E8F6F5"/>
<path d="M1.41797 12C1.41797 5.7868 6.45477 0.75 12.668 0.75C18.8812 0.75 23.918 5.7868 23.918 12C23.918 18.2132 18.8812 23.25 12.668 23.25C6.45477 23.25 1.41797 18.2132 1.41797 12Z" fill="#189A8A"/>
<path d="M1.41797 12C1.41797 5.7868 6.45477 0.75 12.668 0.75C18.8812 0.75 23.918 5.7868 23.918 12C23.918 18.2132 18.8812 23.25 12.668 23.25C6.45477 23.25 1.41797 18.2132 1.41797 12Z" stroke="#189A8A" stroke-width="1.5"/>
<path fill-rule="evenodd" clip-rule="evenodd" d="M17.7659 7.39162L10.6059 14.3016L8.70594 12.2716C8.35594 11.9416 7.80594 11.9216 7.40594 12.2016C7.01594 12.4916 6.90594 13.0016 7.14594 13.4116L9.39594 17.0716C9.61594 17.4116 9.99594 17.6216 10.4259 17.6216C10.8359 17.6216 11.2259 17.4116 11.4459 17.0716C11.8059 16.6016 18.6759 8.41162 18.6759 8.41162C19.5759 7.49162 18.4859 6.68162 17.7659 7.38162V7.39162Z" fill="white"/>
</g>
<defs>
<clipPath id="clip0_6529_66076">
<path d="M0.667969 12C0.667969 5.37258 6.04055 0 12.668 0C19.2954 0 24.668 5.37258 24.668 12C24.668 18.6274 19.2954 24 12.668 24C6.04055 24 0.667969 18.6274 0.667969 12Z" fill="white"/>
</clipPath>
</defs>
</svg>
