<svg width="25" height="24" viewBox="0 0 25 24" fill="none" xmlns="http://www.w3.org/2000/svg">
<g clip-path="url(#clip0_6529_72887)">
<path d="M0.335938 12C0.335938 5.37258 5.70852 0 12.3359 0C18.9634 0 24.3359 5.37258 24.3359 12C24.3359 18.6274 18.9634 24 12.3359 24C5.70852 24 0.335938 18.6274 0.335938 12Z" fill="#F9FAFB"/>
<path d="M1.08594 12C1.08594 5.7868 6.12273 0.75 12.3359 0.75C18.5491 0.75 23.5859 5.7868 23.5859 12C23.5859 18.2132 18.5491 23.25 12.3359 23.25C6.12273 23.25 1.08594 18.2132 1.08594 12Z" stroke="#EAECF0" stroke-width="1.5"/>
<circle cx="12.3359" cy="12" r="4" fill="#D0D5DD"/>
</g>
<defs>
<clipPath id="clip0_6529_72887">
<path d="M0.335938 12C0.335938 5.37258 5.70852 0 12.3359 0C18.9634 0 24.3359 5.37258 24.3359 12C24.3359 18.6274 18.9634 24 12.3359 24C5.70852 24 0.335938 18.6274 0.335938 12Z" fill="white"/>
</clipPath>
</defs>
</svg>
