<svg width="101" height="52" viewBox="0 0 101 52" fill="none" xmlns="http://www.w3.org/2000/svg">
<mask id="mask0_6253_77684" style="mask-type:alpha" maskUnits="userSpaceOnUse" x="1" y="1" width="99" height="50">
<rect width="99" height="50" transform="translate(1 1)" fill="url(#paint0_linear_6253_77684)"/>
</mask>
<g mask="url(#mask0_6253_77684)">
<path opacity="0.2" d="M4.5625 44.9655L1 51H100V1L98.5938 9.62069H96.7188C96.2188 11.0575 95.1812 13.931 95.0312 13.931C94.8812 13.931 93.9063 15.6552 93.4375 16.5172L89.4062 19.1034L87.0625 22.5517L83.3125 19.1034L81.3438 16.5172L78.5312 22.5517H75.625L73.1875 16.5172C72.25 15.6552 70.3375 13.931 70.1875 13.931C70.0375 13.931 68.8125 12.2069 68.2188 11.3448H66.7188L63.1563 13.931L60.0625 16.5172L58.6562 22.5517L54.4375 25.1379L52.2812 27.7241L49.8438 32.0345L47.5 37.6918H46.4687L43.6563 38.2306L40.9375 32.0345L38.5938 27.7241H37.1875L34.75 25.1379L31.2812 27.7241H28L24.7188 32.0345L21.4375 37.2069L19 42.3793L16.375 44.9655L12.8125 42.3793L10 44.9655L7.1875 47.5517L4.5625 44.9655Z" fill="#079455"/>
</g>
<path d="M1 51L4.5625 44.9655L7.1875 47.5517L10 44.9655L12.8125 42.3793L16.375 44.9655L19 42.3793L21.4375 37.2069L24.7188 32.0345L28 27.7241H31.2813L34.75 25.1379L37.1875 27.7241H38.5937L40.9375 32.0345L43.6563 38.2306L46.4687 37.6918H47.5L49.8438 32.0345L52.2813 27.7241L54.4375 25.1379L58.6563 22.5517L60.0625 16.5172L63.1563 13.931L66.7187 11.3448H68.2188C68.8125 12.2069 70.0375 13.931 70.1875 13.931C70.3375 13.931 72.25 15.6552 73.1875 16.5172L75.625 22.5517H78.5312L81.3438 16.5172L83.3125 19.1034L87.0625 22.5517L89.4063 19.1034L93.4375 16.5172C93.9063 15.6552 94.8812 13.931 95.0312 13.931C95.1812 13.931 96.2188 11.0575 96.7188 9.62069H98.5938L100 1" stroke="#17B26A" stroke-width="2" stroke-linecap="round" stroke-linejoin="round"/>
<g opacity="0.2">
<rect x="59.2344" y="4.34375" width="15.0156" height="15.1875" rx="7.50781" stroke="#17B26A" stroke-width="2"/>
</g>
<rect x="63.1016" y="8.25" width="7.28125" height="7.375" rx="3.64062" fill="white"/>
<rect x="63.1016" y="8.25" width="7.28125" height="7.375" rx="3.64062" stroke="#17B26A" stroke-width="2"/>
<defs>
<linearGradient id="paint0_linear_6253_77684" x1="49.5" y1="0" x2="49.5" y2="50" gradientUnits="userSpaceOnUse">
<stop/>
<stop offset="1" stop-opacity="0"/>
</linearGradient>
</defs>
</svg>
