<svg width="100" height="50" viewBox="0 0 100 50" fill="none" xmlns="http://www.w3.org/2000/svg">
<g clip-path="url(#clip0_6253_77673)">
<mask id="mask0_6253_77673" style="mask-type:alpha" maskUnits="userSpaceOnUse" x="0" y="0" width="100" height="50">
<rect width="100" height="50" fill="url(#paint0_linear_6253_77673)"/>
</mask>
<g mask="url(#mask0_6253_77673)">
<path opacity="0.2" d="M3.59849 43.9655L0 50H100V0L98.5796 8.62069H96.6856C96.1806 10.0575 95.1326 12.931 94.9811 12.931C94.8295 12.931 93.8447 14.6552 93.3712 15.5172L89.2992 18.1034L86.9318 21.5517L83.1439 18.1034L81.1553 15.5172L78.3144 21.5517H75.3788L72.9167 15.5172C71.9697 14.6552 70.0379 12.931 69.8864 12.931C69.7348 12.931 68.4975 11.2069 67.8977 10.3448H66.3826L62.7841 12.931L59.6591 15.5172L58.2386 21.5517L53.9773 24.1379L51.7992 26.7241L49.3371 31.0345L46.9697 36.6918H45.928L43.0871 37.2306L40.3409 31.0345L37.9735 26.7241H36.553L34.0909 24.1379L30.5871 26.7241H27.2727L23.9583 31.0345L20.6439 36.2069L18.1818 41.3793L15.5303 43.9655L11.9318 41.3793L9.09091 43.9655L6.25 46.5517L3.59849 43.9655Z" fill="#079455"/>
</g>
<path d="M0 50L3.59849 43.9655L6.25 46.5517L9.09091 43.9655L11.9318 41.3793L15.5303 43.9655L18.1818 41.3793L20.6439 36.2069L23.9583 31.0345L27.2727 26.7241H30.5871L34.0909 24.1379L36.553 26.7241H37.9735L40.3409 31.0345L43.0871 37.2306L45.928 36.6918H46.9697L49.3371 31.0345L51.7992 26.7241L53.9773 24.1379L58.2386 21.5517L59.6591 15.5172L62.7841 12.931L66.3826 10.3448H67.8977C68.4975 11.2069 69.7348 12.931 69.8864 12.931C70.0379 12.931 71.9697 14.6552 72.9167 15.5172L75.3788 21.5517H78.3144L81.1553 15.5172L83.1439 18.1034L86.9318 21.5517L89.2992 18.1034L93.3712 15.5172C93.8447 14.6552 94.8295 12.931 94.9811 12.931C95.1326 12.931 96.1806 10.0575 96.6856 8.62069H98.5795L100 0" stroke="#17B26A" stroke-width="2" stroke-linecap="round" stroke-linejoin="round"/>
<g opacity="0.2">
<rect x="58.8125" y="3.34375" width="15.1875" height="15.1875" rx="7.59375" stroke="#17B26A" stroke-width="2"/>
</g>
<rect x="62.7188" y="7.25" width="7.375" height="7.375" rx="3.6875" fill="white"/>
<rect x="62.7188" y="7.25" width="7.375" height="7.375" rx="3.6875" stroke="#17B26A" stroke-width="2"/>
</g>
<defs>
<linearGradient id="paint0_linear_6253_77673" x1="50" y1="0" x2="50" y2="50" gradientUnits="userSpaceOnUse">
<stop/>
<stop offset="1" stop-opacity="0"/>
</linearGradient>
<clipPath id="clip0_6253_77673">
<rect width="100" height="50" fill="white"/>
</clipPath>
</defs>
</svg>
