<svg width="16" height="20" viewBox="0 0 16 20" fill="none" xmlns="http://www.w3.org/2000/svg">
<path d="M8.01662 2.42188C5.25828 2.42188 3.01662 4.66354 3.01662 7.42187V9.83021C3.01662 10.3385 2.79995 11.1135 2.54162 11.5469L1.58328 13.1385C0.991618 14.1219 1.39995 15.2135 2.48328 15.5802C6.07495 16.7802 9.94995 16.7802 13.5416 15.5802C14.55 15.2469 14.9916 14.0552 14.4416 13.1385L13.4833 11.5469C13.2333 11.1135 13.0166 10.3385 13.0166 9.83021V7.42187C13.0166 4.67187 10.7666 2.42188 8.01662 2.42188Z" stroke="#101828" stroke-width="1.5" stroke-miterlimit="10" stroke-linecap="round"/>
<path d="M9.55831 2.66719C9.29998 2.59219 9.03331 2.53385 8.75831 2.50052C7.95831 2.40052 7.19164 2.45885 6.47498 2.66719C6.71664 2.05052 7.31664 1.61719 8.01664 1.61719C8.71664 1.61719 9.31664 2.05052 9.55831 2.66719Z" stroke="#101828" stroke-width="1.5" stroke-miterlimit="10" stroke-linecap="round" stroke-linejoin="round"/>
<path d="M10.5167 15.8828C10.5167 17.2578 9.39172 18.3828 8.01672 18.3828C7.33339 18.3828 6.70006 18.0995 6.25006 17.6495C5.80006 17.1995 5.51672 16.5661 5.51672 15.8828" stroke="#101828" stroke-width="1.5" stroke-miterlimit="10"/>
</svg>
