<svg width="52" height="51" viewBox="0 0 52 51" fill="none" xmlns="http://www.w3.org/2000/svg">
<path d="M10.5874 8.23522C11.7309 3.96749 16.1176 1.43483 20.3854 2.57836L43.5676 8.79002C47.8353 9.93356 50.368 14.3203 49.2244 18.588L43.0128 41.7702C41.8692 46.0379 37.4826 48.5706 33.2148 47.4271L10.0326 41.2154C5.76487 40.0719 3.23222 35.6852 4.37575 31.4174L10.5874 8.23522Z" fill="#47CD89"/>
<g filter="url(#filter0_b_5402_1468)">
<path d="M0.800049 23.8C0.800049 19.3196 0.800049 17.0794 1.672 15.3681C2.43898 13.8628 3.66283 12.6389 5.16812 11.8719C6.87942 11 9.11963 11 13.6 11H28C32.4805 11 34.7207 11 36.432 11.8719C37.9373 12.6389 39.1611 13.8628 39.9281 15.3681C40.8 17.0794 40.8 19.3196 40.8 23.8V38.2C40.8 42.6804 40.8 44.9206 39.9281 46.6319C39.1611 48.1372 37.9373 49.3611 36.432 50.1281C34.7207 51 32.4805 51 28 51H13.6C9.11963 51 6.87942 51 5.16812 50.1281C3.66283 49.3611 2.43898 48.1372 1.672 46.6319C0.800049 44.9206 0.800049 42.6804 0.800049 38.2V23.8Z" fill="white" fill-opacity="0.6"/>
<path d="M1.30005 23.8C1.30005 21.5515 1.30044 19.8953 1.40738 18.5863C1.51385 17.2832 1.72343 16.3685 2.1175 15.5951C2.83655 14.1839 3.9839 13.0365 5.39512 12.3175C6.16853 11.9234 7.08328 11.7138 8.38638 11.6073C9.69531 11.5004 11.3516 11.5 13.6 11.5H28C30.2485 11.5 31.9048 11.5004 33.2137 11.6073C34.5168 11.7138 35.4316 11.9234 36.205 12.3175C37.6162 13.0365 38.7635 14.1839 39.4826 15.5951C39.8767 16.3685 40.0863 17.2832 40.1927 18.5863C40.2997 19.8953 40.3 21.5515 40.3 23.8V38.2C40.3 40.4485 40.2997 42.1047 40.1927 43.4137C40.0863 44.7168 39.8767 45.6315 39.4826 46.4049C38.7635 47.8161 37.6162 48.9635 36.205 49.6825C35.4316 50.0766 34.5168 50.2862 33.2137 50.3927C31.9048 50.4996 30.2485 50.5 28 50.5H13.6C11.3516 50.5 9.69531 50.4996 8.38638 50.3927C7.08328 50.2862 6.16853 50.0766 5.39512 49.6825C3.9839 48.9635 2.83655 47.8161 2.1175 46.4049C1.72343 45.6315 1.51385 44.7168 1.40738 43.4137C1.30044 42.1047 1.30005 40.4485 1.30005 38.2V23.8Z" stroke="white" stroke-opacity="0.6"/>
<path d="M13.4418 27.1953L20.8001 31.4536L28.1084 27.2203" stroke="white" stroke-width="1.5" stroke-linecap="round" stroke-linejoin="round"/>
<path d="M20.8 39.0037V31.4453" stroke="white" stroke-width="1.5" stroke-linecap="round" stroke-linejoin="round"/>
<path d="M19.0751 23.0641L14.6251 25.5391C13.6167 26.0974 12.7917 27.4974 12.7917 28.6474V33.3558C12.7917 34.5058 13.6167 35.9057 14.6251 36.4641L19.0751 38.9391C20.0251 39.4641 21.5834 39.4641 22.5334 38.9391L26.9834 36.4641C27.9917 35.9057 28.8167 34.5058 28.8167 33.3558V28.6474C28.8167 27.4974 27.9917 26.0974 26.9834 25.5391L22.5334 23.0641C21.5751 22.5307 20.0251 22.5307 19.0751 23.0641Z" stroke="white" stroke-width="1.5" stroke-linecap="round" stroke-linejoin="round"/>
<path d="M24.9667 32.0307V28.9808L17.0583 24.4141" stroke="white" stroke-width="1.5" stroke-linecap="round" stroke-linejoin="round"/>
</g>
<defs>
<filter id="filter0_b_5402_1468" x="-15.2" y="-5" width="72" height="72" filterUnits="userSpaceOnUse" color-interpolation-filters="sRGB">
<feFlood flood-opacity="0" result="BackgroundImageFix"/>
<feGaussianBlur in="BackgroundImageFix" stdDeviation="8"/>
<feComposite in2="SourceAlpha" operator="in" result="effect1_backgroundBlur_5402_1468"/>
<feBlend mode="normal" in="SourceGraphic" in2="effect1_backgroundBlur_5402_1468" result="shape"/>
</filter>
</defs>
</svg>
